<svg width="1016" height="897" viewBox="0 0 1016 897" fill="none" xmlns="http://www.w3.org/2000/svg">
<path d="M789.004 896.718C688.624 896.718 606.32 819.327 598.502 720.958H835.543C847.915 720.958 858.341 712.672 861.577 701.356H872.192C881.631 701.356 889.287 693.702 889.287 684.26V542.893C943.794 576.556 980.114 636.84 980.114 705.609C980.114 811.155 894.55 896.718 789.004 896.718Z" fill="#EEE7F5"/>
<path d="M154.79 572.133C85.6834 512.452 41.9392 424.182 41.9392 325.706C41.9392 145.957 187.656 0.241025 367.405 0.241025C503.192 0.241025 619.565 83.4119 668.362 201.578H181.867C166.923 201.578 154.79 213.712 154.79 228.655V572.133Z" fill="#EEE7F5"/>
<path d="M938.044 380.808L937.261 379.954C930.794 385.877 922.631 388.798 914.481 388.798C905.331 388.798 896.22 385.117 889.572 377.855C883.649 371.387 880.728 363.226 880.728 355.077C880.728 345.927 884.411 336.816 891.671 330.166C898.141 324.242 906.302 321.324 914.451 321.321C923.601 321.324 932.712 325.004 939.362 332.264C945.283 338.734 948.204 346.895 948.204 355.045C948.204 364.195 944.521 373.305 937.261 379.954L938.044 380.808L938.827 381.663C946.583 374.561 950.523 364.811 950.521 355.045C950.523 346.344 947.396 337.608 941.07 330.701C933.967 322.943 924.22 319.005 914.451 319.005C905.75 319.005 897.015 322.132 890.107 328.458C882.349 335.561 878.409 345.308 878.411 355.077C878.409 363.775 881.536 372.511 887.863 379.421C894.965 387.176 904.713 391.117 914.481 391.114C923.182 391.117 931.917 387.99 938.825 381.663L938.044 380.808ZM961.378 293.093L960.595 292.238L950.882 301.133C950.5 301.485 950.171 301.858 949.879 302.238L950.799 302.942L951.461 301.993C945.177 297.612 938.267 294.464 931.076 292.564L930.78 293.686L931.913 293.931C932.012 293.466 932.096 292.965 932.119 292.432L932.633 279.268L932.64 278.927C932.638 274.338 929.01 270.53 924.389 270.345L911.224 269.826L910.886 269.819C906.297 269.821 902.486 273.451 902.303 278.075L901.785 291.237L901.778 291.515C901.778 291.948 901.817 292.361 901.87 292.747L903.019 292.59L902.811 291.45C895.692 292.743 888.74 295.238 882.277 298.949L882.854 299.952L883.83 299.329C883.575 298.93 883.28 298.527 882.928 298.143V298.145L874.033 288.43C872.342 286.581 870.014 285.641 867.693 285.643C865.622 285.641 863.537 286.389 861.892 287.894L852.179 296.79C850.331 298.481 849.39 300.807 849.393 303.13C849.39 305.199 850.139 307.286 851.644 308.93L860.54 318.643C860.889 319.026 861.265 319.355 861.642 319.646L862.349 318.729L861.399 318.067C857.016 324.351 853.87 331.259 851.971 338.449L853.09 338.746L853.335 337.613C852.87 337.513 852.372 337.432 851.839 337.409L838.672 336.893L838.329 336.886C836.182 336.883 834.125 337.68 832.533 339.14L832.513 339.158L832.473 339.2L833.291 340.02L832.506 339.167C830.824 340.719 829.839 342.855 829.751 345.142L829.232 358.325V358.35H830.391L829.235 358.304L829.228 358.644C829.228 363.231 832.858 367.042 837.481 367.225L850.644 367.744L850.905 367.748C851.348 367.748 851.765 367.706 852.154 367.653L851.994 366.506L850.854 366.713C852.149 373.834 854.644 380.785 858.353 387.251L859.358 386.674L858.737 385.696C858.334 385.953 857.931 386.25 857.551 386.597L847.836 395.495C845.987 397.186 845.047 399.512 845.049 401.833C845.047 403.904 845.795 405.989 847.301 407.633L856.196 417.349C857.887 419.195 860.213 420.135 862.536 420.135C864.605 420.135 866.692 419.389 868.337 417.884L878.05 408.986C878.432 408.639 878.763 408.263 879.053 407.883L878.136 407.179L877.473 408.129C883.76 412.512 890.67 415.66 897.86 417.557L898.157 416.436L897.026 416.188C896.927 416.644 896.837 417.145 896.816 417.696V417.691L896.299 430.851L896.292 431.201C896.29 433.365 897.101 435.431 898.576 437.022C900.126 438.704 902.262 439.689 904.548 439.777L917.708 440.293L918.046 440.3C920.27 440.3 922.313 439.446 923.844 438.044C925.475 436.552 926.538 434.426 926.633 432.044L927.15 418.882V418.877L927.155 418.634C927.155 418.185 927.113 417.766 927.06 417.374L925.913 417.532L926.119 418.671C933.238 417.379 940.192 414.882 946.655 411.173L946.08 410.168L945.103 410.793C945.36 411.194 945.656 411.594 946.006 411.977L954.901 421.692C956.592 423.538 958.918 424.479 961.239 424.479C963.31 424.479 965.395 423.733 967.04 422.227L976.755 413.33C978.601 411.641 979.542 409.313 979.542 406.992C979.542 404.921 978.796 402.836 977.29 401.191L968.393 391.476C968.043 391.096 967.67 390.765 967.288 390.473L966.583 391.392L967.533 392.055C971.918 385.768 975.064 378.858 976.964 371.665L975.842 371.371L975.595 372.502C976.056 372.604 976.554 372.689 977.098 372.712L990.26 373.229L990.598 373.236C992.82 373.236 994.868 372.381 996.397 370.977C998.027 369.488 999.091 367.359 999.183 364.98L999.702 351.818L999.707 351.482C999.707 346.891 996.075 343.08 991.453 342.895L978.289 342.378L978.006 342.373C977.577 342.373 977.167 342.41 976.781 342.461L976.936 343.61L978.076 343.404C976.783 336.286 974.288 329.334 970.579 322.871L969.574 323.448L970.197 324.423C970.598 324.168 971.001 323.874 971.383 323.522L981.098 314.627C982.945 312.936 983.888 310.61 983.885 308.286C983.885 306.218 983.139 304.131 981.634 302.488L972.736 292.773C971.045 290.924 968.719 289.984 966.396 289.986C964.327 289.984 962.24 290.732 960.595 292.238L961.378 293.093L962.161 293.947C963.366 292.845 964.879 292.303 966.396 292.303C968.103 292.303 969.792 292.986 971.026 294.337L979.924 304.052C981.027 305.256 981.566 306.767 981.569 308.286C981.566 309.991 980.885 311.68 979.533 312.917L969.82 321.815C969.555 322.056 969.266 322.271 968.951 322.473L968.02 323.066L968.569 324.025C972.145 330.254 974.55 336.953 975.796 343.817L975.993 344.905L977.089 344.759C977.408 344.715 977.714 344.69 978.006 344.69L978.196 344.692L991.361 345.209C994.731 345.339 997.393 348.135 997.39 351.482L997.386 351.727L996.869 364.89C996.8 366.632 996.028 368.174 994.833 369.268C993.709 370.299 992.222 370.919 990.598 370.919L990.35 370.915L977.188 370.396C976.839 370.382 976.477 370.324 976.09 370.238L975.006 370.002L974.724 371.075C972.894 378.01 969.859 384.67 965.634 390.73L964.999 391.638L965.879 392.312C966.171 392.537 966.44 392.775 966.685 393.042L975.581 402.755C976.683 403.959 977.223 405.472 977.225 406.992C977.223 408.697 976.542 410.385 975.189 411.622L965.476 420.518C964.272 421.62 962.759 422.16 961.239 422.162C959.534 422.16 957.846 421.479 956.609 420.128L947.713 410.413C947.472 410.149 947.255 409.857 947.056 409.544L946.46 408.615L945.503 409.165C939.272 412.739 932.571 415.146 925.705 416.392L924.613 416.589L924.764 417.687C924.81 418.018 924.838 418.331 924.838 418.634L924.836 418.796V418.792L924.317 431.954C924.25 433.696 923.476 435.239 922.281 436.334C921.155 437.363 919.67 437.984 918.046 437.984L917.798 437.979L904.638 437.463C902.957 437.393 901.419 436.687 900.277 435.452C899.192 434.275 898.609 432.788 898.609 431.201L898.613 430.944L899.132 417.782V417.777C899.144 417.434 899.202 417.073 899.287 416.686L899.526 415.6L898.453 415.317C891.518 413.487 884.858 410.452 878.796 406.229L877.89 405.597L877.216 406.473C876.991 406.767 876.75 407.036 876.486 407.277L866.771 416.174C865.566 417.277 864.054 417.817 862.536 417.819C860.832 417.817 859.143 417.135 857.906 415.785L849.01 406.07C847.908 404.865 847.366 403.352 847.366 401.833C847.366 400.128 848.049 398.441 849.4 397.202L859.113 388.307C859.377 388.066 859.669 387.851 859.979 387.651L860.913 387.058L860.364 386.097C856.787 379.866 854.382 373.166 853.134 366.298L852.937 365.207L851.837 365.358C851.512 365.404 851.202 365.432 850.905 365.432L850.734 365.429L837.572 364.91C834.201 364.781 831.542 361.987 831.544 358.644L831.549 358.394V358.371V358.369L832.065 345.232C832.133 343.548 832.841 342.014 834.076 340.87L834.095 340.854L834.134 340.812L833.316 339.994L834.099 340.849C835.271 339.777 836.749 339.204 838.329 339.202L838.582 339.207L851.746 339.723C852.098 339.737 852.464 339.795 852.844 339.879L853.926 340.113L854.209 339.042C856.041 332.109 859.076 325.449 863.299 319.392L863.931 318.484L863.055 317.809C862.759 317.582 862.49 317.344 862.249 317.08L853.354 307.364C852.251 306.16 851.709 304.647 851.709 303.13C851.709 301.425 852.393 299.736 853.743 298.499L863.456 289.604C864.661 288.501 866.173 287.959 867.693 287.959C869.398 287.959 871.087 288.643 872.324 289.993L881.221 299.709L881.223 299.711C881.462 299.97 881.675 300.26 881.877 300.577L882.472 301.506L883.429 300.957C889.66 297.383 896.359 294.976 903.225 293.73L904.316 293.53L904.166 292.432C904.122 292.113 904.094 291.807 904.094 291.515L904.099 291.332L904.618 278.168C904.747 274.795 907.541 272.135 910.886 272.135L911.134 272.142L924.296 272.659C927.667 272.789 930.326 275.585 930.324 278.927L930.319 279.178L929.805 292.34V292.337C929.788 292.69 929.733 293.053 929.649 293.438L929.413 294.522L930.483 294.804C937.419 296.637 944.079 299.669 950.136 303.892L951.042 304.527L951.716 303.649C951.941 303.355 952.182 303.086 952.446 302.843L962.161 293.947L961.378 293.093Z" fill="#212C5A"/>
<path d="M77.0609 440.986H65.6531C64.7076 440.986 63.9401 440.219 63.9401 439.274C63.9401 438.329 64.7076 437.562 65.6531 437.562H77.0609C78.0055 437.562 78.7718 438.329 78.7718 439.274C78.7718 440.219 78.0055 440.986 77.0609 440.986ZM99.8791 440.986H88.4695C87.5249 440.986 86.7584 440.219 86.7584 439.274C86.7584 438.329 87.5249 437.562 88.4695 437.562H99.8791C100.823 437.562 101.589 438.329 101.589 439.274C101.589 440.219 100.823 440.986 99.8791 440.986ZM122.696 440.986H111.287C110.342 440.986 109.576 440.219 109.576 439.274C109.576 438.329 110.342 437.562 111.287 437.562H122.696C123.639 437.562 124.406 438.329 124.406 439.274C124.406 440.219 123.639 440.986 122.696 440.986ZM145.513 440.986H134.103C133.159 440.986 132.392 440.219 132.392 439.274C132.392 438.329 133.159 437.562 134.103 437.562H145.513C146.458 437.562 147.224 438.329 147.224 439.274C147.224 440.219 146.458 440.986 145.513 440.986ZM168.329 440.986H156.921C155.977 440.986 155.209 440.219 155.209 439.274C155.209 438.329 155.977 437.562 156.921 437.562H168.329C169.274 437.562 170.041 438.329 170.041 439.274C170.041 440.219 169.274 440.986 168.329 440.986ZM191.146 440.986H179.738C178.793 440.986 178.028 440.219 178.028 439.274C178.028 438.329 178.793 437.562 179.738 437.562H191.146C192.091 437.562 192.858 438.329 192.858 439.274C192.858 440.219 192.091 440.986 191.146 440.986ZM213.964 440.986H202.555C201.61 440.986 200.843 440.219 200.843 439.274C200.843 438.329 201.61 437.562 202.555 437.562H213.964C214.909 437.562 215.673 438.329 215.673 439.274C215.673 440.219 214.909 440.986 213.964 440.986ZM236.781 440.986H225.372C224.427 440.986 223.66 440.219 223.66 439.274C223.66 438.329 224.427 437.562 225.372 437.562H236.781C237.726 437.562 238.493 438.329 238.493 439.274C238.493 440.219 237.726 440.986 236.781 440.986ZM259.598 440.986H248.19C247.245 440.986 246.478 440.219 246.478 439.274C246.478 438.329 247.245 437.562 248.19 437.562H259.598C260.543 437.562 261.31 438.329 261.31 439.274C261.31 440.219 260.543 440.986 259.598 440.986ZM282.416 440.986H271.007C270.062 440.986 269.295 440.219 269.295 439.274C269.295 438.329 270.062 437.562 271.007 437.562H282.416C283.361 437.562 284.125 438.329 284.125 439.274C284.125 440.219 283.361 440.986 282.416 440.986ZM305.233 440.986H293.824C292.879 440.986 292.112 440.219 292.112 439.274C292.112 438.329 292.879 437.562 293.824 437.562H305.233C306.176 437.562 306.943 438.329 306.943 439.274C306.943 440.219 306.176 440.986 305.233 440.986ZM328.048 440.986H316.639C315.697 440.986 314.93 440.219 314.93 439.274C314.93 438.329 315.697 437.562 316.639 437.562H328.048C328.993 437.562 329.76 438.329 329.76 439.274C329.76 440.219 328.993 440.986 328.048 440.986ZM43.7316 446.217C43.1289 446.217 42.5463 445.902 42.234 445.339C41.7744 444.512 42.0711 443.469 42.8972 443.013C46.3666 441.086 50.0811 439.645 53.9376 438.73C54.8678 438.517 55.7801 439.082 55.9981 440.002C56.216 440.921 55.6469 441.843 54.7277 442.061C51.1761 442.902 47.7556 444.227 44.5604 446.004C44.2961 446.149 44.0121 446.217 43.7316 446.217ZM27.7034 462.054C27.4157 462.054 27.1243 461.983 26.8565 461.832C26.0358 461.362 25.7518 460.315 26.2195 459.497C28.1822 456.059 30.609 452.902 33.4323 450.113C34.1045 449.45 35.1877 449.455 35.8519 450.127C36.516 450.801 36.5116 451.883 35.8384 452.548C33.2359 455.119 30.9981 458.028 29.192 461.193C28.8753 461.746 28.299 462.054 27.7034 462.054ZM22.2217 483.908C21.2761 483.908 20.5107 483.141 20.5107 482.199V481.043C20.5107 477.468 20.9451 473.912 21.8029 470.479C22.0327 469.562 22.9792 469.004 23.8768 469.233C24.7953 469.463 25.3536 470.391 25.1238 471.306C24.3339 474.473 23.932 477.749 23.932 481.043V482.199C23.932 483.141 23.1664 483.908 22.2217 483.908ZM22.2217 506.725C21.2761 506.725 20.5107 505.959 20.5107 505.014V493.605C20.5107 492.66 21.2761 491.893 22.2217 491.893C23.1664 491.893 23.932 492.66 23.932 493.605V505.014C23.932 505.959 23.1664 506.725 22.2217 506.725ZM22.2217 529.543C21.2761 529.543 20.5107 528.776 20.5107 527.831V516.422C20.5107 515.477 21.2761 514.713 22.2217 514.713C23.1664 514.713 23.932 515.477 23.932 516.422V527.831C23.932 528.776 23.1664 529.543 22.2217 529.543ZM22.2217 552.36C21.2761 552.36 20.5107 551.593 20.5107 550.648V539.24C20.5107 538.294 21.2761 537.528 22.2217 537.528C23.1664 537.528 23.932 538.294 23.932 539.24V550.648C23.932 551.593 23.1664 552.36 22.2217 552.36ZM22.2217 575.175C21.2761 575.175 20.5107 574.411 20.5107 573.466V562.057C20.5107 561.112 21.2761 560.345 22.2217 560.345C23.1664 560.345 23.932 561.112 23.932 562.057V573.466C23.932 574.411 23.1664 575.175 22.2217 575.175ZM22.2217 597.995C21.2761 597.995 20.5107 597.228 20.5107 596.283V584.874C20.5107 583.929 21.2761 583.162 22.2217 583.162C23.1664 583.162 23.932 583.929 23.932 584.874V596.283C23.932 597.228 23.1664 597.995 22.2217 597.995ZM22.2217 620.812C21.2761 620.812 20.5107 620.043 20.5107 619.098V607.689C20.5107 606.746 21.2761 605.98 22.2217 605.98C23.1664 605.98 23.932 606.746 23.932 607.689V619.098C23.932 620.043 23.1664 620.812 22.2217 620.812ZM22.2217 643.627C21.2761 643.627 20.5107 642.86 20.5107 641.917V630.509C20.5107 629.564 21.2761 628.797 22.2217 628.797C23.1664 628.797 23.932 629.564 23.932 630.509V641.917C23.932 642.86 23.1664 643.627 22.2217 643.627ZM22.2217 666.447C21.2761 666.447 20.5107 665.68 20.5107 664.733V653.326C20.5107 652.379 21.2761 651.612 22.2217 651.612C23.1664 651.612 23.932 652.379 23.932 653.326V664.733C23.932 665.68 23.1664 666.447 22.2217 666.447ZM22.2217 689.262C21.2761 689.262 20.5107 688.495 20.5107 687.55V676.141C20.5107 675.198 21.2761 674.432 22.2217 674.432C23.1664 674.432 23.932 675.198 23.932 676.141V687.55C23.932 688.495 23.1664 689.262 22.2217 689.262ZM22.2217 712.079C21.2761 712.079 20.5107 711.312 20.5107 710.369V698.961C20.5107 698.016 21.2761 697.249 22.2217 697.249C23.1664 697.249 23.932 698.016 23.932 698.961V710.369C23.932 711.312 23.1664 712.079 22.2217 712.079ZM22.2217 734.896C21.2761 734.896 20.5107 734.13 20.5107 733.184V721.776C20.5107 720.831 21.2761 720.064 22.2217 720.064C23.1664 720.064 23.932 720.831 23.932 721.776V733.184C23.932 734.13 23.1664 734.896 22.2217 734.896ZM22.2217 757.714C21.2761 757.714 20.5107 756.947 20.5107 756.002V744.593C20.5107 743.65 21.2761 742.884 22.2217 742.884C23.1664 742.884 23.932 743.65 23.932 744.593V756.002C23.932 756.947 23.1664 757.714 22.2217 757.714ZM26.3733 779.899C25.7353 779.899 25.1254 779.544 24.8277 778.93C23.105 775.354 21.8761 771.566 21.1839 767.67C21.0192 766.738 21.6391 765.849 22.5692 765.687C23.4941 765.529 24.3881 766.139 24.5528 767.07C25.1926 770.66 26.3219 774.149 27.9126 777.443C28.3224 778.296 27.9659 779.317 27.1153 779.727C26.8746 779.846 26.6221 779.899 26.3733 779.899ZM41.2847 796.79C40.9653 796.79 40.6433 796.7 40.3546 796.514C37.0372 794.361 34.0205 791.761 31.3908 788.787C30.7665 788.08 30.8344 786.999 31.543 786.371C32.247 785.748 33.3299 785.811 33.957 786.522C36.3803 789.264 39.1584 791.66 42.2178 793.642C43.0121 794.159 43.2356 795.218 42.7209 796.01C42.3941 796.514 41.8458 796.79 41.2847 796.79ZM62.7955 803.476H62.7492C58.7716 803.364 54.8435 802.716 51.0709 801.544C50.1679 801.261 49.6648 800.305 49.9453 799.399C50.2259 798.502 51.1761 797.995 52.0862 798.275C55.56 799.355 59.1795 799.952 62.8444 800.054C63.7882 800.08 64.5345 800.869 64.5065 801.812C64.4794 802.742 63.7212 803.476 62.7955 803.476ZM85.6138 803.495H74.2042C73.2595 803.495 72.493 802.727 72.493 801.782C72.493 800.837 73.2595 800.071 74.2042 800.071H85.6138C86.5575 800.071 87.3247 800.837 87.3247 801.782C87.3247 802.727 86.5575 803.495 85.6138 803.495ZM108.43 803.495H97.0215C96.0769 803.495 95.3103 802.727 95.3103 801.782C95.3103 800.837 96.0769 800.071 97.0215 800.071H108.43C109.376 800.071 110.141 800.837 110.141 801.782C110.141 802.727 109.376 803.495 108.43 803.495ZM131.248 803.495H119.839C118.893 803.495 118.128 802.727 118.128 801.782C118.128 800.837 118.893 800.071 119.839 800.071H131.248C132.192 800.071 132.958 800.837 132.958 801.782C132.958 802.727 132.192 803.495 131.248 803.495ZM154.065 803.495H142.655C141.712 803.495 140.944 802.727 140.944 801.782C140.944 800.837 141.712 800.071 142.655 800.071H154.065C155.01 800.071 155.775 800.837 155.775 801.782C155.775 802.727 155.01 803.495 154.065 803.495ZM176.881 803.495H165.473C164.528 803.495 163.761 802.727 163.761 801.782C163.761 800.837 164.528 800.071 165.473 800.071H176.881C177.827 800.071 178.593 800.837 178.593 801.782C178.593 802.727 177.827 803.495 176.881 803.495ZM193.407 803.495H188.29C187.345 803.495 186.578 802.727 186.578 801.782C186.578 800.837 187.345 800.071 188.29 800.071H193.407C194.352 800.071 195.119 800.837 195.119 801.782C195.119 802.727 194.352 803.495 193.407 803.495Z" fill="#A08BCD"/>
<path d="M29.6771 621.034C29.6771 625.155 26.34 628.491 22.2208 628.491C18.1028 628.491 14.7648 625.155 14.7648 621.034C14.7648 616.918 18.1028 613.578 22.2208 613.578C26.34 613.578 29.6771 616.918 29.6771 621.034Z" fill="#A08BCD"/>
<path d="M22.2218 608.771C15.4597 608.771 9.95808 614.273 9.95808 621.034C9.95808 627.798 15.4597 633.3 22.2218 633.3C28.985 633.3 34.4857 627.798 34.4857 621.034C34.4857 614.273 28.985 608.771 22.2218 608.771ZM22.2218 635.01C14.516 635.01 8.24597 628.741 8.24597 621.034C8.24597 613.33 14.516 607.059 22.2218 607.059C29.9278 607.059 36.1966 613.33 36.1966 621.034C36.1966 628.741 29.9278 635.01 22.2218 635.01Z" fill="#A08BCD"/>
<path d="M486.296 16.7435H472.416C471.267 16.7435 470.336 15.81 470.336 14.661C470.336 13.5121 471.267 12.5785 472.416 12.5785H486.296C487.447 12.5785 488.379 13.5121 488.379 14.661C488.379 15.81 487.447 16.7435 486.296 16.7435ZM514.059 16.7435H500.177C499.028 16.7435 498.094 15.81 498.094 14.661C498.094 13.5121 499.028 12.5785 500.177 12.5785H514.059C515.208 12.5785 516.139 13.5121 516.139 14.661C516.139 15.81 515.208 16.7435 514.059 16.7435ZM541.82 16.7435H527.939C526.791 16.7435 525.855 15.81 525.855 14.661C525.855 13.5121 526.791 12.5785 527.939 12.5785H541.82C542.969 12.5785 543.9 13.5121 543.9 14.661C543.9 15.81 542.969 16.7435 541.82 16.7435ZM569.581 16.7435H555.7C554.551 16.7435 553.618 15.81 553.618 14.661C553.618 13.5121 554.551 12.5785 555.7 12.5785H569.581C570.73 12.5785 571.663 13.5121 571.663 14.661C571.663 15.81 570.73 16.7435 569.581 16.7435ZM444.78 18.2538C443.847 18.2538 442.999 17.6214 442.763 16.6763C442.485 15.5598 443.161 14.4293 444.28 14.1514C448.456 13.109 452.779 12.5785 457.132 12.5785H458.535C459.684 12.5785 460.618 13.5121 460.618 14.661C460.618 15.81 459.684 16.7435 458.535 16.7435H457.132C453.122 16.7435 449.137 17.23 445.287 18.1913L444.78 18.2538ZM596.718 21.1704C596.433 21.1704 596.144 21.1125 595.866 20.9874C591.812 19.1712 587.524 17.9203 583.13 17.2693C581.992 17.1002 581.205 16.0416 581.374 14.9042C581.541 13.7668 582.592 12.9584 583.739 13.1507C588.511 13.8549 593.165 15.2147 597.568 17.1884C598.618 17.6586 599.088 18.8909 598.618 19.9403C598.27 20.7117 597.513 21.1704 596.718 21.1704ZM420.983 31.8447C420.453 31.8447 419.924 31.6432 419.519 31.2424C418.701 30.4363 418.694 29.1182 419.503 28.2982C422.899 24.8628 426.737 21.9116 430.916 19.5233C431.91 18.9511 433.184 19.301 433.758 20.2971C434.326 21.2955 433.978 22.5672 432.982 23.1394C429.132 25.3377 425.595 28.0595 422.463 31.2261C422.056 31.6385 421.518 31.8447 420.983 31.8447ZM617.787 38.7177C617.124 38.7177 616.471 38.405 616.07 37.8212C613.54 34.1588 610.527 30.8648 607.114 28.0202C606.234 27.2858 606.111 25.9724 606.848 25.0875C607.587 24.2026 608.896 24.0868 609.783 24.8211C613.482 27.9066 616.751 31.481 619.496 35.4514C620.149 36.3966 619.913 37.6938 618.968 38.347C618.607 38.5972 618.192 38.7177 617.787 38.7177ZM407.682 55.8133L407.2 55.7577C406.079 55.4913 405.388 54.3701 405.655 53.2512C406.767 48.5534 408.52 44.034 410.865 39.818C411.421 38.8127 412.692 38.449 413.695 39.0119C414.701 39.5702 415.062 40.8395 414.504 41.8426C412.343 45.725 410.73 49.8854 409.704 54.2103C409.479 55.1693 408.625 55.8133 407.682 55.8133ZM626.663 64.6368C625.568 64.6368 624.65 63.7797 624.585 62.6724C624.335 58.2248 623.478 53.8443 622.042 49.6538C621.671 48.5674 622.25 47.3837 623.337 47.0084C624.414 46.6401 625.612 47.2145 625.98 48.3056C627.543 52.8528 628.472 57.6086 628.746 62.4361C628.813 63.5851 627.933 64.5673 626.786 64.6345L626.663 64.6368ZM406.313 83.4651C405.164 83.4651 404.23 82.5316 404.23 81.3826V67.5022C404.23 66.3533 405.164 65.4197 406.313 65.4197C407.462 65.4197 408.395 66.3533 408.395 67.5022V81.3826C408.395 82.5316 407.462 83.4651 406.313 83.4651ZM626.754 92.3951C625.605 92.3951 624.673 91.4616 624.673 90.3126V76.4323C624.673 75.2833 625.605 74.3498 626.754 74.3498C627.903 74.3498 628.834 75.2833 628.834 76.4323V90.3126C628.834 91.4616 627.903 92.3951 626.754 92.3951ZM406.313 111.226C405.164 111.226 404.23 110.292 404.23 109.143V95.2629C404.23 94.114 405.164 93.1828 406.313 93.1828C407.462 93.1828 408.395 94.114 408.395 95.2629V109.143C408.395 110.292 407.462 111.226 406.313 111.226ZM626.754 120.156C625.605 120.156 624.673 119.225 624.673 118.073V104.193C624.673 103.044 625.605 102.113 626.754 102.113C627.903 102.113 628.834 103.044 628.834 104.193V118.073C628.834 119.225 627.903 120.156 626.754 120.156ZM406.313 138.987C405.164 138.987 404.23 138.055 404.23 136.906V123.024C404.23 121.875 405.164 120.941 406.313 120.941C407.462 120.941 408.395 121.875 408.395 123.024V136.906C408.395 138.055 407.462 138.987 406.313 138.987ZM626.754 147.917C625.605 147.917 624.673 146.985 624.673 145.836V131.954C624.673 130.805 625.605 129.871 626.754 129.871C627.903 129.871 628.834 130.805 628.834 131.954V145.836C628.834 146.985 627.903 147.917 626.754 147.917ZM406.313 166.747C405.164 166.747 404.23 165.816 404.23 164.665V150.784C404.23 149.635 405.164 148.704 406.313 148.704C407.462 148.704 408.395 149.635 408.395 150.784V164.665C408.395 165.816 407.462 166.747 406.313 166.747ZM626.754 175.677C625.605 175.677 624.673 174.746 624.673 173.597V159.717C624.673 158.565 625.605 157.634 626.754 157.634C627.903 157.634 628.834 158.565 628.834 159.717V173.597C628.834 174.746 627.903 175.677 626.754 175.677ZM406.313 194.51C405.164 194.51 404.23 193.577 404.23 192.428V178.547C404.23 177.398 405.164 176.465 406.313 176.465C407.462 176.465 408.395 177.398 408.395 178.547V192.428C408.395 193.577 407.462 194.51 406.313 194.51ZM626.754 203.44C625.605 203.44 624.673 202.507 624.673 201.358V187.477C624.673 186.328 625.605 185.395 626.754 185.395C627.903 185.395 628.834 186.328 628.834 187.477V201.358C628.834 202.507 627.903 203.44 626.754 203.44ZM406.313 222.271C405.164 222.271 404.23 221.337 404.23 220.188V206.308C404.23 205.157 405.164 204.225 406.313 204.225C407.462 204.225 408.395 205.157 408.395 206.308V220.188C408.395 221.337 407.462 222.271 406.313 222.271ZM626.754 225.025C625.605 225.025 624.673 224.092 624.673 222.943V215.238C624.673 214.089 625.605 213.156 626.754 213.156C627.903 213.156 628.834 214.089 628.834 215.238V222.943C628.834 224.092 627.903 225.025 626.754 225.025ZM406.313 250.032C405.164 250.032 404.23 249.098 404.23 247.949V234.069C404.23 232.92 405.164 231.986 406.313 231.986C407.462 231.986 408.395 232.92 408.395 234.069V247.949C408.395 249.098 407.462 250.032 406.313 250.032ZM406.313 277.792C405.164 277.792 404.23 276.861 404.23 275.71V261.829C404.23 260.68 405.164 259.747 406.313 259.747C407.462 259.747 408.395 260.68 408.395 261.829V275.71C408.395 276.861 407.462 277.792 406.313 277.792ZM406.313 305.553C405.164 305.553 404.23 304.619 404.23 303.47V289.59C404.23 288.441 405.164 287.51 406.313 287.51C407.462 287.51 408.395 288.441 408.395 289.59V303.47C408.395 304.619 407.462 305.553 406.313 305.553ZM406.313 333.314C405.164 333.314 404.23 332.382 404.23 331.233V317.353C404.23 316.202 405.164 315.271 406.313 315.271C407.462 315.271 408.395 316.202 408.395 317.353V331.233C408.395 332.382 407.462 333.314 406.313 333.314ZM406.313 361.077C405.164 361.077 404.23 360.143 404.23 358.994V345.114C404.23 343.963 405.164 343.031 406.313 343.031C407.462 343.031 408.395 343.963 408.395 345.114V358.994C408.395 360.143 407.462 361.077 406.313 361.077ZM406.313 388.837C405.164 388.837 404.23 387.904 404.23 386.755V372.875C404.23 371.726 405.164 370.792 406.313 370.792C407.462 370.792 408.395 371.726 408.395 372.875V386.755C408.395 387.904 407.462 388.837 406.313 388.837Z" fill="#A08BCD"/>
<path d="M516.533 22.4838C520.853 22.4838 524.356 18.9812 524.356 14.661C524.356 10.3408 520.853 6.83825 516.533 6.83825C512.215 6.83825 508.71 10.3408 508.71 14.661C508.71 18.9812 512.215 22.4838 516.533 22.4838Z" fill="#A08BCD"/>
<path d="M516.533 1.79527C509.438 1.79527 503.667 7.56795 503.667 14.661C503.667 21.7564 509.438 27.5267 516.533 27.5267C523.626 27.5267 529.401 21.7564 529.401 14.661C529.401 7.56795 523.626 1.79527 516.533 1.79527ZM516.533 29.322C508.449 29.322 501.872 22.7455 501.872 14.661C501.872 6.5765 508.449 1.67426e-06 516.533 1.67426e-06C524.615 1.67426e-06 531.194 6.5765 531.194 14.661C531.194 22.7455 524.615 29.322 516.533 29.322Z" fill="#A08BCD"/>
<path d="M525.88 150.397H391.631V127.448H525.88V150.397Z" fill="#B7B9B7"/>
<path d="M634.34 118.81H538.377C531.393 118.81 524.768 121.154 520.276 125.215L494.207 144.722H391.508C387.213 144.722 383.734 148.201 383.734 152.496V294.642C383.734 298.935 387.213 302.416 391.508 302.416H641.743C646.036 302.416 649.518 298.935 649.518 294.642V157.307V152.496V136.084C649.518 126.955 642.723 118.81 634.34 118.81Z" fill="#FAB743"/>
<path d="M206.377 681.3L205.571 680.468C195.606 690.128 182.71 694.932 169.814 694.935C156.385 694.932 142.981 689.72 132.92 679.345C123.258 669.377 118.454 656.481 118.453 643.588C118.454 630.157 123.666 616.753 134.044 606.691C144.009 597.031 156.905 592.227 169.8 592.224C183.229 592.227 196.634 597.439 206.695 607.816C216.357 617.782 221.159 630.678 221.161 643.571C221.159 657.002 215.949 670.405 205.571 680.468L206.377 681.3L207.183 682.131C218.027 671.617 223.48 657.598 223.478 643.571C223.478 630.106 218.453 616.617 208.358 606.204C197.846 595.361 183.824 589.908 169.8 589.908C156.333 589.908 142.842 594.935 132.432 605.027C121.588 615.54 116.135 629.561 116.137 643.588C116.135 657.053 121.162 670.544 131.257 680.957C141.769 691.8 155.789 697.251 169.814 697.251C183.28 697.251 196.773 692.224 207.183 682.131L206.377 681.3ZM237.719 548.355L236.913 547.523L222.678 561.322C222.15 561.837 221.692 562.386 221.284 562.949L222.224 563.627L222.859 562.659C213.276 556.374 202.81 551.966 191.98 549.432L191.716 550.558L192.856 550.773C192.983 550.087 193.081 549.367 193.088 548.607L193.303 528.785V528.653C193.301 521.905 187.857 516.385 181.091 516.309L161.27 516.093H161.136C154.389 516.095 148.868 521.539 148.794 528.306L148.58 548.128L148.579 548.241C148.579 548.957 148.658 549.64 148.765 550.291L149.908 550.104L149.669 548.971C139.078 551.206 128.793 555.232 119.289 561.054L119.893 562.041L120.852 561.392C120.464 560.817 120.024 560.255 119.509 559.724H119.509L105.711 545.492C103.295 542.999 100.065 541.744 96.845 541.746C93.753 541.744 90.6466 542.902 88.2551 545.221L74.0231 559.02C71.5303 561.436 70.2753 564.665 70.2762 567.885C70.2753 570.978 71.4326 574.084 73.7525 576.475L87.5511 590.709C88.0661 591.24 88.6153 591.696 89.1745 592.101L89.8539 591.163L88.8849 590.529C82.6024 600.11 78.1921 610.575 75.6583 621.407L76.7857 621.671L76.9984 620.532C76.3152 620.404 75.595 620.307 74.8357 620.3L54.9538 620.085H55.0164H54.8797C51.66 620.082 48.6016 621.319 46.2888 623.566L46.2761 623.576L46.2263 623.629L47.0579 624.435L46.248 623.608C43.8945 625.906 42.5706 629.008 42.538 632.297L42.3246 652.119L43.4828 652.131V650.972H43.481H42.3353L42.3228 652.119V652.251C42.3246 658.999 47.769 664.519 54.5341 664.593L74.3562 664.809H74.3581H74.454C75.1832 664.809 75.8719 664.725 76.5233 664.614L76.3305 663.475L75.1968 663.713C77.4327 674.306 81.4595 684.592 87.2815 694.101L88.2694 693.494L87.619 692.537C87.0489 692.924 86.4832 693.362 85.9523 693.878L71.7203 707.678C69.2282 710.094 67.9731 713.321 67.9741 716.54C67.9731 719.633 69.1305 722.739 71.4506 725.132L85.2481 739.365C87.6641 741.857 90.8938 743.113 94.1142 743.11C97.2062 743.113 100.313 741.955 102.704 739.636L116.992 725.783L116.937 725.837C117.466 725.322 117.923 724.773 118.329 724.215L117.391 723.534L116.757 724.502C126.341 730.787 136.809 735.197 147.641 737.732L147.905 736.604L146.767 736.388C146.639 737.062 146.535 737.78 146.527 738.552L146.314 758.374L146.313 758.513C146.311 761.751 147.563 764.825 149.835 767.142C152.135 769.493 155.235 770.818 158.524 770.85L178.346 771.064L178.359 769.905H177.201V769.907V771.054L178.348 771.066H178.475C181.806 771.066 184.843 769.734 187.067 767.579C189.349 765.372 190.785 762.277 190.822 758.853L191.038 739.031V738.936C191.038 738.204 190.952 737.516 190.843 736.865L189.701 737.058L189.94 738.19C200.533 735.955 210.82 731.927 220.327 726.105L219.723 725.118L218.766 725.769C219.153 726.339 219.59 726.902 220.105 727.435L233.904 741.667C236.32 744.16 239.549 745.415 242.769 745.413C245.862 745.415 248.968 744.257 251.361 741.936L265.593 728.139C268.086 725.723 269.341 722.496 269.339 719.274C269.341 716.181 268.183 713.075 265.862 710.684L252.065 696.45C251.551 695.919 251 695.463 250.441 695.057L249.76 695.996L250.729 696.63C257.013 687.047 261.426 676.579 263.958 665.745L262.83 665.483L262.612 666.62C263.291 666.75 264.011 666.852 264.78 666.859L284.6 667.074H284.739C288.066 667.077 291.103 665.745 293.324 663.59C295.603 661.38 297.042 658.286 297.079 654.864L297.292 635.042L297.294 634.908C297.292 628.16 291.846 622.64 285.082 622.563L265.26 622.352H265.262L265.158 622.35C264.44 622.35 263.752 622.429 263.094 622.535L263.284 623.68L264.417 623.439C262.179 612.85 258.155 602.565 252.334 593.06L251.345 593.665L251.996 594.624C252.568 594.237 253.131 593.797 253.664 593.281L267.896 579.481C270.389 577.068 271.644 573.838 271.642 570.618C271.644 567.526 270.486 564.42 268.165 562.027L254.368 547.796C251.952 545.302 248.723 544.046 245.503 544.048C242.41 544.046 239.304 545.204 236.913 547.523L237.719 548.355L238.525 549.186C240.471 547.301 242.982 546.365 245.503 546.365C248.127 546.365 250.738 547.382 252.705 549.409L266.501 563.639C268.389 565.587 269.323 568.098 269.325 570.618C269.323 573.243 268.308 575.854 266.284 577.818L252.051 591.617C251.634 592.02 251.18 592.377 250.696 592.706L249.779 593.325L250.358 594.27C256.038 603.545 259.967 613.582 262.151 623.918L262.378 625.002L263.472 624.822C264.046 624.727 264.607 624.667 265.158 624.667H265.234V624.669L285.056 624.88C290.544 624.938 294.98 629.432 294.978 634.908L294.976 635.017L294.763 654.839C294.732 657.621 293.57 660.125 291.712 661.927C289.898 663.681 287.442 664.758 284.739 664.758H284.626L264.804 664.542C264.227 664.538 263.648 664.459 263.048 664.346L261.954 664.135L261.702 665.219C259.23 675.794 254.926 686.007 248.792 695.359L248.187 696.283L249.079 696.931C249.554 697.277 249.999 697.647 250.402 698.064L264.199 712.297C266.087 714.243 267.023 716.754 267.023 719.274C267.023 721.901 266.008 724.511 263.981 726.476L249.749 740.273C247.801 742.161 245.289 743.097 242.769 743.097C240.145 743.097 237.534 742.082 235.567 740.055L221.77 725.823V725.825C221.367 725.406 221.01 724.952 220.679 724.467L220.058 723.555L219.118 724.129C209.838 729.812 199.801 733.74 189.462 735.925L188.376 736.154L188.559 737.25C188.656 737.829 188.721 738.385 188.721 738.936V739.008L188.506 758.828C188.476 761.612 187.313 764.114 185.455 765.914C183.641 767.672 181.183 768.749 178.475 768.749H178.369L178.359 769.907H179.518V769.905V768.759L158.548 768.534C155.863 768.504 153.372 767.438 151.49 765.52C149.637 763.625 148.631 761.156 148.629 758.513L148.63 758.399L148.844 738.577C148.849 738 148.929 737.421 149.043 736.819L149.25 735.728L148.169 735.475C137.594 733.001 127.38 728.697 118.026 722.566L117.102 721.961L116.454 722.855C116.111 723.328 115.74 723.77 115.323 724.173L101.092 737.973C99.1453 739.858 96.6342 740.794 94.1142 740.794C91.4891 740.794 88.8768 739.779 86.9104 737.752L73.1139 723.52C71.2271 721.572 70.2915 719.061 70.2905 716.54C70.2924 713.916 71.3068 711.305 73.3328 709.341L87.5655 695.542H87.5664C87.9799 695.139 88.4351 694.782 88.9192 694.453L89.834 693.832L89.2567 692.889C83.5751 683.612 79.6461 673.574 77.4635 663.234L77.2337 662.145L76.1369 662.333C75.5633 662.43 75.0069 662.492 74.454 662.492H74.3805L54.5593 662.277C49.0695 662.221 44.6365 657.727 44.6392 652.251V652.142L43.481 652.131V653.289H43.4828H44.6283L44.8544 632.323C44.8843 629.635 45.9476 627.143 47.8677 625.262L47.8795 625.25L47.9256 625.204L47.0949 624.396L47.9013 625.227C49.7915 623.395 52.25 622.401 54.8797 622.401H54.9883L74.8114 622.616H74.8123C75.3868 622.621 75.9722 622.698 76.574 622.809L77.6616 623.013L77.9141 621.933C80.3871 611.361 84.6907 601.15 90.8222 591.798L91.4284 590.874L90.5326 590.225C90.0603 589.882 89.6169 589.512 89.2134 589.095L75.4158 574.862C73.5292 572.916 72.5936 570.405 72.5927 567.885C72.5936 565.26 73.6087 562.647 75.6356 560.683L89.8676 546.884C91.8139 544.998 94.325 544.062 96.845 544.062C99.471 544.062 102.081 545.077 104.048 547.106L117.845 561.336H117.846C118.249 561.751 118.605 562.205 118.934 562.691L119.555 563.606L120.498 563.03C129.774 557.35 139.81 553.419 150.148 551.236L151.231 551.009L151.051 549.916C150.957 549.344 150.896 548.786 150.896 548.241L150.897 548.153L151.11 528.331C151.167 522.841 155.662 518.407 161.136 518.41H161.244H161.245L181.065 518.625C186.555 518.683 190.989 523.177 190.987 528.653V528.762L190.771 548.582C190.767 549.159 190.692 549.745 190.579 550.345L190.373 551.433L191.452 551.686C202.025 554.16 212.236 558.464 221.587 564.596L222.514 565.203L223.162 564.306C223.503 563.833 223.876 563.391 224.293 562.986L238.525 549.186L237.719 548.355Z" fill="#212C5A"/>
<path d="M615.229 710.837H402.18V812.966H615.229V710.837Z" fill="#E31293"/>
<path d="M862.617 228.655V693.902C862.617 708.843 850.505 720.958 835.542 720.958H181.867C166.923 720.958 154.79 708.843 154.79 693.902V228.655C154.79 213.711 166.923 201.578 181.867 201.578H835.542C850.505 201.578 862.617 213.711 862.617 228.655Z" fill="#EE1A98"/>
<path d="M507.552 702.134C499.875 702.134 493.653 695.91 493.653 688.235C493.653 680.559 499.875 674.337 507.552 674.337C515.227 674.337 521.451 680.559 521.451 688.235C521.451 695.91 515.227 702.134 507.552 702.134Z" fill="#F472BF"/>
<path d="M854.114 657.579V233.867C854.114 221.025 844.065 210.612 831.662 210.612H185.747C173.347 210.612 163.293 221.025 163.293 233.867V657.579H854.114Z" fill="#DAC9E9"/>
<path d="M657.148 823.972H360.261V823.261C360.261 811.497 369.796 801.963 381.559 801.963H635.85C647.611 801.963 657.148 811.497 657.148 823.261V823.972Z" fill="#EE1A98"/>
<path d="M218.993 206.266C218.993 185.759 203.533 168.883 183.636 166.601C183.789 165.262 183.887 163.905 183.887 162.522C183.887 142.86 167.949 126.922 148.287 126.922C143.02 126.922 138.037 128.097 133.539 130.149C124.059 115.372 107.5 105.574 88.6424 105.574C59.196 105.574 35.3254 129.445 35.3254 158.892C35.3254 161.484 35.52 164.032 35.8774 166.525C15.7266 168.563 0 185.578 0 206.266C0 228.328 17.8848 246.214 39.9465 246.214H181.026V246.112C202.161 245.072 218.993 227.659 218.993 206.266Z" fill="#A08BCD"/>
<path d="M135.081 276.696V214.629H83.9098V276.696H67.9143L109.495 315.653L151.078 276.696H135.081Z" fill="#FAB743"/>
<path d="M700.362 235.614H574.725C563.106 235.614 553.689 226.197 553.689 214.578V172.795C553.689 161.178 563.106 151.76 574.725 151.76H700.362C711.981 151.76 721.398 161.178 721.398 172.795V214.578C721.398 226.197 711.981 235.614 700.362 235.614Z" fill="#4746A4"/>
<path d="M231.372 839.045H105.735C94.117 839.045 84.698 829.629 84.698 818.009V776.227C84.698 764.61 94.117 755.191 105.735 755.191H231.372C242.992 755.191 252.408 764.61 252.408 776.227V818.009C252.408 829.629 242.992 839.045 231.372 839.045Z" fill="#4746A4"/>
<path d="M291.788 484.304H166.149C154.532 484.304 145.113 474.885 145.113 463.268V421.483C145.113 409.866 154.532 400.448 166.149 400.448H291.788C303.408 400.448 312.824 409.866 312.824 421.483V463.268C312.824 474.885 303.408 484.304 291.788 484.304Z" fill="#4746A4"/>
<path d="M734.493 752.789H728.507C727.516 752.789 726.712 751.983 726.712 750.994C726.712 750.002 727.516 749.196 728.507 749.196H734.493C735.482 749.196 736.286 750.002 736.286 750.994C736.286 751.983 735.482 752.789 734.493 752.789Z" fill="#A08BCD"/>
<path d="M927.912 553.84C926.918 553.84 926.115 553.039 926.115 552.047V540.076C926.115 539.084 926.918 538.28 927.912 538.28C928.904 538.28 929.705 539.084 929.705 540.076V552.047C929.705 553.039 928.904 553.84 927.912 553.84ZM927.912 577.781C926.918 577.781 926.115 576.98 926.115 575.988V564.017C926.115 563.025 926.918 562.224 927.912 562.224C928.904 562.224 929.705 563.025 929.705 564.017V575.988C929.705 576.98 928.904 577.781 927.912 577.781ZM927.912 601.724C926.918 601.724 926.115 600.923 926.115 599.931V587.96C926.115 586.968 926.918 586.162 927.912 586.162C928.904 586.162 929.705 586.968 929.705 587.96V599.931C929.705 600.923 928.904 601.724 927.912 601.724ZM927.912 625.665C926.918 625.665 926.115 624.864 926.115 623.872V611.901C926.115 610.909 926.918 610.103 927.912 610.103C928.904 610.103 929.705 610.909 929.705 611.901V623.872C929.705 624.864 928.904 625.665 927.912 625.665ZM927.912 649.608C926.918 649.608 926.115 648.802 926.115 647.813V635.844C926.115 634.852 926.918 634.046 927.912 634.046C928.904 634.046 929.705 634.852 929.705 635.844V647.813C929.705 648.802 928.904 649.608 927.912 649.608ZM927.912 673.549C926.918 673.549 926.115 672.745 926.115 671.754V659.784C926.115 658.793 926.918 657.987 927.912 657.987C928.904 657.987 929.705 658.793 929.705 659.784V671.754C929.705 672.745 928.904 673.549 927.912 673.549ZM927.912 697.492C926.918 697.492 926.115 696.686 926.115 695.697V683.725C926.115 682.734 926.918 681.93 927.912 681.93C928.904 681.93 929.705 682.734 929.705 683.725V695.697C929.705 696.686 928.904 697.492 927.912 697.492ZM924.597 721.018C924.382 721.018 924.164 720.981 923.951 720.9C923.027 720.541 922.566 719.501 922.922 718.579C924.308 714.993 925.255 711.24 925.732 707.423C925.857 706.438 926.724 705.739 927.741 705.866C928.723 705.991 929.42 706.888 929.295 707.872C928.781 711.977 927.764 716.012 926.272 719.869C925.999 720.583 925.32 721.018 924.597 721.018ZM911.027 740.449C910.527 740.449 910.031 740.243 909.677 739.837C909.024 739.094 909.095 737.959 909.841 737.305C912.732 734.764 915.315 731.878 917.516 728.728C918.083 727.917 919.2 727.715 920.018 728.285C920.828 728.853 921.025 729.974 920.458 730.785C918.093 734.169 915.317 737.271 912.209 740.004C911.87 740.303 911.447 740.449 911.027 740.449ZM889.996 751.397C889.188 751.397 888.453 750.845 888.254 750.023C888.02 749.059 888.613 748.091 889.574 747.855C893.313 746.951 896.938 745.592 900.346 743.812C901.229 743.351 902.31 743.694 902.769 744.572C903.228 745.453 902.885 746.537 902.007 746.995C898.338 748.909 894.444 750.373 890.42 751.346L889.996 751.397ZM758.434 752.789H746.462C745.471 752.789 744.667 751.983 744.667 750.994C744.667 750.002 745.471 749.196 746.462 749.196H758.434C759.423 749.196 760.229 750.002 760.229 750.994C760.229 751.983 759.423 752.789 758.434 752.789ZM782.375 752.789H770.405C769.414 752.789 768.61 751.983 768.61 750.994C768.61 750.002 769.414 749.196 770.405 749.196H782.375C783.364 749.196 784.17 750.002 784.17 750.994C784.17 751.983 783.364 752.789 782.375 752.789ZM806.318 752.789H794.346C793.355 752.789 792.549 751.983 792.549 750.994C792.549 750.002 793.355 749.196 794.346 749.196H806.318C807.307 749.196 808.111 750.002 808.111 750.994C808.111 751.983 807.307 752.789 806.318 752.789ZM830.261 752.789H818.289C817.298 752.789 816.492 751.983 816.492 750.994C816.492 750.002 817.298 749.196 818.289 749.196H830.261C831.25 749.196 832.054 750.002 832.054 750.994C832.054 751.983 831.25 752.789 830.261 752.789ZM854.199 752.789H842.23C841.239 752.789 840.435 751.983 840.435 750.994C840.435 750.002 841.239 749.196 842.23 749.196H854.199C855.191 749.196 855.995 750.002 855.995 750.994C855.995 751.983 855.191 752.789 854.199 752.789ZM878.14 752.789H866.169C865.18 752.789 864.376 751.983 864.376 750.994C864.376 750.002 865.18 749.196 866.169 749.196H878.14C879.132 749.196 879.938 750.002 879.938 750.994C879.938 751.983 879.132 752.789 878.14 752.789Z" fill="#A08BCD"/>
<path d="M927.912 529.846C926.918 529.846 926.115 529.042 926.115 528.053V523.863H924.609C923.617 523.863 922.816 523.057 922.816 522.067C922.816 521.076 923.617 520.27 924.609 520.27H927.912C928.904 520.27 929.705 521.076 929.705 522.067V528.053C929.705 529.042 928.904 529.846 927.912 529.846Z" fill="#A08BCD"/>
<path d="M872.192 340.752H715.123C705.681 340.752 698.025 348.406 698.025 357.848V684.26C698.025 693.702 705.681 701.356 715.123 701.356H872.192C881.631 701.356 889.287 693.702 889.287 684.26V357.848C889.287 348.406 881.631 340.752 872.192 340.752Z" fill="#A08BCD"/>
<path d="M828.778 359.562H742.381C740.882 359.562 739.666 358.345 739.666 356.844V356.495C739.666 354.996 740.882 353.78 742.381 353.78H828.778C830.277 353.78 831.493 354.996 831.493 356.495V356.844C831.493 358.345 830.277 359.562 828.778 359.562Z" fill="#212C5A"/>
<path d="M847.648 356.671C847.648 358.267 846.354 359.562 844.757 359.562C843.161 359.562 841.866 358.267 841.866 356.671C841.866 355.075 843.161 353.78 844.757 353.78C846.354 353.78 847.648 355.075 847.648 356.671Z" fill="#212C5A"/>
<path d="M878.759 478.084H708.555V373.498H878.759V478.084Z" fill="white"/>
<path d="M825.945 417.203L813.469 432.128L781.179 393.503L727.191 458.082H791.773H835.165H860.12L825.945 417.203Z" fill="#FAB743"/>
<path d="M788.912 663.748H708.555V616.617H788.912V663.748Z" fill="white"/>
<path d="M763.977 634.931L758.086 641.98L742.842 623.742L717.353 654.232H747.843H768.33H780.114L763.977 634.931Z" fill="#FAB743"/>
<path d="M708.555 509.503H788.912V504.986H708.555V509.503Z" fill="#5C58B1"/>
<path d="M708.555 500.042H788.912V495.525H708.555V500.042Z" fill="#5C58B1"/>
<path d="M708.555 518.743H759.365V514.229H708.555V518.743Z" fill="#5C58B1"/>
<path d="M762.979 518.743H788.912V514.229H762.979V518.743Z" fill="#5C58B1"/>
<path d="M708.555 527.974H779.649V523.457H708.555V527.974Z" fill="#5C58B1"/>
<path d="M708.555 537.458H733.25V532.943H708.555V537.458Z" fill="#5C58B1"/>
<path d="M737.507 537.458H755.29V532.943H737.507V537.458Z" fill="#5C58B1"/>
<path d="M798.402 572.729H878.758V568.212H798.402V572.729Z" fill="#5C58B1"/>
<path d="M798.402 563.268H878.758V558.754H798.402V563.268Z" fill="#5C58B1"/>
<path d="M798.402 581.969H849.212V577.454H798.402V581.969Z" fill="#5C58B1"/>
<path d="M852.823 581.969H878.758V577.454H852.823V581.969Z" fill="#5C58B1"/>
<path d="M798.402 591.2H869.495V586.685H798.402V591.2Z" fill="#5C58B1"/>
<path d="M798.402 600.684H823.094V596.17H798.402V600.684Z" fill="#5C58B1"/>
<path d="M827.354 600.684H845.135V596.17H827.354V600.684Z" fill="#5C58B1"/>
<path d="M798.402 509.503H878.758V504.986H798.402V509.503Z" fill="#5C58B1"/>
<path d="M798.402 500.042H878.758V495.525H798.402V500.042Z" fill="#5C58B1"/>
<path d="M798.402 518.743H849.212V514.229H798.402V518.743Z" fill="#5C58B1"/>
<path d="M852.823 518.743H878.758V514.229H852.823V518.743Z" fill="#5C58B1"/>
<path d="M798.402 527.974H878.758V523.457H798.402V527.974Z" fill="#5C58B1"/>
<path d="M798.402 537.458H823.094V532.943H798.402V537.458Z" fill="#5C58B1"/>
<path d="M827.354 537.458H878.758V532.943H827.354V537.458Z" fill="#5C58B1"/>
<path d="M708.555 572.729H788.912V568.212H708.555V572.729Z" fill="#5C58B1"/>
<path d="M708.555 563.268H788.912V558.754H708.555V563.268Z" fill="#5C58B1"/>
<path d="M708.555 581.969H788.912V577.454H708.555V581.969Z" fill="#5C58B1"/>
<path d="M708.555 591.2H788.912V586.685H708.555V591.2Z" fill="#5C58B1"/>
<path d="M708.555 600.684H788.912V596.17H708.555V600.684Z" fill="#5C58B1"/>
<path d="M798.402 632.135H878.758V627.62H798.402V632.135Z" fill="#5C58B1"/>
<path d="M798.402 622.674H878.758V618.16H798.402V622.674Z" fill="#5C58B1"/>
<path d="M827.949 641.375H878.759V636.861H827.949V641.375Z" fill="#5C58B1"/>
<path d="M798.402 641.375H824.335V636.861H798.402V641.375Z" fill="#5C58B1"/>
<path d="M798.402 650.609H860.101V646.094H798.402V650.609Z" fill="#5C58B1"/>
<path d="M864.39 650.609H878.758V646.094H864.39V650.609Z" fill="#5C58B1"/>
<path d="M819.482 660.093H878.758V655.575H819.482V660.093Z" fill="#5C58B1"/>
<path d="M798.402 660.093H816.183V655.575H798.402V660.093Z" fill="#5C58B1"/>
<path d="M736.077 785.212H610.441C598.821 785.212 589.405 775.793 589.405 764.177V722.392C589.405 710.775 598.821 701.356 610.441 701.356H736.077C747.697 701.356 757.116 710.775 757.116 722.392V764.177C757.116 775.793 747.697 785.212 736.077 785.212Z" fill="#4746A4"/>
<path d="M934.382 646.133C934.382 650.454 930.88 653.956 926.559 653.956C922.239 653.956 918.737 650.454 918.737 646.133C918.737 641.813 922.239 638.311 926.559 638.311C930.88 638.311 934.382 641.813 934.382 646.133Z" fill="#A08BCD"/>
<path d="M926.557 633.265C919.462 633.265 913.691 639.038 913.691 646.133C913.691 653.229 919.462 658.999 926.557 658.999C933.652 658.999 939.425 653.229 939.425 646.133C939.425 639.038 933.652 633.265 926.557 633.265ZM926.557 660.794C918.475 660.794 911.896 654.218 911.896 646.133C911.896 638.049 918.475 631.47 926.557 631.47C934.642 631.47 941.22 638.049 941.22 646.133C941.22 654.218 934.642 660.794 926.557 660.794Z" fill="#A08BCD"/>
<path d="M994.068 531.349H868.43C856.81 531.349 847.394 521.931 847.394 510.314V468.529C847.394 456.914 856.81 447.493 868.43 447.493H994.068C1005.69 447.493 1015.1 456.914 1015.1 468.529V510.314C1015.1 521.931 1005.69 531.349 994.068 531.349Z" fill="#4746A4"/>
<path d="M543.013 551.489H490.239V546.701H543.013V551.489Z" fill="#212C5A"/>
<path d="M678.759 551.489H556.546V546.701H678.759V551.489Z" fill="#212C5A"/>
<path d="M616.123 587.899C595.143 587.899 574.118 587.874 553.191 587.823L553.203 583.037C595.05 583.137 637.291 583.137 678.752 583.037L678.763 587.823C658.031 587.874 637.101 587.899 616.123 587.899Z" fill="#212C5A"/>
<path d="M678.759 569.657H533.967V564.869H678.759V569.657Z" fill="#212C5A"/>
<path d="M678.759 606.068H526.091V601.279H678.759V606.068Z" fill="#212C5A"/>
<path d="M678.758 624.236H504.916V619.45H678.758V624.236Z" fill="#212C5A"/>
<path d="M286.761 277.718H205.027V272.93H286.761V277.718Z" fill="#A08BCD"/>
<path d="M476.736 277.718H392.388V272.93H476.736V277.718Z" fill="#A08BCD"/>
<path d="M476.736 295.884H418.226V291.098H476.736V295.884Z" fill="#FAB743"/>
<path d="M476.736 332.297H394.158V327.509H476.736V332.297Z" fill="#FAB743"/>
<path d="M476.736 350.465H377.984V345.677H476.736V350.465Z" fill="#FAB743"/>
<path d="M476.736 371.705H349.712V366.919H476.736V371.705Z" fill="#FAB743"/>
<path d="M381.749 277.718H300.012V272.93H381.749V277.718Z" fill="#FAB743"/>
<path d="M410.751 314.129C398.265 314.129 385.735 314.112 360.676 314.075L344.384 314.054L344.389 309.266L360.683 309.289C410.793 309.359 410.797 309.359 460.553 309.289L476.736 309.266V314.054L460.56 314.075C435.679 314.112 423.237 314.129 410.751 314.129Z" fill="#FAB743"/>
<path d="M267.662 314.129C246.684 314.129 225.755 314.105 205.02 314.054L205.031 309.266C246.492 309.366 288.733 309.366 330.582 309.266L330.592 314.054C309.664 314.105 288.638 314.129 267.662 314.129Z" fill="#A08BCD"/>
<path d="M406.618 295.884H205.027V291.098H406.618V295.884Z" fill="#A08BCD"/>
<path d="M338.521 371.705H205.027V366.919H338.521V371.705Z" fill="#A08BCD"/>
<path d="M383.734 332.297H205.027V327.509H383.734V332.297Z" fill="#A08BCD"/>
<path d="M366.986 350.465H205.027V345.677H366.986V350.465Z" fill="#A08BCD"/>
<path d="M191.218 275.323C191.218 277.148 189.74 278.626 187.917 278.626C186.092 278.626 184.614 277.148 184.614 275.323C184.614 273.5 186.092 272.022 187.917 272.022C189.74 272.022 191.218 273.5 191.218 275.323Z" fill="#EE1A98"/>
<path d="M191.218 293.493C191.218 295.316 189.74 296.794 187.917 296.794C186.092 296.794 184.614 295.316 184.614 293.493C184.614 291.67 186.092 290.19 187.917 290.19C189.74 290.19 191.218 291.67 191.218 293.493Z" fill="#EE1A98"/>
<path d="M191.218 311.659C191.218 313.484 189.74 314.962 187.917 314.962C186.092 314.962 184.614 313.484 184.614 311.659C184.614 309.836 186.092 308.358 187.917 308.358C189.74 308.358 191.218 309.836 191.218 311.659Z" fill="#EE1A98"/>
<path d="M191.218 329.827C191.218 331.65 189.74 333.131 187.917 333.131C186.092 333.131 184.614 331.65 184.614 329.827C184.614 328.004 186.092 326.526 187.917 326.526C189.74 326.526 191.218 328.004 191.218 329.827Z" fill="#EE1A98"/>
<path d="M191.218 348.072C191.218 349.895 189.74 351.373 187.917 351.373C186.092 351.373 184.614 349.895 184.614 348.072C184.614 346.249 186.092 344.769 187.917 344.769C189.74 344.769 191.218 346.249 191.218 348.072Z" fill="#EE1A98"/>
<path d="M191.218 369.312C191.218 371.135 189.74 372.613 187.917 372.613C186.092 372.613 184.614 371.135 184.614 369.312C184.614 367.489 186.092 366.011 187.917 366.011C189.74 366.011 191.218 367.489 191.218 369.312Z" fill="#EE1A98"/>
<path d="M498.523 380.137C497.862 380.137 497.327 379.602 497.327 378.939V272.636C497.327 271.973 497.862 271.438 498.523 271.438C499.185 271.438 499.72 271.973 499.72 272.636V378.939C499.72 379.602 499.185 380.137 498.523 380.137Z" fill="#EE1A98"/>
<path d="M269.916 534.234H262.559C261.88 534.234 261.331 533.685 261.331 533.006C261.331 532.327 261.88 531.78 262.559 531.78H269.916C270.595 531.78 271.144 532.327 271.144 533.006C271.144 533.685 270.595 534.234 269.916 534.234ZM284.635 534.234H277.275C276.597 534.234 276.048 533.685 276.048 533.006C276.048 532.327 276.597 531.78 277.275 531.78H284.635C285.311 531.78 285.86 532.327 285.86 533.006C285.86 533.685 285.311 534.234 284.635 534.234ZM299.351 534.234H291.992C291.313 534.234 290.764 533.685 290.764 533.006C290.764 532.327 291.313 531.78 291.992 531.78H299.351C300.028 531.78 300.577 532.327 300.577 533.006C300.577 533.685 300.028 534.234 299.351 534.234ZM253.684 543.787C253.006 543.787 252.457 543.235 252.457 542.559V541.665C252.457 539.165 253.39 536.784 255.084 534.954C255.542 534.458 256.316 534.426 256.816 534.887C257.314 535.345 257.344 536.122 256.886 536.62C255.612 537.996 254.91 539.786 254.91 541.665V542.559C254.91 543.235 254.363 543.787 253.684 543.787ZM253.684 558.501C253.006 558.501 252.457 557.954 252.457 557.276V549.916C252.457 549.24 253.006 548.691 253.684 548.691C254.363 548.691 254.91 549.24 254.91 549.916V557.276C254.91 557.954 254.363 558.501 253.684 558.501ZM253.684 573.22C253.006 573.22 252.457 572.669 252.457 571.992V564.635C252.457 563.956 253.006 563.407 253.684 563.407C254.363 563.407 254.91 563.956 254.91 564.635V571.992C254.91 572.669 254.363 573.22 253.684 573.22ZM253.684 587.934C253.006 587.934 252.457 587.388 252.457 586.709V579.349C252.457 578.673 253.006 578.124 253.684 578.124C254.363 578.124 254.91 578.673 254.91 579.349V586.709C254.91 587.388 254.363 587.934 253.684 587.934ZM253.881 602.637C253.316 602.637 252.809 602.245 252.686 601.671C252.535 600.976 252.457 600.265 252.457 599.561V594.068C252.457 593.39 253.006 592.841 253.684 592.841C254.363 592.841 254.91 593.39 254.91 594.068V599.561C254.91 600.091 254.968 600.629 255.081 601.15C255.225 601.812 254.806 602.466 254.143 602.609L253.881 602.637ZM265.32 609.443H262.341C260.666 609.443 259.01 609.016 257.553 608.206C256.958 607.879 256.744 607.131 257.073 606.538C257.405 605.945 258.158 605.736 258.741 606.061C259.835 606.67 261.081 606.99 262.341 606.99H265.32C265.999 606.99 266.546 607.539 266.546 608.215C266.546 608.894 265.999 609.443 265.32 609.443ZM280.037 609.443H272.68C272.001 609.443 271.452 608.894 271.452 608.215C271.452 607.539 272.001 606.99 272.68 606.99H280.037C280.715 606.99 281.262 607.539 281.262 608.215C281.262 608.894 280.715 609.443 280.037 609.443ZM294.753 609.443H287.396C286.717 609.443 286.168 608.894 286.168 608.215C286.168 607.539 286.717 606.99 287.396 606.99H294.753C295.432 606.99 295.979 607.539 295.979 608.215C295.979 608.894 295.432 609.443 294.753 609.443Z" fill="#212C5A"/>
<path d="M321.446 582.5H282.054V577.596H321.446V582.5Z" fill="#212C5A"/>
<path d="M395.393 582.5H331.757V577.596H395.393V582.5Z" fill="#212C5A"/>
<path d="M395.393 624.236H356.003V619.332H395.393V624.236Z" fill="#212C5A"/>
<path d="M345.695 624.236H282.054V619.332H345.695V624.236Z" fill="#212C5A"/>
<path d="M351.338 596.716H282.054V591.81H351.338V596.716Z" fill="#212C5A"/>
<path d="M395.393 596.716H361.646V591.81H395.393V596.716Z" fill="#212C5A"/>
<path d="M339.07 610.67H282.054V605.762H339.07V610.67Z" fill="#212C5A"/>
<path d="M395.393 610.67H356.705V605.762H395.393V610.67Z" fill="#212C5A"/>
<path d="M302.676 518.329H282.054V556.724H302.676V518.329Z" fill="#FAB743"/>
<path d="M335.028 503.753H314.409V556.724H335.028V503.753Z" fill="#EE1A98"/>
<path d="M366.314 473.532H345.693V556.724H366.314V473.532Z" fill="#4746A4"/>
<path d="M351.919 610.67H344.518V605.762H351.919V610.67Z" fill="#212C5A"/>
<path d="M676.901 515.428H522.535V343.2H676.901V515.428Z" fill="#A08BCD"/>
<path d="M642.635 377.401H535V373.81H642.635V377.401Z" fill="white"/>
<path d="M588.701 403.535C570.215 403.535 551.767 403.517 534.995 403.475L535.005 399.885C568.543 399.968 608.78 399.968 642.631 399.885L642.64 403.475C625.714 403.517 607.189 403.535 588.701 403.535Z" fill="white"/>
<path d="M642.635 390.438H535V386.848H642.635V390.438Z" fill="white"/>
<path d="M613.468 416.573H535V412.982H613.468V416.573Z" fill="white"/>
<path d="M642.635 504.332H535V500.742H642.635V504.332Z" fill="white"/>
<path d="M642.631 478.258C608.778 478.177 568.54 478.177 535.005 478.258L534.995 474.67C568.54 474.589 608.782 474.589 642.64 474.67L642.631 478.258Z" fill="white"/>
<path d="M642.635 491.295H535V487.707H642.635V491.295Z" fill="white"/>
<path d="M613.468 465.163H535V461.57H613.468V465.163Z" fill="white"/>
<path d="M522.535 515.428H676.901V343.145H522.535V515.428ZM679.298 517.824H520.142V340.752H679.298V517.824Z" fill="#4746A4"/>
<path d="M678.098 341.947H521.335V362.58H678.098V341.947Z" fill="#4746A4"/>
<path d="M633.332 452.399C632.908 452.399 632.487 452.251 632.144 451.95L620.08 441.289C619.695 440.951 619.475 440.46 619.475 439.946C619.475 439.432 619.695 438.943 620.08 438.6L632.144 427.942C632.885 427.289 634.02 427.353 634.68 428.099C635.334 428.841 635.264 429.976 634.521 430.634L623.983 439.946L634.521 449.26C635.264 449.916 635.334 451.049 634.68 451.795C634.326 452.195 633.83 452.399 633.332 452.399Z" fill="white"/>
<path d="M651.941 452.399C651.445 452.399 650.949 452.195 650.595 451.795C649.942 451.049 650.011 449.916 650.75 449.26L661.292 439.946L650.75 430.634C650.011 429.976 649.942 428.841 650.595 428.099C651.25 427.356 652.383 427.289 653.131 427.942L665.193 438.6C665.58 438.943 665.798 439.432 665.798 439.946C665.798 440.46 665.58 440.951 665.193 441.289L653.131 451.95C652.786 452.251 652.365 452.399 651.941 452.399Z" fill="white"/>
<path d="M536.184 352.265L540.365 348.081C540.761 347.685 540.761 347.046 540.365 346.65C539.971 346.256 539.33 346.256 538.936 346.65L534.752 350.833L530.569 346.65C530.175 346.256 529.533 346.256 529.137 346.65C528.741 347.046 528.741 347.685 529.137 348.081L533.321 352.265L529.137 356.446C528.741 356.842 528.741 357.482 529.137 357.878C529.336 358.077 529.596 358.174 529.855 358.174C530.112 358.174 530.374 358.077 530.569 357.878L534.752 353.694L538.936 357.878C539.133 358.077 539.392 358.174 539.649 358.174C539.911 358.174 540.168 358.077 540.365 357.878C540.761 357.482 540.761 356.842 540.365 356.446L536.184 352.265Z" fill="white"/>
<path d="M554.118 348.246C551.903 348.246 550.103 350.048 550.103 352.265C550.103 354.479 551.903 356.282 554.118 356.282C556.337 356.282 558.137 354.479 558.137 352.265C558.137 350.048 556.337 348.246 554.118 348.246ZM554.118 358.174C550.861 358.174 548.211 355.524 548.211 352.265C548.211 349.006 550.861 346.353 554.118 346.353C557.38 346.353 560.03 349.006 560.03 352.265C560.03 355.524 557.38 358.174 554.118 358.174Z" fill="white"/>
<path d="M576.986 358.174H567.352C566.794 358.174 566.342 357.72 566.342 357.162C566.342 356.604 566.794 356.15 567.352 356.15H576.986C577.547 356.15 577.999 356.604 577.999 357.162C577.999 357.72 577.547 358.174 576.986 358.174Z" fill="white"/>
<path d="M408.676 188.707C388.302 195.152 366.485 183.82 360.041 163.449C353.597 143.073 364.929 121.256 385.302 114.809C405.676 108.367 427.492 119.699 433.939 140.073C440.381 160.446 429.049 182.265 408.676 188.707ZM473.203 111.332L459.263 115.741C458.799 115.887 458.362 116.079 457.942 116.297C453.745 109.076 448.361 102.791 442.125 97.6118C442.417 97.2273 442.688 96.8242 442.915 96.3864L449.594 83.3794C451.669 79.3325 450.069 74.3474 446.022 72.2695L433.012 65.5911C428.968 63.5132 423.983 65.114 421.905 69.1632L415.226 82.1702C415.002 82.608 414.833 83.062 414.691 83.5207C407.059 81.5285 399.044 80.8012 390.95 81.4984C390.887 81.0305 390.792 80.5649 390.646 80.1016L386.236 66.1587C384.864 61.8199 380.22 59.4084 375.881 60.7798L361.941 65.1904C357.602 66.5617 355.188 71.2086 356.559 75.5473L360.97 89.4879C361.118 89.9512 361.308 90.3867 361.526 90.806C354.308 95.0035 348.023 100.387 342.841 106.623C342.457 106.331 342.054 106.06 341.616 105.835L328.609 99.1569C326.661 98.1562 324.441 97.9686 322.352 98.6288L322.315 98.6404C320.216 99.3168 318.507 100.767 317.501 102.729L310.82 115.736C308.743 119.783 310.346 124.766 314.392 126.846L327.399 133.524C327.84 133.749 328.296 133.916 328.752 134.055C326.758 141.687 326.03 149.705 326.728 157.801C326.262 157.861 325.794 157.956 325.331 158.102L311.39 162.513C307.052 163.886 304.638 168.531 306.011 172.87L310.42 186.81C311.793 191.149 316.438 193.56 320.777 192.189L334.717 187.778C335.181 187.633 335.618 187.44 336.035 187.225C340.235 194.443 345.621 200.73 351.857 205.91C351.567 206.292 351.292 206.693 351.065 207.133L344.386 220.14C343.379 222.099 343.196 224.337 343.872 226.434C344.546 228.532 345.999 230.244 347.958 231.25L360.965 237.928C362.976 238.961 365.218 239.084 367.22 238.451C369.247 237.81 371.028 236.392 372.075 234.356L378.754 221.349C378.981 220.909 379.143 220.452 379.284 219.996C386.917 221.991 394.934 222.716 403.03 222.021C403.093 222.486 403.188 222.954 403.334 223.418L407.744 237.36C409.116 241.697 413.76 244.111 418.099 242.739L432.04 238.329C436.378 236.955 438.79 232.313 437.418 227.974L433.01 214.031C432.862 213.568 432.672 213.13 432.454 212.713C439.672 208.513 445.959 203.127 451.139 196.892C451.521 197.183 451.922 197.457 452.362 197.684L465.369 204.364C467.382 205.395 469.624 205.52 471.626 204.886C473.653 204.244 475.434 202.829 476.479 200.792L483.16 187.783C485.237 183.736 483.634 178.751 479.588 176.676L466.578 169.997C466.143 169.772 465.689 169.601 465.228 169.46C467.22 161.827 467.947 153.812 467.25 145.72C467.718 145.658 468.184 145.563 468.649 145.415L482.59 141.006C486.928 139.635 489.34 134.988 487.969 130.649L483.56 116.709C482.187 112.37 477.542 109.959 473.203 111.332Z" fill="#212C5A"/>
<path d="M466.761 495.729C461.809 507.858 447.914 513.696 435.788 508.745C423.661 503.793 417.823 489.898 422.774 477.769C427.726 465.643 441.62 459.807 453.747 464.758C465.874 469.71 471.712 483.605 466.761 495.729ZM455.6 434.986L452.211 443.284C452.098 443.56 452.017 443.842 451.957 444.122C446.909 443.272 441.836 443.344 436.95 444.252C436.883 443.963 436.8 443.678 436.682 443.4L433.172 435.151C432.079 432.586 429.102 431.386 426.536 432.48L418.289 435.989C415.722 437.083 414.522 440.057 415.616 442.626L419.127 450.87C419.243 451.148 419.392 451.408 419.554 451.653C415.62 454.47 412.136 457.961 409.292 462.047C409.048 461.894 408.789 461.755 408.513 461.644L400.216 458.255C397.633 457.201 394.675 458.443 393.621 461.026L390.232 469.323C389.178 471.906 390.422 474.864 393.002 475.921L401.302 479.307C401.578 479.419 401.858 479.502 402.141 479.562C401.288 484.612 401.362 489.683 402.268 494.568C401.981 494.636 401.694 494.719 401.416 494.837L393.169 498.347C391.932 498.875 390.975 499.848 390.468 501.089L390.459 501.113C389.954 502.366 389.968 503.739 390.496 504.983L394.008 513.23C395.099 515.797 398.075 516.994 400.642 515.901L408.889 512.394C409.169 512.273 409.424 512.125 409.669 511.963C412.484 515.894 415.977 519.38 420.066 522.227C419.91 522.47 419.774 522.73 419.66 523.006L416.271 531.303C415.217 533.886 416.461 536.842 419.042 537.898L427.342 541.285C429.925 542.341 432.883 541.097 433.937 538.514L437.326 530.217C437.437 529.941 437.518 529.661 437.578 529.378C442.628 530.231 447.701 530.159 452.589 529.251C452.654 529.536 452.735 529.823 452.853 530.101L456.365 538.35C456.893 539.594 457.875 540.555 459.128 541.06C460.382 541.567 461.758 541.551 462.999 541.021L471.248 537.514C472.522 536.969 473.461 535.962 473.947 534.769C474.44 533.562 474.47 532.167 473.919 530.877L470.41 522.63C470.292 522.35 470.141 522.093 469.979 521.85C473.912 519.033 477.399 515.54 480.243 511.456C480.489 511.606 480.746 511.745 481.021 511.859L489.319 515.245C491.904 516.299 494.86 515.058 495.916 512.475L499.303 504.177C500.357 501.597 499.116 498.636 496.533 497.582L488.235 494.193C487.957 494.082 487.677 493.999 487.396 493.938C488.247 488.891 488.175 483.818 487.267 478.93C487.554 478.865 487.839 478.784 488.119 478.664L496.366 475.154C497.642 474.61 498.58 473.604 499.067 472.411C499.558 471.207 499.588 469.81 499.039 468.517L495.53 460.271C494.436 457.704 491.459 456.506 488.893 457.597L480.646 461.109C480.371 461.227 480.111 461.373 479.863 461.538C477.049 457.604 473.558 454.12 469.472 451.273C469.624 451.03 469.763 450.773 469.875 450.495L473.264 442.197C474.318 439.617 473.076 436.656 470.493 435.602L462.195 432.213C459.613 431.159 456.654 432.406 455.6 434.986Z" fill="#A08BCD"/>
<path d="M391.647 435.181L391.235 434.773C388.096 437.954 383.954 439.543 379.803 439.545C375.724 439.543 371.647 438.007 368.519 434.921C365.339 431.785 363.747 427.641 363.747 423.49C363.747 419.41 365.285 415.333 368.371 412.208C371.508 409.028 375.652 407.436 379.803 407.436C383.882 407.436 387.959 408.972 391.084 412.058C394.265 415.197 395.856 419.341 395.856 423.492C395.856 427.571 394.318 431.648 391.235 434.773L391.647 435.181L392.059 435.586C395.365 432.239 397.017 427.861 397.014 423.492C397.017 419.044 395.307 414.597 391.9 411.233C388.55 407.927 384.172 406.276 379.803 406.278C375.358 406.276 370.908 407.985 367.546 411.393C364.241 414.743 362.589 419.121 362.589 423.49C362.589 427.935 364.299 432.385 367.706 435.746C371.056 439.052 375.434 440.703 379.803 440.703C384.248 440.703 388.696 438.994 392.059 435.586L391.647 435.181ZM400.644 392.859L400.232 392.453L395.8 396.94L395.395 397.436L395.842 397.802L396.15 397.311C393.048 395.377 389.68 394.042 386.21 393.313L386.09 393.878L386.662 393.973C386.697 393.762 386.722 393.538 386.722 393.297V393.25L386.653 386.97C386.625 384.712 384.783 382.896 382.529 382.893H382.478H382.483L376.205 382.965C373.947 382.993 372.131 384.832 372.128 387.086L372.131 387.139V387.135L372.2 393.412C372.202 393.67 372.237 393.908 372.277 394.13L372.846 394.026L372.714 393.463C369.353 394.251 366.101 395.606 363.11 397.531L363.425 398.018L363.868 397.645L363.474 397.174L363.455 397.154L358.968 392.724C358.167 391.932 357.115 391.536 356.071 391.538C355.01 391.536 353.942 391.946 353.138 392.761L348.727 397.232C347.935 398.031 347.539 399.083 347.539 400.128C347.539 401.189 347.949 402.257 348.764 403.063L353.254 407.492L353.749 407.897L354.115 407.45L353.624 407.142C351.688 410.242 350.356 413.612 349.624 417.082L350.191 417.203L350.286 416.63C350.069 416.593 349.839 416.568 349.598 416.568L349.554 416.57L349.568 417.149L349.561 416.57L343.284 416.64C342.193 416.651 341.159 417.089 340.395 417.865L340.386 417.877H340.383L340.381 417.879C339.624 418.653 339.207 419.679 339.207 420.758V420.814V420.809L339.278 427.087L339.857 427.082V426.503H339.855H339.269L339.276 427.089C339.304 429.346 341.145 431.162 343.397 431.162H343.443H343.446L349.726 431.092C349.987 431.09 350.228 431.053 350.446 431.011L350.34 430.444L349.774 430.576C350.562 433.937 351.917 437.189 353.842 440.18L354.329 439.867L353.956 439.425L353.488 439.821L353.467 439.837L349.038 444.324C348.245 445.126 347.849 446.177 347.849 447.222C347.849 448.283 348.259 449.351 349.075 450.155L353.543 454.565C354.345 455.357 355.394 455.753 356.439 455.751C357.502 455.753 358.57 455.341 359.374 454.526L363.803 450.039L364.211 449.543L363.761 449.177L363.455 449.668C366.557 451.605 369.925 452.937 373.398 453.669L373.516 453.101L372.946 453.006C372.909 453.217 372.881 453.446 372.881 453.696V453.736L373.46 453.724L372.881 453.729L372.953 460.009C372.965 461.107 373.407 462.145 374.192 462.911C374.964 463.667 375.992 464.086 377.072 464.084H377.12L383.4 464.014C384.528 464 385.55 463.532 386.284 462.789C387.021 462.045 387.475 461.019 387.475 459.893V459.847L387.406 453.567C387.401 453.305 387.366 453.064 387.324 452.846L386.755 452.955L386.889 453.518C390.25 452.731 393.503 451.373 396.493 449.45L396.178 448.964L395.736 449.337L396.132 449.805L396.15 449.826L400.637 454.255C401.439 455.047 402.488 455.443 403.533 455.443C404.594 455.443 405.662 455.033 406.468 454.215L410.878 449.749C411.668 448.948 412.064 447.896 412.064 446.854C412.064 445.79 411.654 444.722 410.839 443.919L406.352 439.49L405.856 439.082L405.488 439.531L405.979 439.837C407.916 436.735 409.25 433.367 409.98 429.895L409.414 429.777L409.319 430.346C409.53 430.383 409.762 430.411 410.01 430.411H410.04L416.322 430.339C417.45 430.328 418.474 429.858 419.209 429.112C419.943 428.37 420.399 427.344 420.397 426.221V426.174V426.172L420.327 419.892C420.3 417.633 418.46 415.817 416.206 415.817H416.155H416.158L409.873 415.887H409.878C409.625 415.892 409.384 415.922 409.157 415.966L409.266 416.533L409.829 416.401C409.041 413.04 407.686 409.79 405.761 406.799L405.275 407.114L405.648 407.557L406.118 407.161L406.139 407.142L410.568 402.655C411.358 401.854 411.754 400.804 411.754 399.76C411.754 398.696 411.344 397.628 410.531 396.825L406.06 392.414C405.259 391.624 404.209 391.228 403.165 391.228C402.104 391.228 401.036 391.638 400.232 392.453L400.644 392.859L401.057 393.266C401.636 392.678 402.398 392.386 403.165 392.386C403.92 392.386 404.67 392.669 405.247 393.239L409.716 397.649C410.304 398.228 410.596 398.99 410.596 399.76C410.596 400.515 410.313 401.263 409.743 401.842L405.351 406.292L404.902 406.67L404.513 406.999L404.788 407.427C406.639 410.302 407.943 413.431 408.701 416.668L408.828 417.207L409.373 417.103L409.896 417.045L416.176 416.976H416.206C417.823 416.973 419.153 418.284 419.169 419.906L419.239 426.186V426.184L419.241 426.221C419.239 427.029 418.914 427.761 418.384 428.299C417.851 428.838 417.121 429.174 416.311 429.181L410.031 429.253H410.035H410.01L409.509 429.204L408.96 429.114L408.847 429.656C408.143 432.999 406.859 436.24 404.997 439.223L404.728 439.656L405.576 440.351L410.026 444.743C410.612 445.322 410.906 446.085 410.906 446.854C410.906 447.606 410.624 448.357 410.054 448.934L405.643 453.402C405.062 453.991 404.3 454.283 403.533 454.285C402.778 454.283 402.027 454 401.45 453.43L397 449.038L396.621 448.591L396.294 448.202L395.865 448.477C392.988 450.326 389.861 451.632 386.623 452.39L386.083 452.517L386.187 453.064L386.247 453.581L386.317 459.858V459.856V459.893C386.317 460.704 385.992 461.436 385.462 461.973C384.929 462.511 384.2 462.847 383.386 462.856L377.109 462.925H377.072C376.289 462.925 375.564 462.631 375.003 462.082C374.433 461.526 374.121 460.792 374.109 459.997L374.039 453.715V453.71V453.696L374.088 453.196L374.178 452.649L373.636 452.534C370.294 451.832 367.053 450.548 364.069 448.686L363.636 448.415L362.941 449.263L358.549 453.713C357.97 454.301 357.208 454.593 356.439 454.593C355.684 454.593 354.935 454.31 354.356 453.74L349.888 449.33C349.302 448.751 349.01 447.989 349.008 447.222C349.01 446.467 349.292 445.716 349.86 445.137L354.254 440.689L354.704 440.31L355.093 439.983L354.817 439.554C352.964 436.677 351.66 433.545 350.902 430.312L350.777 429.77L350.231 429.874L349.714 429.934L343.432 430.004H343.434H343.397C341.782 430.006 340.453 428.695 340.434 427.075L339.855 427.082V427.662H339.857H340.444L340.365 420.791V420.758C340.365 419.978 340.661 419.25 341.208 418.69L340.796 418.284L341.203 418.694L341.217 418.683L341.22 418.678C341.776 418.118 342.503 417.807 343.295 417.798L349.58 417.729H349.582L349.598 417.726L350.096 417.772L350.643 417.863L350.757 417.321C351.463 413.98 352.744 410.74 354.606 407.756L354.878 407.323L354.027 406.628L349.577 402.238C348.991 401.657 348.699 400.895 348.697 400.128C348.699 399.373 348.982 398.622 349.552 398.045L353.96 393.577C354.542 392.988 355.304 392.697 356.071 392.697C356.826 392.697 357.576 392.979 358.155 393.549L362.603 397.939L362.981 398.388L363.31 398.78L363.738 398.504C366.615 396.653 369.742 395.349 372.979 394.591L373.516 394.464L373.416 393.922L373.358 393.399L373.287 387.121V387.119V387.086C373.287 385.469 374.598 384.14 376.219 384.123L382.502 384.051H382.529C384.146 384.051 385.476 385.363 385.494 386.984L385.564 393.262V393.297L385.52 393.783L385.427 394.33L385.972 394.446C389.312 395.15 392.553 396.433 395.536 398.296L395.967 398.564L396.662 397.716L401.057 393.266L400.644 392.859Z" fill="#A08BCD"/>
<path d="M47.9717 339.272H19.3516V334.486H47.9717V339.272Z" fill="#212C5A"/>
<path d="M132.801 339.272H59.7994V334.486H132.801V339.272Z" fill="#212C5A"/>
<path d="M132.801 390.674H87.6134V385.886H132.801V390.674Z" fill="#212C5A"/>
<path d="M75.7877 390.674H19.3516V385.886H75.7877V390.674Z" fill="#212C5A"/>
<path d="M82.263 356.777H19.3516V351.989H82.263V356.777Z" fill="#212C5A"/>
<path d="M132.801 356.777H94.089V351.989H132.801V356.777Z" fill="#212C5A"/>
<path d="M68.1876 373.966H19.3516V369.177H68.1876V373.966Z" fill="#212C5A"/>
<path d="M132.801 373.966H88.4208V369.177H132.801V373.966Z" fill="#212C5A"/>
<path d="M82.9291 373.966H74.4385V369.177H82.9291V373.966Z" fill="#212C5A"/>
<path d="M802.28 787.647H773.662V782.859H802.28V787.647Z" fill="#212C5A"/>
<path d="M887.11 787.647H814.108V782.859H887.11V787.647Z" fill="#212C5A"/>
<path d="M887.11 839.045H841.922V834.259H887.11V839.045Z" fill="#212C5A"/>
<path d="M830.094 839.045H773.662V834.259H830.094V839.045Z" fill="#212C5A"/>
<path d="M836.571 805.153H773.662V800.363H836.571V805.153Z" fill="#212C5A"/>
<path d="M887.11 805.153H848.399V800.363H887.11V805.153Z" fill="#212C5A"/>
<path d="M822.498 822.339H773.662V817.551H822.498V822.339Z" fill="#212C5A"/>
<path d="M887.109 822.339H842.728V817.551H887.109V822.339Z" fill="#212C5A"/>
<path d="M837.236 822.339H828.746V817.551H837.236V822.339Z" fill="#212C5A"/>
<path d="M812.496 247.743C796.07 251.259 779.845 240.759 776.326 224.333C772.812 207.906 783.313 191.682 799.739 188.163C816.165 184.647 832.387 195.15 835.906 211.576C839.423 228.002 828.92 244.226 812.496 247.743ZM868.784 192.025L857.547 194.431C857.171 194.51 856.815 194.628 856.472 194.767C853.725 188.805 849.983 183.481 845.494 178.962C845.749 178.684 845.994 178.387 846.201 178.061L852.402 168.383C854.331 165.371 853.451 161.352 850.437 159.422L840.762 153.221C837.75 151.292 833.731 152.172 831.801 155.186L825.6 164.864C825.392 165.188 825.227 165.531 825.079 165.881C819.258 163.75 813.038 162.58 806.654 162.52C806.637 162.149 806.6 161.776 806.519 161.403L804.112 150.163C803.364 146.666 799.91 144.43 796.412 145.178L785.173 147.585C781.675 148.333 779.44 151.787 780.188 155.288L782.592 166.525C782.676 166.9 782.792 167.257 782.931 167.6C776.968 170.345 771.647 174.086 767.125 178.577C766.847 178.32 766.551 178.077 766.224 177.869L756.546 171.667C755.096 170.738 753.372 170.426 751.691 170.787L751.66 170.794C749.965 171.165 748.519 172.172 747.586 173.632L741.385 183.31C739.455 186.321 740.335 190.341 743.347 192.27L753.027 198.471C753.354 198.682 753.697 198.844 754.044 198.988C751.913 204.812 750.743 211.031 750.683 217.418C750.312 217.432 749.942 217.471 749.566 217.552L738.327 219.959C734.829 220.707 732.591 224.161 733.342 227.659L735.749 238.899C736.497 242.396 739.951 244.632 743.448 243.884L754.688 241.477C755.063 241.396 755.42 241.28 755.761 241.141C758.508 247.104 762.251 252.427 766.745 256.949C766.486 257.224 766.243 257.516 766.032 257.845L759.831 267.523C758.897 268.983 758.587 270.72 758.957 272.411C759.328 274.104 760.336 275.552 761.795 276.483L771.473 282.687C772.97 283.644 774.714 283.91 776.329 283.565C777.962 283.213 779.463 282.238 780.433 280.723L786.635 271.044C786.843 270.718 787.008 270.373 787.151 270.025C792.975 272.159 799.195 273.326 805.581 273.389C805.595 273.757 805.634 274.13 805.715 274.505L808.122 285.745C808.871 289.243 812.322 291.478 815.822 290.73L827.062 288.323C830.557 287.575 832.795 284.119 832.047 280.623L829.64 269.383C829.559 269.008 829.443 268.651 829.302 268.309C835.269 265.564 840.59 261.82 845.112 257.326C845.39 257.583 845.682 257.829 846.008 258.04L855.687 264.239C857.185 265.198 858.93 265.464 860.544 265.116C862.177 264.767 863.678 263.791 864.647 262.276L870.85 252.598C872.778 249.587 871.897 245.565 868.886 243.636L859.208 237.437C858.883 237.228 858.541 237.062 858.191 236.916C860.322 231.092 861.489 224.875 861.55 218.49C861.92 218.474 862.295 218.437 862.668 218.356L873.906 215.949C877.406 215.201 879.641 211.747 878.893 208.249L876.486 197.01C875.736 193.512 872.282 191.276 868.784 192.025Z" fill="#212C5A"/>
<path d="M624.783 207.032L601.935 198.344V192.104L624.783 183.416V189.416L604.191 196.904V193.544L624.783 201.032V207.032ZM626.11 216.824L641.95 171.608H648.622L632.782 216.824H626.11ZM649.467 207.032V201.032L670.059 193.544V196.904L649.467 189.416V183.416L672.315 192.104V198.344L649.467 207.032Z" fill="white"/>
<path d="M135.146 781.824H140.978V807.024H135.146V781.824ZM123.698 807.024H117.866V781.824H123.698V807.024ZM135.578 796.692H123.266V791.76H135.578V796.692ZM152.161 807.024V786.576H144.097V781.824H166.057V786.576H157.993V807.024H152.161ZM169.194 807.024V781.824H174.018L184.746 799.608H182.19L192.738 781.824H197.526L197.598 807.024H192.126L192.09 790.212H193.098L184.674 804.36H182.046L173.442 790.212H174.666V807.024H169.194ZM203.577 807.024V781.824H209.409V802.272H222.045V807.024H203.577Z" fill="white"/>
<path d="M210.939 462.6C208.667 462.6 206.571 462.184 204.651 461.352C202.763 460.488 201.211 459.272 199.995 457.704L204.315 452.52C205.243 453.736 206.219 454.664 207.243 455.304C208.267 455.912 209.371 456.216 210.555 456.216C213.723 456.216 215.307 454.36 215.307 450.648V434.664H203.499V428.424H223.035V450.216C223.035 454.376 222.011 457.48 219.963 459.528C217.915 461.576 214.907 462.6 210.939 462.6ZM241.756 462.6C239.068 462.6 236.492 462.248 234.028 461.544C231.564 460.808 229.58 459.864 228.076 458.712L230.716 452.856C232.156 453.88 233.852 454.728 235.804 455.4C237.788 456.04 239.788 456.36 241.804 456.36C243.34 456.36 244.572 456.216 245.5 455.928C246.46 455.608 247.164 455.176 247.612 454.632C248.06 454.088 248.284 453.464 248.284 452.76C248.284 451.864 247.932 451.16 247.228 450.648C246.524 450.104 245.596 449.672 244.444 449.352C243.292 449 242.012 448.68 240.604 448.392C239.228 448.072 237.836 447.688 236.428 447.24C235.052 446.792 233.788 446.216 232.636 445.512C231.484 444.808 230.54 443.88 229.804 442.728C229.1 441.576 228.748 440.104 228.748 438.312C228.748 436.392 229.26 434.648 230.284 433.08C231.34 431.48 232.908 430.216 234.988 429.288C237.1 428.328 239.74 427.848 242.908 427.848C245.02 427.848 247.1 428.104 249.148 428.616C251.196 429.096 253.004 429.832 254.572 430.824L252.172 436.728C250.604 435.832 249.036 435.176 247.468 434.76C245.9 434.312 244.364 434.088 242.86 434.088C241.356 434.088 240.124 434.264 239.164 434.616C238.204 434.968 237.516 435.432 237.1 436.008C236.684 436.552 236.476 437.192 236.476 437.928C236.476 438.792 236.828 439.496 237.532 440.04C238.236 440.552 239.164 440.968 240.316 441.288C241.468 441.608 242.732 441.928 244.108 442.248C245.516 442.568 246.908 442.936 248.284 443.352C249.692 443.768 250.972 444.328 252.124 445.032C253.276 445.736 254.204 446.664 254.908 447.816C255.644 448.968 256.012 450.424 256.012 452.184C256.012 454.072 255.484 455.8 254.428 457.368C253.372 458.936 251.788 460.2 249.676 461.16C247.596 462.12 244.956 462.6 241.756 462.6Z" fill="white"/>
<path d="M644.726 761.6C642.134 761.6 639.718 761.184 637.478 760.352C635.27 759.488 633.35 758.272 631.718 756.704C630.086 755.136 628.806 753.296 627.878 751.184C626.982 749.072 626.534 746.752 626.534 744.224C626.534 741.696 626.982 739.376 627.878 737.264C628.806 735.152 630.086 733.312 631.718 731.744C633.382 730.176 635.318 728.976 637.526 728.144C639.734 727.28 642.15 726.848 644.774 726.848C647.686 726.848 650.31 727.36 652.646 728.384C655.014 729.376 656.998 730.848 658.598 732.8L653.606 737.408C652.454 736.096 651.174 735.12 649.766 734.48C648.358 733.808 646.822 733.472 645.158 733.472C643.59 733.472 642.15 733.728 640.838 734.24C639.526 734.752 638.39 735.488 637.43 736.448C636.47 737.408 635.718 738.544 635.174 739.856C634.662 741.168 634.406 742.624 634.406 744.224C634.406 745.824 634.662 747.28 635.174 748.592C635.718 749.904 636.47 751.04 637.43 752C638.39 752.96 639.526 753.696 640.838 754.208C642.15 754.72 643.59 754.976 645.158 754.976C646.822 754.976 648.358 754.656 649.766 754.016C651.174 753.344 652.454 752.336 653.606 750.992L658.598 755.6C656.998 757.552 655.014 759.04 652.646 760.064C650.31 761.088 647.67 761.6 644.726 761.6ZM674.701 761.6C672.013 761.6 669.437 761.248 666.973 760.544C664.509 759.808 662.525 758.864 661.021 757.712L663.661 751.856C665.101 752.88 666.797 753.728 668.749 754.4C670.733 755.04 672.733 755.36 674.749 755.36C676.285 755.36 677.517 755.216 678.445 754.928C679.405 754.608 680.109 754.176 680.557 753.632C681.005 753.088 681.229 752.464 681.229 751.76C681.229 750.864 680.877 750.16 680.173 749.648C679.469 749.104 678.541 748.672 677.389 748.352C676.237 748 674.957 747.68 673.549 747.392C672.173 747.072 670.781 746.688 669.373 746.24C667.997 745.792 666.733 745.216 665.581 744.512C664.429 743.808 663.485 742.88 662.749 741.728C662.045 740.576 661.693 739.104 661.693 737.312C661.693 735.392 662.205 733.648 663.229 732.08C664.285 730.48 665.853 729.216 667.933 728.288C670.045 727.328 672.685 726.848 675.853 726.848C677.965 726.848 680.045 727.104 682.093 727.616C684.141 728.096 685.949 728.832 687.517 729.824L685.117 735.728C683.549 734.832 681.981 734.176 680.413 733.76C678.845 733.312 677.309 733.088 675.805 733.088C674.301 733.088 673.069 733.264 672.109 733.616C671.149 733.968 670.461 734.432 670.045 735.008C669.629 735.552 669.421 736.192 669.421 736.928C669.421 737.792 669.773 738.496 670.477 739.04C671.181 739.552 672.109 739.968 673.261 740.288C674.413 740.608 675.677 740.928 677.053 741.248C678.461 741.568 679.853 741.936 681.229 742.352C682.637 742.768 683.917 743.328 685.069 744.032C686.221 744.736 687.149 745.664 687.853 746.816C688.589 747.968 688.957 749.424 688.957 751.184C688.957 753.072 688.429 754.8 687.373 756.368C686.317 757.936 684.733 759.2 682.621 760.16C680.541 761.12 677.901 761.6 674.701 761.6ZM705.311 761.6C702.623 761.6 700.047 761.248 697.583 760.544C695.119 759.808 693.135 758.864 691.631 757.712L694.271 751.856C695.711 752.88 697.407 753.728 699.359 754.4C701.343 755.04 703.343 755.36 705.359 755.36C706.895 755.36 708.127 755.216 709.055 754.928C710.015 754.608 710.719 754.176 711.167 753.632C711.615 753.088 711.839 752.464 711.839 751.76C711.839 750.864 711.487 750.16 710.783 749.648C710.079 749.104 709.151 748.672 707.999 748.352C706.847 748 705.567 747.68 704.159 747.392C702.783 747.072 701.391 746.688 699.983 746.24C698.607 745.792 697.343 745.216 696.191 744.512C695.039 743.808 694.095 742.88 693.359 741.728C692.655 740.576 692.303 739.104 692.303 737.312C692.303 735.392 692.815 733.648 693.839 732.08C694.895 730.48 696.463 729.216 698.543 728.288C700.655 727.328 703.295 726.848 706.463 726.848C708.575 726.848 710.655 727.104 712.703 727.616C714.751 728.096 716.559 728.832 718.127 729.824L715.727 735.728C714.159 734.832 712.591 734.176 711.023 733.76C709.455 733.312 707.919 733.088 706.415 733.088C704.911 733.088 703.679 733.264 702.719 733.616C701.759 733.968 701.071 734.432 700.655 735.008C700.239 735.552 700.031 736.192 700.031 736.928C700.031 737.792 700.383 738.496 701.087 739.04C701.791 739.552 702.719 739.968 703.871 740.288C705.023 740.608 706.287 740.928 707.663 741.248C709.071 741.568 710.463 741.936 711.839 742.352C713.247 742.768 714.527 743.328 715.679 744.032C716.831 744.736 717.759 745.664 718.463 746.816C719.199 747.968 719.567 749.424 719.567 751.184C719.567 753.072 719.039 754.8 717.983 756.368C716.927 757.936 715.343 759.2 713.231 760.16C711.151 761.12 708.511 761.6 705.311 761.6Z" fill="white"/>
<path d="M865.506 500.408C863.714 500.408 861.996 500.173 860.354 499.704C858.711 499.213 857.388 498.584 856.386 497.816L858.146 493.912C859.106 494.594 860.236 495.16 861.538 495.608C862.86 496.034 864.194 496.248 865.538 496.248C866.562 496.248 867.383 496.152 868.002 495.96C868.642 495.746 869.111 495.458 869.41 495.096C869.708 494.733 869.858 494.317 869.858 493.848C869.858 493.25 869.623 492.781 869.154 492.44C868.684 492.077 868.066 491.789 867.298 491.576C866.53 491.341 865.676 491.128 864.738 490.936C863.82 490.722 862.892 490.466 861.954 490.168C861.036 489.869 860.194 489.485 859.426 489.016C858.658 488.546 858.028 487.928 857.538 487.16C857.068 486.392 856.834 485.41 856.834 484.216C856.834 482.936 857.175 481.773 857.858 480.728C858.562 479.661 859.607 478.818 860.994 478.2C862.402 477.56 864.162 477.24 866.274 477.24C867.682 477.24 869.068 477.41 870.434 477.752C871.799 478.072 873.004 478.562 874.05 479.224L872.45 483.16C871.404 482.562 870.359 482.125 869.314 481.848C868.268 481.549 867.244 481.4 866.242 481.4C865.239 481.4 864.418 481.517 863.778 481.752C863.138 481.986 862.679 482.296 862.402 482.68C862.124 483.042 861.986 483.469 861.986 483.96C861.986 484.536 862.22 485.005 862.69 485.368C863.159 485.709 863.778 485.986 864.546 486.2C865.314 486.413 866.156 486.626 867.074 486.84C868.012 487.053 868.94 487.298 869.858 487.576C870.796 487.853 871.65 488.226 872.418 488.696C873.186 489.165 873.804 489.784 874.274 490.552C874.764 491.32 875.01 492.29 875.01 493.464C875.01 494.722 874.658 495.874 873.954 496.92C873.25 497.965 872.194 498.808 870.786 499.448C869.399 500.088 867.639 500.408 865.506 500.408ZM889.432 500.408C887.661 500.408 886.019 500.12 884.504 499.544C883.011 498.968 881.709 498.157 880.6 497.112C879.512 496.066 878.659 494.84 878.04 493.432C877.443 492.024 877.144 490.488 877.144 488.824C877.144 487.16 877.443 485.624 878.04 484.216C878.659 482.808 879.523 481.581 880.632 480.536C881.741 479.49 883.043 478.68 884.536 478.104C886.029 477.528 887.651 477.24 889.4 477.24C891.171 477.24 892.792 477.528 894.264 478.104C895.757 478.68 897.048 479.49 898.136 480.536C899.245 481.581 900.109 482.808 900.728 484.216C901.347 485.602 901.656 487.138 901.656 488.824C901.656 490.488 901.347 492.034 900.728 493.464C900.109 494.872 899.245 496.098 898.136 497.144C897.048 498.168 895.757 498.968 894.264 499.544C892.792 500.12 891.181 500.408 889.432 500.408ZM889.4 495.992C890.403 495.992 891.32 495.821 892.152 495.48C893.005 495.138 893.752 494.648 894.392 494.008C895.032 493.368 895.523 492.61 895.864 491.736C896.227 490.861 896.408 489.89 896.408 488.824C896.408 487.757 896.227 486.786 895.864 485.912C895.523 485.037 895.032 484.28 894.392 483.64C893.773 483 893.037 482.509 892.184 482.168C891.331 481.826 890.403 481.656 889.4 481.656C888.397 481.656 887.469 481.826 886.616 482.168C885.784 482.509 885.048 483 884.408 483.64C883.768 484.28 883.267 485.037 882.904 485.912C882.563 486.786 882.392 487.757 882.392 488.824C882.392 489.869 882.563 490.84 882.904 491.736C883.267 492.61 883.757 493.368 884.376 494.008C885.016 494.648 885.763 495.138 886.616 495.48C887.469 495.821 888.397 495.992 889.4 495.992ZM905.552 500.024V477.624H910.736V495.8H921.968V500.024H905.552ZM924.864 500.024V477.624H930.048V500.024H924.864ZM935.364 500.024V477.624H945.54C947.972 477.624 950.116 478.093 951.972 479.032C953.828 479.949 955.279 481.24 956.324 482.904C957.37 484.568 957.892 486.541 957.892 488.824C957.892 491.085 957.37 493.058 956.324 494.744C955.279 496.408 953.828 497.709 951.972 498.648C950.116 499.565 947.972 500.024 945.54 500.024H935.364ZM940.548 495.768H945.284C946.778 495.768 948.068 495.49 949.156 494.936C950.266 494.36 951.119 493.549 951.716 492.504C952.335 491.458 952.644 490.232 952.644 488.824C952.644 487.394 952.335 486.168 951.716 485.144C951.119 484.098 950.266 483.298 949.156 482.744C948.068 482.168 946.778 481.88 945.284 481.88H940.548V495.768ZM961.802 500.024V477.624H966.986V500.024H961.802ZM976.942 500.024V481.848H969.774V477.624H989.294V481.848H982.126V500.024H976.942ZM997.214 500.024V490.872L998.398 494.008L988.542 477.624H994.046L1001.6 490.2H998.43L1006.01 477.624H1011.1L1001.25 494.008L1002.4 490.872V500.024H997.214Z" fill="white"/>
</svg>
