<?xml version="1.0" encoding="UTF-8" standalone="no"?>
<!-- Created with Inkscape (http://www.inkscape.org/) -->

<svg
   version="1.1"
   id="svg2"
   width="4800"
   height="4800"
   viewBox="0 0 4800 4800"
   sodipodi:docname="29314445_5700_9_07.eps"
   xmlns:inkscape="http://www.inkscape.org/namespaces/inkscape"
   xmlns:sodipodi="http://sodipodi.sourceforge.net/DTD/sodipodi-0.dtd"
   xmlns="http://www.w3.org/2000/svg"
   xmlns:svg="http://www.w3.org/2000/svg">
  <defs
     id="defs6" />
  <sodipodi:namedview
     id="namedview4"
     pagecolor="#ffffff"
     bordercolor="#000000"
     borderopacity="0.25"
     inkscape:showpageshadow="2"
     inkscape:pageopacity="0.0"
     inkscape:pagecheckerboard="0"
     inkscape:deskcolor="#d1d1d1" />
  <g
     id="g8"
     inkscape:groupmode="layer"
     inkscape:label="ink_ext_XXXXXX"
     transform="matrix(1.3333333,0,0,-1.3333333,0,5333.3333)">
    <g
       id="g10"
       transform="scale(0.1)">
  
      <path
         d="M 32777.3,5637.5 H 7222.96 c 0,762 66.62,1526.8 205.32,2286.1 243.21,1340.1 707.26,2662.9 1404.48,3919.5 1090.55,1961.2 2620.04,3523.1 4398.64,4631 285.7,179.3 578.6,345.4 877,500.1 1606.2,833.2 3373.9,1318.7 5182.2,1419.5 15.9,0.9 31.9,2.7 47.9,3.2 110.4,5.9 220.8,10.5 332.6,12.8 220.9,6.4 441.7,6.4 662.1,0.9 1500.3,-37.4 3009.7,-341.3 4458.5,-930.4 478.2,-193.5 950.9,-418.4 1413.1,-676.2 99.9,-55.2 198.5,-110.9 295.7,-169.8 59.3,-34.2 117.7,-70.2 174.7,-105.8 3905.5,-2388.3 6098,-6577.1 6102.1,-10890.9"
         style="fill:#ffd243;fill-opacity:1;fill-rule:nonzero;stroke:none"
         id="path14" />
      <path
         d="m 8478.3,7536 c 243.19,1340.2 707.25,2663 1404.46,3919.6 1090.54,1961.1 2620.04,3523.1 4398.74,4630.9 285.6,179.4 578.5,345.5 876.9,500.1 1606.2,833.2 3373.9,1318.7 5182.2,1419.6 15.9,0.9 31.9,2.7 47.9,3.2 110.4,5.9 220.8,10.4 332.6,12.7 220.9,6.4 441.7,6.4 662.1,0.9 1147,-28.6 2299.3,-213.5 3425.9,-562 -55.8,23.5 -111.5,46.6 -167.4,69.2 -1448.8,589.1 -2958.2,893 -4458.5,930.4 -220.4,5.5 -441.2,5.5 -662.1,-0.9 -111.8,-2.3 -222.2,-6.9 -332.6,-12.8 -16,-0.5 -32,-2.3 -47.9,-3.2 -1808.3,-100.8 -3576,-586.3 -5182.1,-1419.5 -298.5,-154.7 -591.4,-320.8 -877.1,-500.1 C 11302.8,15416.2 9773.32,13854.3 8682.77,11893.1 7985.55,10636.5 7521.48,9313.7 7278.29,7973.6 7139.57,7214.3 7072.95,6449.5 7072.95,5687.5 H 8281.1 c 20.78,616.9 85.02,1234.5 197.2,1848.5"
         style="fill:#fcac38;fill-opacity:1;fill-rule:nonzero;stroke:none"
         id="path16" />
      <path
         d="m 23180.7,11782.2 c 1348.2,-67 2300.5,392.7 2127.2,1026.6 -173.4,633.9 -1406.9,1202.1 -2755,1269 -1348.2,67 -2300.5,-392.6 -2127.1,-1026.5 173.3,-633.9 1406.8,-1202.1 2754.9,-1269.1"
         style="fill:#ffd243;fill-opacity:1;fill-rule:nonzero;stroke:none"
         id="path18" />
      <path
         d="m 31317.7,5637.7 h -3008.4 c 482.3,848.4 1160.4,1420.6 1791.5,1422.2 624.8,1.6 1083.2,-575.4 1216.9,-1422.2"
         style="fill:#fcac38;fill-opacity:1;fill-rule:nonzero;stroke:none"
         id="path20" />
      <path
         d="m 14164.7,14356.3 c -700.5,-28.7 -1252.7,-536.7 -1233.4,-1134.6 19.4,-597.9 603,-1059.2 1303.6,-1030.5 700.5,28.7 1252.7,536.7 1233.3,1134.6 -19.3,597.9 -602.9,1059.3 -1303.5,1030.5"
         style="fill:#fcac38;fill-opacity:1;fill-rule:nonzero;stroke:none"
         id="path22" />
      <path
         d="m 14150.7,13606.1 c -482.3,-211 -725.1,-693.8 -542.4,-1078.4 182.6,-384.5 721.6,-525.1 1203.9,-314.1 482.2,211.1 725.1,693.9 542.4,1078.4 -182.7,384.5 -721.7,525.2 -1203.9,314.1"
         style="fill:#ffd243;fill-opacity:1;fill-rule:nonzero;stroke:none"
         id="path24" />
      <path
         d="m 14238.8,12083.1 c -564.5,-77.5 -1207.6,215.9 -1431.7,766.3 -252,593.7 94,1258.1 644.5,1528.5 773.8,415.9 1958.9,93.3 2145,-838.3 40.8,-215.9 12,-439.6 -83.1,-635.5 -30,-64.5 -71.6,-122 -109.9,-180 -14.4,-21.9 -43.9,-27.9 -65.9,-13.4 -21.6,14.2 -27.4,42.8 -14.5,64.5 118.6,227.7 152.1,488.4 79.5,719.4 -218,727.1 -1188.4,942.9 -1803.9,601.8 -715.4,-377 -785.1,-1245.5 -80.1,-1681.1 208.2,-130.9 458,-200.4 715.2,-214.2 71.8,-3.2 75.5,-109.1 4.9,-118"
         style="fill:#371a45;fill-opacity:1;fill-rule:nonzero;stroke:none"
         id="path26" />
      <path
         d="m 15840.7,14042.1 c 369.2,-427.3 423,-1087.2 155.4,-1586.5 -257.6,-510.8 -773.7,-855.7 -1321,-981.3 -545.6,-124.7 -1141.4,-51 -1620.7,244.7 -476.4,279.1 -827.6,813.7 -797.6,1372.9 3.7,58 88.3,60.4 95.1,3 33.2,-251.8 129.4,-486.5 275.8,-682.5 679.8,-891.9 2148.7,-899.2 2907.4,-107.6 246.3,259.4 402.6,605.9 401.8,966.3 2,241.5 -68.6,483.9 -193.1,703.4 -35.4,61.4 51.1,122 96.9,67.6"
         style="fill:#371a45;fill-opacity:1;fill-rule:nonzero;stroke:none"
         id="path28" />
      <path
         d="m 10759.7,10352.6 c 1666.6,-155.9 2513.2,-1947.6 2083.4,-3459.9 -128.6,-487.8 -366.8,-942.2 -694.7,-1310.8 -20.4,-22.9 -55.5,-25 -78.4,-4.6 -19.9,17.7 -23.9,46.8 -11.2,69.1 236.3,415 405,857.9 486.6,1312.7 263,1393.8 -388.1,2838.6 -1811,3258.8 -77,22.2 -56.4,141.6 25.3,134.7"
         style="fill:#371a45;fill-opacity:1;fill-rule:nonzero;stroke:none"
         id="path30" />
      <path
         d="m 11736.9,6978.7 c -117,-576.2 -440.1,-1049.7 -862.7,-1341 H 8906 c -596.11,432.9 -913.66,1247.1 -744.14,2086 222.84,1103 1204.16,1830.5 2191.84,1625.1 986.9,-206.1 1606.1,-1267 1383.2,-2370.1"
         style="fill:#fcac38;fill-opacity:1;fill-rule:nonzero;stroke:none"
         id="path32" />
      <path
         d="m 11522.2,6585.3 c -193,-422.6 -490.1,-747.5 -829.6,-947.8 H 9622.15 c -533.41,598.7 -663.45,1593.4 -262.37,2473.6 259.18,566.7 686.72,974.6 1163.52,1169 120.5,-25.5 239.1,-68.4 352.8,-129.1 808,-428 1097.3,-1576.5 646.1,-2565.7"
         style="fill:#ffd243;fill-opacity:1;fill-rule:nonzero;stroke:none"
         id="path34" />
      <path
         d="m 8603.25,5606.3 c -195.07,98 -344.77,283.6 -411.82,490.2 -17.64,55.5 55.28,97.9 94.83,56.2 72.56,-73.5 135.67,-148.1 202.61,-219.4 59.45,-65.4 143.21,-150.5 198.58,-219.2 46.88,-56.3 -19.37,-139.5 -84.2,-107.8"
         style="fill:#371a45;fill-opacity:1;fill-rule:nonzero;stroke:none"
         id="path36" />
      <path
         d="m 8177.1,8088.2 c 419.5,1064.6 1731.68,1719 2773.7,1100.4 888,-527.1 1079.8,-1705.6 636.7,-2590.7 -66.8,-143 -150.2,-277.1 -245,-401.8 -191,-247.8 -430.7,-457.1 -703.7,-598.3 -59.3,-29.8 -112.1,52.5 -59.1,93.3 669.7,508.4 1053.4,1408.4 852.4,2233.2 -69.1,289.4 -216.8,566.1 -436.7,769.1 -557.9,539.5 -1441.41,465 -2042.88,29.9 -261.41,-183.5 -476.49,-421.5 -653.03,-696.9 -42.66,-70.7 -154.19,-15.6 -122.39,61.8"
         style="fill:#371a45;fill-opacity:1;fill-rule:nonzero;stroke:none"
         id="path38" />
      <path
         d="m 17688.2,5569.2 c -302.8,286 -478.9,678 -587.1,1072.5 -34.5,130.6 -60.7,263.1 -73.1,397.6 -2.6,27.1 17.4,51.1 44.4,53.6 20.8,1.9 39.9,-9.6 48.7,-27.3 l 173.4,-351 c 169.2,-338.3 360.7,-664.4 591.8,-961.8 100.1,-131.6 -75.3,-293.1 -198.1,-183.6"
         style="fill:#371a45;fill-opacity:1;fill-rule:nonzero;stroke:none"
         id="path40" />
      <path
         d="m 25024.5,7877 c 170.8,-778.1 44,-1650.7 -446.7,-2292.5 -105.4,-139.6 -317.2,2.8 -227,153.1 99.2,159.9 191.8,320.4 268.7,485.9 154.9,335.4 229,706.9 274.9,1073.8 21.4,187.5 33.2,377.4 35.5,569.7 0,55.4 83.1,64.6 94.6,10"
         style="fill:#371a45;fill-opacity:1;fill-rule:nonzero;stroke:none"
         id="path42" />
      <path
         d="m 22268.7,5637.7 h -2543.6 c -690.9,394.7 -1187.5,1106.2 -1275.8,1958.6 -146.5,1407.1 875.4,2665.4 2282.5,2811.8 1407.1,145.7 2665.4,-876.2 2811.8,-2282.5 107.5,-1040.2 -422.6,-1999.3 -1274.9,-2487.9"
         style="fill:#fcac38;fill-opacity:1;fill-rule:nonzero;stroke:none"
         id="path44" />
      <path
         d="M 23651.9,7219.9 C 23539.7,6549 23127.4,5987.9 22560,5637.7 h -2801.5 c -508.6,316.7 -875.5,798.2 -1025.9,1349 378.8,1219.3 1688.8,2021.5 3080.8,1830.5 786.3,-109.1 1442.9,-511 1860.8,-1068.9 14.3,-172.7 7.9,-350.2 -22.3,-528.4"
         style="fill:#ffd243;fill-opacity:1;fill-rule:nonzero;stroke:none"
         id="path46" />
      <path
         d="m 21324.4,10379.6 c 1101,-92.5 2124.2,-977.9 2263.9,-2100.3 144.4,-921.3 -347.8,-1874.5 -1131.5,-2358.6 -1143.6,-738.6 -2767.9,-511.5 -3622.1,562.7 -732.2,889.1 -702.2,2204.4 103.6,3034.7 47.4,48.2 121.6,-17.5 80.1,-70 -160.3,-202.7 -286.2,-429.7 -369.4,-669.7 -165.2,-475.9 -160.7,-1007.8 26.8,-1474 686.4,-1735.3 3207,-1979.4 4248.1,-453.7 583.7,843.7 444.6,1983.3 -288,2698.8 -353.5,357.7 -825.3,596.8 -1330.7,699.4 -81.1,16.4 -63.6,137.7 19.2,130.7"
         style="fill:#371a45;fill-opacity:1;fill-rule:nonzero;stroke:none"
         id="path48" />
      <path
         d="m 24867,12648.7 c 448.5,295 782.1,694.1 943.1,1177.8 291.8,876.5 -63.8,1778.9 -827.3,2529.3 -501,492.3 -1183.5,897.1 -1987.7,1135 -2030.3,600.6 -4067.8,-89.3 -4551,-1540.9 -179.8,-540.2 -119,-1109.7 132.8,-1642.8 424.8,-899.7 1407.5,-1644.4 2682.3,-2021.5 l 3607.8,363.1"
         style="fill:#ffd243;fill-opacity:1;fill-rule:nonzero;stroke:none"
         id="path50" />
      <path
         d="m 25745,13848.1 c 234.1,823.7 -156.6,1660.7 -733.1,2246.9 -1165.3,1186 -3003,1692.6 -4617.1,1312.2 -803,-196.8 -1580.3,-678.8 -1898.3,-1474.8 -11.2,-28.5 -43.7,-42.4 -72.1,-30.9 -26.3,10.7 -39.9,39.1 -32.7,65.8 58.3,215.1 152.6,422.5 278.3,609.9 379,567 1000.1,936.4 1643.5,1126.3 2060.8,618.5 4906.1,-413.5 5610.1,-2560.6 63.1,-219.3 97,-448.5 88.9,-676.6 -6.8,-228 -54.9,-453 -137.4,-661.4 -13.9,-35.3 -53.8,-52.6 -89.1,-38.6 -32.8,13 -50.1,48.5 -41,81.8"
         style="fill:#371a45;fill-opacity:1;fill-rule:nonzero;stroke:none"
         id="path52" />
      <path
         d="m 21995.4,12753.6 c 1596.7,-174.7 2950.6,631.5 3023.8,1800.7 73.2,1169.3 -1161.9,2258.8 -2758.7,2433.5 -1596.7,174.7 -2950.5,-631.5 -3023.8,-1800.7 -73.2,-1169.2 1161.9,-2258.7 2758.7,-2433.5"
         style="fill:#fcac38;fill-opacity:1;fill-rule:nonzero;stroke:none"
         id="path54" />
      <path
         d="m 21984.9,13883.6 c 1360.4,-47 2439.6,614.1 2410.5,1476.6 -29.1,862.5 -1155.6,1599.7 -2516,1646.7 -1360.4,47 -2439.6,-614.1 -2410.4,-1476.5 29.1,-862.5 1155.6,-1599.8 2515.9,-1646.8"
         style="fill:#ffd243;fill-opacity:1;fill-rule:nonzero;stroke:none"
         id="path56" />
      <path
         d="m 20077.6,16529.4 c -667,-474.2 -901.9,-1283.7 -523.3,-2017.8 603.8,-1151.5 2039.1,-1704.8 3291.2,-1619.7 986.9,56.1 2086,682.2 1989.8,1787.5 -125.5,1065.4 -1108,1791 -2064.9,2130.7 -65.5,22.7 -35.9,122.1 31.4,105.9 1064.1,-260.6 2173.7,-1042.7 2336.8,-2203.8 127.1,-947.3 -565.1,-1723.4 -1422.3,-2009.7 -811.8,-287.5 -1719.8,-231.6 -2521.1,53.1 -1048.9,373.6 -2112.9,1283.2 -2079.7,2485.1 15.2,293.9 108.5,582.4 268,824 157.4,239.9 374.7,434.3 618.7,579.2 76.4,43.7 144.7,-63.3 75.4,-114.5"
         style="fill:#371a45;fill-opacity:1;fill-rule:nonzero;stroke:none"
         id="path58" />
      <path
         d="M 30578.3,5637.7 H 28330 c 389.2,639.9 897,1067.2 1363.3,1078.4 479.9,11.9 799.9,-418.6 885,-1078.4"
         style="fill:#ffd243;fill-opacity:1;fill-rule:nonzero;stroke:none"
         id="path60" />
      <path
         d="m 31125.3,6242.8 c -367.9,490.9 -881.5,675.8 -1449,469.9 -548.7,-200.8 -987.7,-631.4 -1379.6,-1071.5 -39.8,-47.3 -119.3,1.6 -93.6,58.7 367.2,873.8 1379.1,1765.3 2379.5,1351.2 162.6,-72.4 305.9,-181.8 417.2,-311.6 110.6,-130.7 194.8,-277.2 246.5,-432.1 12.1,-36.5 -7.6,-75.9 -44,-88 -28.7,-9.6 -59.4,0.8 -77,23.4"
         style="fill:#371a45;fill-opacity:1;fill-rule:nonzero;stroke:none"
         id="path62" />
      <path
         d="m 30839.4,6498.8 c -100,0.1 -199.4,67.7 -286,211 116.8,-48.8 227.5,-118.1 330.5,-206.5 -14.8,-3 -29.7,-4.5 -44.5,-4.5"
         style="fill:#fedeaf;fill-opacity:1;fill-rule:nonzero;stroke:none"
         id="path64" />
      <path
         d="m 31081.5,6633.2 c -25.3,36.5 -52.6,72 -81.7,106.3 -111.3,129.8 -254.6,239.2 -417.2,311.6 -61.6,25.5 -123.2,46.1 -184.7,62 -1.4,5.5 -2.8,11 -4.1,16.6 -980,4013.7 -3504.2,5279.5 -3567.6,6823.9 -9.8,239 116.7,352.2 333.6,352.2 771.1,0 2684.1,-1432.1 3672.3,-3741.7 849.3,-1985.1 633.9,-3487.4 249.4,-3930.9"
         style="fill:#ffedb4;fill-opacity:1;fill-rule:nonzero;stroke:none"
         id="path66" />
      <path
         d="m 30883.9,6503.3 c -103,88.4 -213.7,157.7 -330.5,206.5 -59.2,98.1 -112.4,231.8 -155.5,403.3 61.5,-15.9 123.1,-36.5 184.7,-62 162.6,-72.4 305.9,-181.8 417.2,-311.6 29.1,-34.3 56.4,-69.8 81.7,-106.3 -62.7,-72.3 -129.8,-116.4 -197.6,-129.9"
         style="fill:#afa3b5;fill-opacity:1;fill-rule:nonzero;stroke:none"
         id="path68" />
      <path
         d="m 26289.6,14473 c -81.8,0 -174.8,15.2 -276,46 1.6,210.6 -31.8,421.5 -90,623.9 -235.4,718 -710.3,1311.3 -1315.3,1759.9 354,-137.7 736.7,-373 1121.6,-734.2 1149.2,-1078.7 1082,-1695.6 559.7,-1695.6"
         style="fill:#ffedb4;fill-opacity:1;fill-rule:nonzero;stroke:none"
         id="path70" />
      <path
         d="m 25796.5,14604.1 c -91.8,43.4 -187.7,97.7 -286.3,163.5 -145.5,97 -293.6,183.1 -441.6,260.9 -250.1,820.9 -985.3,1418.7 -1780.7,1732.5 37.6,65.7 75.9,130.9 115,195.6 10.9,17.9 21.5,35.8 32.1,53.7 65.7,18.5 136.4,32.4 211.4,40.9 508.3,-237.1 974.7,-558.4 1365.5,-956.2 399.2,-405.9 709.3,-932.2 784.6,-1490.9"
         style="fill:#ffedb4;fill-opacity:1;fill-rule:nonzero;stroke:none"
         id="path72" />
      <path
         d="m 26013.6,14519 c -68.8,21 -141.5,49.3 -217.1,85.1 -75.3,558.7 -385.4,1085 -784.6,1490.9 -390.8,397.8 -857.2,719.1 -1365.5,956.2 57.4,6.5 117.3,9.9 179.5,9.9 233.4,0 498.7,-47.8 782.4,-158.3 605,-448.6 1079.9,-1041.9 1315.3,-1759.9 58.2,-202.4 91.6,-413.3 90,-623.9"
         style="fill:#afa3b5;fill-opacity:1;fill-rule:nonzero;stroke:none"
         id="path74" />
      <path
         d="m 24694.3,15209.9 c -100.9,45.3 -200.8,87.8 -298.4,128 -0.1,7.4 -0.3,14.8 -0.5,22.3 -6.5,191.2 -66.9,376.3 -171.8,549.1 197.7,-206.2 360.7,-439.6 470.7,-699.4"
         style="fill:#fedeaf;fill-opacity:1;fill-rule:nonzero;stroke:none"
         id="path76" />
      <path
         d="m 24395.9,15337.9 c -605.3,249.5 -1130.1,417.3 -1355.4,701.8 -29.1,36.7 -53.8,73.5 -74.4,110.1 77.4,159.3 159.4,318.5 245.8,475.7 372.6,-180.7 727.9,-420.4 1011.7,-716.2 104.9,-172.8 165.3,-357.9 171.8,-549.1 0.2,-7.5 0.4,-14.9 0.5,-22.3"
         style="fill:#ffedb4;fill-opacity:1;fill-rule:nonzero;stroke:none"
         id="path78" />
      <path
         d="m 25068.6,15028.5 c -125.4,65.9 -250.7,125.9 -374.3,181.4 -110,259.8 -273,493.2 -470.7,699.4 -283.8,295.8 -639.1,535.5 -1011.7,716.2 25,45.4 50.3,90.5 76,135.5 795.4,-313.8 1530.6,-911.6 1780.7,-1732.5"
         style="fill:#afa3b5;fill-opacity:1;fill-rule:nonzero;stroke:none"
         id="path80" />
      <path
         d="m 20012.2,18239.6 c -113.7,0 -226.1,-1.5 -336.6,-4.5 -103.9,-2.4 -210.9,-6.7 -328,-13.1 l -23.3,-1.2 c -8.8,-0.6 -17.6,-1.1 -26.4,-1.5 -1767.2,-99.1 -3534.8,-583.4 -5109.4,-1400.2 -294.5,-152.5 -585.4,-318.5 -864.5,-493.4 C 11523.7,15204.5 10023.7,13625.1 8985.71,11758.1 8312.32,10545.5 7846.01,9244.7 7599.82,7891.9 7475.46,7208.3 7407.93,6509.7 7398.79,5812.8 l 25201.51,10.4 c -66.2,4350.4 -2305.8,8286.7 -6016.3,10555.9 -57.4,35.6 -114.4,70.6 -172,104.3 -98.6,59 -198.7,115.3 -292.8,168 -450.2,250.3 -919.3,474.6 -1393.9,666.5 -1403.3,571 -2882.4,879.8 -4396.7,917.9 -106,2.5 -211.7,3.8 -316.4,3.8 M 7222.73,5462.7 c -96.58,0 -174.91,78.3 -175.01,174.9 -0.68,775.8 69.19,1555.4 207.77,2317 253.02,1390.5 732.22,2727.3 1424.31,3973.4 1066.8,1919 2608.6,3542.3 4458.8,4694.6 286.8,179.6 586,350.4 888.9,507.3 1618.1,839.3 3434.6,1336.9 5253.1,1439 l 22,1.2 c 9.5,0.6 19,1.1 28.5,1.5 118.2,6.5 228.8,10.9 335.6,13.4 217.6,6 443.3,6.1 670.5,0.7 1556.9,-39.2 3077.5,-356.6 4519.7,-943.4 487.5,-197.2 969.7,-427.8 1432.8,-685.2 96.9,-54.3 199.4,-112 300.5,-172.5 58.7,-34.4 118.4,-70.9 177.3,-107.5 1912,-1169.2 3493.3,-2823.3 4572.2,-4782.9 1050.8,-1908.6 1608.3,-4068.3 1612.1,-6245.6 0.1,-46.4 -18.3,-91 -51.1,-123.9 -32.9,-32.9 -77.4,-51.4 -123.8,-51.4 L 7222.82,5462.7 h -0.09"
         style="fill:#371a45;fill-opacity:1;fill-rule:nonzero;stroke:none"
         id="path82" />
      <path
         d="m 25885.7,20877.3 c -26.6,-569.1 -92.5,-1102.8 -202,-1533.4 -86.7,-340 -359.8,-597.7 -704.7,-662.1 -385.1,-72.2 -976,-117.7 -1761.1,7.2 l -565.2,6967.9 c 0,0 617.5,55.3 1277.2,-32.4 457.2,-60.5 934.3,-189.4 1241.4,-451.9 511,-437.4 797.7,-2536.1 714.4,-4295.3"
         style="fill:#ffffff;fill-opacity:1;fill-rule:nonzero;stroke:none"
         id="path84" />
      <path
         d="m 23366.8,18828.2 c 719.2,-100.4 1254.4,-51 1582.8,10.5 281,52.6 508.4,266.3 579.4,544.6 101.8,400.4 170,919.6 197.2,1501.5 v 0.1 c 85.8,1812 -228.2,3797.8 -658.8,4166.4 -240.1,205.3 -629.9,344.9 -1158.5,414.9 -438.5,58.3 -862.7,51.3 -1083.9,41.3 l 541.8,-6679.3 m 796.8,-376.7 c -280.5,0 -605,21.6 -970.8,79.8 -72.8,11.6 -128.1,71.4 -134.1,144.8 l -565.2,6967.9 c -7.1,87.4 57.6,164.2 144.9,172 26,2.3 642.9,55.8 1312.5,-33.2 590.7,-78.2 1036.2,-242.7 1324.2,-488.8 581.5,-497.8 852.5,-2684 770.1,-4424.1 -28.1,-603.1 -99.6,-1144.4 -206.7,-1565.4 -101.6,-398.4 -427.4,-704.4 -830.1,-779.7 -207.4,-38.9 -491,-73.3 -844.8,-73.3"
         style="fill:#371a45;fill-opacity:1;fill-rule:nonzero;stroke:none"
         id="path86" />
      <path
         d="m 24163.8,18770.8 c -45.6,0 -92.4,0.6 -140.5,1.9 78.9,721.5 -36.4,1318 -128.4,1650.9 138.7,-27.7 269.9,-43.6 393.4,-47.6 1.6,-8.6 3.3,-17.1 5,-25.7 44.6,-225.2 243.8,-381.9 466.1,-381.9 30,0 60.5,2.8 91,8.8 l 493.4,96 c 152.5,29.6 281.1,134.2 344,274.5 -35.9,-364.7 -89.6,-692 -158.8,-964.4 -71,-278.3 -298.4,-492 -579.4,-544.6 -192.5,-36.1 -455.9,-67.9 -785.8,-67.9 m 595.1,1516.9 c -66.8,0 -127.1,43.3 -147.8,107.3 149.6,24.3 284.4,70.9 403.9,139.7 215.3,124 346.5,298.5 426.3,466.5 17.1,-5.3 34,-10.5 51.4,-15.7 -18.3,-164 -46.5,-327.6 -88.1,-483.7 -15.8,-59.5 -62.5,-103.6 -121.9,-115.1 l -493.3,-96 c -10.2,-2 -20.4,-3 -30.5,-3 m -1281.6,4644.4 c -134.6,71.8 -260,126.1 -368.3,166.7 134.2,128.2 261.6,263.7 381.4,405.8 106,-5.8 217.1,-14.6 330,-27.5 -105.2,-146.9 -227.1,-332.3 -343.1,-545"
         style="fill:#d7d1da;fill-opacity:1;fill-rule:nonzero;stroke:none"
         id="path88" />
      <path
         d="m 24164.4,18610.8 c -52.3,0 -106.2,0.8 -161.4,2.4 7.8,53.8 14.6,107 20.3,159.5 48.1,-1.3 94.9,-1.9 140.5,-1.9 329.9,0 593.3,31.8 785.8,67.9 281,52.6 508.4,266.3 579.4,544.6 69.2,272.4 122.9,599.7 158.8,964.4 10.3,23.1 18.9,47.1 25.5,72 41.3,155.3 70.6,316.7 90.5,478.6 27,-7 54.4,-14 81.9,-21 -26.6,-569.1 -92.5,-1102.8 -202,-1533.4 -86.7,-340 -359.8,-597.7 -704.7,-662.1 -210.6,-39.5 -482.8,-71 -814.6,-71 m -344,6866.3 c -112.9,12.9 -224,21.7 -330,27.5 42.1,49.9 83.2,100.6 123.4,152.2 102.6,-7.6 208.8,-18 316.1,-32.3 -33.4,-43.3 -70.3,-92.7 -109.5,-147.4"
         style="fill:#371a45;fill-opacity:1;fill-rule:nonzero;stroke:none"
         id="path90" />
      <path
         d="m 24759.4,19968.4 c -222.3,0 -421.5,156.7 -466.1,381.9 -36.7,185.5 -60.2,378 -69.9,572.3 -4.3,88 63.5,163 151.6,167.4 87.6,4.3 163,-63.5 167.4,-151.6 8.9,-178.8 30.5,-355.8 64.2,-526 16.6,-83.5 98.5,-138.5 182.8,-121.7 l 493.3,96 c 59.4,11.5 106.1,55.6 121.9,115.1 194.5,730.7 97.7,1624 47.1,1974.1 -3.1,21 -20.9,36.4 -42,36.4 h -1.6 c -609.6,-23.7 -708.6,-46.2 -717.9,-48.8 -85,-22.8 -172.9,27.5 -195.9,112.5 -23,85 26.9,172.5 111.8,195.7 30.8,8.4 124.3,33.9 789.6,59.8 184,8.2 345.5,-126 372.1,-309.8 53.5,-369.6 155.2,-1314.4 -54.5,-2102 -46.8,-175.9 -191.9,-312 -369.5,-346.5 l -493.4,-96 c -30.5,-6 -61,-8.8 -91,-8.8"
         style="fill:#371a45;fill-opacity:1;fill-rule:nonzero;stroke:none"
         id="path92" />
      <path
         d="m 25372.8,21283.7 c -84.8,-343.9 -417,-1016.6 -1719,-635.9 0,0 726.5,-1767.9 -387.5,-3608.5 -836,-1380.9 -1299,-2988.9 -1478.2,-3706.3 -94.9,-378.7 -339.1,-708.1 -684.9,-890.2 -261.1,-137.6 -583.2,-199.1 -912.5,3.4 -760,466.9 -767.2,654.8 -767.2,662.1 0,0 -414.6,-23.7 -754.2,105.1 l -0.5,0.5 c -212.6,80.4 -395.7,220.9 -428.1,464.5 -2,11.6 -2.9,23.2 -3.9,35.3 -20.3,280.5 61,516.9 204.4,697 197.1,250.9 512.9,392.8 837,392.8 0,0 383.6,1614.4 674.2,2510.5 l -994.9,45.5 -0.5,0.5 -58.1,2.4 c 0,0 -1114,-2446 -1537.8,-3778 0,0 -52.3,-419.9 -1425,-306.6 -1125.6,92.5 -1920,218 -2191.2,540.6 -1,1.4 -1.5,2.4 -2.4,3.4 -58.1,69.7 -91.6,148.6 -98.8,238.7 -40.2,508.6 339,1179 1372.1,936.8 157.9,1226.9 389.9,2336.5 896.1,3010.7 l -190.8,4323.9 c 0,0 395.7,1884.1 1841.5,2356.3 1445.3,472.3 5138.5,363.3 5138.5,363.3 0,0 1150.3,-193.2 1840.5,-1349.9 312.4,-523.1 517.8,-1030.7 649.5,-1428.8 v -1.5 c 99.8,-302.2 157.5,-541 186,-677.6 21.8,-102.7 20.9,-208.3 -4.3,-310"
         style="fill:#ffffff;fill-opacity:1;fill-rule:nonzero;stroke:none"
         id="path94" />
      <path
         d="m 17202.9,13605.8 -0.1,-0.1 0.1,0.1 m -0.1,-0.3 v -0.4 0.4 m 0,-0.5 -0.1,-0.4 0.1,0.4 m -0.1,-0.4 -0.1,-0.4 0.1,0.4 m 2380.5,-495.5 v -0.2 0.2 m 0,-0.3 v -0.5 0.5 m -2.4,26.9 c 13.7,-28.3 115.4,-198.2 693.5,-553.4 233.2,-143.4 480,-142.8 754.4,1.8 298,156.9 518.3,444 604.5,787.8 203,812.7 667.4,2380.6 1496.5,3750.1 1056.6,1745.8 383.3,3448.3 376.3,3465.3 -23.1,56.7 -11.7,121.8 29.3,167.3 41.1,45.5 104.4,63.8 163.4,46.4 501.1,-146.5 890.3,-143 1156.9,10.5 227.6,131 322.5,349.9 362.1,510.4 v 0.2 c 19.3,77.6 20.3,157.8 3.2,238.5 -23.8,113.8 -79,350.4 -181.4,660.6 -1.3,3.8 -2.3,7.5 -3.3,11.3 -163.9,493.1 -376.4,959.8 -631.7,1387.2 -609.3,1021.1 -1612,1250.4 -1720.6,1272.5 -237.6,6.3 -3710.9,89 -5071.7,-355.8 C 16346.5,24123 15927,22508.6 15881.6,22317.3 l 189.9,-4302.3 c 1.6,-36.9 -9.7,-73.3 -31.9,-102.9 -518.5,-690.7 -728.5,-1871.4 -865.4,-2935.2 -5.7,-44.8 -30.2,-85.1 -67.4,-110.9 -37.2,-25.8 -83.4,-34.6 -127.4,-24.2 -396.5,92.8 -717.2,46.3 -927.8,-134.5 -206.3,-177.2 -263.8,-443.8 -248.7,-634.2 4.5,-56.1 24.3,-103.6 62.3,-149.1 v -0.1 c 1.8,-2.2 3.7,-4.5 5.4,-6.9 253.3,-292.4 1148.4,-403.5 2078.6,-480 1070.7,-88.5 1243.5,161.3 1256.2,183.1 1,4.3 2.2,8.6 3.5,12.8 421.8,1325.7 1533.4,3771.2 1544.6,3795.7 27,59.1 87.2,95.8 152.1,93.4 l 58.1,-2.5 c 4.3,-0.2 8.6,-0.5 12.8,-1 l 983.1,-45 c 49.8,-2.3 95.7,-27.7 124.1,-68.6 28.3,-40.9 35.9,-92.8 20.6,-140.2 -285.3,-879.6 -667,-2482 -670.8,-2498.1 -17.1,-72 -81.4,-122.8 -155.4,-122.8 -282.1,0 -548.1,-124 -711.3,-331.7 -128.1,-161 -186.9,-363.6 -170.7,-586.9 0.5,-6.1 0.9,-13.2 2.1,-20.4 0.3,-1.8 0.5,-3.6 0.8,-5.4 7.4,-55.4 29.8,-224 326.3,-336.1 2.9,-1.1 5.9,-2.3 8.7,-3.6 301.2,-111.4 676.7,-92.3 680.5,-91.9 44.7,1.8 86.7,-13.4 118.6,-43.5 25.2,-23.8 41.8,-54.9 47.7,-88.6 m 1053,-979.1 c -182.9,0 -360.2,51.2 -526.7,153.6 -408.2,250.6 -673.9,466.9 -784.6,636.7 -155.8,1.3 -449.7,18.5 -709.8,117.2 -3.3,1.2 -6.4,2.5 -9.5,3.9 -383.5,148.3 -494.9,400 -520.5,586.8 -2.4,15.1 -3.8,30.3 -5.1,46.1 -22.2,305.9 60.4,585.3 238.6,809.3 197.6,251.4 503.2,413.3 834.6,446.6 86.1,355.5 355,1448 587,2207.1 l -738.1,33.8 c -210.8,-468.4 -1112.7,-2492.1 -1483,-3651 -29.5,-150.6 -237.4,-540.1 -1593.7,-428 -1192.7,98 -1993.6,232.1 -2300.3,596.9 -2.5,2.9 -4.8,5.8 -7,8.9 -77.4,94.7 -121.5,203.4 -131.2,323.2 -27.5,348.1 106.7,685.2 359,901.9 183.7,157.8 508,317.8 1036.2,236.7 140.1,1036.9 360.1,2155.8 870.2,2870.7 l -188.4,4267.8 c -0.6,13.4 0.5,26.8 3.3,39.9 16.9,80.6 432.1,1980.1 1948.2,2475.3 1455,475.5 5040.9,375.6 5192.8,371.1 7.3,-0.2 14.6,-0.9 21.8,-2.1 49.9,-8.4 1231.4,-219.3 1951.2,-1425.5 268.9,-450.3 492.3,-941.7 663.9,-1460.6 1.3,-3.8 2.4,-7.7 3.4,-11.6 105.2,-320.1 162.5,-566.1 187.4,-684.8 27.1,-128 25.2,-256.3 -5.7,-381.2 -54.5,-220.9 -187.7,-523.4 -512.8,-710.6 -287.2,-165.4 -663.1,-202.4 -1120.1,-111.1 162.4,-587.9 397.5,-1997.5 -492,-3467 -837.5,-1383.4 -1299.9,-3021.9 -1459.9,-3662.3 -108.3,-431.8 -387.2,-793.7 -765.4,-992.8 -183.3,-96.6 -366.2,-144.9 -543.8,-144.9"
         style="fill:#371a45;fill-opacity:1;fill-rule:nonzero;stroke:none"
         id="path96" />
      <path
         d="m 22313.6,19122 -2538,-1314 c -113.8,-59.1 -242.2,-84.3 -370.1,-72.7 l -4128.1,370.6 -325,29 c -238.8,21.3 -446.1,173.4 -538.1,394.8 l -1319.9,3173.5 c -42.6,101.7 -28.1,217.9 37.3,306.1 l 210.7,285.3 c 60.1,81.3 155.5,128.3 256.2,126.9 l 4416.8,-65.4 c 203.5,-2.9 383.7,-132.2 451.9,-324.1 l 794.9,-2235.7 2852.8,-196.2 138.1,-9.7 60.5,-468.4"
         style="fill:#b1b1ba;fill-opacity:1;fill-rule:nonzero;stroke:none"
         id="path98" />
      <path
         d="m 14965,18294 c -179.6,16.8 -334.1,130.5 -403.5,297.3 l -1255.3,3018 c 4.7,15.1 12,29.6 21.6,43 28.4,39.5 72.3,62.4 120.5,62.4 1.2,0 2.5,0 3.7,-0.1 l 67.8,-1.1 c 3.7,-25.5 10.6,-50.8 20.7,-75.2 l 1319.9,-3173.5 c 26.1,-63 61.6,-120.4 104.6,-170.8 m -1711.7,3610.7 c 2,3.3 4.3,6.6 6.6,9.8 l 210.8,285.2 c 28.8,39 74.8,62.1 123.3,62.1 h 2.3 l 216.5,-3.2 c -8.6,-9.1 -16.7,-18.7 -24.3,-28.9 l -203.2,-275.2 -129,2.3 c -4,0.1 -7.9,0.2 -11.9,0.2 -67.7,0 -133.5,-18.7 -191.1,-52.3"
         style="fill:#e1e1e4;fill-opacity:1;fill-rule:nonzero;stroke:none"
         id="path100" />
      <path
         d="m 13594,22261.8 c -48.5,0 -94.5,-23.1 -123.3,-62.1 l -210.8,-285.2 c -31.8,-43.1 -38.8,-100.5 -18.2,-150 l 1319.8,-3173.2 c 69.6,-167.3 224.9,-281.3 405.3,-297.4 l 4453.2,-399.7 c 97.6,-8.9 195.1,10.4 282,55.4 l 2438.9,1263 -29.5,227.5 -2860.2,196.8 c -63.4,4.4 -118.2,46 -139.5,105.9 l -794.7,2235.7 c -45.6,128.4 -167.9,216 -304.2,218.1 l -4416.5,65.2 h -2.3 m 5872.2,-4689.1 c -24.9,0 -49.7,1.1 -74.7,3.3 l -4453.2,399.7 c -299,26.8 -556.4,215.7 -671.7,492.9 l -1319.9,3173.3 c -63.4,152.4 -41.8,329.7 56.4,462.4 l 210.7,285.2 c 90.4,122.3 236.6,195.4 387.2,191.7 l 4416.5,-65.3 c 269.1,-4 510.4,-176.9 600.5,-430.4 l 759.6,-2137.1 2886.4,-198.6 c 76,-5.3 137.7,-63.4 147.4,-138.9 l 60.6,-468.2 c 8.6,-66.6 -25.4,-131.4 -85,-162.3 L 19848.9,17666 c -118.8,-61.5 -249.8,-93.3 -382.7,-93.3"
         style="fill:#371a45;fill-opacity:1;fill-rule:nonzero;stroke:none"
         id="path102" />
      <path
         d="m 19902.8,17714 c -66.9,0 -129.2,42.3 -151.5,109.2 l -640.6,1922.6 c -27.9,83.6 17.3,174.1 101,202 83.7,27.9 174.1,-17.4 202,-101.1 l 640.6,-1922.5 c 27.9,-83.7 -17.3,-174.1 -101,-202 -16.8,-5.5 -33.8,-8.2 -50.5,-8.2"
         style="fill:#371a45;fill-opacity:1;fill-rule:nonzero;stroke:none"
         id="path104" />
      <path
         d="m 19732,18265.6 c -44.7,0 -87.6,24.8 -108.7,67.6 -29.6,59.9 -5,132.5 55,162.1 l 2449.7,1208.6 c 60.1,29.6 132.6,5 162.2,-55 29.5,-60 4.9,-132.6 -55.1,-162.2 l -2449.7,-1208.6 c -17.2,-8.5 -35.5,-12.5 -53.4,-12.5"
         style="fill:#371a45;fill-opacity:1;fill-rule:nonzero;stroke:none"
         id="path106" />
      <path
         d="m 18898.9,17660.7 c -15.3,0 -30.7,0.9 -46.1,2.4 -66.5,7 -114.8,66.4 -108,133 7,66.5 67,114.7 133,108 68.3,-7.5 132.5,19.6 175.5,73.3 43.1,53.8 55.3,122 33.4,187.3 l -1082.1,3234.1 c -48.4,144.6 -183.3,241.7 -335.7,241.7 l -4216.9,74.1 c -49.6,1.3 -95,-21.8 -124.2,-62.3 -29.1,-40.5 -36.1,-90.7 -19.3,-137.7 l 30.2,-84.2 c 22.6,-63 -10.2,-132.3 -73.2,-154.9 -62.8,-22.4 -132.3,10.3 -154.8,73.2 l -30.2,84.3 c -43.4,121.2 -24.5,255.9 50.6,360.5 75,104.6 197.5,167.4 325.2,163.3 l 4214.8,-74.1 c 254.5,0 481.7,-163.6 563.2,-407 l 1082.1,-3234.1 c 47.7,-142.8 20,-298.1 -74.1,-415.6 -84.4,-105.4 -210.3,-165.2 -343.4,-165.3"
         style="fill:#371a45;fill-opacity:1;fill-rule:nonzero;stroke:none"
         id="path108" />
      <path
         d="m 18434.3,22154.2 -431.4,-368 238.5,514.4 c 96.6,176 336.4,-6.1 192.9,-146.4"
         style="fill:#371a45;fill-opacity:1;fill-rule:nonzero;stroke:none"
         id="path110" />
      <path
         d="m 16894.7,20054.4 c 0,-479 -353.6,-867.4 -790,-867.4 -163.8,0 -316.1,54.8 -442.2,148.6 -64.5,48 -43.8,146.8 34,166.9 289.9,75 502.1,317.4 502.1,605.2 0,253.3 -164.8,471.7 -402.3,571.5 -74.7,31.4 -81.7,135.7 -8.6,170.8 96.8,46.6 204,72.4 317,72.4 436.4,0 790,-388.5 790,-868"
         style="fill:#371a45;fill-opacity:1;fill-rule:nonzero;stroke:none"
         id="path112" />
      <path
         d="m 16201.5,19041.6 c -163.7,0 -316.2,54.8 -442.2,148.7 -35.3,26.2 -45,67.8 -33.9,103.1 105.5,-63.6 225.6,-101.5 353.4,-106 0.1,0 0.2,0 0.3,0 0.5,0 0.9,0 1.4,0 0.1,-0.1 0.2,-0.1 0.3,-0.1 0.4,0 0.9,0 1.4,0 v 0 c 1.5,0 3,-0.1 4.4,-0.1 0.2,0 0.3,0 0.5,0 0.3,0 0.7,-0.1 1.1,-0.1 0.2,0 0.4,0 0.6,0 0.4,0 0.7,0 1.1,0 0.2,0 0.5,0 0.8,0 0.3,0 0.6,0 0.9,0 0.3,0 0.6,0 0.9,0 0.3,-0.1 0.6,-0.1 0.8,-0.1 0.6,0 1.2,0 1.7,0 0.2,0 0.4,0 0.5,0 0.4,0 0.9,0 1.3,0 0.2,0 0.5,0 0.7,0 0.4,0 0.7,0 1.1,0 0.2,0 0.5,0 0.7,0 0.4,0 0.7,0 1.1,0 0.2,0 0.5,0 0.7,0 0.4,0 0.8,0 1.2,0 0.2,0 0.4,0 0.6,0 0.6,0 1.2,0 1.8,0 436.4,0 790,388.4 790,867.4 v 0 0 0 c 0,0.9 0,1.7 0,2.5 -0.1,0.2 -0.1,0.4 -0.1,0.7 0,0.7 0,1.5 0,2.2 0,0.2 0,0.4 0,0.5 0,0.7 0,1.4 0,2.2 0,0.2 0,0.5 0,0.8 0,0.6 0,1.2 0,1.8 0,0.4 0,0.9 0,1.3 0,0.5 0,0.9 0,1.4 0,0.4 -0.1,0.9 -0.1,1.3 0,0.3 0,0.6 0,0.9 0,1 0,2 0,3 0,0 0,0 0,0.1 -2.9,151.7 -41.2,293.7 -106.2,416.7 126.9,-153.8 203.2,-357.4 203.2,-580.7 0,-479 -353.6,-867.5 -790,-867.5"
         style="fill:#e1e1e4;fill-opacity:1;fill-rule:nonzero;stroke:none"
         id="path114" />
      <path
         d="m 16102.9,19187 c -0.2,0 -0.4,0 -0.6,0 0.2,0 0.4,0 0.6,0 m -1.8,0 c -0.2,0 -0.5,0 -0.7,0 0.2,0 0.5,0 0.7,0 m -1.8,0 c -0.2,0 -0.5,0 -0.7,0 0.3,0 0.5,0 0.7,0 m -1.8,0 c -0.2,0 -0.5,0 -0.7,0 0.2,0 0.5,0 0.7,0 m -2,0 c -0.1,0 -0.3,0 -0.5,0 0.2,0 0.4,0 0.5,0 m -2.2,0 c -0.2,0 -0.5,0 -0.8,0.1 0.3,-0.1 0.6,-0.1 0.8,-0.1 m -1.7,0.1 c -0.3,0 -0.6,0 -0.9,0 0.3,0 0.6,0 0.9,0 m -1.7,0 c -0.4,0 -0.7,0 -1.1,0 0.4,0 0.7,0 1.1,0 m -1.7,0 c -0.4,0 -0.8,0.1 -1.1,0.1 0.3,0 0.7,-0.1 1.1,-0.1 m -1.6,0.1 c -1.4,0 -2.9,0.1 -4.4,0.1 1.5,0 3,-0.1 4.4,-0.1 m -4.4,0.1 c -0.5,0 -1,0 -1.4,0 0.4,0 0.9,0 1.4,0 m -1.7,0.1 c -0.5,0 -0.9,0 -1.4,0 0.5,0 0.9,0 1.4,0 m -1.7,0 c -127.8,4.5 -247.9,42.4 -353.4,106 v 0.1 c 105.3,-63.5 225.5,-101.6 353.4,-106.1 m 815.9,867 v 0 0 0 m 0,2.5 c -0.1,0.2 -0.1,0.5 -0.1,0.7 0,-0.3 0,-0.5 0.1,-0.7 m -0.1,2.9 c 0,0.2 0,0.4 0,0.5 0,-0.1 0,-0.3 0,-0.5 m 0,2.7 c 0,0.2 0,0.5 0,0.8 0,-0.3 0,-0.6 0,-0.8 m 0,2.6 c 0,0.4 0,0.9 0,1.3 0,-0.4 0,-0.9 0,-1.3 m 0,2.7 c 0,0.4 -0.1,0.9 -0.1,1.3 0,-0.4 0.1,-0.9 0.1,-1.3 m -0.1,2.2 c 0,1 0,2 0,3 0,-1 0,-2 0,-3 m 0,3.1 c -3,152.4 -41.8,295.4 -107.9,418.7 0.6,-0.7 1.2,-1.4 1.7,-2 65,-123 103.3,-265 106.2,-416.7"
         style="fill:#b1a6b7;fill-opacity:1;fill-rule:nonzero;stroke:none"
         id="path116" />
      <path
         d="m 19466.6,17892.1 c -15.5,0 -31,0.7 -46.6,2.1 l -126.8,11.4 c 51.6,103.4 60.8,223.6 23.2,336 l -1082.1,3234.1 c -27,80.6 -69.9,152.4 -124.5,212.5 l 264.7,128.5 736.6,-2072.3 597,-1791.6 -6.1,-3.2 c -73.1,-37.8 -153.7,-57.5 -235.4,-57.5 m -464.6,39.6 -3279.5,294.3 c 823.6,223.7 2457.1,906.7 2315.3,3073.6 l 1048.9,-3134.9 c 21.9,-65.3 9.7,-133.5 -33.4,-187.3 -14.8,-18.5 -32.1,-33.8 -51.3,-45.7 m 993.3,169.8 -80.2,240.6 2198.1,1084.5 27.7,-214 -2145.6,-1111.1 m -157.5,472.5 -163.5,490.8 c 138.7,-119.6 326.9,-211.4 577.9,-211.4 57.5,0 118.4,4.8 182.8,15.2 l -597.2,-294.6"
         style="fill:#9993a3;fill-opacity:1;fill-rule:nonzero;stroke:none"
         id="path118" />
      <path
         d="m 19466.4,17744.6 c -20.2,0 -40.5,0.9 -60.9,2.8 l -220,19.7 c 20.5,17.6 39.5,37.3 56.8,58.9 20,25 37,51.7 50.9,79.6 l 126.8,-11.4 c 15.6,-1.4 31.1,-2.1 46.6,-2.1 81.7,0 162.3,19.7 235.4,57.5 l 6.1,3.2 43.2,-129.6 c 1.5,-4.4 3.1,-8.7 4.9,-12.8 -90.6,-43.4 -189.6,-65.8 -289.8,-65.8 m -720,61.9 -593.1,53.3 c -117,47.6 -250.2,101.3 -402,162.2 -19.4,7.8 -39.5,11.5 -59.3,11.5 -63.4,0 -123.3,-37.9 -148.3,-100.3 -2.4,-6 -4.4,-12.1 -6.1,-18.2 l -2260.2,202.9 -2.9,4.8 c 41.6,12.7 211.4,39.1 448,103.3 l 3279.5,-294.3 c -30.4,-18.8 -65.3,-28.9 -102,-28.9 -7.3,0 -14.7,0.4 -22.2,1.3 -4.1,0.4 -8.2,0.6 -12.3,0.6 -57.6,0 -108.1,-41.2 -119.1,-98.2 m 1296.5,151.9 -47.6,143.1 2145.6,1111.1 -27.7,214 121.9,60.1 c 11.4,5.6 21.5,12.8 30.2,21.1 l 46.6,-360.4 -164.4,-99.3 -2104.6,-1089.7 m -931.8,1786 -736.6,2072.3 64.3,31.2 433.2,-1090.4 c -9.5,-20.4 -14.3,-43.3 -13.3,-67.3 2.5,-59 39.8,-108.2 91.2,-128.8 l 68.4,-172 c -42.8,-26.7 -70.5,-75 -68.3,-129 3.1,-78.3 67.5,-139.6 145.1,-139.6 1.9,0 3.9,0.1 5.8,0.1 l 23.7,0.9 71.6,-180.1 c -73.7,-33.3 -111.6,-117.6 -85.5,-195.9 l 0.4,-1.4"
         style="fill:#371a45;fill-opacity:1;fill-rule:nonzero;stroke:none"
         id="path120" />
      <path
         d="m 19756.2,17810.4 c -1.8,4.1 -3.4,8.4 -4.9,12.8 l -43.2,129.6 -597,1791.6 -0.4,1.4 c -26.1,78.3 11.8,162.6 85.5,195.9 l 132.8,-334.4 c 0,0 86.6,-319.5 345.3,-542.5 l 163.5,-490.8 -159.5,-78.7 c -60,-29.6 -84.6,-102.2 -55,-162.1 21.1,-42.8 64,-67.6 108.7,-67.6 17.9,0 36.2,4 53.4,12.5 l 129.7,64 80.2,-240.6 47.6,-143.1 -267.3,-138.4 c -6.4,-3.3 -12.9,-6.5 -19.4,-9.6"
         style="fill:#371a45;fill-opacity:1;fill-rule:nonzero;stroke:none"
         id="path122" />
      <path
         d="m 19732,18265.6 c -44.7,0 -87.6,24.8 -108.7,67.6 -29.6,59.9 -5,132.5 55,162.1 l 159.5,78.7 597.2,294.6 c 127.8,20.8 269.2,63.6 425.5,134.7 545.4,247.5 961,455.3 1254.5,608.8 l 138.1,-9.6 12.2,-94.7 c -8.7,-8.3 -18.8,-15.5 -30.2,-21.1 l -121.9,-60.1 -2198.1,-1084.5 -129.7,-64 c -17.2,-8.5 -35.5,-12.5 -53.4,-12.5"
         style="fill:#371a45;fill-opacity:1;fill-rule:nonzero;stroke:none"
         id="path124" />
      <path
         d="m 19185.5,17767.1 -439.1,39.4 c 11,57 61.5,98.2 119.1,98.2 4.1,0 8.2,-0.2 12.3,-0.6 7.5,-0.9 14.9,-1.3 22.2,-1.3 36.7,0 71.6,10.1 102,28.9 19.2,11.9 36.5,27.2 51.3,45.7 43.1,53.8 55.3,122 33.4,187.3 l -1048.9,3134.9 c -7.1,108.4 -18.6,220.7 -34.9,336.7 l 106.9,51.9 c 54.6,-60.1 97.5,-131.9 124.5,-212.5 l 1082.1,-3234.1 c 37.6,-112.4 28.4,-232.6 -23.2,-336 -13.9,-27.9 -30.9,-54.6 -50.9,-79.6 -17.3,-21.6 -36.3,-41.3 -56.8,-58.9"
         style="fill:#371a45;fill-opacity:1;fill-rule:nonzero;stroke:none"
         id="path126" />
      <path
         d="m 19293,14962.4 c 557,-122.6 1079.1,-375.1 1531.2,-718 -125,60.4 -250.3,117.8 -379.7,164 -376.8,138 -781,226.5 -1180.8,236 -232.8,8.5 -201.7,352 29.3,318"
         style="fill:#371a45;fill-opacity:1;fill-rule:nonzero;stroke:none"
         id="path128" />
      <path
         d="m 19347.8,13248.7 c 203.5,53.9 403,52.7 606.7,51.5 32.1,-0.2 64.4,-0.4 96.8,-0.3 -149.9,-74 -298.3,-151.3 -436.7,-241.9 -43.6,-29.2 -88.1,-60.7 -115.1,-90.4 -62.6,-68.7 -169,-73.8 -237.8,-11.2 -104.9,94.6 -49.9,266.7 86.1,292.3"
         style="fill:#371a45;fill-opacity:1;fill-rule:nonzero;stroke:none"
         id="path130" />
      <path
         d="m 15060.5,15150.5 c 317.7,-154.5 642.7,-297.6 932.3,-500.5 -82.3,29.7 -166.6,49 -251.5,67.3 -254,52.8 -513.6,92.2 -769.8,126.4 -88.5,11.5 -150.9,92.6 -139.4,181.1 12,106.8 132.1,172.3 228.4,125.7"
         style="fill:#371a45;fill-opacity:1;fill-rule:nonzero;stroke:none"
         id="path132" />
      <path
         d="m 18067.3,15418.6 c -74.9,0 -141.7,52.9 -156.6,129.2 -101.1,518.4 -405.6,942 -857.5,1192.7 -468.8,260.1 -1040.1,304 -1528.1,117.5 -82.3,-31.5 -174.7,9.8 -206.2,92.1 -31.5,82.5 9.8,174.8 92.2,206.2 575,219.9 1246.8,168.8 1797.1,-136.5 535.8,-297.3 896.6,-798.3 1016,-1410.9 16.9,-86.6 -39.6,-170.5 -126.2,-187.3 -10.3,-2 -20.6,-3 -30.7,-3"
         style="fill:#371a45;fill-opacity:1;fill-rule:nonzero;stroke:none"
         id="path134" />
      <path
         d="m 18774.2,17262.6 0.2,-0.2 -0.2,0.2 m 0.2,-0.2 0.1,-0.1 -0.1,0.1 m 124.6,-59.7 c -34.7,0 -69.2,11.3 -97.5,33.1 -87.8,48.3 -656.6,284.2 -1169,489.7 -81.9,32.8 -121.6,125.8 -88.8,207.7 32.8,81.8 125.8,121.6 207.6,88.8 1213.8,-486.6 1240.9,-520.6 1272.3,-559.8 55.1,-68.9 44,-169.4 -24.9,-224.5 -29.5,-23.5 -64.7,-35 -99.7,-35"
         style="fill:#371a45;fill-opacity:1;fill-rule:nonzero;stroke:none"
         id="path136" />
      <path
         d="m 22378.3,15297.6 c -53.3,0 -105.5,26.7 -135.8,75.4 -306.9,493.9 -1155.3,1583.5 -2399.3,1035.9 -80.9,-35.4 -175,1.2 -210.6,81.9 -35.5,80.7 1.2,175 81.9,210.5 1022,449.7 2068.4,16.3 2799.3,-1159.7 46.6,-74.9 23.6,-173.4 -51.3,-220 -26.2,-16.3 -55.4,-24 -84.2,-24"
         style="fill:#371a45;fill-opacity:1;fill-rule:nonzero;stroke:none"
         id="path138" />
      <path
         d="m 20733.5,22056.9 c 26.6,0 53.5,-6.7 77.9,-20.4 59.6,-33.3 91.4,-100.9 79.1,-168 l -54.8,-299.6 c -32.3,-176.9 31.8,-352.2 167.2,-457.5 181,-140.6 456.8,-266.5 737.9,-336.8 328.2,-82.1 598.2,251.5 600.9,254.9 38.5,48.3 102,70.6 162.3,56.3 l 1186.6,-282.5 c 21.8,-5.2 41.3,-14.6 58.2,-27.1 291.9,396.9 372.8,942.4 199.9,1375.5 -129,322.8 -372,526.3 -685.4,574.6 l -849.5,-50.1 c -8.1,-0.5 -16.3,-0.4 -24.4,0.4 -557.5,52.7 -1231.2,72.2 -1345.8,17.5 -481.6,-254.3 -1015.3,-650.9 -1054.8,-884.8 -18.9,-111.9 -5.1,-201.8 38,-246.6 17,-17.6 33.2,-22.1 40.4,-22.8 85.2,57.5 385.5,319.9 559.5,476.1 30.1,27 68.2,40.9 106.8,40.9 m 1115.8,-1615.3 c -59.5,0 -121.7,7.1 -185.9,23.2 -326.9,81.6 -639.1,225.4 -856.4,394.4 -193.5,150.3 -301.6,382.3 -298.9,627.6 -113.1,-96.7 -223.3,-187.4 -276.7,-221.1 -105.6,-66.8 -249.4,-59.6 -366.4,18.3 -78.1,52 -253,212.4 -191.2,578.5 82.9,490.8 1031.8,1014.4 1221.1,1114.3 232.3,122.7 1125.2,55.2 1512.3,19 l 853.6,50.3 c 10.3,0.7 20.9,0.3 31.1,-1.2 433,-59.5 780.5,-341.9 953.4,-774.8 224.2,-561.4 113.8,-1243.6 -281.2,-1738 -55.1,-68.9 -155.5,-80.1 -224.5,-25.1 -1.4,1.2 -2.9,2.4 -4.3,3.6 -34.5,-20.5 -76.6,-28 -118.7,-18.1 l -1095.2,260.9 c -114.4,-114.3 -357.7,-311.8 -672.1,-311.8"
         style="fill:#371a45;fill-opacity:1;fill-rule:nonzero;stroke:none"
         id="path140" />
      <path
         d="m 22381.1,20845.1 -278.2,381.4 80.6,15.3 -173.5,-277 82.6,316.3 c 11.2,38.4 54.5,41.5 80.6,15.3 l 379.7,-280.6 c 144.2,-118.9 -53.5,-315.8 -171.8,-170.7"
         style="fill:#371a45;fill-opacity:1;fill-rule:nonzero;stroke:none"
         id="path142" />
      <path
         d="m 22181.3,22783.6 -171.3,730.1 436,-610.2 -264.7,-119.9"
         style="fill:#371a45;fill-opacity:1;fill-rule:nonzero;stroke:none"
         id="path144" />
      <path
         d="m 17191.6,22421.5 145.3,680.5 145.3,-680.5 z"
         style="fill:#371a45;fill-opacity:1;fill-rule:nonzero;stroke:none"
         id="path146" />
      <path
         d="m 18462.9,22009.9 c -85.5,0 -156.3,67.7 -159.5,153.9 -3.2,88.1 65.7,162.2 153.8,165.4 l 1590.3,57.8 c 88.9,3.3 162.1,-65.6 165.4,-153.8 3.2,-88.1 -65.7,-162.2 -153.8,-165.4 l -1590.3,-57.8 c -2,-0.1 -3.9,-0.1 -5.9,-0.1"
         style="fill:#371a45;fill-opacity:1;fill-rule:nonzero;stroke:none"
         id="path148" />
      <path
         d="m 19095.1,20120.8 c -77.6,0 -142,61.3 -145.1,139.6 -3.2,80.1 59.2,147.7 139.4,150.9 l 1584.9,63.1 c 90.3,3.6 161,77.2 161,167.6 v 288.5 c 0,80.2 65.1,145.3 145.3,145.3 80.3,0 145.3,-65.1 145.3,-145.3 V 20642 c 0,-247 -193.3,-448.2 -440.1,-458 l -1584.9,-63.1 c -1.9,0 -3.9,-0.1 -5.8,-0.1"
         style="fill:#371a45;fill-opacity:1;fill-rule:nonzero;stroke:none"
         id="path150" />
      <path
         d="m 19003.8,20551 c -77.5,0 -141.8,61.1 -145.1,139.2 -3.4,80.2 58.8,147.9 139.1,151.3 l 1062.1,44.8 c 34.7,1.5 66.7,16.5 90,42.3 23.4,25.7 35.1,59 33.1,93.7 l -27.8,489.9 c -4.5,80.1 56.7,148.7 136.8,153.3 80.1,3.8 148.7,-56.7 153.3,-136.8 l 27.9,-489.9 c 6.4,-113 -31.9,-221.4 -107.8,-305.3 -76,-83.9 -180.2,-132.8 -293.3,-137.5 l -1062.1,-44.8 c -2.1,-0.1 -4.2,-0.2 -6.2,-0.2"
         style="fill:#371a45;fill-opacity:1;fill-rule:nonzero;stroke:none"
         id="path152" />
      <path
         d="m 20401.7,20926.9 446.7,-428.3 -593,177.1 c -79.1,23.7 -124,106.9 -100.4,186 28.7,105.8 170.1,142 246.7,65.2"
         style="fill:#371a45;fill-opacity:1;fill-rule:nonzero;stroke:none"
         id="path154" />
      <path
         d="m 24800,25062.4 c -180.2,-190.4 -432.2,-304.9 -694.3,-313.6 179.8,190.9 432.3,304.2 694.3,313.6"
         style="fill:#371a45;fill-opacity:1;fill-rule:nonzero;stroke:none"
         id="path156" />
      <path
         d="m 18240.7,13678.4 c -2,11.6 -2.9,23.2 -3.9,35.3 -20.3,280.5 61,516.9 204.4,697 -57.2,-237.3 -124,-488.7 -200.5,-732.3"
         style="fill:#261252;fill-opacity:1;fill-rule:nonzero;stroke:none"
         id="path158" />
      <path
         d="m 16371.8,13418.1 c -122.5,0 -262.5,5.7 -422.6,18.9 -930.2,76.5 -1825.3,187.6 -2078.6,480 -1.7,2.4 -3.6,4.7 -5.4,6.9 v 0.1 c -4.9,5.9 -9.6,11.9 -13.9,17.9 123.3,106.2 360.3,245 756.5,245 200.8,0 442.5,-35.6 731.1,-129.3 155.4,-50.3 294.5,-72.3 418.9,-72.3 844.4,0 1010,1012 1010,1012 0,0 423.7,720.8 644.9,1478.7 254.1,-243.9 426.7,-562.5 498,-928.2 2.5,-12.7 6.4,-24.7 11.5,-35.9 -271.9,-655.5 -546.5,-1354.8 -713.3,-1879 -1.3,-4.2 -2.5,-8.5 -3.5,-12.8 -10.8,-18.5 -137.4,-202 -833.6,-202"
         style="fill:#d7d1da;fill-opacity:1;fill-rule:nonzero;stroke:none"
         id="path160" />
      <path
         d="m 16371.9,13258.4 c -128.1,0 -272.5,5.9 -435.8,19.4 -1125.6,92.5 -1920,218 -2191.2,540.6 -1.9,2.9 -2.9,4.3 -2.9,4.3 0,0 32.8,53.4 109.3,119.2 4.3,-6 9,-12 13.9,-17.9 v -0.1 c 1.8,-2.2 3.7,-4.5 5.4,-6.9 253.3,-292.4 1148.4,-403.5 2078.6,-480 160.1,-13.2 300.1,-18.9 422.6,-18.9 696.2,0 822.8,183.5 833.6,202 1,4.3 2.2,8.6 3.5,12.8 166.8,524.2 441.4,1223.5 713.3,1879 24.2,-53.1 76,-88.8 134,-92.9 -265.4,-641.1 -531.6,-1320.7 -695.1,-1834.6 0,0 -40.8,-325.9 -989.2,-326"
         style="fill:#371a45;fill-opacity:1;fill-rule:nonzero;stroke:none"
         id="path162" />
      <path
         d="m 18118,15978.2 c -130.1,335.9 -341.5,625 -620,847.6 65.9,344.3 69.3,674.1 -49.5,924.6 l 162.9,-14.6 c 6.7,-3.9 13.7,-7.4 21.1,-10.3 406.4,-163 848.4,-345.1 1057.6,-437.6 -104.4,-232.4 -325.3,-728.6 -572.1,-1309.7"
         style="fill:#d7d1da;fill-opacity:1;fill-rule:nonzero;stroke:none"
         id="path164" />
      <path
         d="m 18192.9,15746.3 c -20.8,79.5 -45.8,156.9 -74.9,231.9 246.8,581.1 467.7,1077.3 572.1,1309.7 54.5,-24.1 93.2,-42.1 111.4,-52.1 9.9,-7.6 20.5,-14 31.7,-19 -115.3,-256.5 -367.6,-823.5 -640.3,-1470.5"
         style="fill:#371a45;fill-opacity:1;fill-rule:nonzero;stroke:none"
         id="path166" />
      <path
         d="m 17611.4,17735.8 -162.9,14.6 c -29.4,62 -66.4,119.2 -111.6,170.4 l 196.7,-68.1 c 6.4,-47.8 34.3,-91.6 77.8,-116.9"
         style="fill:#371a45;fill-opacity:1;fill-rule:nonzero;stroke:none"
         id="path168" />
      <path
         d="m 18056.2,15419 c -58,4.1 -109.8,39.8 -134,92.9 -5.1,11.2 -9,23.2 -11.5,35.9 -71.3,365.7 -243.9,684.3 -498,928.2 34,116.5 63.2,234.1 85.3,349.8 278.5,-222.6 489.9,-511.7 620,-847.6 29.1,-75 54.1,-152.4 74.9,-231.9 -45.2,-107.2 -91,-216.8 -136.7,-327.3"
         style="fill:#371a45;fill-opacity:1;fill-rule:nonzero;stroke:none"
         id="path170" />
      <path
         d="m 18833.2,17216.8 c -11.2,5 -21.8,11.4 -31.7,19 -18.2,10 -56.9,28 -111.4,52.1 -209.2,92.5 -651.2,274.6 -1057.6,437.6 -7.4,2.9 -14.4,6.4 -21.1,10.3 -43.5,25.3 -71.4,69.1 -77.8,116.9 l 1423.4,-492.7 -58.1,2.4 c 0,0 -23.8,-52.2 -65.7,-145.6 m -58.8,45.6 0.1,-0.1 -0.1,0.1 m -0.2,0.2 0.2,-0.2 -0.2,0.2"
         style="fill:#371a45;fill-opacity:1;fill-rule:nonzero;stroke:none"
         id="path172" />
      <path
         d="m 20634.5,12475.2 c -124.5,0 -244.1,35.7 -360.2,107.1 -399.9,245.7 -571.8,402.7 -644.4,485.6 109,70.2 224,132.5 340.8,191.7 250.9,72.9 447,201.5 481.6,421.7 76.4,487 45.2,658.3 20,717 119.6,-44.4 235.9,-97.9 351.9,-153.9 v 0 0 c -110.2,83.6 -224.6,161.8 -342.7,234.1 118.2,205.7 574,1001.9 984.5,1753.9 368.4,-263.5 632.3,-627.3 776.5,-859.4 6.3,-10.1 13.5,-19.2 21.4,-27.3 -310.1,-787 -513.8,-1505.7 -630.7,-1973.8 -86.2,-343.8 -306.5,-630.9 -604.5,-787.8 -137.8,-72.6 -268.5,-108.9 -394.2,-108.9"
         style="fill:#d7d1da;fill-opacity:1;fill-rule:nonzero;stroke:none"
         id="path174" />
      <path
         d="m 20613,12304 c -142.8,0 -292.1,37.3 -443.1,130.1 -400.8,246.3 -592.3,415 -683.7,520.4 4.6,4.1 9.1,8.5 13.3,13.1 27,29.7 71.5,61.2 115.1,90.4 5.1,3.3 10.2,6.6 15.3,9.9 72.6,-82.9 244.5,-239.9 644.4,-485.6 116.1,-71.4 235.7,-107.1 360.2,-107.1 125.7,0 256.4,36.3 394.2,108.9 298,156.9 518.3,444 604.5,787.8 116.9,468.1 320.6,1186.8 630.7,1973.8 30.5,-31.3 72.1,-48.1 114.4,-48.1 8.1,0 16.1,0.6 24.2,1.8 -323.5,-817 -529.1,-1553.8 -635.2,-1978.4 -94.9,-378.8 -339,-708.2 -684.8,-890.3 -141.5,-74.5 -300.8,-126.7 -469.5,-126.7 m -1405,793.3 c -151.5,7.1 -367.5,31.2 -559.4,104 l -0.5,0.5 c 0,0 244.2,-30.4 553.1,-30.4 10.9,0 21.9,0.1 32.9,0.1 -14.2,-22.5 -23.2,-48 -26.1,-74.2"
         style="fill:#371a45;fill-opacity:1;fill-rule:nonzero;stroke:none"
         id="path176" />
      <path
         d="m 22409.6,15701.2 c -237.6,346 -504.4,618.9 -790.2,814.1 254.7,473.7 470,895.1 541.2,1090.8 213.1,583.6 -93.9,768.6 -93.9,768.6 l -1994.7,-593.2 2315,1198.9 c 59.6,30.9 93.6,95.7 85,162.3 l -60.6,468.2 c -7.2,56.2 -43.3,102.8 -92.5,125.1 l -26,380 c 0,0 -71.2,-7.9 -180.9,-7.9 -266.6,0 -761.2,46.7 -1016.8,367.8 19.9,51.5 30.7,107.5 30.7,166.1 v 19.9 c 163.9,-81.7 348.2,-149.9 537.5,-197.1 64.2,-16.1 126.4,-23.2 185.9,-23.2 314.4,0 557.7,197.5 672.1,311.8 l 1011.3,-240.9 c 115.9,-347.6 528,-1852.2 -403,-3390.5 -280.4,-463.2 -519.1,-949.1 -720.1,-1420.8"
         style="fill:#d7d1da;fill-opacity:1;fill-rule:nonzero;stroke:none"
         id="path178" />
      <path
         d="m 22506.1,15553.9 c -31.6,50.5 -63.8,99.6 -96.5,147.3 201,471.7 439.7,957.6 720.1,1420.8 931,1538.3 518.9,3042.9 403,3390.5 l 83.9,-20 c 12.5,-2.9 24.9,-4.3 37.2,-4.3 10,0 19.9,0.9 29.6,2.7 143.4,-457.9 487,-1935.7 -437.8,-3463.6 -290.2,-479.4 -535.4,-986.1 -739.5,-1473.4"
         style="fill:#371a45;fill-opacity:1;fill-rule:nonzero;stroke:none"
         id="path180" />
      <path
         d="m 20032.4,17769.8 2115.1,1278.3 166.1,86 -1.7,13.3 45.4,27.5 -38.4,561.1 c 49.2,-22.3 85.3,-68.9 92.5,-125.1 l 60.6,-468.2 c 8.6,-66.6 -25.4,-131.4 -85,-162.3 l -2315,-1198.9 -39.6,-11.7"
         style="fill:#371a45;fill-opacity:1;fill-rule:nonzero;stroke:none"
         id="path182" />
      <path
         d="m 24351.6,20693.7 c -81.7,0 -168.4,6.6 -260.2,19.8 143.9,234.7 231.7,498.7 259.2,765.8 367.1,49.2 668,179 778.4,450 47.2,-166.5 76.3,-294 91.9,-368.7 17.1,-80.7 16.1,-160.9 -3.2,-238.5 v -0.2 c -39.6,-160.5 -134.5,-379.4 -362.1,-510.4 -136.4,-78.5 -304.9,-117.8 -504,-117.8"
         style="fill:#d7d1da;fill-opacity:1;fill-rule:nonzero;stroke:none"
         id="path184" />
      <path
         d="m 24330.3,20522.4 c -105.4,0 -221.4,9.9 -349,31.6 39.8,51.4 76.4,104.6 110.1,159.5 91.8,-13.2 178.5,-19.8 260.2,-19.8 199.1,0 367.6,39.3 504,117.8 227.6,131 322.5,349.9 362.1,510.4 v 0.2 c 19.3,77.6 20.3,157.8 3.2,238.5 -15.6,74.7 -44.7,202.2 -91.9,368.7 37.8,92.7 53.3,201.9 41.4,329.9 99.8,-302.2 157.4,-541 186,-677.6 21.8,-102.6 20.8,-208.2 -4.4,-310 -67,-271.8 -288.8,-749.2 -1021.7,-749.2"
         style="fill:#371a45;fill-opacity:1;fill-rule:nonzero;stroke:none"
         id="path186" />
      <path
         d="m 20802.7,20542.4 -351.2,336.7 c 17.3,50.6 24.8,104.6 21.7,159.7 l -22.7,399.1 c 18.9,15.9 38.2,32.3 57.6,48.9 -2.7,-245.3 105.4,-477.3 298.9,-627.6 9.2,-7.2 18.7,-14.4 28.3,-21.5 V 20642 c 0,-37.3 -12,-71.8 -32.6,-99.6 m 1043.6,219.2 c -34.3,0 -69.5,4 -105.5,13 -281.1,70.3 -556.9,196.2 -737.9,336.8 -135.4,105.3 -199.5,280.6 -167.2,457.5 l 48.8,267 c 102,-160.8 338.6,-459.6 689.3,-459.6 124.4,0 263.1,37.6 415.4,132.2 l 303.7,176.8 c 0,0 868.7,-230.7 1652.1,-230.7 26.4,0 52.6,0.3 78.8,0.8 -34,-238.3 -125.3,-472.4 -268.5,-670.4 -16.9,4.6 -34,9.4 -51.1,14.4 -4.4,1.5 -8.9,2.8 -13.6,3.9 l -1186.6,282.5 c -12.1,2.9 -24.4,4.3 -36.5,4.3 -4.8,0 -9.6,-0.2 -14.3,-0.6 l -280,206.9 c -11.2,11.2 -25.6,17.1 -39.2,17.1 -18.1,0 -35,-10.5 -41.4,-32.4 l -82.6,-316.3 131.1,209.3 147.2,-201.8 c -80.7,-78.7 -245.3,-210.7 -442,-210.7"
         style="fill:#d7d1da;fill-opacity:1;fill-rule:nonzero;stroke:none"
         id="path188" />
      <path
         d="m 23748.8,20776.2 c -13.3,9.9 -28.2,17.8 -44.6,23.2 17.1,-5 34.2,-9.8 51.1,-14.4 -2.2,-3 -4.3,-5.9 -6.5,-8.8"
         style="fill:#371a45;fill-opacity:1;fill-rule:nonzero;stroke:none"
         id="path190" />
      <path
         d="m 22147.5,19048.1 164.4,99.3 1.7,-13.3 -166.1,-86"
         style="fill:#371a45;fill-opacity:1;fill-rule:nonzero;stroke:none"
         id="path192" />
      <path
         d="m 20824.2,14244.4 c -116,56 -232.3,109.5 -351.9,153.9 -10.5,24.6 -20,29.4 -20,29.4 0,0 10.3,17.8 29.2,50.8 118.1,-72.3 232.5,-150.5 342.7,-234.1"
         style="fill:#371a45;fill-opacity:1;fill-rule:nonzero;stroke:none"
         id="path194" />
      <path
         d="m 19486.2,12954.5 c -81.9,94.5 -83.5,138.3 -83.5,141.7 0,0 -30.1,-1.7 -80.6,-1.7 -31.1,0 -69.8,0.7 -114.1,2.8 2.9,26.2 11.9,51.7 26.1,74.2 238.1,1.7 509.7,22.2 736.6,88.1 -116.8,-59.2 -231.8,-121.5 -340.8,-191.7 -5.1,-3.3 -10.2,-6.6 -15.3,-9.9 -43.6,-29.2 -88.1,-60.7 -115.1,-90.4 -4.2,-4.6 -8.7,-9 -13.3,-13.1"
         style="fill:#371a45;fill-opacity:1;fill-rule:nonzero;stroke:none"
         id="path196" />
      <path
         d="m 22378.3,15297.6 c -42.3,0 -83.9,16.8 -114.4,48.1 -7.9,8.1 -15.1,17.2 -21.4,27.3 -144.2,232.1 -408.1,595.9 -776.5,859.4 52.1,95.4 103.5,190.2 153.4,282.9 285.8,-195.2 552.6,-468.1 790.2,-814.1 32.7,-47.7 64.9,-96.8 96.5,-147.3 -35.8,-85.5 -70.3,-170.4 -103.6,-254.5 -8.1,-1.2 -16.1,-1.8 -24.2,-1.8"
         style="fill:#371a45;fill-opacity:1;fill-rule:nonzero;stroke:none"
         id="path198" />
      <path
         d="m 21849.3,20441.6 c -59.5,0 -121.7,7.1 -185.9,23.2 -189.3,47.2 -373.6,115.4 -537.5,197.1 v 268.6 c 0,80.2 -65,145.3 -145.3,145.3 -80.2,0 -145.3,-65.1 -145.3,-145.3 v -92.8 c -9.6,7.1 -19.1,14.3 -28.3,21.5 -193.5,150.3 -301.6,382.3 -298.9,627.6 -19.4,-16.6 -38.7,-33 -57.6,-48.9 l -5.2,90.8 c -3.9,68.2 -54.2,122.2 -118.5,134.4 l 500.9,272.6 c 0,0 19.3,-40.5 56.8,-99.8 l -48.8,-267 c -32.3,-176.9 31.8,-352.2 167.2,-457.5 181,-140.6 456.8,-266.5 737.9,-336.8 36,-9 71.2,-13 105.5,-13 196.7,0 361.3,132 442,210.7 l 92.8,-127.2 c 29.7,-36.4 64.3,-51.2 97.3,-51.2 98.6,0 182.5,132.8 74.5,221.9 l -99.7,73.7 c 4.7,0.4 9.5,0.6 14.3,0.6 12.1,0 24.4,-1.4 36.5,-4.3 l 1186.6,-282.5 c 4.7,-1.1 9.2,-2.4 13.6,-3.9 16.4,-5.4 31.3,-13.3 44.6,-23.2 2.2,2.9 4.3,5.8 6.5,8.8 143.2,198 234.5,432.1 268.5,670.4 112.3,2.4 222.3,9.8 326.8,23.9 -27.5,-267.1 -115.3,-531.1 -259.2,-765.8 -33.7,-54.9 -70.3,-108.1 -110.1,-159.5 -107.6,18.4 -223.4,45.2 -348.2,81.7 0,0 20.9,-51 50.3,-144.8 -9.7,-1.8 -19.6,-2.7 -29.6,-2.7 -12.3,0 -24.7,1.4 -37.2,4.3 l -83.9,20 -1011.3,240.9 c -114.4,-114.3 -357.7,-311.8 -672.1,-311.8"
         style="fill:#371a45;fill-opacity:1;fill-rule:nonzero;stroke:none"
         id="path200" />
      <path
         d="m 20719.5,20482.4 -77.9,78 139.9,-41.8 c -17.6,-16.2 -38.6,-28.7 -62,-36.2"
         style="fill:#d7d1da;fill-opacity:1;fill-rule:nonzero;stroke:none"
         id="path202" />
      <path
         d="m 22478.4,20793.9 c -33,0 -67.6,14.8 -97.3,51.2 l -92.8,127.2 -147.2,201.8 -131.1,-209.3 82.6,316.3 c 6.4,21.9 23.3,32.4 41.4,32.4 13.6,0 28,-5.9 39.2,-17.1 l 280,-206.9 99.7,-73.7 c 108,-89.1 24.1,-221.9 -74.5,-221.9"
         style="fill:#371a45;fill-opacity:1;fill-rule:nonzero;stroke:none"
         id="path204" />
      <path
         d="m 20827.7,20374.1 -108.2,108.3 c 23.4,7.5 44.4,20 62,36.2 l 66.9,-20 -45.7,43.8 c 20.6,27.8 32.6,62.3 32.6,99.6 v 195.7 92.8 c 0,80.2 65.1,145.3 145.3,145.3 80.3,0 145.3,-65.1 145.3,-145.3 v -268.6 -19.9 c 0,-58.6 -10.8,-114.6 -30.7,-166.1 -27.6,34.7 -52.4,72.5 -73.8,113.8 l -193.7,-215.6"
         style="fill:#371a45;fill-opacity:1;fill-rule:nonzero;stroke:none"
         id="path206" />
      <path
         d="m 20451.5,20879.1 -49.8,47.8 c -28,28 -64.7,41 -101.3,41 -2.4,0 -4.8,0 -7.2,-0.1 l 14.8,685 18.8,10.3 c 64.3,-12.2 114.6,-66.2 118.5,-134.4 l 5.2,-90.8 22.7,-399.1 c 3.1,-55.1 -4.4,-109.1 -21.7,-159.7"
         style="fill:#371a45;fill-opacity:1;fill-rule:nonzero;stroke:none"
         id="path208" />
      <path
         d="m 20848.4,20498.6 -66.9,20 -139.9,41.8 -349.6,349.9 1.2,57.5 c 2.4,0.1 4.8,0.1 7.2,0.1 36.6,0 73.3,-13 101.3,-41 l 49.8,-47.8 351.2,-336.7 45.7,-43.8"
         style="fill:#371a45;fill-opacity:1;fill-rule:nonzero;stroke:none"
         id="path210" />
      <path
         d="m 21162.2,23441.5 c -705,0.1 -1259.4,132.7 -1259.4,132.7 l 253.4,119.8 c 78.3,10 156.5,21.6 233.2,34.7 915,158.1 1754.2,553.4 2443.8,1124.7 178.4,-54.1 485,-171 807.1,-401.9 -587,-822.2 -1639.3,-1010 -2478.1,-1010"
         style="fill:#d7d1da;fill-opacity:1;fill-rule:nonzero;stroke:none"
         id="path212" />
      <path
         d="m 23640.3,24451.5 c -322.1,230.9 -628.7,347.8 -807.1,401.9 47,38.9 93.4,78.7 139,119.2 l 794.5,-320.7 c -39.2,-70.7 -81.4,-137.3 -126.4,-200.4"
         style="fill:#371a45;fill-opacity:1;fill-rule:nonzero;stroke:none"
         id="path214" />
      <path
         d="m 15286.8,26100.3 c 441.3,-699.4 1062.1,-1291.7 1827.1,-1703.2 156,-83.9 317.5,-160.3 484.7,-228.4 81.3,-33.4 164.5,-64.6 248.9,-94.4 254.8,-88.7 512,-155.5 770,-201.5 222.2,-40.2 445.2,-64.6 666.7,-74.6 267.6,-12.1 533.8,-2.4 796.2,27.5 95.6,11.2 190.7,24.9 285.2,41 1728.9,298.6 3254.6,1484.3 3889.3,3233.5 935.6,2576.6 -416.6,5399.1 -3019.5,6304.7 -501.4,174.1 -1013.1,265.2 -1518.5,278.7 -59.1,2.1 -118.4,2.5 -177.7,1.8 -158.6,-1.1 -316.3,-9.6 -472.7,-25.4 -361.6,-36.7 -716.6,-112.5 -1058.3,-223.8 -341.8,-111 -671.1,-258 -981.1,-437.8 -98.6,-57 -195.3,-117.3 -290.1,-181.2 -142,-95.9 -279.3,-198.4 -411.5,-308.9 -659.6,-548.3 -1186,-1270.9 -1497.5,-2129.3 -538.3,-1482.1 -319.3,-3045.4 458.8,-4278.7"
         style="fill:#ffffff;fill-opacity:1;fill-rule:nonzero;stroke:none"
         id="path216" />
      <path
         d="m 15298.7,26107.8 c 448.8,-711.2 1078.8,-1298.5 1821.9,-1698.3 157.5,-84.7 320.2,-161.3 483.3,-227.8 75.2,-30.8 156.4,-61.6 248.3,-94.2 250.4,-87.1 508.8,-154.6 767.8,-200.9 217.1,-39.2 440.8,-64.2 664.9,-74.3 262.3,-11.8 529.4,-2.7 793.8,27.4 95.5,11.2 191.2,25 284.5,40.8 1782.3,307.9 3268.5,1543.5 3878.5,3224.5 449.3,1237.6 386.7,2571.3 -176.3,3755.5 -567.6,1193.7 -1574.3,2092.6 -2834.6,2531.1 -491.7,170.7 -1001.2,264.2 -1514.3,277.9 -56.2,2 -114.2,2.6 -177.1,1.8 -157.6,-1.1 -316.2,-9.6 -471.5,-25.3 -357,-36.3 -712.2,-111.4 -1055.4,-223.2 -339.9,-110.4 -669.1,-257.3 -978.3,-436.6 -99.5,-57.5 -196.8,-118.3 -289.3,-180.7 -144.3,-97.4 -282.4,-201.1 -410.4,-308 -677.1,-562.9 -1193.5,-1297.1 -1493.3,-2123.3 -518.7,-1428.4 -352,-2983.4 457.5,-4266.4 m 4209,-2328.7 c -75,0 -149.7,1.7 -224.1,5 -225.3,10.1 -450.3,35.3 -668.6,74.8 -260.4,46.5 -520.3,114.4 -772.2,202 -92.4,32.8 -174,63.7 -249.6,94.8 -164,66.8 -327.5,143.8 -486,229 -747.4,402.1 -1381,992.7 -1832.3,1708.1 -814.2,1290.4 -981.9,2854.4 -460.1,4291 301.4,830.9 820.7,1569.3 1501.7,2135.3 128.6,107.6 267.5,211.8 412.7,309.7 93,62.8 190.9,123.9 290.8,181.8 311,180.3 642,328 983.8,439 345.1,112.4 702.2,187.9 1061.3,224.4 156.1,15.8 315.6,24.4 474,25.5 63.2,0.8 121.7,0.2 178.3,-1.9 515.8,-13.7 1028.2,-107.7 1522.7,-279.4 1267.5,-441 2279.9,-1345 2850.7,-2545.6 566.3,-1191.1 629.3,-2532.5 177.3,-3777.2 -613.3,-1690.5 -2107.8,-2933 -3900.1,-3242.6 -93.8,-16 -190,-29.9 -286,-41.1 -191,-21.7 -383.3,-32.6 -574.3,-32.6"
         style="fill:#371a45;fill-opacity:1;fill-rule:nonzero;stroke:none"
         id="path218" />
      <path
         d="m 18726.7,24011.7 c -31.7,0 -63.6,0.2 -95.4,0.8 -248.9,45 -497.1,110.3 -737.1,193.8 v 0 c -6.4,2.2 -12.6,4.4 -18.9,6.6 -82.2,29.4 -155.5,57.3 -223.9,85.4 -146.6,59.8 -292.8,127.9 -435.1,202.9 -12.1,6.3 -24.1,12.7 -36.1,19.2 -84.1,45.2 -166.6,92.9 -247.6,142.9 590,-223.3 1205,-335.4 1812.3,-335.4 804.5,0 1595.3,196.9 2295.5,593 863,488.2 1483.2,1221.8 1805.3,2104.6 57,71.4 112.2,144.5 165.5,219.3 61.3,-73.7 127.7,-141.3 198.7,-201.8 -210.6,-640.6 -566.3,-1213.2 -1057.2,-1693.8 -872.5,-853.9 -2115.3,-1337.6 -3426,-1337.5 m 1850.1,39.4 c 669.5,241.2 1276.7,613.5 1771.7,1098.1 503.8,493.1 873.8,1076.2 1100.9,1726.8 159.6,-88.2 327.6,-138.1 498.4,-148.3 -641.5,-1351.6 -1888.2,-2346 -3371,-2676.6 m 3496.7,6476.9 c -50.8,7.1 -102,10.7 -153.4,10.7 -3,0 -6,0 -9,0 -14.5,162.1 -37.2,322.8 -67.6,481.6 37.7,-70.1 73.7,-141.4 108.2,-213.9 43.7,-91.9 84.3,-184.7 121.8,-278.4"
         style="fill:#d7d1da;fill-opacity:1;fill-rule:nonzero;stroke:none"
         id="path220" />
      <path
         d="m 15378.6,26158.2 c 440.1,-697.5 1057.9,-1273.4 1786.7,-1665.6 154.6,-83 314.2,-158.2 474.2,-223.4 74,-30.4 153.7,-60.6 244.2,-92.6 245.2,-85.3 498.7,-151.6 752.8,-197 213.3,-38.6 432.8,-63.1 652.6,-73 257.7,-11.7 519.6,-2.6 779,26.9 93.5,11 187.6,24.5 279.3,40.1 1748.8,302.1 3207.1,1514.4 3805.5,3163.6 440.7,1213.7 379.3,2521.5 -172.8,3682.8 -556.7,1170.7 -1544.1,2052.3 -2780.3,2482.4 -482.6,167.5 -982.4,259.2 -1485.8,272.7 -55.6,2 -111.9,2.6 -173.4,1.8 -155.3,-1.1 -310.9,-9.5 -463.1,-24.8 -350.4,-35.7 -698.9,-109.4 -1035.7,-219.1 -333.8,-108.3 -656.8,-252.5 -960.2,-428.4 -97.7,-56.5 -193.2,-116.2 -283.9,-177.4 -141.7,-95.6 -277.2,-197.3 -402.6,-302.2 -664.5,-552.3 -1171,-1272.6 -1465.1,-2083.1 -508.7,-1400.7 -345.2,-2925.6 448.6,-4183.7 m 4129.1,-2473.5 c -76.4,0 -152.6,1.7 -228.3,5.1 -229.5,10.3 -458.7,35.9 -681.2,76.2 -265.1,47.3 -529.8,116.5 -786.4,205.8 -94.4,33.3 -177.5,64.9 -254.5,96.5 -166.8,68 -333.4,146.5 -494.8,233.2 -761.7,409.8 -1407.5,1011.8 -1867.5,1740.9 -829.8,1315.3 -1000.8,2909.4 -469,4373.6 307.2,846.7 836.3,1599 1530.1,2175.7 130.9,109.5 272.4,215.6 420.2,315.4 94.9,64 194.6,126.3 296.4,185.2 316.7,183.7 653.8,334.1 1002,447.1 351.4,114.5 715.1,191.4 1080.8,228.6 159.1,16.1 321.6,24.8 482.9,25.9 64.5,0.8 124.3,0.2 182.4,-1.9 524.6,-14 1046.5,-109.8 1550.2,-284.6 1291.7,-449.4 2323.4,-1370.7 2905.1,-2594.3 577.3,-1214 641.5,-2581.3 180.8,-3850 -625,-1722.2 -2147.2,-2988 -3972.9,-3303.4 -95.6,-16.3 -193.4,-30.3 -291,-41.8 -194.7,-22.1 -390.8,-33.2 -585.3,-33.2"
         style="fill:#371a45;fill-opacity:1;fill-rule:nonzero;stroke:none"
         id="path222" />
      <path
         d="m 15405.2,26175 c 437.2,-692.9 1051,-1265.1 1775,-1654.6 153.6,-82.6 312.2,-157.3 471.2,-222.1 73.6,-30.2 152.8,-60.3 242.8,-92 243.5,-84.8 495.4,-150.7 747.9,-195.7 211.9,-38.3 430,-62.7 648.4,-72.6 255.9,-11.6 516.2,-2.5 774,26.8 92.9,10.9 186.4,24.3 277.6,39.8 1737.6,300.2 3186.6,1504.7 3781.2,3143.3 437.8,1205.7 376.9,2505 -171.6,3658.5 -553,1163.1 -1534,2038.9 -2762.3,2466.3 -479.4,166.4 -976.1,257.6 -1476.2,270.9 -55.4,2 -111.3,2.7 -172.2,1.8 -154.5,-1.1 -309.1,-9.4 -460.4,-24.7 -348.1,-35.3 -694.4,-108.6 -1029.1,-217.6 -331.6,-107.7 -652.6,-250.9 -954.2,-425.7 -97,-56.3 -191.9,-115.5 -282,-176.3 -140.8,-95 -275.4,-196 -400,-300.3 -660.3,-548.7 -1163.5,-1264.3 -1455.7,-2069.6 -505.3,-1391.5 -342.8,-2906.4 445.6,-4156.2 m 4102.4,-2521.8 c -76.8,0 -153.4,1.7 -229.7,5.2 -230.9,10.3 -461.5,36.1 -685.3,76.6 -266.7,47.6 -533,117.2 -791.1,207 -95,33.6 -178.6,65.4 -256.1,97.2 -167.8,68.4 -335.4,147.3 -497.8,234.5 -766.5,412.5 -1416.3,1018.3 -1879.2,1751.9 -835.1,1323.6 -1007.1,2927.7 -472,4401.2 309.1,851.8 841.5,1608.9 1539.6,2189.1 131.6,110.1 274,216.9 422.7,317.3 95.5,64.4 195.8,127.1 298.2,186.4 318.6,184.7 657.8,336 1008.1,449.7 353.4,115.2 719.3,192.6 1087.4,230 160,16.2 323.5,24.9 485.8,26.1 64.6,0.8 125.1,0.2 183.7,-2 527.6,-14 1052.7,-110.4 1559.4,-286.2 1299.7,-452.2 2337.8,-1379.3 2923.3,-2610.5 580.8,-1221.8 645.5,-2597.6 181.9,-3874.3 -628.8,-1732.8 -2160.4,-3006.4 -3997.1,-3323.7 -96.2,-16.4 -194.6,-30.5 -292.8,-42.1 -195.9,-22.2 -393.2,-33.4 -589,-33.4"
         style="fill:#371a45;fill-opacity:1;fill-rule:nonzero;stroke:none"
         id="path224" />
      <path
         d="m 16097.5,25123.6 c 3049.6,-1829.6 6948.6,-130.5 6951.2,3369.8 1.7,2381.5 -2358.7,4205.3 -4675.6,4044.4 -1686.2,-117.1 -3285.8,-959.3 -3835.6,-3591.6 0,0 -61.3,-1201.1 313.5,-1973.7 374.9,-772.7 871.9,-1460.7 871.9,-1460.7 l 374.6,-388.2"
         style="fill:#371a45;fill-opacity:1;fill-rule:nonzero;stroke:none"
         id="path226" />
      <path
         d="m 23048.5,28493.4 c -2.5,-3500.2 -3901.5,-5199.3 -6951,-3369.9 l -75.9,78.7 c 3257,-358.2 6355.4,1754.9 6424.6,5294.3 378.6,-586.4 602.8,-1268.2 602.3,-2003.1"
         style="fill:#220f2d;fill-opacity:1;fill-rule:nonzero;stroke:none"
         id="path228" />
      <path
         d="m 18631.3,24012.5 c 1345.6,-24.1 2627.8,462.2 3521.4,1336.7 838.3,820.7 1282,1909.1 1283.1,3147.4 0.8,1130.1 -493.5,2214.5 -1392,3053.5 -1005.5,938.7 -2393.6,1444.3 -3713.7,1352.8 -730.4,-50.7 -1378.5,-222.8 -1926.2,-511.5 -654.5,-547.3 -1153.8,-1259.5 -1444.3,-2060.2 -505.3,-1391.5 -342.8,-2906.4 445.6,-4156.2 437.2,-692.9 1051,-1265.1 1775,-1654.6 153.6,-82.6 312.2,-157.3 471.2,-222.1 73.6,-30.2 152.8,-60.3 242.8,-92 240,-83.5 488.2,-148.8 737.1,-193.8 m 97.7,-280.9 c -38.2,0 -76.2,0.4 -114.4,1.2 l -21.7,2.2 c -267,47.6 -533.3,117.2 -791.4,207 -95,33.6 -178.6,65.4 -256.1,97.2 -167.8,68.4 -335.4,147.3 -497.8,234.5 -766.5,412.5 -1416.3,1018.3 -1879.2,1751.9 -835.1,1323.6 -1007.1,2927.7 -472,4401.2 309.1,851.8 841.5,1608.9 1539.6,2189.1 l 11,9.2 12.7,6.7 c 585.4,311.4 1275.4,496.6 2051,550.4 1396.9,96.9 2863,-436.7 3924.2,-1427.5 955.9,-892.5 1481.8,-2049.7 1480.8,-3258.3 -1.1,-1315.3 -473.8,-2472.8 -1367.2,-3347.2 -923.8,-904.3 -2237.6,-1417.6 -3619.5,-1417.6"
         style="fill:#371a45;fill-opacity:1;fill-rule:nonzero;stroke:none"
         id="path230" />
      <path
         d="m 16128.9,25163.1 c 1540.1,-921.4 3402.5,-981 4862.3,-155.1 1274.7,721.1 2006.4,1991.5 2007.5,3485.5 0.7,1026.3 -447.5,2010.5 -1262.2,2771.1 -909.2,848.9 -2165.5,1306.4 -3359.9,1223.3 -2051.2,-142.4 -3326.1,-1336.2 -3789.3,-3548 -3.2,-74.5 -45.8,-1214.8 308.7,-1945.6 356.6,-735.1 830.4,-1401.5 865.5,-1450.4 l 367.4,-380.8 m 2616,-835.2 c -910.5,0 -1838.4,252.1 -2673.1,752.8 l -10.3,8.2 -379.1,393.6 c -4.9,6.9 -504,700.5 -876.4,1468.1 -376.1,775.3 -321,1948.6 -318.4,1998.1 l 1,7.7 c 472.7,2263.5 1778.6,3485.3 3881,3631.4 1222.3,84.2 2505.9,-382.5 3435.2,-1250.2 835.1,-779.7 1294.6,-1789.8 1293.8,-2844.2 -1.1,-1531 -751.3,-2833.1 -2058.2,-3572.5 -700.2,-396.1 -1491,-593 -2295.5,-593"
         style="fill:#371a45;fill-opacity:1;fill-rule:nonzero;stroke:none"
         id="path232" />
      <path
         d="m 25253,28854.7 c 118.1,-967.6 -361.9,-1851.7 -1072.4,-1974.5 -710.5,-122.9 -1382.3,562 -1500.5,1529.5 -0.8,6.1 -1.4,12.5 -2,18.7 -110,960.2 368.8,1833.9 1074.4,1955.8 548.9,95 1074.6,-292.2 1340,-919.2 78,-184.6 133.6,-390.3 160.5,-610.3"
         style="fill:#ffffff;fill-opacity:1;fill-rule:nonzero;stroke:none"
         id="path234" />
      <path
         d="m 24015.2,27006 c -191.7,0 -382,66.9 -557.2,197 -315,234.1 -544.2,648.9 -624.3,1123.3 35.1,-13.3 72.8,-21.2 112.9,-21.2 36.7,0 75.5,6.7 116,22.2 106.1,40.6 235,167.1 354.4,308.9 0.5,-77.7 5.3,-156.6 14.6,-236.2 84.3,-713.6 509,-1240.5 985.5,-1263.8 0.4,0 0.9,0 1.3,-0.1 v 0 c 10.5,-0.4 21.1,-0.7 31.6,-0.7 5.7,0 11.5,0.1 17.2,0.2 -96.1,-58.1 -200.2,-98.3 -310.4,-117.4 -47.2,-8.1 -94.5,-12.2 -141.6,-12.2"
         style="fill:#d7d1da;fill-opacity:1;fill-rule:nonzero;stroke:none"
         id="path236" />
      <path
         d="m 23918.2,30258.5 c -47.2,0 -94.5,-4.1 -141.7,-12.2 -637,-110.1 -1066.5,-926.3 -957.4,-1819.4 63,-515.9 301.8,-973.4 638.9,-1223.9 218.3,-162.1 460,-226.1 698.8,-184.8 637,110.1 1066.5,926.3 957.3,1819.5 -63,515.8 -301.8,973.3 -638.8,1223.8 -175.2,130.1 -365.4,197 -557.1,197 m 95,-3532.7 c -251.2,0 -497.7,85.7 -722.2,252.5 -403.3,299.7 -676.6,815.3 -749.8,1414.6 -127,1038.9 405.8,1994.2 1187.6,2129.3 316.2,54.7 632.1,-26.9 913.5,-236 403.3,-299.7 676.6,-815.3 749.8,-1414.6 126.9,-1039 -405.9,-1994.2 -1187.7,-2129.3 -63.8,-11 -127.7,-16.5 -191.2,-16.5"
         style="fill:#371a45;fill-opacity:1;fill-rule:nonzero;stroke:none"
         id="path238" />
      <path
         d="m 25372.3,28751 c 93.2,-789.3 -265.6,-1507.7 -801.5,-1604.7 -535.9,-97 -1045.8,464.3 -1139.1,1253.5 -93.2,789.3 265.7,1507.8 801.5,1604.7 535.9,97 1045.9,-464.3 1139.1,-1253.5"
         style="fill:#ffffff;fill-opacity:1;fill-rule:nonzero;stroke:none"
         id="path240" />
      <path
         d="m 23417,28636.2 c -0.5,82.4 3.9,163.4 12.7,242.3 0,-0.1 0,-0.2 0.1,-0.3 -8.9,-78.8 -13.3,-159.6 -12.8,-242 v 0"
         style="fill:#d7d1da;fill-opacity:1;fill-rule:nonzero;stroke:none"
         id="path242" />
      <path
         d="m 24417.1,27136.2 c -476.5,23.3 -901.2,550.2 -985.5,1263.8 -9.3,79.6 -14.1,158.5 -14.6,236.2 v 0 c 0.5,-77.7 5.3,-156.7 14.7,-236.4 84.3,-713.3 508.9,-1240.3 985.4,-1263.6"
         style="fill:#b7acbc;fill-opacity:1;fill-rule:nonzero;stroke:none"
         id="path244" />
      <path
         d="m 25366.1,28798.9 v 0.2 c 0,0 0,-0.1 0,-0.2 m -0.4,3 c -1.1,7.5 -2.2,15 -3.4,22.5 1.2,-7.5 2.3,-15 3.4,-22.5 m -3.6,24.2 c -0.1,0.2 -0.1,0.5 -0.1,0.7 0,-0.2 0,-0.5 0.1,-0.7"
         style="fill:#371a45;fill-opacity:1;fill-rule:nonzero;stroke:none"
         id="path246" />
      <path
         d="m 24449.9,27135.4 c -10.5,0 -21,0.3 -31.5,0.7 v 0 c -0.4,0.1 -0.9,0.1 -1.3,0.1 -476.5,23.3 -901.1,550.3 -985.4,1263.6 -9.4,79.7 -14.2,158.7 -14.7,236.4 -0.5,82.4 3.9,163.2 12.8,242 155.6,-574.4 545.2,-969.7 970.1,-969.7 40.4,0 81.2,3.6 122.1,10.9 416.8,75 728,519.1 805.6,1080.1 13.6,-56 25.2,-113.6 34.4,-172.7 0,-0.2 0,-0.5 0.1,-0.7 0.1,-0.6 0.2,-1.1 0.2,-1.7 1.2,-7.5 2.3,-15 3.4,-22.5 0.1,-0.9 0.2,-1.8 0.4,-2.8 v -0.2 c 2.2,-15.9 4.3,-31.8 6.1,-47.8 93.3,-789.5 -265.4,-1507.8 -801.5,-1604.8 -40.5,-7.3 -80.8,-10.9 -120.8,-10.9"
         style="fill:#d7d1da;fill-opacity:1;fill-rule:nonzero;stroke:none"
         id="path248" />
      <path
         d="m 24353.3,29875.3 c -31.8,0 -63.6,-2.8 -95.1,-8.5 -455.8,-82.5 -770.6,-746.7 -687.4,-1450.5 51.2,-434.1 240.4,-810.6 506.1,-1007.2 149.1,-110.4 311.4,-153.5 469,-125.1 455.7,82.5 770.5,746.8 687.4,1450.6 -51.3,434.1 -240.5,810.6 -506.1,1007.2 -119.3,88.2 -246.9,133.5 -373.9,133.5 z m 95.6,-2880 c -186.3,0 -370,64 -538.6,188.7 -326.5,241.7 -557.4,690.1 -617.6,1199.5 -103.3,874.7 298.8,1647.2 915.6,1758.7 235.7,42.8 472.7,-18 685.4,-175.4 326.6,-241.6 557.5,-690 617.6,-1199.4 103.4,-874.7 -298.8,-1647.3 -915.5,-1758.9 -49,-8.8 -98,-13.2 -146.9,-13.2"
         style="fill:#371a45;fill-opacity:1;fill-rule:nonzero;stroke:none"
         id="path250" />
      <path
         d="m 16202.5,26746.7 c -545.7,421.9 -874.8,925.8 -941.7,1659 -6.4,72.3 -10.3,147.1 -11.8,224 -0.4,17.7 -0.4,35.3 -0.2,53 l 0.2,1.1 c 8,156.1 26.3,260.9 66.5,490.3 120.8,692.1 438.7,1608.6 1266,2092.3 684.9,400.5 1377.1,519.8 1930,519.8 695.9,0 1171.1,-188.8 1134.3,-243.6 0,0 -18.3,0.6 -52.4,0.6 -328.8,0 -2129,-55.1 -3123.7,-1229.3 -1.2,-1.3 -2.3,-2.7 -3.5,-4.1 -230.7,-272.9 -432.9,-952 -493.1,-1301.7 -79.7,-462.4 -66,-692.1 -42.6,-981.8 71.4,-881.1 272,-1279.6 272,-1279.6"
         style="fill:#9b8da2;fill-opacity:1;fill-rule:nonzero;stroke:none"
         id="path252" />
      <path
         d="m 21301.5,28238.5 c -289.8,0 -575.2,208.2 -692.3,532.9 -144.3,399.9 21.3,825 369.7,949.6 65.5,23.4 132.7,34.5 199.7,34.5 289.8,0 575.2,-208.2 692.3,-532.9 144.2,-399.8 -21.3,-825 -369.7,-949.6 -65.5,-23.4 -132.7,-34.5 -199.7,-34.5"
         style="fill:#9b8da2;fill-opacity:1;fill-rule:nonzero;stroke:none"
         id="path254" />
      <path
         d="m 21465.9,27460.4 c -1.1,2.3 -2.2,4.5 -3.2,6.8 -73.5,159.4 -20.3,339.9 118.7,403.2 32.8,14.9 67.4,21.9 102.1,21.9 19.2,0 38.5,-2.1 57.5,-6.3 -85,-147.2 -176.9,-289.1 -275.1,-425.6"
         style="fill:#9b8da2;fill-opacity:1;fill-rule:nonzero;stroke:none"
         id="path256" />
      <path
         d="m 21745.4,27271 c -110.5,0 -222.3,71.6 -279.5,189.4 98.2,136.5 190.1,278.4 275.1,425.6 92.4,-20.5 178.7,-88.8 225.2,-189.9 73.5,-159.4 20.4,-339.9 -118.7,-403.2 -32.7,-14.9 -67.3,-21.9 -102.1,-21.9"
         style="fill:#918796;fill-opacity:1;fill-rule:nonzero;stroke:none"
         id="path258" />
      <path
         d="m 29554.5,25898.5 324.1,-556.6 642.2,-48.4 c 183,-13.9 270.7,-231.4 148.4,-368.2 l -429.1,-480.3 152.3,-625.7 c 43.4,-178.3 -136.4,-328.9 -304.3,-254.9 l -589.3,259.7 -548.1,-338.2 c -156.1,-96.4 -354.9,28.1 -336.4,210.6 l 64.9,640.8 -491.1,416.7 c -139.8,118.7 -82.9,346.2 96.4,385 l 629.4,136.3 244.6,595.8 c 69.7,169.7 303.7,185.9 396,27.4"
         style="fill:#ffd243;fill-opacity:1;fill-rule:nonzero;stroke:none"
         id="path260" />
      <path
         d="m 30177.7,23545.1 c -29.3,0 -59.5,6 -89.4,19.1 l -589.4,259.7 -256.4,-158 256.3,158.2 589.3,-259.7 c 30,-13.2 60.4,-19.3 89.8,-19.3 19.2,0 38.1,2.6 56.1,7.5 -18.1,-4.9 -37,-7.5 -56.3,-7.5 m 62.4,899.9 v 0 l 429.1,480.3 c 122.3,136.8 34.6,354.3 -148.4,368.2 l -36.8,2.7 c 0,0.1 0,0.1 0,0.1 l 37,-2.7 c 182.9,-14 270.6,-231.7 148.2,-368.5 l -429.1,-480.1"
         style="fill:#c49fda;fill-opacity:1;fill-rule:nonzero;stroke:none"
         id="path262" />
      <path
         d="m 28834.9,23452.5 c -89.4,0 -173,55.9 -206.4,139.8 33.4,-83.8 116.7,-139.5 205.8,-139.5 15.6,0 31.4,1.7 47.2,5.3 -3.2,18.5 -4.1,37.9 -1.8,57.8 l 30.1,296.7 347.9,214.6 589.4,-259.7 c 30,-13.2 60.3,-19.2 89.7,-19.2 135.3,0 250.4,127.7 214.8,274.3 l -152.3,625.6 429.1,480.1 c 44.3,49.7 61,110.2 55.6,167.9 l 36.8,-2.7 c 183,-13.9 270.7,-231.4 148.4,-368.2 l -429.1,-480.3 v 0 -0.1 l 152.2,-625.5 c 30.5,-125.7 -49.7,-237.5 -158.3,-266.8 -18,-4.9 -36.9,-7.5 -56.1,-7.5 -29.4,0 -59.8,6.1 -89.8,19.3 l -589.3,259.7 -256.3,-158.2 -291.9,-179.8 c -37.3,-23.2 -77,-33.6 -115.7,-33.6 m -206.5,140 c -0.1,0.1 -0.2,0.3 -0.2,0.4 0,-0.1 0.1,-0.3 0.2,-0.4"
         style="fill:#d7ad43;fill-opacity:1;fill-rule:nonzero;stroke:none"
         id="path264" />
      <path
         d="m 28628.5,23592.3 c -0.1,0 -0.1,0.1 -0.1,0.2 0,-0.1 0,-0.2 0.1,-0.2"
         style="fill:#ffeeb6;fill-opacity:1;fill-rule:nonzero;stroke:none"
         id="path266" />
      <path
         d="m 28617.7,23627.8 c -4.6,21.7 -6,44.7 -3.6,68.7 l 65,640.8 h 0.1 l -64.9,-640.8 c -1.4,-13.6 -1.6,-26.8 -0.6,-39.7 h -0.1 c 0.4,-5.2 1,-10.4 1.7,-15.4 0.7,-4.6 1.5,-9.1 2.4,-13.6 m -317.7,1031.2 -111.8,94.9 c -140,118.8 -83.1,346.4 96.2,385.2 l 629.6,136.4 244.3,595.8 c 17,40.9 43.5,72.9 75.2,95.7 -31.7,-22.8 -58.2,-54.9 -75,-95.9 l -244.6,-595.8 -629.4,-136.3 c -179.3,-38.8 -236.2,-266.3 -96.4,-385 l 111.9,-95"
         style="fill:#f6e7ff;fill-opacity:1;fill-rule:nonzero;stroke:none"
         id="path268" />
      <path
         d="m 28628.2,23592.9 c -4.4,11.2 -8,22.8 -10.5,34.9 -0.9,4.5 -1.7,9 -2.4,13.6 2.5,-17 6.9,-33.2 12.9,-48.5 m -14.5,63.9 c -1,12.9 -0.8,26.1 0.6,39.7 l 64.9,640.8 h -0.1 v 0.1 l -379.1,321.6 -111.9,95 c -139.8,118.7 -82.9,346.2 96.4,385 l 629.4,136.3 244.6,595.8 c 16.8,41 43.3,73.1 75,95.9 38.3,27.4 84.2,41.3 130.2,41.3 73.8,0 147.7,-35.9 190.8,-109.9 l 42.4,-73.2 c -72.7,-10.4 -140.5,-55.5 -173,-134.6 l -244.8,-595.7 -629.1,-136.4 c -179.4,-38.9 -236.3,-266.5 -96.7,-385.3 l 491.4,-416.4 -34.9,-344.2 -200,-123.3 c -31.1,-19 -63.6,-29.3 -96.1,-32.5"
         style="fill:#ffeeb6;fill-opacity:1;fill-rule:nonzero;stroke:none"
         id="path270" />
      <path
         d="m 28615.3,23641.4 c -0.7,5 -1.3,10.2 -1.7,15.4 h 0.1 c 0.3,-5.2 0.9,-10.4 1.6,-15.4"
         style="fill:#e8daf1;fill-opacity:1;fill-rule:nonzero;stroke:none"
         id="path272" />
      <path
         d="m 28834.3,23452.8 c -89.1,0 -172.4,55.7 -205.8,139.5 -0.1,0 -0.1,0.1 -0.1,0.2 -0.1,0.1 -0.2,0.3 -0.2,0.4 -6,15.3 -10.4,31.5 -12.9,48.5 -0.7,5 -1.3,10.2 -1.6,15.4 32.5,3.2 65,13.5 96.1,32.5 l 200,123.3 -30.1,-296.7 c -2.3,-19.9 -1.4,-39.3 1.8,-57.8 -15.8,-3.6 -31.6,-5.3 -47.2,-5.3"
         style="fill:#efdfb6;fill-opacity:1;fill-rule:nonzero;stroke:none"
         id="path274" />
      <path
         d="m 29363.4,25872.9 c -2.3,0 -4.3,-0.1 -6.1,-0.2 -15.9,-1.1 -55.1,-8.5 -73.4,-53.1 l -244.6,-595.7 c -17,-41.3 -53.1,-71.6 -96.7,-81 l -629.4,-136.3 c -47.1,-10.2 -61.2,-47.5 -65.1,-63 -3.9,-15.6 -9,-55.2 27.7,-86.3 l 491.1,-416.7 c 33.9,-28.9 51.6,-72.6 47.1,-117 l -64.9,-640.7 c -4.8,-47.9 26.3,-72.9 39.9,-81.4 13.6,-8.6 49.7,-25.7 90.6,-0.3 l 548,338.2 c 38,23.5 85,26.8 125.8,8.7 l 589.3,-259.7 c 44,-19.4 77.5,2.4 89.8,12.8 12.3,10.3 39.7,39.3 28.3,86.1 l -152.3,625.7 c -10.6,43.3 0.8,89.1 30.6,122.3 l 429.1,480.2 c 32.1,36 21.6,74.4 15.6,89.3 -6,14.9 -25.1,49.9 -73.2,53.6 l -642.2,48.4 c -44.5,3.4 -84.4,28.4 -106.9,66.9 l -324.1,556.5 c -21.6,37.1 -55.5,42.7 -74,42.7 z M 28834.5,23317 c -65.5,0 -131,18.3 -189.3,54.7 -116,72.6 -179.5,202.3 -165.7,338.5 l 57.7,569.8 -436.7,370.6 c -104.3,88.6 -148.5,226 -115.3,358.7 33.2,132.7 136.8,233.2 270.6,262.2 l 559.8,121.2 217.6,529.9 c 51.9,126.5 169,211 305.5,220.5 136.6,8.8 264.1,-58.2 332.9,-176.4 l 288.3,-495 571.1,-43.1 c 136.5,-10.3 253,-95.6 304.2,-222.5 51.1,-126.9 26.2,-269.1 -65,-371.1 l -381.6,-427.1 135.5,-556.6 c 32.4,-132.9 -12.7,-270 -117.6,-357.9 -104.9,-87.9 -247.9,-108.1 -373,-53 l -524.2,231 -487.4,-300.8 c -57.9,-35.8 -122.6,-53.6 -187.4,-53.6"
         style="fill:#371a45;fill-opacity:1;fill-rule:nonzero;stroke:none"
         id="path276" />
      <path
         d="m 9982.04,23861.9 324.16,-556.6 642.1,-48.4 c 183,-13.9 270.7,-231.4 148.4,-368.2 l -429.1,-480.3 152.4,-625.7 c 43.3,-178.2 -136.5,-328.9 -304.4,-254.9 l -589.29,259.7 -548.05,-338.2 c -156.1,-96.4 -354.93,28.1 -336.45,210.6 l 64.89,640.8 -491.04,416.7 c -139.87,118.7 -82.93,346.2 96.37,385 l 629.43,136.3 244.56,595.8 c 69.67,169.7 303.69,185.9 396.02,27.4"
         style="fill:#ffd243;fill-opacity:1;fill-rule:nonzero;stroke:none"
         id="path278" />
      <path
         d="m 10605.3,21508.5 c -29.3,0 -59.6,6 -89.5,19.1 l -589.38,259.7 -254.03,-156.5 253.92,156.7 589.29,-259.7 c 30,-13.2 60.4,-19.3 89.8,-19.3 20.3,0 40.1,2.9 59.1,8.3 -19,-5.4 -38.9,-8.3 -59.2,-8.3 m 62.3,899.9 v 0 l 429.1,480.3 c 122.3,136.8 34.6,354.3 -148.4,368.2 l -36.8,2.7 c 0,0.1 0,0.1 0,0.1 l 37,-2.7 c 183,-14 270.6,-231.7 148.2,-368.5 l -429.1,-480.1"
         style="fill:#c49fda;fill-opacity:1;fill-rule:nonzero;stroke:none"
         id="path280" />
      <path
         d="m 9262.44,21415.9 c -87.55,0 -169.49,53.6 -204.3,134.5 34.79,-80.8 116.44,-134.2 203.67,-134.2 15.63,0 31.44,1.7 47.19,5.3 -3.17,18.5 -4.07,37.9 -1.81,57.8 l 30.12,296.7 347.93,214.6 589.46,-259.7 c 29.9,-13.2 60.2,-19.2 89.6,-19.2 135.4,0 250.4,127.7 214.8,274.3 l -152.2,625.6 429,480.1 c 44.3,49.7 61,110.1 55.6,167.9 l 36.8,-2.7 c 183,-13.9 270.7,-231.4 148.4,-368.2 l -429.1,-480.3 v 0 0 l 152.2,-625.6 c 30.3,-124.5 -48.2,-235.4 -155.3,-266 -19,-5.4 -38.8,-8.3 -59.1,-8.3 -29.4,0 -59.8,6.1 -89.8,19.3 l -589.29,259.7 -253.92,-156.7 -294.29,-181.3 c -37.26,-23.2 -77.01,-33.6 -115.66,-33.6 m -204.47,134.9 c -0.1,0.3 -0.19,0.5 -0.28,0.7 0.09,-0.2 0.18,-0.4 0.28,-0.7 m -0.67,1.6 c 0,0 -0.01,0.1 -0.02,0.1 0.01,0 0.02,-0.1 0.02,-0.1"
         style="fill:#d7ad43;fill-opacity:1;fill-rule:nonzero;stroke:none"
         id="path282" />
      <path
         d="m 9058.14,21550.4 c -0.06,0.2 -0.11,0.3 -0.17,0.4 0.06,-0.1 0.11,-0.2 0.17,-0.4 m -0.45,1.1 c -0.13,0.3 -0.26,0.6 -0.39,0.9 0.13,-0.3 0.26,-0.6 0.39,-0.9"
         style="fill:#ffeeb6;fill-opacity:1;fill-rule:nonzero;stroke:none"
         id="path284" />
      <path
         d="m 9045.49,21589.9 c -4.78,22.1 -6.29,45.5 -3.88,70 l 65.03,640.8 h 0.06 l -64.89,-640.8 c -1.37,-13.6 -1.55,-26.8 -0.62,-39.7 -0.01,0 -0.02,0 -0.03,0 0.41,-5.6 1.03,-11.1 1.84,-16.5 0.69,-4.7 1.52,-9.3 2.49,-13.8 m -306.66,1022.9 -123.13,104.5 c -140.02,118.8 -83.11,346.4 96.2,385.3 l 629.62,136.4 244.35,595.7 c 16.82,40.7 43.1,72.5 74.61,95.3 -31.48,-22.8 -57.72,-54.7 -74.46,-95.5 l -244.56,-595.8 -629.43,-136.3 c -179.3,-38.8 -236.24,-266.3 -96.37,-385 l 123.17,-104.6"
         style="fill:#f6e7ff;fill-opacity:1;fill-rule:nonzero;stroke:none"
         id="path286" />
      <path
         d="m 9057.28,21552.5 c -4.99,11.9 -8.96,24.4 -11.79,37.4 -0.97,4.5 -1.8,9.1 -2.49,13.8 2.7,-18 7.56,-35.2 14.28,-51.2 m -16.09,67.7 c -0.93,12.9 -0.75,26.1 0.62,39.7 l 64.89,640.8 h -0.06 l 0.01,0.1 -367.82,312 -123.17,104.6 c -139.87,118.7 -82.93,346.2 96.37,385 l 629.43,136.3 244.56,595.8 c 16.74,40.8 42.98,72.7 74.46,95.5 38.38,27.6 84.53,41.8 130.75,41.8 73.76,0 147.71,-36 190.75,-110 l 42.42,-73.2 c -72.68,-10.4 -140.43,-55.5 -172.96,-134.6 l -244.8,-595.7 -629.16,-136.4 c -179.32,-38.8 -236.22,-266.5 -96.65,-385.3 l 491.4,-416.4 -34.92,-344.2 -199.95,-123.3 c -31.15,-18.9 -63.67,-29.3 -96.17,-32.5"
         style="fill:#ffeeb6;fill-opacity:1;fill-rule:nonzero;stroke:none"
         id="path288" />
      <path
         d="m 9043,21603.7 c -0.81,5.4 -1.43,10.9 -1.84,16.5 0.01,0 0.02,0 0.03,0 0.4,-5.6 1.01,-11.1 1.81,-16.5"
         style="fill:#e8daf1;fill-opacity:1;fill-rule:nonzero;stroke:none"
         id="path290" />
      <path
         d="m 9261.81,21416.2 c -87.23,0 -168.88,53.4 -203.67,134.2 -0.06,0.2 -0.11,0.3 -0.17,0.4 -0.1,0.3 -0.19,0.5 -0.28,0.7 -0.13,0.3 -0.26,0.6 -0.39,0.9 0,0 -0.01,0.1 -0.02,0.1 -6.72,16 -11.58,33.2 -14.28,51.2 -0.8,5.4 -1.41,10.9 -1.81,16.5 32.5,3.2 65.02,13.6 96.17,32.5 l 199.95,123.3 -30.12,-296.7 c -2.26,-19.9 -1.36,-39.3 1.81,-57.8 -15.75,-3.6 -31.56,-5.3 -47.19,-5.3"
         style="fill:#efdfb6;fill-opacity:1;fill-rule:nonzero;stroke:none"
         id="path292" />
      <path
         d="m 9790.94,23836.3 c -2.3,0 -4.3,-0.1 -6.06,-0.2 -16.01,-1.1 -55.22,-8.5 -73.53,-53 l -244.54,-595.8 c -16.94,-41.3 -53.07,-71.6 -96.68,-81 L 8740.69,22970 c -47.07,-10.2 -61.18,-47.5 -65.09,-63.1 -3.9,-15.5 -8.98,-55 27.69,-86.2 l 491.06,-416.7 c 34.04,-28.8 51.66,-72.6 47.17,-117 l -64.89,-640.8 c -4.88,-47.9 26.22,-72.8 39.79,-81.3 13.63,-8.5 49.66,-25.6 90.68,-0.3 l 548.04,338.2 c 37.9,23.5 84.92,26.7 125.79,8.7 l 589.37,-259.7 c 44,-19.4 77.4,2.4 89.7,12.8 12.3,10.2 39.7,39.3 28.3,86 l -152.3,625.8 c -10.5,43.3 0.9,89.1 30.6,122.3 l 429.1,480.3 c 32.1,35.8 21.6,74.3 15.6,89.2 -6,14.9 -25.1,49.9 -73.1,53.5 l -642.2,48.5 c -44.5,3.4 -84.5,28.4 -106.9,66.9 l -324.14,556.6 c -21.58,37 -55.52,42.6 -74.02,42.6 z m -528.96,-2555.9 c -65.53,0 -131.05,18.3 -189.35,54.8 -115.97,72.6 -179.45,202.3 -165.63,338.4 l 57.71,569.9 -436.71,370.6 c -104.35,88.5 -148.49,225.9 -115.29,358.7 33.21,132.7 136.92,233.1 270.66,262.1 l 559.81,121.2 217.48,529.9 c 51.96,126.6 169.05,211 305.52,220.4 136.87,9.2 264.12,-58.1 332.92,-176.3 l 288.3,-495 571.2,-43.2 c 136.4,-10.3 252.9,-95.5 304.1,-222.4 51.1,-126.9 26.2,-269.1 -64.9,-371.1 l -381.7,-427.1 135.5,-556.6 c 32.4,-132.9 -12.7,-270.1 -117.5,-357.9 -104.9,-87.9 -247.9,-108.2 -373.1,-53 l -524.17,231 -487.45,-300.8 c -57.86,-35.8 -122.65,-53.6 -187.4,-53.6"
         style="fill:#371a45;fill-opacity:1;fill-rule:nonzero;stroke:none"
         id="path294" />
      <path
         d="m 12407.8,34740.1 324.1,-556.5 642.2,-48.5 c 182.9,-13.8 270.6,-231.4 148.4,-368.2 l -429.1,-480.2 152.3,-625.8 c 43.4,-178.2 -136.4,-328.8 -304.3,-254.9 l -589.3,259.8 -548.1,-338.3 c -156.1,-96.3 -354.9,28.2 -336.4,210.7 l 64.9,640.7 -491.1,416.7 c -139.9,118.7 -82.9,346.3 96.4,385.1 l 629.4,136.3 244.6,595.8 c 69.6,169.7 303.7,185.8 396,27.3"
         style="fill:#ffd243;fill-opacity:1;fill-rule:nonzero;stroke:none"
         id="path296" />
      <path
         d="m 13031,32386.7 c -29.3,0 -59.5,6 -89.4,19.2 l -589.4,259.7 -259.3,-159.8 259.2,160 589.3,-259.8 c 30,-13.2 60.4,-19.2 89.8,-19.2 19.8,0 39.1,2.7 57.6,7.8 -18.6,-5.1 -38,-7.9 -57.8,-7.9 m 62.4,899.9 v 0.1 l 429.1,480.2 c 122.2,136.8 34.5,354.4 -148.4,368.2 l -36.8,2.8 c 0,0 0,0 -0.1,0.1 l 37.1,-2.7 c 182.9,-14 270.5,-231.7 148.1,-368.6 l -429,-480.1"
         style="fill:#c49fda;fill-opacity:1;fill-rule:nonzero;stroke:none"
         id="path298" />
      <path
         d="m 11688.2,32294.1 c -89.3,0 -172.6,55.7 -206.3,139.3 33.6,-83.5 116.7,-139 205.7,-139 15.6,0 31.4,1.7 47.2,5.3 -3.2,18.5 -4.1,38 -1.9,57.8 l 30.2,296.8 347.9,214.5 589.4,-259.7 c 29.9,-13.1 60.3,-19.1 89.6,-19.1 135.4,0 250.5,127.7 214.8,274.3 l -152.2,625.5 429.1,480.1 c 44.2,49.7 61,110.2 55.6,168 l 36.8,-2.8 c 182.9,-13.8 270.6,-231.4 148.4,-368.2 l -429.1,-480.2 v -0.1 0 l 152.2,-625.6 c 30.4,-125.1 -48.9,-236.4 -156.8,-266.4 -18.5,-5.1 -37.8,-7.8 -57.6,-7.8 -29.4,0 -59.8,6 -89.8,19.2 l -589.3,259.8 -259.2,-160 -289,-178.1 c -37.3,-23.1 -77.1,-33.5 -115.7,-33.6 m -206.6,140.2 c 0,0 -0.1,0.1 -0.1,0.1 0,0 0.1,-0.1 0.1,-0.1"
         style="fill:#d7ad43;fill-opacity:1;fill-rule:nonzero;stroke:none"
         id="path300" />
      <path
         d="m 11481.9,32433.4 c -0.1,0.3 -0.2,0.6 -0.3,0.9 0.1,-0.3 0.2,-0.6 0.3,-0.9"
         style="fill:#ffeeb6;fill-opacity:1;fill-rule:nonzero;stroke:none"
         id="path302" />
      <path
         d="m 11471.2,32468.5 c -4.8,22 -6.2,45.3 -3.8,69.7 l 65,640.7 h 0.1 l -64.9,-640.7 c -1.4,-13.6 -1.6,-26.9 -0.7,-39.8 v 0 c 0.4,-5.6 1,-11.1 1.9,-16.5 0.6,-4.5 1.4,-9 2.4,-13.4 m -332.5,1044.6 -97.3,82.4 c -140,118.8 -83.1,346.4 96.3,385.3 l 629.6,136.4 244.3,595.7 c 17.4,42 44.7,74.5 77.5,97.4 -32.7,-22.9 -60.1,-55.5 -77.3,-97.5 l -244.6,-595.8 -629.4,-136.3 c -179.3,-38.8 -236.3,-266.4 -96.4,-385.1 l 97.3,-82.5"
         style="fill:#f6e7ff;fill-opacity:1;fill-rule:nonzero;stroke:none"
         id="path304" />
      <path
         d="m 11481.5,32434.4 c -4.3,11 -7.8,22.4 -10.3,34.1 -1,4.4 -1.8,8.9 -2.4,13.4 2.5,-16.6 6.8,-32.5 12.7,-47.5 m -14.6,64 c -0.9,12.9 -0.7,26.2 0.7,39.8 l 64.9,640.7 h -0.1 v 0.2 l -393.7,334 -97.3,82.5 c -139.9,118.7 -82.9,346.3 96.4,385.1 l 629.4,136.3 244.6,595.8 c 17.2,42 44.6,74.6 77.3,97.5 37.8,26.3 82.8,39.7 127.9,39.7 73.7,0 147.7,-35.9 190.7,-109.9 l 42.5,-73.2 c -72.7,-10.4 -140.5,-55.6 -173,-134.6 l -244.8,-595.8 -629.2,-136.4 c -179.3,-38.8 -236.2,-266.5 -96.6,-385.2 l 491.4,-416.5 -34.9,-344.1 -200,-123.3 c -31.1,-19 -63.6,-29.4 -96.2,-32.6"
         style="fill:#ffeeb6;fill-opacity:1;fill-rule:nonzero;stroke:none"
         id="path306" />
      <path
         d="m 11468.8,32481.9 c -0.9,5.4 -1.5,10.9 -1.9,16.5 v 0 c 0.4,-5.6 1.1,-11.1 1.9,-16.5"
         style="fill:#e8daf1;fill-opacity:1;fill-rule:nonzero;stroke:none"
         id="path308" />
      <path
         d="m 11687.6,32294.4 c -89,0 -172.1,55.5 -205.7,139 -0.1,0.3 -0.2,0.6 -0.3,0.9 0,0 -0.1,0.1 -0.1,0.1 -5.9,15 -10.2,30.9 -12.7,47.5 -0.8,5.4 -1.5,10.9 -1.9,16.5 32.6,3.2 65.1,13.6 96.2,32.6 l 200,123.3 -30.2,-296.8 c -2.2,-19.8 -1.3,-39.3 1.9,-57.8 -15.8,-3.6 -31.6,-5.3 -47.2,-5.3"
         style="fill:#efdfb6;fill-opacity:1;fill-rule:nonzero;stroke:none"
         id="path310" />
      <path
         d="m 12216.7,34714.6 c -2.3,0 -4.3,-0.1 -6.1,-0.2 -16,-1.2 -55.2,-8.5 -73.5,-53.1 l -244.6,-595.8 c -16.9,-41.2 -53,-71.5 -96.6,-80.9 l -629.5,-136.3 c -47,-10.3 -61.2,-47.5 -65.1,-63.1 -3.9,-15.6 -8.9,-55.1 27.8,-86.3 l 491,-416.7 c 34,-28.8 51.6,-72.6 47.2,-117 l -64.9,-640.7 c -4.9,-47.9 26.2,-72.9 39.9,-81.4 13.6,-8.6 49.6,-25.7 90.6,-0.3 l 548,338.3 c 38,23.5 84.9,26.7 125.8,8.7 L 12996,32530 c 44.4,-19.4 77.5,2.5 89.8,12.8 12.3,10.3 39.7,39.3 28.3,86.1 l -152.4,625.7 c -10.5,43.3 0.9,89.1 30.7,122.4 l 429.1,480.2 c 32,35.9 21.6,74.4 15.6,89.3 -6,14.9 -25.2,49.9 -73.2,53.5 l -642.2,48.5 c -44.5,3.4 -84.4,28.4 -106.9,66.9 l -324.1,556.5 c -21.6,37 -55.5,42.7 -74,42.7 z m -528.9,-2555.9 c -65.5,0 -131,18.2 -189.3,54.7 -116,72.6 -179.5,202.3 -165.8,338.4 l 57.7,569.9 -436.7,370.6 c -104.3,88.5 -148.5,226 -115.3,358.7 33.2,132.7 137,233.1 270.7,262.1 l 559.8,121.2 217.5,529.9 c 52,126.6 169.1,211.1 305.6,220.5 136.7,8.9 264,-58.2 332.9,-176.4 l 288.3,-495 571.1,-43.1 c 136.5,-10.3 253,-95.5 304.1,-222.4 51.2,-126.9 26.3,-269.2 -64.9,-371.2 l -381.6,-427.1 135.5,-556.5 c 32.3,-133 -12.7,-270.1 -117.7,-358 -104.8,-87.8 -247.9,-108.1 -373,-52.9 l -524.1,230.9 -487.4,-300.8 c -57.9,-35.7 -122.6,-53.5 -187.4,-53.5"
         style="fill:#371a45;fill-opacity:1;fill-rule:nonzero;stroke:none"
         id="path312" />
    </g>
  </g>
</svg>
