<?xml version="1.0" encoding="UTF-8" standalone="no"?>
<!--Created with Inkscape (http://www.inkscape.org/)-->
<svg version="1.1" id="svg2" width="5333.3335" height="5333.3335" viewBox="0 0 5333.3335 5333.3335" sodipodi:docname="chasing.eps" xmlns:inkscape="http://www.inkscape.org/namespaces/inkscape" xmlns:sodipodi="http://sodipodi.sourceforge.net/DTD/sodipodi-0.dtd" xmlns="http://www.w3.org/2000/svg" xmlns:svg="http://www.w3.org/2000/svg">
  <defs id="defs6"/>
  <sodipodi:namedview id="namedview4" pagecolor="#ffffff" bordercolor="#000000" borderopacity="0.25" inkscape:showpageshadow="2" inkscape:pageopacity="0.0" inkscape:pagecheckerboard="0" inkscape:deskcolor="#d1d1d1"/>
  <g id="g8" inkscape:groupmode="layer" inkscape:label="ink_ext_XXXXXX" transform="matrix(1.3333333,0,0,-1.3333333,0,5333.3333)">
    <g id="g10" transform="scale(0.1)">
      <path d="m 16776.7,30364.1 -160.1,16.4 c 9.7,94.2 252.7,2314.7 1747.1,3039.1 l 70.2,-144.8 c -1413.2,-685 -1654.9,-2888.5 -1657.2,-2910.7" style="fill:#371a45;fill-opacity:1;fill-rule:nonzero;stroke:none" id="path14"/>
      <path d="m 17337.7,28319.9 -157,35.1 c 21.9,98.2 552.3,2413.3 1866.4,3152.9 l 78.9,-140.2 c -1252.2,-704.8 -1783.1,-3024.4 -1788.3,-3047.8" style="fill:#371a45;fill-opacity:1;fill-rule:nonzero;stroke:none" id="path16"/>
      <path d="m 18939,28205.9 c -304.4,827.5 -2177.1,1599.5 -2196,1607.2 l 60.7,149 c 79.8,-32.5 1957.7,-807.3 2286.3,-1700.6 l -151,-55.6" style="fill:#371a45;fill-opacity:1;fill-rule:nonzero;stroke:none" id="path18"/>
      <path d="m 19155.7,30191.5 c -841.3,1659.6 -2462.9,2096.7 -2479.2,2100.9 l 40.3,155.7 c 17,-4.4 1708.7,-460.2 2582.4,-2183.9 l -143.5,-72.7" style="fill:#371a45;fill-opacity:1;fill-rule:nonzero;stroke:none" id="path20"/>
      <path d="m 24229.4,10515.6 c -460.7,-455.9 -2034.9,-2609.9 -594.3,-3952.7 1186.4,-1106 3242.9,0 3242.9,0 0,0 -243.6,-1136.3 653.8,-1228.1 1103.9,-113 1505.1,1349.2 1552.6,2214.9 54.2,987.4 -1552.6,2083.5 -1552.6,2083.5 l -3302.4,882.4" style="fill:#ffffff;fill-opacity:1;fill-rule:nonzero;stroke:none" id="path22"/>
      <path d="m 27655.3,5641 c -391.7,0.1 -531.4,553.1 -450.1,816 278,244.5 583.1,540.3 707.3,918.5 2.2,6.6 5.3,9.8 9.2,9.8 85.7,0 550.7,-1533.5 -135.9,-1725.4 -46.3,-12.9 -89.7,-18.9 -130.5,-18.9" style="fill:#cdc6d0;fill-opacity:1;fill-rule:nonzero;stroke:none" id="path24"/>
      <path d="m 25240.8,6556.9 c -318.1,0 -639.8,57.9 -928.5,204.9 -1172.7,596.9 -633.3,1943.9 -633.3,1943.9 52.4,-1205.9 940.6,-1434.5 1788.3,-1434.5 259,0 514.3,21.3 740.7,42.7 226.5,21.3 424.2,42.7 568.2,42.7 94.7,0 166.2,-9.3 207.3,-33.9 272.2,-163.3 -716.9,-765.8 -1742.7,-765.8" style="fill:#cdc6d0;fill-opacity:1;fill-rule:nonzero;stroke:none" id="path26"/>
      <path d="m 27652,5167.6 c -44.8,0 -90.3,2.4 -136.6,7.1 -273.9,28.1 -485.6,142.4 -629.1,339.8 -174.5,239.8 -205,552.4 -198.3,780.1 -616.6,-267.9 -2155.6,-788.1 -3162.7,150.6 -419.4,390.9 -636.3,877.9 -644.8,1447.2 -16.9,1127.7 825.3,2331.3 1235.7,2737.5 63,62.6 165,62 227.5,-1.1 62.5,-63.2 62.1,-165.1 -1.1,-227.6 -245.2,-242.6 -1157.2,-1378.6 -1140.4,-2504 7.2,-478.3 189.7,-887.7 542.6,-1216.6 1089.5,-1015.6 3037.5,13.5 3057,24 55.2,29.7 122.7,24.6 172.8,-13.1 50.2,-37.6 73.9,-101 60.7,-162.4 -1,-4.9 -107.5,-525.8 111.8,-826.1 88.7,-121.5 219.9,-189.6 401.1,-208.2 256.7,-26.2 476.3,42.4 672.1,209.7 465.9,398 670.1,1247.5 703.4,1854 40.4,735.7 -1056.5,1651.1 -1482.6,1941.8 -73.3,50 -92.3,150.1 -42.2,223.5 50.1,73.5 150.2,92.4 223.6,42.3 68.6,-46.8 1681,-1159.4 1622.5,-2225.2 -36.8,-670 -272.4,-1617 -815.6,-2081.1 -227.4,-194.2 -488.3,-292.2 -777.4,-292.2" style="fill:#371a45;fill-opacity:1;fill-rule:nonzero;stroke:none" id="path28"/>
      <path d="m 27937.6,7605.1 c -58.8,-110.7 -127,-216.9 -198.9,-320.7 -72.4,-103.6 -148.8,-205.1 -230.4,-302.8 -81.8,-97.4 -166.4,-193.7 -256.8,-284.8 -89.2,-92.5 -184.2,-179.7 -281.3,-265.8 l -184.4,263.7 c 105.1,59 210.3,120.1 311.6,187.9 102.5,66.3 201.1,139 298.5,214.2 97.2,75.5 190.9,156.1 281.9,240.3 90.7,84.5 178.9,172.5 259.8,268" style="fill:#371a45;fill-opacity:1;fill-rule:nonzero;stroke:none" id="path30"/>
      <path d="m 24418.7,6020.3 h -0.5 c -66.6,0 -120.7,54 -120.7,120.7 0,66.6 54.1,120.6 120.7,120.6 h 0.5 c 583.4,0 1022.6,185.4 1305.8,551 699.7,903.8 265.7,2621.6 261.2,2638.8 -16.7,64.6 22.1,130.4 86.7,147.1 64.2,16.9 130.3,-22 147,-86.6 19.5,-75.1 467.3,-1850.7 -304.1,-2847.1 -331.2,-427.7 -834.7,-644.5 -1496.6,-644.5" style="fill:#371a45;fill-opacity:1;fill-rule:nonzero;stroke:none" id="path32"/>
      <path d="m 18338.2,27046.5 c 887.8,-112.1 1945.4,332 2694.3,1131.7 1209.2,1291.4 2446.2,1398.3 3712.8,1398.3 1419.6,0 1834.9,389.7 2044.7,1018.5 121.5,363.8 52.1,1028.6 -387.2,1628.5 -395.2,539.6 -1191.5,1175.8 -2747.1,1175.8 -30.1,0 -60.3,-0.2 -90.9,-0.7 -227.4,-5.1 -541.9,143.6 -975,347.5 -1127.8,530.8 -3015.4,1419.1 -5228.9,385.8 l -22.8,-8.6 c -10.4,-3.4 -1242.9,-440.4 -786,-3620.1 461,-3208.4 1753.1,-3451.3 1786.1,-3456.7 z m 274.2,-338.6 c -107,0 -212.7,6.4 -316.4,19.6 l -2.2,0.3 c -63.5,9 -1561.5,259.3 -2060.3,3729.7 -480.9,3346.7 837,3913.4 999.8,3970 2346.5,1090.8 4316.2,163.9 5493.5,-390.2 364.2,-171.4 679.2,-320.7 832.9,-316.9 1847.9,28.6 2736.2,-806.3 3102.7,-1306.7 509.6,-695.9 584.6,-1466 432.9,-1920.6 -293.6,-879.6 -974.5,-1238.4 -2350,-1238.4 -1238.6,0 -2355.2,-97.5 -3477.9,-1296.4 -731.7,-781.4 -1742.8,-1250.4 -2655,-1250.4" style="fill:#371a45;fill-opacity:1;fill-rule:nonzero;stroke:none" id="path34"/>
      <path d="m 20569.1,27494.8 -160.5,11.5 c 124.2,1726.1 -1028.3,2857.3 -1040,2868.5 l 111.5,116 c 12.2,-11.7 1218.7,-1192.5 1089,-2996" style="fill:#371a45;fill-opacity:1;fill-rule:nonzero;stroke:none" id="path36"/>
      <path d="m 21619,28572.5 c -31.9,3147.1 -3236.1,5588.1 -3268.5,5612.4 l 96.6,128.7 c 8.3,-6.1 834.4,-630.5 1652.4,-1642.4 757.1,-936.8 1663.3,-2408.1 1680.5,-4097.1 l -161,-1.6" style="fill:#371a45;fill-opacity:1;fill-rule:nonzero;stroke:none" id="path38"/>
      <path d="m 23298.1,29279.5 -160.1,15.5 c 156.9,1630.5 -712.1,3004.1 -1468.7,3869.4 -824.9,943.3 -1699.6,1504.9 -1708.4,1510.5 l 86.4,135.8 c 8.9,-5.7 900.3,-577.6 1740.3,-1537.2 778.8,-889.7 1673.1,-2304.8 1510.5,-3994" style="fill:#371a45;fill-opacity:1;fill-rule:nonzero;stroke:none" id="path40"/>
      <path d="m 24823,29394.8 -155.4,41.6 c 581.9,2170.9 -1571.6,4162.4 -1593.4,4182.3 l 108.2,119 c 23,-20.9 568.8,-521.1 1048.7,-1306.9 639.1,-1046.5 843.8,-2096.3 591.9,-3036" style="fill:#371a45;fill-opacity:1;fill-rule:nonzero;stroke:none" id="path42"/>
      <path d="m 26346.6,29671.7 -153.9,46.9 c 685.4,2249.3 -1545.9,3657.7 -1568.5,3671.6 l 84.5,136.9 c 24.1,-14.9 597.2,-372.6 1090.4,-1026.2 458,-607.2 924.9,-1590.8 547.5,-2829.2" style="fill:#371a45;fill-opacity:1;fill-rule:nonzero;stroke:none" id="path44"/>
      <path d="m 25116.4,29354.4 -82.4,138.1 c 14,8.5 1410.2,863.9 1557.4,2622.2 l 160.3,-13.4 c -154.3,-1842.9 -1620.5,-2738.1 -1635.3,-2746.9" style="fill:#371a45;fill-opacity:1;fill-rule:nonzero;stroke:none" id="path46"/>
      <path d="m 22739.4,29066.1 -83.4,137.6 c 720.5,436.4 1158.5,1134.5 1582.2,1809.6 504.5,804 981,1563.5 1880.1,1811.5 l 42.8,-155.2 c -838.8,-231.3 -1299.2,-965 -1786.6,-1741.8 -433.7,-691 -882,-1405.5 -1635.1,-1861.7" style="fill:#371a45;fill-opacity:1;fill-rule:nonzero;stroke:none" id="path48"/>
      <path d="m 21619.1,28571.7 c -0.9,39.3 -15.7,975.9 355.4,2060 344.2,1005.1 1099.8,2321.6 2744.5,2885.2 l 52.2,-152.2 c -1271.1,-435.5 -2160.8,-1372.6 -2644.5,-2785.1 -362,-1057.4 -347,-1995.3 -346.8,-2004.6 l -160.8,-3.3" style="fill:#371a45;fill-opacity:1;fill-rule:nonzero;stroke:none" id="path50"/>
      <path d="m 19080.3,26888.1 -159.8,19.3 c 1.9,15.3 191.6,1547.9 787.2,3149.6 793.8,2135.1 1946.5,3424.7 3333.5,3729.4 l 34.6,-157.1 c -1681.5,-369.4 -2677.7,-2177 -3217.3,-3628.4 -589,-1584 -776.4,-3097.7 -778.2,-3112.8" style="fill:#371a45;fill-opacity:1;fill-rule:nonzero;stroke:none" id="path52"/>
      <path d="m 19186.5,32812.5 -147.1,65.3 c 6.4,14.5 662.2,1449.7 2465.9,1586.3 l 12.1,-160.4 c -1704.9,-129.2 -2324.9,-1477.6 -2330.9,-1491.2" style="fill:#371a45;fill-opacity:1;fill-rule:nonzero;stroke:none" id="path54"/>
      <path d="m 22175.1,16416 c -839.5,214.9 -1240.9,444.6 -1240.9,444.6 0,0 -95.1,673.7 -481,955.1 -91.2,66.5 -210.5,107.4 -324.8,107.4 -110.9,0 -217.2,-38.5 -289,-129.5 -10.5,-13.3 -21,-26.5 -31.3,-39.2 l -72.7,655.4 c 13.8,28.7 27.4,59.7 40.4,93.4 144.2,371.7 60.1,765.2 -40.4,1037.3 26,-4.3 52.3,-6.5 78.8,-6.8 160.3,-528 398.7,-1032.3 708.4,-1493.8 113.5,-168.9 236.5,-332.6 365.4,-486.2 59,-70.8 124.2,-144.9 200.1,-227.2 9.6,-10.3 19.2,-20.5 28.8,-30.7 134.7,-142.4 277,-278.3 425.2,-405.9 69.6,-60 140.5,-118.2 212.6,-174.4 l 0.2,-0.2 c 134.1,-105.1 274.8,-205.3 420.2,-299.3" style="fill:#3986d0;fill-opacity:1;fill-rule:nonzero;stroke:none" id="path56"/>
      <path d="m 18834.5,17954.8 c 294.2,-388.7 3315.7,-4278.2 5790.8,-3624 670,177.1 1119.8,514.9 1336.8,1004.1 423.3,954.2 -133.2,2218.1 -248.9,2461.7 -1248.9,708.1 -4545.7,2434.8 -5498.2,2315.7 -639.6,-80 -1001.1,-232 -1208.6,-508 -240.3,-319.7 -295.1,-844.5 -171.9,-1649.5 m 5201,-4021.1 c -1032.8,0 -2203.6,572.1 -3491.2,1707.9 -1154.8,1018.7 -1984.1,2142.3 -1992.4,2153.5 l -23.1,31.5 -6.1,38.6 c -145.6,919.2 -73.6,1533.2 226.5,1932.5 264.9,352.4 691.4,542 1425.9,634 1267.8,158.1 5558.3,-2276.3 5740.4,-2380 l 41.4,-23.6 21.9,-42.3 c 33.2,-64.2 807.5,-1586.8 277.5,-2781.4 -258.6,-582.9 -779.7,-981.5 -1548.7,-1184.8 -217,-57.3 -441.1,-85.9 -672.1,-85.9" style="fill:#371a45;fill-opacity:1;fill-rule:nonzero;stroke:none" id="path58"/>
      <path d="m 25676.8,16467.2 317.5,-758 2842.1,-6788.1 c 0,0 2591.9,409 3132,1565.5 191.9,410.8 126,1432.1 -81.7,2544 -272.5,1461.1 -790.3,3078.2 -1290.2,3672.4 -776,921.8 -4061.3,76.1 -4919.7,-235.8" style="fill:#ffffff;fill-opacity:1;fill-rule:nonzero;stroke:none" id="path60"/>
      <path d="m 31557.8,10191.9 c -252.4,104.7 -535,275.1 -654.6,538.2 1.1,29.3 2.1,58.4 2.8,87 141.7,-52.8 301.8,-80.1 465.6,-80.1 176.5,0 357.4,31.7 524.2,97.5 -16.3,-115.7 -40.6,-210 -73.2,-279.7 -61,-130.7 -152,-251.6 -264.8,-362.9 m -1387.3,3324.8 c -68.9,60.6 -147.1,103.8 -218.9,134.4 -485.2,754.9 -1108.9,1726.4 -1508.9,2783 98.6,64.8 195.5,133 290.3,204.3 192.7,-58.1 370,-152.5 502.7,-300.5 483.6,-538.8 954.3,-1645.7 1267.4,-2591.6 -33.6,-12.8 -64.6,-25 -92.6,-36.1 l -16,-6.4 -14.3,-9.6 c -85.2,-57.3 -155.1,-116.5 -209.7,-177.5" style="fill:#cdc6d0;fill-opacity:1;fill-rule:nonzero;stroke:none" id="path62"/>
      <path d="m 28836.4,8760 c -77.8,0 -146.2,56.6 -158.8,135.9 -13.8,87.7 46.1,170.1 133.9,184 25,4 2513.6,409.3 3011.1,1474.9 185.1,396.2 104.3,1589.6 -200.8,2969.5 -311.6,1409.2 -762.4,2616.2 -1148.4,3074.9 -652,774.6 -3656.2,111.3 -4741.7,-283.1 -83.3,-30.2 -175.9,12.8 -206.1,96.3 -30.4,83.5 12.7,175.8 96.3,206.1 662,240.6 4211.6,1241 5097.7,187.9 506.1,-601.4 960.2,-2053.8 1216.4,-3212.6 258.1,-1166.9 440.4,-2613.7 178.2,-3175.2 -569.7,-1220.1 -3143.3,-1639.3 -3252.5,-1656.5 -8.5,-1.4 -17,-2.1 -25.3,-2.1" style="fill:#371a45;fill-opacity:1;fill-rule:nonzero;stroke:none" id="path64"/>
      <path d="m 30186.8,13158.6 c 15.8,-205.1 75.5,-517.2 157.5,-841.2 152.2,-600.5 381.1,-1241.8 548.6,-1320.5 437,-204.7 1086.5,-99.3 1382.3,321.5 134.9,192.1 123.3,658.4 39.6,1138.6 -102.5,587.8 -313.1,1196.6 -494.9,1348 -237.9,198.2 -1349.7,-244.2 -1349.7,-244.2 -154.3,-103.8 -295.5,-242 -283.4,-402.2" style="fill:#ffffff;fill-opacity:1;fill-rule:nonzero;stroke:none" id="path66"/>
      <path d="m 31373.8,11057.5 c -147.5,0 -290.7,28.7 -409.6,83.7 -18,13.2 -38.1,38 -59.8,72.5 -13.7,363.2 -62,661.1 -138.4,923.8 118.8,163.6 169.6,494.9 169.6,494.9 0,0 206.3,-966.5 797.2,-966.4 47.1,0 96.7,6.2 148.8,19.4 162,41.3 264.7,160.6 329.5,303.6 18.6,-262.4 2.1,-479.1 -67.5,-578 -169.7,-241.5 -478.1,-353.5 -769.8,-353.5" style="fill:#cdc6d0;fill-opacity:1;fill-rule:nonzero;stroke:none" id="path68"/>
      <path d="m 31717,13681.3 v 0 0 m 1.3,-1 h 0.5 -0.5 m -754.1,-2539.1 c 353.9,-163.8 923.8,-93.8 1179.4,269.8 236.2,336 -139,2028.1 -425.7,2269.6 -103.3,64.4 -658.2,-60.6 -1172,-262.9 -131.4,-91.1 -203.5,-180.6 -198.5,-246.9 46.5,-613.3 437.4,-1898.5 616.8,-2029.6 m 407.4,-404.2 c -196.1,0 -386.8,39.1 -547.2,114.3 -378.5,177.6 -761.4,1813.9 -797.9,2295.3 -14.8,195.4 104.2,379.7 353.7,547.6 l 14.3,9.6 16,6.4 c 361,143.7 1231.1,452.7 1512.5,218.4 384.1,-319.9 848.1,-2184.6 483.9,-2702.7 -235,-334.2 -645.6,-488.9 -1035.3,-488.9" style="fill:#371a45;fill-opacity:1;fill-rule:nonzero;stroke:none" id="path70"/>
      <path d="m 30840.3,13094.6 c 67.7,-221.8 116.7,-449 178.8,-671.2 60.9,-222.3 128.6,-442.7 217.8,-649.9 44.6,-103.2 94.6,-203.3 153.7,-293.4 58.8,-89.6 128.4,-169.4 205.4,-218.8 77.1,-49.9 155.3,-67.4 237.5,-50 82.2,15.5 167.6,60.8 248.9,118.8 l 1.6,1.1 c 72.5,51.7 173.2,34.8 224.9,-37.7 51.7,-72.5 34.8,-173.2 -37.7,-224.9 -5,-3.6 -11,-7.3 -16.3,-10.2 -114.8,-62.8 -244.4,-117.6 -393.1,-127.3 -18,-2.4 -36.7,-2.1 -55.8,-0.6 l -56.3,3.8 c -37.1,5.9 -74.9,14.3 -110.4,25.7 -34.5,14.7 -71,26.3 -101.1,46.9 l -46.5,28.6 c -14.2,10.7 -27.6,22.1 -41.3,33.2 -107.8,90.8 -178.4,201.3 -234.3,311.5 -55.5,110.9 -96.1,224.5 -130.4,338.5 -68.1,228 -110.1,458.2 -145.3,688.1 -36.3,229.7 -58.6,460.1 -100.1,687.8" style="fill:#371a45;fill-opacity:1;fill-rule:nonzero;stroke:none" id="path72"/>
      <path d="m 30138.2,16666.3 c -171.8,-48.9 -339.4,-109.4 -504.3,-175.4 -164.9,-66 -326.7,-138.4 -484.3,-217.8 -157.9,-78.8 -312.4,-163.4 -461.3,-255.5 -150.2,-89.8 -292.8,-190.6 -432.5,-292.7 l -3.3,-2.4 c -72,-52.6 -173,-36.9 -225.6,35.1 -52.7,72.1 -36.9,173.1 35.1,225.7 6.3,4.6 13.7,9.2 20.4,12.7 163.4,85.4 327.2,167.3 496,236.5 167.7,71.6 338.3,134 510.4,189.6 171.9,56.2 345.8,104.4 520.9,145.5 174.9,41.1 351.2,76 528.5,98.7" style="fill:#371a45;fill-opacity:1;fill-rule:nonzero;stroke:none" id="path74"/>
      <path d="m 27785.8,8227.7 c 1631.9,151.4 2475.9,1174.3 2651.4,2327.4 170.5,1121.1 164.9,1760.9 -360.2,2599.9 -589.6,942.1 -1697.2,2502.7 -2067.6,4151.8 -232.6,1035.7 -834.8,6715.5 -3494.6,583.5 -3427.5,-7902 1085.2,-9865.4 3271,-9662.6" style="fill:#ffffff;fill-opacity:1;fill-rule:nonzero;stroke:none" id="path76"/>
      <path d="m 25490.7,9852.4 c -352,0 -811,62.7 -1244.7,160 -18.9,26.5 -37.8,53.7 -56.5,81.3 l 877.4,45.8 c 314.5,22.2 556.4,296.3 539.2,611 l -33.2,613 c 56.5,-4.2 115.6,-7.3 177.4,-9.3 59.3,-2 121,-2.9 184.7,-2.9 1013.5,0 2541.4,248.3 3538.1,756 l -349.8,-684.5 c -1286.3,-515.7 -2931.6,-637.5 -2931.6,-637.5 0,0 68.5,-550.3 -128.3,-796.9 -76.3,-95.5 -290,-136 -572.7,-136 m -1573.1,711.9 c -303.6,619.6 -515.1,1449.1 -480.4,2548.8 54.3,-0.9 109.1,-1.4 164.2,-1.4 29.6,0 59.1,0.2 88.9,0.4 l 227.3,-2547.8 m 1589.5,2010 -28.8,531.3 c -3.1,56.7 -14.5,112.1 -33.4,164.8 129.2,21.7 260.1,45.9 392.8,72.5 107.2,-263.8 245,-527.6 575.5,-665.7 -313.4,-42.6 -583.3,-71.9 -773.3,-90.5 -50,-4.9 -94.5,-9 -132.8,-12.4" style="fill:#cdc6d0;fill-opacity:1;fill-rule:nonzero;stroke:none" id="path78"/>
      <path d="m 27771,8387.9 14.8,-160.2 -14.8,160.2 c 1380.5,128.1 2317.8,947.3 2507.1,2191.4 168.4,1106.9 158.7,1697.6 -337.4,2490.3 -77.4,123.6 -163.7,257.9 -256.1,401.6 -599,932.1 -1504.3,2340.7 -1832.1,3800.4 -24.1,107 -51.9,261.6 -84.1,440.8 -147.5,821 -493,2743.7 -1147.6,2819.8 -279.4,32.6 -904.4,-276.2 -1958.4,-2705.9 -1881.2,-4337 -1257.2,-6653.6 -402.5,-7833.2 905.6,-1249.8 2415.6,-1706.7 3511.1,-1605.2 m -298.3,-335.2 c -1145.1,0 -2581,520 -3473.4,1751.6 -903.8,1247.4 -1573.7,3673.9 367.9,8150.1 891.3,2054.8 1618.5,2975.8 2290.8,2897.5 823,-95.7 1168.2,-1641.4 1427.2,-3082.6 31.5,-175.5 58.7,-327 81.2,-427.2 315.4,-1404.1 1167.1,-2729.3 1789,-3696.9 93.1,-144.9 180,-280.3 258,-404.9 547.2,-874.3 560.4,-1542.4 382.8,-2709.4 -213,-1399.8 -1258,-2320.7 -2795.5,-2463.4 -106,-9.8 -215.6,-14.8 -328,-14.8" style="fill:#371a45;fill-opacity:1;fill-rule:nonzero;stroke:none" id="path80"/>
      <path d="m 27531.8,8307.6 c 2514.7,-2729.1 5577.7,-1013.7 5577.7,-1013.7 913.8,-636 1722.6,-584.5 2102,-99.1 402.4,514.7 86.2,1321.4 -384.1,1948.6 -328.3,437.8 -713.5,756.2 -1081.9,887 -638.4,226.6 -1741.1,-140.4 -1741.1,-140.4 0,0 -1009.7,171.3 -1263.4,810.5 55.7,1315.8 -259.5,1853 -701.8,2514.9 L 27531.8,8307.6" style="fill:#ffffff;fill-opacity:1;fill-rule:nonzero;stroke:none" id="path82"/>
      <path d="m 34316.4,7133.5 c -384.8,0 -741.2,297.4 -741.2,297.4 225.7,190.1 179.3,515.7 233.6,752.2 16.1,70.3 63.4,98.9 128.5,98.9 206.5,0 592.2,-287.7 730.6,-447.3 184.8,-212.9 249.4,-502.8 -91,-649.2 -85.8,-37 -173.9,-52 -260.5,-52" style="fill:#cdc6d0;fill-opacity:1;fill-rule:nonzero;stroke:none" id="path84"/>
      <path d="m 31063.9,7126.7 c -1576.5,0 -2744.6,906.4 -2894.8,1315.1 -41.5,113.1 23.9,159.3 159.2,159.3 369.9,0 1262,-346 1917.4,-618.6 511.1,-212.5 955.2,-283.2 1332.4,-283.2 376.4,0 686.2,70.5 929,141 242.9,70.4 418.8,140.9 527.7,140.9 14.7,0 28.1,-1.2 40.3,-3.9 285,-63.4 -406.5,-791.8 -1852.8,-847.5 -53.3,-2.1 -106,-3.1 -158.4,-3.1" style="fill:#cdc6d0;fill-opacity:1;fill-rule:nonzero;stroke:none" id="path86"/>
      <path d="m 29123.2,11422.6 0.1,0.2 h 0.1 l -0.1,-0.1 c 0,-0.1 -0.1,-0.1 -0.1,-0.1" style="fill:#a79bad;fill-opacity:1;fill-rule:nonzero;stroke:none" id="path88"/>
      <path d="m 29123.3,11422.8 349.8,684.5 v 0 l -349.7,-684.5 h -0.1" style="fill:#8b7b93;fill-opacity:1;fill-rule:nonzero;stroke:none" id="path90"/>
      <path d="m 29123.3,11422.7 v 0 l 0.1,0.1 349.7,684.5 c 303.1,154.4 557.1,332.8 732.6,535.5 66.6,-121.1 125.6,-243.9 176.1,-374.2 -269.2,-359.8 -733.9,-635.7 -1258.5,-845.9" style="fill:#cdc6d0;fill-opacity:1;fill-rule:nonzero;stroke:none" id="path92"/>
      <path d="m 30891.6,6601.3 c -991.8,0 -2295.5,313.8 -3478.1,1597.3 -60.2,65.3 -56,167.1 9.3,227.3 65.3,60.3 167.1,56.1 227.3,-9.3 1004.5,-1090.1 2212,-1587.9 3588.1,-1479.9 1035.5,81.3 1785.4,493.5 1792.8,497.7 53.8,30 120.1,26.7 170.4,-8.4 769.6,-535.6 1526.5,-588.8 1883.4,-132.2 349.3,447 29.6,1198.7 -386.1,1753 -312.6,416.9 -670.2,712.4 -1007,831.9 -578.6,205.4 -1626,-137.9 -1636.5,-141.4 -25,-8.3 -51.8,-10.4 -77.7,-6 -44.9,7.6 -1102.2,194.7 -1386.1,909.8 -8.3,21 -12.1,43.6 -11.1,66.2 52.3,1235.7 -220.1,1738.1 -674.9,2418.7 -49.4,73.9 -29.5,173.8 44.4,223.2 73.9,49.4 173.8,29.5 223.2,-44.4 472.4,-707 779.4,-1270.3 730.2,-2574.7 209.8,-461.6 921.8,-638.2 1091.8,-674.3 214.7,66.8 1186.9,345.4 1804.3,126.2 395.8,-140.5 806.6,-475.1 1156.8,-942.1 631,-841.5 773.9,-1643.1 382.2,-2144.2 -380.3,-486.7 -1215.2,-663.6 -2239.8,11.4 -237.3,-117 -920.6,-416.9 -1821.8,-490.1 -121.9,-9.9 -250.6,-15.7 -385.1,-15.7" style="fill:#371a45;fill-opacity:1;fill-rule:nonzero;stroke:none" id="path94"/>
      <path d="m 30536.8,9662.4 c -13.5,88.3 -19.9,179.1 -17.3,270.8 2.3,91.7 12.7,183.3 23.2,272.2 22.2,177.9 36.6,349.9 39.9,523.1 1.7,90 75.9,161.5 165.9,159.8 89.9,-1.7 161.5,-75.9 159.8,-165.9 -0.3,-16.5 -3.1,-32.5 -7.9,-47.4 l -1,-2.6 c -57.9,-175.1 -127.8,-346.9 -201.5,-509.4 -36.2,-81.5 -71.2,-161 -99.1,-243.6 -28.2,-82.4 -48.7,-168.5 -62,-257" style="fill:#371a45;fill-opacity:1;fill-rule:nonzero;stroke:none" id="path96"/>
      <path d="m 20750.1,8166.5 c 0,0 -67.2,-111.3 -308.6,-138 -241.4,-26.8 -331.4,67 -331.4,67 l -2106.9,18994.1 640.1,71 2106.8,-18994.1" style="fill:#ffa943;fill-opacity:1;fill-rule:nonzero;stroke:none" id="path98"/>
      <path d="m 20750.2,8166.4 c 0,0 -67.2,-111.2 -308.8,-137.9 -241.5,-26.8 -331.4,66.8 -331.4,66.8 l -479.7,4326.1 -768.9,6934.1 -858,7734 639.8,71.1 865.9,-7805.1 787.3,-7096.7 453.8,-4092.4" style="fill:#ffa943;fill-opacity:1;fill-rule:nonzero;stroke:none" id="path100"/>
      <path d="m 20296.4,12258.8 c -235.7,23.8 -462.2,85.7 -666.1,162.6 l -768.9,6934.1 h 647.7 l 787.3,-7096.7" style="fill:#ff8745;fill-opacity:1;fill-rule:nonzero;stroke:none" id="path102"/>
      <path d="m 20223.6,8166.7 c 34.2,-13.9 99.1,-30 204.6,-18.3 105.2,11.7 165.1,41.6 195.6,62.7 l -2087.1,18816.3 -400.2,-44.4 2087.1,-18816.3 m 133.4,-263.8 c -217.1,0 -314.8,89 -334,109.1 l -28.4,29.5 -4.5,40.7 -2120.1,19114.1 879.9,97.6 13.3,-120 2111.4,-19034.8 -21.2,-35 c -16.3,-27.1 -112.6,-163.9 -398.6,-195.6 -35,-3.9 -67.6,-5.6 -97.8,-5.6" style="fill:#371a45;fill-opacity:1;fill-rule:nonzero;stroke:none" id="path104"/>
      <path d="m 18896.2,25899.9 c 8.1,-73.1 -36.3,-141.3 -106.1,-164.4 -66.8,-22.1 -165.6,-46.1 -305.9,-61.6 -140.3,-15.6 -242,-13.8 -311.9,-6.9 -73.2,7.2 -131.4,64 -139.5,137.1 l -132,1189.9 863.4,95.7 132,-1189.8" style="fill:#cccccc;fill-opacity:1;fill-rule:nonzero;stroke:none" id="path106"/>
      <path d="m 18789.9,25735.6 c -66.5,-22.2 -165.5,-46 -305.5,-61.9 -140.4,-15.4 -242,-13.8 -312.2,-6.7 -73.1,7.1 -131.2,64 -139.5,137.1 l -132.1,1189.7 290.4,32.2 117.1,-1056 c 4.1,-35.1 29.6,-64.4 64.3,-71 63.9,-13 184.7,-25.1 381.1,-3.4 52.7,5.9 99.5,13 140.9,20.5 l 1.6,-16.3 c 8.4,-73.1 -35.9,-141.3 -106.1,-164.2" style="fill:#a8aaad;fill-opacity:1;fill-rule:nonzero;stroke:none" id="path108"/>
      <path d="m 18034,26887.3 118.7,-1069.9 c 1.8,-16.2 14.7,-28.6 31.5,-30.3 79.2,-7.8 175.7,-5.6 286.7,6.7 110.9,12.3 205.6,31.2 281.2,56.3 16.1,5.3 25.9,20.3 24.2,36.5 l -118.7,1069.9 z m 250.3,-1346.1 c -44,0 -85.3,1.9 -123.9,5.7 -129.2,12.8 -233.3,115.3 -247.6,243.9 l -145.3,1309.8 1103.3,122.4 145.3,-1309.8 c 14.3,-128.6 -64.8,-251.5 -188.1,-292.2 -91.6,-30.4 -202.8,-52.9 -330.5,-67.1 -76.4,-8.5 -147.7,-12.7 -213.2,-12.7" style="fill:#371a45;fill-opacity:1;fill-rule:nonzero;stroke:none" id="path110"/>
      <path d="m 17559.3,34012.4 c -591.1,-65.5 -1092.9,-1576.4 -879.5,-3500.2 213.4,-1923.8 1034,-3287.9 1625.2,-3222.4 591.1,65.6 1092.9,1576.4 879.5,3500.3 -213.4,1923.8 -1034,3287.9 -1625.2,3222.3 z m 816.7,-7362.6 c -1078.8,-119.7 -2083.2,1510.3 -2336.2,3791.4 -253.1,2281.2 369.7,4091.6 1448.5,4211.3 1078.8,119.6 2083.2,-1510.3 2336.2,-3791.5 253,-2281.1 -369.7,-4091.5 -1448.5,-4211.2" style="fill:#cccccc;fill-opacity:1;fill-rule:nonzero;stroke:none" id="path112"/>
      <path d="m 19184.4,30790 c 5,-44.7 9.6,-89.4 13.8,-133.7 176.3,-1859.6 -316,-3302.6 -893.1,-3366.6 -591.3,-65.6 -1412,1298.8 -1625.2,3222.4 -213.5,1924 288.4,3434.7 879.3,3500.3 581.7,64.4 1386.1,-1255.3 1614.7,-3130.9 3.4,-30.5 7.1,-61 10.5,-91.5 z m 640.2,71.1 c -253.2,2281.3 -1257.5,3911 -2336.5,3791.5 -1078.6,-119.9 -1701.2,-1930.2 -1448.4,-4211.5 253.3,-2280.9 1257.5,-3911.1 2336.5,-3791.2 1078.6,119.5 1701.2,1929.9 1448.4,4211.2" style="fill:#cccccc;fill-opacity:1;fill-rule:nonzero;stroke:none" id="path114"/>
      <path d="m 19198.2,30656.3 c 176.3,-1859.6 -316,-3302.6 -893.1,-3366.6 -591.3,-65.6 -1412,1298.8 -1625.2,3222.4 -213.5,1924 288.4,3434.7 879.3,3500.3 581.7,64.4 1386.1,-1255.3 1614.7,-3130.9 -236.5,1969.6 -994.1,3379.1 -1777.7,3292.2 -796.1,-88.1 -1227.4,-1676.2 -1003.4,-3693.3 223.6,-2017.2 992.5,-3471.9 1788.2,-3383.8 778.1,86.1 1208.1,1606.4 1017.2,3559.7" style="fill:#a8aaad;fill-opacity:1;fill-rule:nonzero;stroke:none" id="path116"/>
      <path d="m 17572.6,33892.5 c -236.9,-26.3 -481.5,-396.2 -638.4,-965.4 -184.3,-668.7 -232.1,-1521.5 -134.5,-2401.6 97.7,-880 331.1,-1701.7 657.5,-2313.7 277.8,-521 597.3,-828.6 834.5,-802 236.9,26.3 481.5,396.2 638.4,965.4 184.3,668.6 232,1521.5 134.4,2401.6 -97.6,880 -331.1,1701.7 -657.4,2313.7 -277.9,521 -597.7,828.2 -834.5,802 z m 691.8,-6725.5 c -333.6,-0.1 -702.2,335 -1020.1,931.2 -340.5,638.4 -583.5,1491 -684.4,2400.7 -100.9,909.7 -50.6,1794.9 141.7,2492.3 189.2,686.7 497,1102.6 844.4,1141.2 346.6,38.5 738.9,-299.9 1074.1,-928.4 340.3,-638.3 583.4,-1490.9 684.3,-2400.6 100.9,-909.8 50.6,-1794.9 -141.6,-2492.3 -189.3,-686.7 -497.1,-1102.7 -844.5,-1141.2 -17.8,-2 -35.8,-2.9 -53.9,-2.9 z m 98.3,-397.3 13.3,-119.9 -13.3,119.9 c 472.8,52.5 871.6,483.8 1122.9,1214.4 261.7,760.7 339.4,1777.7 219,2863.7 -120.5,1085.8 -419.3,2061.1 -841.3,2745.9 -405.3,657.9 -889.5,991.4 -1361.7,938.8 -472.8,-52.4 -871.5,-483.7 -1122.9,-1214.3 -261.7,-760.8 -339.4,-1777.8 -219,-2863.7 120.5,-1085.9 419.2,-2061.1 841.3,-2746 405.3,-657.8 889.3,-991.3 1361.7,-938.8 z m -98,-246.8 c -528.1,0 -1045.5,371.3 -1469.2,1059 -440.4,714.7 -751.4,1725.4 -875.6,2846 -124.4,1120.7 -42.4,2175 230.6,2968.8 283.4,823.8 753.8,1312.4 1324.5,1375.7 570.9,63.5 1136.8,-310.3 1593.8,-1052 440.4,-714.7 751.4,-1725.4 875.6,-2846 124.3,-1120.7 42.5,-2175 -230.6,-2968.8 -283.3,-823.8 -753.8,-1312.4 -1324.5,-1375.8 -41.6,-4.6 -83.2,-6.9 -124.6,-6.9" style="fill:#371a45;fill-opacity:1;fill-rule:nonzero;stroke:none" id="path118"/>
      <path d="m 18399.4,20879.6 c 447.2,234.3 1113.5,-21.7 1134,-564.3 12,-315.6 -98.5,-513.8 -98.5,-513.8 0,0 414.4,-663.8 190.9,-1240.1 -171.8,-443.2 -415.6,-322.4 -586,-816.8 -1098.7,0 -1189.7,842.8 -1164.8,1862.6 -30.9,435.4 77.2,1038.1 524.4,1272.4" style="fill:#ffffff;fill-opacity:1;fill-rule:nonzero;stroke:none" id="path120"/>
      <path d="m 19625.7,18561.5 c -171.8,-443.3 -415.4,-322.6 -585.9,-816.9 -744.7,0 -1026.4,387.3 -1122.9,954.4 -46,269.2 -49.7,579.6 -41.8,908.1 -30.9,435.5 77.3,1038.1 524.5,1272.5 317.6,166.3 745.5,85.7 974.1,-169.7 93.6,-104 153.8,-237.3 159.6,-394.4 12.1,-316 -98.2,-514.1 -98.2,-514.1 0,0 414.2,-663.6 190.6,-1239.9" style="fill:#ffffff;fill-opacity:1;fill-rule:nonzero;stroke:none" id="path122"/>
      <path d="m 18931,17908.7 c -266.7,15.9 -464.1,92.7 -601.4,233.3 -85.3,87.5 -147.9,199.1 -192.9,332.6 124.9,-102.6 292,-201.7 471,-201.7 29.1,0 58.5,2.6 88.2,8.2 996.2,190.2 617.6,1108.7 549.1,1525.8 -29.2,177.6 12.9,302 59.2,420.8 -9.6,-96.3 -7.4,-195.1 15.2,-287.9 -13.8,-38.7 -24.9,-59.7 -25,-59.9 -28.5,-51 -26.8,-113.7 3.9,-163.3 3.7,-6 368.5,-604.4 177.5,-1097 -67.5,-174 -141,-235.5 -234.2,-313.4 -101.6,-85 -215,-179.8 -310.6,-397.5" style="fill:#cdc6d0;fill-opacity:1;fill-rule:nonzero;stroke:none" id="path124"/>
      <path d="m 18474.1,20737.1 c -368.6,-193.1 -466.6,-723.2 -438.6,-1118.5 0.4,-5.1 0.5,-10.3 0.4,-15.4 -16.6,-679.3 27,-1187.8 293.7,-1461.2 137.3,-140.6 334.7,-217.4 601.4,-233.3 95.6,217.7 209,312.5 310.6,397.5 93.2,77.9 166.7,139.4 234.2,313.4 191,492.6 -173.8,1091 -177.5,1097 -30.7,49.6 -32.4,112.3 -3.9,163.3 0.3,0.5 88.2,167.8 78.2,429.2 -8.5,227.3 -164.4,350.8 -256.5,404.2 -195.2,113.1 -453.3,122.7 -642,23.8 m 565.7,-3153.4 c -413.8,0 -721.5,109.1 -940.5,333.6 -382.4,391.9 -400,1075 -385.3,1686.3 -34.7,514.5 107.5,1154.9 610.7,1418.5 287.3,150.5 661.2,138.6 952.8,-30.4 254.3,-147.4 406.2,-391.7 416.7,-670.4 8.9,-234.4 -41.1,-411.9 -79.3,-511.1 108.6,-204.2 366.2,-777.7 160.9,-1307 -97.4,-251.3 -219.8,-353.6 -327.8,-443.9 -101.7,-85.1 -182.1,-152.2 -256.1,-367.1 -22.4,-64.9 -83.5,-108.5 -152.1,-108.5" style="fill:#371a45;fill-opacity:1;fill-rule:nonzero;stroke:none" id="path126"/>
      <path d="m 19814.2,19533.7 c -26.5,0.3 -52.8,2.5 -78.8,6.8 -42.6,115.3 -88.2,208.9 -120.5,269.7 18.6,48.3 40,115.3 56.1,198.3 6.7,1.9 13.5,3.8 20.3,5.7 33.8,-162 74.9,-322.3 122.9,-480.5" style="fill:#386bad;fill-opacity:1;fill-rule:nonzero;stroke:none" id="path128"/>
      <path d="m 19671,20008.5 c 3.5,18.4 6.8,37.6 9.7,57.5 3.5,-17.3 7,-34.6 10.6,-51.8 -6.8,-1.9 -13.6,-3.8 -20.3,-5.7" style="fill:#371a45;fill-opacity:1;fill-rule:nonzero;stroke:none" id="path130"/>
      <path d="m 19304.2,20227.7 c 7.7,77.2 23,152.9 41.5,222.7 7,-19.4 12.9,-39.8 17.4,-61.5 -16.4,-55.5 -38.1,-107.8 -58.9,-161.2" style="fill:#cdc6d0;fill-opacity:1;fill-rule:nonzero;stroke:none" id="path132"/>
      <path d="m 19594,20677.5 c -29,51.4 -64.1,99.8 -104.6,144.4 28.8,46.3 58.3,86 88.3,119.6 2.8,-72.9 7,-145.9 12.7,-219 1.1,-15 2.3,-30 3.6,-45" style="fill:#3986d0;fill-opacity:1;fill-rule:nonzero;stroke:none" id="path134"/>
      <path d="m 19319.4,19939.8 c -22.6,92.8 -24.8,191.6 -15.2,287.9 20.8,53.4 42.5,105.7 58.9,161.2 5.2,-25 8.5,-51.6 9.5,-79.8 6.5,-169 -28,-298.6 -53.2,-369.3" style="fill:#a79bad;fill-opacity:1;fill-rule:nonzero;stroke:none" id="path136"/>
      <path d="m 19735.4,19540.5 c -65.2,10.6 -128.2,33.9 -186.1,71.4 -129.7,83.9 -199,200.4 -229.9,327.9 25.2,70.7 59.7,200.3 53.2,369.3 -1,28.2 -4.3,54.8 -9.5,79.8 -4.5,21.7 -10.4,42.1 -17.4,61.5 53.6,202.5 134.1,355.8 134.1,355.8 3.2,5.3 6.4,10.6 9.6,15.7 40.5,-44.6 75.6,-93 104.6,-144.4 17.6,-205.6 46.6,-409.7 86.7,-611.5 -2.9,-19.9 -6.2,-39.1 -9.7,-57.5 -16.1,-83 -37.5,-150 -56.1,-198.3 32.3,-60.8 77.9,-154.4 120.5,-269.7" style="fill:#371a45;fill-opacity:1;fill-rule:nonzero;stroke:none" id="path138"/>
      <path d="m 19620.5,20728 c -28.3,-56.4 -359.2,-738 16.2,-981 112.9,-73.1 268,-69 414.8,10.9 163.3,88.8 337.8,286.8 337.8,576 0,146.3 -218.2,528.8 -451.3,593.3 -41.8,11.7 -168.2,46.5 -317.5,-199.2 z m 200.1,-1355.2 c -128.2,0 -251.6,34.7 -358.7,104 -635.6,411.3 -145.8,1363.8 -124.6,1404.1 l 4.5,8.1 c 240.6,400.9 530.6,390.4 682.1,348.4 379.4,-105.1 687.2,-621.9 687.2,-903.5 0,-359.9 -193.8,-689 -505.8,-858.7 -125.5,-68.3 -257.5,-102.4 -384.7,-102.4" style="fill:#371a45;fill-opacity:1;fill-rule:nonzero;stroke:none" id="path140"/>
      <path d="m 19750.8,20734.8 c 70.1,-910.4 370.8,-1808.8 905.3,-2605.1 109.1,-162.4 227.3,-320.2 355.5,-473 62.1,-74.5 127.3,-147.8 194.2,-220.5 203.1,-218 419.8,-415.9 647.9,-593.9 196.2,-153.9 401.3,-292.6 612.5,-416.6 254.9,-149.9 519.8,-277.6 791.4,-383.8 99.1,-38.4 199,-74.1 299.6,-107.1 1842,-600.1 3942.9,-229.4 5464.8,1150.9 2242.3,2033 2377.8,5486 303.8,7712.6 -399.8,428.5 -852.4,781.4 -1338.9,1055.2 -56.5,32.5 -114.3,63.6 -172.5,93.4 -155.4,80.8 -313.7,153.8 -474.6,219 -372,150.7 -757.6,259.8 -1148.6,327.3 -390.9,68 -788.3,94.3 -1183.6,78.7 -125.7,-4.9 -251.2,-13.9 -376.7,-27.4 -188.1,-20.3 -375.1,-49.6 -561.1,-89.3 -926.8,-195.1 -1813.4,-629.1 -2560.2,-1306.5 -1289.9,-1169.4 -1882.4,-2808.5 -1758.8,-4413.9" style="fill:#ffffff;fill-opacity:1;fill-rule:nonzero;stroke:none" id="path142"/>
      <path d="m 19767,20736.1 c 71.3,-925.8 383.4,-1824 902.6,-2597.4 110,-163.7 229.2,-322.3 354.4,-471.6 57.1,-68.5 120.5,-140.5 193.8,-219.9 199.4,-214.1 416.8,-413.3 645.9,-592.1 191.6,-150.2 397,-290 610.7,-415.5 250,-146.9 515.5,-275.7 789.1,-382.6 98.1,-38 198.6,-73.9 298.7,-106.8 1898.7,-618.5 3986.5,-178.8 5448.9,1147.5 1076.9,976.3 1703.6,2310.6 1764.6,3756.9 61.5,1458 -457.6,2854.6 -1461.8,3932.6 -392,420.3 -841.2,774.3 -1334.9,1052.2 -54,31 -110.3,61.5 -172,93.1 -154.4,80.2 -313.6,153.7 -473.3,218.4 -367.3,148.7 -752.6,258.6 -1145.3,326.4 -388.8,67.6 -785.7,93.9 -1180.2,78.4 -126.5,-5 -252.9,-14.1 -375.6,-27.3 -191,-20.6 -379.2,-50.6 -559.5,-89.1 -951.1,-200.2 -1833.9,-650.6 -2552.6,-1302.6 -1243,-1126.8 -1882.1,-2730.8 -1753.5,-4400.6 m 5530.3,-5093.9 c -584.2,0 -1173.1,90.8 -1745.2,277.2 -100.7,33.1 -201.7,69.2 -300.4,107.4 -275.1,107.6 -542.2,237.1 -793.8,384.9 -214.8,126.2 -421.5,266.8 -614.2,417.9 -230.4,179.8 -449,380.2 -649.7,595.5 -73.7,80 -137.4,152.3 -194.9,221.3 -125.8,150 -245.7,309.6 -356.4,474.2 -522.3,778.1 -836.3,1681.7 -908,2613 -129.3,1679.9 513.6,3293.5 1764,4427.1 723.1,655.8 1611,1108.9 2567.7,1310.3 181.3,38.7 370.6,68.9 562.7,89.6 123.5,13.3 250.6,22.5 377.9,27.4 396.3,15.6 795.8,-10.9 1186.9,-78.8 395,-68.2 782.5,-178.7 1152,-328.3 160.6,-65.1 320.7,-139 475.9,-219.6 62.2,-31.8 118.9,-62.5 173.2,-93.8 496.5,-279.4 948.2,-635.5 1342.6,-1058.2 1010.1,-1084.4 1532.4,-2489.4 1470.5,-3956.1 -61.4,-1455 -691.9,-2797.3 -1775.2,-3779.5 -1030.4,-934.5 -2369.6,-1431.5 -3735.6,-1431.5" style="fill:#371a45;fill-opacity:1;fill-rule:nonzero;stroke:none" id="path144"/>
      <path d="m 29022,17085.9 c -1521.8,-1380.6 -3623,-1751.4 -5464.9,-1150.9 -100.6,32.8 -200.4,68.5 -299.4,106.9 -271.7,106.1 -536.4,234 -791.5,383.7 -211.1,124.2 -416.3,262.8 -612.4,416.6 -228.3,178 -444.8,375.9 -648.1,593.9 -66.7,72.9 -131.9,146 -194.3,220.5 -128.1,152.8 -246,310.9 -355.2,473.2 -534.6,796.3 -835.5,1694.5 -905.4,2605.2 -38.6,500.1 -7.6,1003.9 92.4,1495.5 86.9,-867.5 384.2,-1719.9 894.1,-2479.6 108.9,-162.6 227.2,-320.3 355.3,-473.2 62,-74.4 127.2,-147.6 194.3,-220.5 203.2,-218 419.7,-415.9 647.7,-593.9 196.4,-153.7 401.3,-292.4 612.4,-416.6 255.1,-149.6 520.2,-277.6 791.5,-383.6 99.3,-38.5 199.1,-74.1 299.8,-107 1841.8,-600.4 3942.7,-229.7 5464.9,1150.9 888.1,805.1 1445.3,1833.2 1666,2919.2 165.8,-1645.7 -423.6,-3340.5 -1747.2,-4540.3" style="fill:#dddddd;fill-opacity:1;fill-rule:nonzero;stroke:none" id="path146"/>
      <path d="m 19875.2,20744.4 c 69.9,-907.2 375.7,-1787.2 884.5,-2545.2 107.8,-160.5 224.8,-316.1 347.4,-462.3 56.2,-67.4 118.4,-138.1 190.4,-216.2 195.2,-209.5 408.3,-404.8 632.9,-580 188,-147.5 389.5,-284.5 598.9,-407.5 245.1,-144 505.5,-270.3 773.7,-375.1 96,-37.2 194.7,-72.5 293.1,-104.8 1861.3,-606.4 3908.5,-175.5 5342.1,1124.8 1055.2,956.7 1669.3,2264 1729.1,3681.1 60.3,1428.7 -448.6,2797.5 -1432.8,3854 -384.4,412.1 -824.7,759.2 -1308.7,1031.6 -53.4,30.7 -108,60.3 -168.2,91 -152,79.1 -308.2,151.1 -464.6,214.5 -360.2,145.9 -738,253.5 -1123.1,320 -381.4,66.3 -770.6,92.2 -1157.4,76.9 -124.1,-4.8 -248,-13.8 -368.3,-26.7 -187.3,-20.2 -371.8,-49.6 -548.4,-87.3 -932.7,-196.3 -1797.9,-637.9 -2502.4,-1276.9 -1217.8,-1104 -1844.1,-2675.8 -1718.2,-4311.9 m 5422,-5210.7 c -595.5,0 -1195.7,92.6 -1778.7,282.5 -102.7,33.7 -205.5,70.5 -305.9,109.4 -280.9,109.8 -553.2,241.8 -809.6,392.6 -219,128.5 -429.8,271.9 -626.3,426 -234.7,183.1 -457.5,387.4 -662.1,606.9 -75.3,81.8 -140.2,155.4 -198.8,225.8 -128.1,152.7 -250.4,315.4 -363.2,483.2 -532.7,793.6 -853,1715.2 -926.2,2665.2 -131.8,1713.6 524,3359.5 1799.4,4515.8 737.3,668.7 1642.7,1130.8 2618.3,1336.1 184.5,39.4 377.6,70.2 573.4,91.3 125.9,13.5 255.6,23 385.3,28 404.1,16 811.1,-11.1 1209.7,-80.4 402.4,-69.5 797.5,-182.1 1174.2,-334.6 163.7,-66.3 327,-141.7 485.2,-223.9 63.1,-32.3 121.3,-63.8 177.2,-96 505.4,-284.4 965.9,-647.4 1367.9,-1078.3 1030.1,-1105.8 1562.6,-2538.7 1499.5,-4034.7 -62.7,-1484.2 -705.7,-2853.4 -1810.7,-3855.3 -1050.6,-952.9 -2416,-1459.6 -3808.6,-1459.6" style="fill:#371a45;fill-opacity:1;fill-rule:nonzero;stroke:none" id="path148"/>
      <path d="m 19911.3,20747.2 c 69.3,-901 373.1,-1775.1 878.4,-2527.8 107.2,-159.4 223.3,-314 345.2,-459.3 55.8,-67 117.6,-137.2 189.3,-214.9 193.7,-207.9 405.4,-401.9 628.5,-576 186.8,-146.5 386.8,-282.6 594.9,-404.8 243.5,-143.1 502.1,-268.5 768.6,-372.7 95.3,-36.9 193.4,-71.9 291.2,-104 1849,-602.4 3882.4,-174.4 5306.5,1117.2 1048,950.2 1657.8,2248.5 1717.2,3655.8 59.9,1419 -445.5,2778.4 -1423.1,3827.9 -381.8,409.3 -819.2,754.1 -1300,1024.7 -53.1,30.5 -107.3,59.8 -166.9,90.3 -151.3,78.6 -306.3,150.2 -461.7,213.2 -357.7,144.9 -733.1,251.8 -1115.6,317.9 -378.9,65.9 -765.9,91.4 -1149.8,76.4 -123.4,-4.8 -246.5,-13.7 -366,-26.6 -186,-20.1 -369.3,-49.3 -544.7,-86.7 -926.5,-195 -1785.8,-633.6 -2485.6,-1268.3 C 20408.2,23933 19786.3,22372 19911.3,20747.2 m 5385.9,-5249.7 c -599.3,0 -1203.2,93.2 -1789.9,284.3 -103.4,34 -206.8,70.9 -307.8,110 -282.8,110.6 -556.7,243.5 -814.9,395.2 -220.4,129.4 -432.4,273.6 -630.2,428.7 -236.2,184.3 -460.4,389.8 -666.3,610.8 -75.9,82.3 -141.1,156.4 -200.1,227.2 -128.9,153.6 -251.9,317.3 -365.4,486.2 -536.2,798.8 -858.5,1726.4 -932.2,2682.6 -132.8,1724.8 527.4,3381.6 1811.1,4545.4 742,673 1653.2,1138.1 2635.1,1344.7 185.7,39.7 379.9,70.6 577,91.9 126.8,13.6 257.2,23.1 387.8,28.1 406.8,16.1 816.2,-11.1 1217.3,-80.9 404.9,-69.9 802.5,-183.2 1181.5,-336.6 164.8,-66.8 329.1,-142.7 488.4,-225.4 63.4,-32.5 122.1,-64.2 178.6,-96.7 508.3,-286.1 971.8,-651.4 1376.2,-1085 1036.9,-1113 1572.8,-2555.2 1509.3,-4060.9 -63.1,-1494 -710.4,-2872.2 -1822.6,-3880.6 -1057.3,-958.9 -2431.5,-1469 -3832.9,-1469" style="fill:#371a45;fill-opacity:1;fill-rule:nonzero;stroke:none" id="path150"/>
      <path d="m 20038.6,19363.2 c 2033.6,-3359.1 6716.5,-3711.1 8524.3,-295.1 1229.9,2324 -133.9,5322 -2478.8,6359.9 -1706.6,755.3 -3702.7,758 -5597,-1528.3 0,0 -679.4,-1141 -711.9,-2088.6 -32.5,-947.6 97.9,-1875.8 97.9,-1875.8 l 165.5,-572.1" style="fill:#371a45;fill-opacity:1;fill-rule:nonzero;stroke:none" id="path152"/>
      <path d="m 28562.8,19068.1 c -1807.7,-3416 -6490.6,-3063.8 -8524.3,295 l -33.4,116 c 2994.9,-2029.6 7109.7,-1564.5 9002.8,1855.3 67.1,-767.8 -65.7,-1549.1 -445.1,-2266.3" style="fill:#220f2d;fill-opacity:1;fill-rule:nonzero;stroke:none" id="path154"/>
      <path d="m 21942.8,16976.9 c 1298.8,-716.8 2800.4,-902.8 4122,-510.3 1240.1,368.4 2233.2,1201 2872.1,2407.9 582.9,1101.3 659.4,2413.1 215.4,3693.9 -496.8,1433.5 -1590.1,2641.8 -2924.4,3232.4 -738.2,326.7 -1458.5,492.7 -2141.2,493.5 -919.8,-196.6 -1773.3,-633.8 -2469,-1264.8 -1209.6,-1096.5 -1831.5,-2657.4 -1706.4,-4282.3 69.3,-901 373.1,-1775.1 878.4,-2527.8 107.2,-159.4 223.3,-314 345.2,-459.3 55.8,-67 117.6,-137.2 189.3,-214.9 190.8,-204.8 399.1,-396.2 618.6,-568.3 m 2709.8,-1033.6 c -976.8,0 -1974.2,257.6 -2877,758.3 l -20.9,13.9 c -236.5,184.5 -460.7,390 -666.6,611 -75.9,82.3 -141.1,156.4 -200.1,227.2 -128.9,153.6 -251.9,317.3 -365.4,486.2 -536.2,798.8 -858.5,1726.4 -932.2,2682.6 -132.8,1724.8 527.4,3381.6 1811.1,4545.4 742,673 1653.2,1138.1 2635.1,1344.7 l 16.2,3.4 16.5,0.1 c 4.2,0 8.5,0 12.7,0 729.3,0 1494.9,-175.3 2276.1,-521 1414.5,-626.1 2572.7,-1905 3098.3,-3421.3 473.5,-1366.1 390,-2768.8 -235.1,-3949.9 -680.3,-1285 -1740.1,-2172.2 -3064.9,-2565.8 -484.4,-143.9 -991.3,-214.8 -1503.8,-214.8" style="fill:#371a45;fill-opacity:1;fill-rule:nonzero;stroke:none" id="path156"/>
      <path d="m 31298.5,19487.7 c -282.5,-1038.5 -1141.7,-1742.4 -1919.4,-1571.9 -777.7,170.5 -1179.1,1150.7 -896.7,2189.3 1.6,6.5 3.7,13.4 5.7,19.9 287.7,1027.7 1141.4,1721.4 1913.6,1552 600.8,-131.7 977.1,-746.6 987.1,-1498.3 2.8,-221.3 -26.1,-454.8 -90.3,-691" style="fill:#ffffff;fill-opacity:1;fill-rule:nonzero;stroke:none" id="path158"/>
      <path d="m 31298.5,19487.7 c -282.5,-1038.5 -1141.7,-1742.4 -1919.4,-1571.9 -777.7,170.5 -1179.1,1150.7 -896.7,2189.3 1.6,6.5 3.7,13.4 5.7,19.9 56.5,-125.4 161,-259.5 351,-263.6 332.6,-7.2 1080.9,536.4 1080.9,536.4 0,0 637.6,-90.9 1468.8,-219.1 2.8,-221.3 -26.1,-454.8 -90.3,-691" style="fill:#dddddd;fill-opacity:1;fill-rule:nonzero;stroke:none" id="path160"/>
      <path d="m 30162.9,21541.8 c -635.7,0 -1290.6,-616.4 -1525.2,-1478.8 -150.2,-552.1 -96.8,-1117.5 142.5,-1512.6 154.7,-255.3 373.7,-420.4 633.4,-477.3 693.5,-152.2 1469.9,501.3 1729.7,1456.8 150.2,552 96.9,1117.5 -142.5,1512.6 -154.7,255.3 -373.7,420.4 -633.4,477.3 -67.5,14.8 -136,22 -204.5,22 z M 29611.8,17730 c -89.5,0 -178.7,9.3 -267.1,28.7 -347.9,76.3 -638.3,292.4 -839.7,624.9 -288.4,476 -353.2,1118.9 -177.9,1763.8 304.2,1118.4 1250.5,1875 2109.3,1686.7 347.8,-76.2 638.2,-292.3 839.7,-624.9 288.3,-475.9 353.1,-1118.9 177.8,-1763.7 C 31181.1,18442.2 30391.5,17730 29611.8,17730" style="fill:#371a45;fill-opacity:1;fill-rule:nonzero;stroke:none" id="path162"/>
      <path d="m 31377.3,19332 c -233.6,-845.9 -900,-1430.9 -1488.3,-1306.7 -588.3,124.2 -875.9,910.6 -642.2,1756.4 233.6,845.9 899.9,1430.9 1488.2,1306.7 588.4,-124.2 875.9,-910.6 642.3,-1756.4" style="fill:#ffffff;fill-opacity:1;fill-rule:nonzero;stroke:none" id="path164"/>
      <path d="m 29888.9,18025.3 c 588.5,-124.3 1254.6,460.7 1488.3,1306.8 25.6,91.8 44.5,183.1 58,272.6 -313.3,-541.2 -816.5,-865.6 -1273.9,-768.6 -516.5,109.7 -805.1,721.4 -717.1,1435.9 -81.4,-149.4 -148.8,-314.2 -197.5,-490.1 -233.7,-846.1 53.9,-1632.3 642.2,-1756.6" style="fill:#dddddd;fill-opacity:1;fill-rule:nonzero;stroke:none" id="path166"/>
      <path d="m 31377.3,19332 h 0.5 z m -801,1611.9 c -467.8,0 -984.2,-516.2 -1174.5,-1205 -128,-463.6 -91.7,-925.5 97.1,-1235.8 105.5,-173.4 251.9,-284.2 423.4,-320.4 497.5,-104.9 1092.4,441 1299.9,1192.1 128,463.6 91.7,925.6 -97.1,1235.8 -105.5,173.4 -251.9,284.2 -423.3,320.4 -41.2,8.7 -83.2,12.9 -125.5,12.9 z m -523,-3096.6 c -66.1,0 -132,6.7 -197.6,20.6 -260.4,54.9 -478.9,216.8 -631.7,468 -234.1,384.6 -283.6,941.1 -132.3,1488.7 259.8,940.6 995.8,1565.1 1676.6,1421.2 260.4,-54.9 478.9,-216.8 631.7,-467.9 234.1,-384.7 283.6,-941.2 132.4,-1488.7 v -0.1 c -234.8,-850 -859,-1441.8 -1479.1,-1441.8" style="fill:#371a45;fill-opacity:1;fill-rule:nonzero;stroke:none" id="path168"/>
      <path d="m 20842.8,20775.6 c -323.8,712.3 -386.9,1392.2 -65.4,2163.1 31.9,76 67.6,153.1 106.8,231.1 9,17.9 18.3,35.6 27.9,53.2 l 0.8,1 c 90.7,152.4 217.6,348.1 379.5,557 487.9,630.2 1292.5,1381 2378.7,1427.9 62.8,2.7 125.2,4 186.5,4 1924.4,0 3148.5,-1289.2 3033.7,-1350.8 0,0 -1181.4,613.6 -2527.2,613.6 -444.9,0 -907.5,-67 -1351.7,-245.4 -1.9,-0.8 -3.8,-1.5 -5.6,-2.3 -376.2,-151.4 -897.1,-643.2 -1142.8,-962.1 -324.9,-421.6 -485.9,-759.6 -616,-1062.6 -395.2,-921.7 -405.2,-1427.7 -405.2,-1427.7" style="fill:#9b8da2;fill-opacity:1;fill-rule:nonzero;stroke:none" id="path170"/>
      <path d="m 27286.9,19946.5 c -26.4,0 -53.1,1.9 -80,5.7 -349.2,50.2 -586.6,416.2 -530.1,817.6 52.2,370.5 336.6,641.6 654.8,641.6 26.4,0 53.1,-1.8 80,-5.7 349.2,-50.1 586.6,-416.1 530.1,-817.5 -52.2,-370.5 -336.6,-641.7 -654.8,-641.7" style="fill:#9b8da2;fill-opacity:1;fill-rule:nonzero;stroke:none" id="path172"/>
      <path d="m 26945.7,19132.3 c -57,59.1 -90.8,146.5 -85.6,241.9 8.8,161.9 126.4,287.5 265.9,287.5 4.5,0 9.2,-0.1 13.8,-0.4 119,-7.1 214.7,-103.9 240.5,-230.5 -141.2,-107.1 -286.1,-206.5 -434.6,-298.5" style="fill:#9b8da2;fill-opacity:1;fill-rule:nonzero;stroke:none" id="path174"/>
      <path d="m 27120.8,19055.5 c -4.6,0 -9.2,0.1 -13.8,0.4 -62.4,3.7 -118.4,32 -161.3,76.4 148.5,92 293.4,191.4 434.6,298.5 5.7,-28 8,-57.5 6.3,-87.8 -8.7,-161.9 -126.4,-287.5 -265.8,-287.5" style="fill:#918796;fill-opacity:1;fill-rule:nonzero;stroke:none" id="path176"/>
      <path d="m 25055.4,10300.1 -948.2,-49.7 -93.2,1043.9 -187.2,2098.7 1021.7,98.2 c 240.7,28.8 456,-152.1 469.3,-394.5 l 23.4,-430 104.5,-1924.8 c 12.1,-229 -161.3,-425.9 -390.3,-441.8" style="fill:#ffffff;fill-opacity:1;fill-rule:nonzero;stroke:none" id="path178"/>
      <path d="m 24466.3,10430.3 c 5.9,32.8 8.1,66.6 6.3,101 l -90.7,1694.4 c 179.9,230.6 442.2,411.9 798.1,439.2 l 8.5,-157 c -162.9,-74.8 -389.9,-245 -364.2,-608.5 9,-126.1 66.2,-223.5 141.6,-298 84.9,-84 192.9,-138.9 281.2,-173.1 l 37.8,-695.2 c 7.6,-140.4 -100.3,-262.7 -237.7,-272.5 l -580.9,-30.3" style="fill:#cdc6d0;fill-opacity:1;fill-rule:nonzero;stroke:none" id="path180"/>
      <path d="m 24848.5,13491.3 h 0.5 -0.5 m -847.2,-243 252.3,-2829 793.6,41.3 c 137.4,9.8 245.3,132.1 237.7,272.5 l -127.9,2355.1 c -3.9,72.3 -36.6,137.7 -92,184.3 -55.4,46.6 -125.7,67.6 -197.5,59.1 -1.2,-0.2 -2.4,-0.3 -3.6,-0.4 l -862.6,-82.9 m 105.6,-3158.7 c -82.7,0 -152.7,63.2 -160.1,146.6 l -280.3,3142.7 c -7.8,88.1 56.9,166 144.9,174.5 l 1020.1,97.9 c 157.7,18.4 318.7,-29.9 440.6,-132.5 122.4,-102.9 197.6,-253.5 206.2,-413.2 l 127.8,-2355.1 c 17.2,-314.7 -224.7,-588.8 -539.2,-611 l -951.4,-49.7 c -2.9,-0.1 -5.8,-0.2 -8.6,-0.2" style="fill:#371a45;fill-opacity:1;fill-rule:nonzero;stroke:none" id="path182"/>
      <path d="m 23929.4,10271.4 -636,316.7 c -161.2,80.3 -269.5,238.2 -286.2,417.4 l -166.6,1943.4 c -16.7,194.3 137,361.1 332,360.4 l 694.1,-2.6 c 156.2,26.9 300.9,-88.5 309.4,-246.8 l 135.8,-2537.2 c 10.9,-202.6 -200.8,-341.7 -382.5,-251.3" style="fill:#ffffff;fill-opacity:1;fill-rule:nonzero;stroke:none" id="path184"/>
      <path d="m 24001.2,10415.5 c 48.1,-24.1 88.3,-3.7 103.3,6.2 15,9.8 49.6,38.5 46.7,92.4 l -135.8,2537.2 c -2.2,40.5 -25.3,64.8 -39,75.7 -13.6,10.9 -42.7,28 -82.4,21.2 -9.2,-1.6 -19.5,-2.8 -27.9,-2.4 l -694,2.6 h -0.7 c -48.4,0 -93,-19.6 -125.9,-55.2 -32.9,-35.7 -48.8,-82.1 -44.6,-130.6 l 166.6,-1943.3 c 11.6,-123.5 85.5,-231.3 197.6,-287.1 l 636.1,-316.7 m 46.8,-333.3 c -64.6,0 -129.5,15 -190.3,45.2 l -636.1,316.7 c -212.5,105.8 -352.5,310.1 -374.6,546.5 l -166.7,1944.6 c -11.9,137.5 35.1,274.6 128.6,376.1 93.1,101 225.2,158.9 362.5,158.9 h 1.8 l 681.7,-2.5 c 115,15.5 231.5,-16.7 322.3,-89.2 94.9,-75.7 153.1,-188.7 159.6,-310 l 135.8,-2537.2 c 8.2,-153 -63.4,-294.5 -191.4,-378.6 -71.3,-46.8 -152,-70.5 -233.2,-70.5" style="fill:#371a45;fill-opacity:1;fill-rule:nonzero;stroke:none" id="path186"/>
      <path d="m 29257.3,14454.6 c -804.4,1523.8 -775.1,1757.7 -1974,2006.3 -502.6,104.2 -1268.1,-9.8 -2037.3,-123.8 -725.4,-107.4 -1454.1,-214.9 -1968.7,-139.4 -1593.6,233.9 -2343.1,662.9 -2343.1,662.9 0,0 -95.1,673.7 -481,955.1 -179.6,130.9 -468,162.8 -613.8,-22.1 -104.6,-132.6 -194,-239.5 -403.8,-223.6 -312.6,23.5 -538,266.5 -861.1,174.6 -475.1,-135 -541,-704.9 -263.2,-1075.3 -200.1,-1091.7 174.9,-1643.4 409.4,-1928.8 448.3,-545.8 2977.6,-2285.6 7276,-1364.5 l 3260.6,1078.6" style="fill:#ffffff;fill-opacity:1;fill-rule:nonzero;stroke:none" id="path188"/>
      <path d="m 23845.8,13486.4 c -863.6,0 -1923,98.2 -3017.3,434.7 -2395,736.4 -2218.2,2342.3 -2218.2,2342.3 1072.5,-2412 5605.8,-2589.4 6916.3,-2589.4 226,0 356.2,5.3 356.2,5.3 0,0 -826.2,-192.9 -2037,-192.9" style="fill:#cdc6d0;fill-opacity:1;fill-rule:nonzero;stroke:none" id="path190"/>
      <path d="m 29115,14379.5 c -185.8,348.9 -359.9,706.7 -546.3,1043.3 -93.9,167.1 -192.9,326.7 -312.1,451.7 -118.6,125 -264.1,211.4 -435,275.1 -169.9,64 -356.9,108.2 -545.8,148.3 -176.2,37.7 -360.8,46.2 -551.3,41.7 -380.1,-9.4 -767.7,-62.5 -1155.7,-117.7 -388.4,-55.9 -778.8,-118.6 -1175.8,-163.2 -198.5,-22.2 -398.8,-39.8 -602.6,-45.2 -101.6,-3.6 -204.8,-1.5 -308.4,2.9 -52.3,4.3 -104,6.1 -156.8,13.4 l -78.4,9.8 -74,11.8 c -394.6,60.5 -786.9,140.7 -1174.3,245 -193.4,53.6 -385.7,112.3 -575.9,180.4 -95,34.4 -189.6,70.2 -283.5,110 -47,19.4 -93.8,40.6 -140.6,61.9 -48,22.8 -91.1,42.9 -144.2,72.3 -43.8,24.2 -71.3,66.3 -78.7,112.1 l -0.7,5 c -5.5,35.9 -14.8,81.5 -24.4,122.4 -9.9,42 -21,83.8 -33.4,125.1 -24.6,82.6 -54.6,163.1 -89.5,239.5 -69.3,151.6 -165.9,289.8 -280.9,368.7 -53.9,36.1 -121.6,60.5 -185.5,66.8 -64.2,6.1 -122,-6.2 -159.4,-32.9 -9.7,-6.6 -18.5,-14 -26.4,-22.8 -2.2,-1.9 -4,-4.4 -6,-6.7 l -7.8,-9.5 -22.8,-28.5 c -31.5,-38.6 -66.6,-80.7 -113.2,-122 -46.5,-41 -106.4,-79.6 -172.4,-102.3 -65.9,-22.6 -132.9,-29.5 -193.5,-27.9 -119.8,3 -227.5,34.1 -322.6,69.1 -95,35.1 -178.2,73.2 -254.1,97.7 -75.9,24.6 -142,34.7 -205.5,26.9 -62.2,-7.7 -134.6,-34.4 -187.7,-70.8 -110.4,-72 -174.7,-202.4 -180.7,-348 -7.2,-145.1 42.6,-297.8 131.7,-416.5 28,-37.2 37.4,-82.7 29.9,-125.2 l -0.2,-1.1 c -68.6,-381.4 -77.5,-772.8 23.8,-1131.1 50.9,-178.5 128.8,-346.7 233.8,-499.6 26.1,-38.4 53.8,-76 83.1,-113.1 14.5,-18.2 30.1,-38 44.7,-54.7 14.8,-16 27.6,-32.2 43.7,-48.2 61.5,-65.2 135.4,-127.5 209.4,-187.6 302.8,-238.8 648.2,-436.3 1005,-603.2 358,-166.2 731.6,-301.5 1113.6,-407.5 382.4,-104.5 772.4,-183.2 1166.4,-236.5 394.1,-52.9 792.1,-79.1 1190.7,-81.6 99.7,-0.7 199.4,-1.7 299.1,2.5 99.6,3.8 199.4,3.2 299,11 l 299,16.6 c 99.5,8.8 199.1,16.5 298.9,22.9 398.8,34 796.5,82.1 1199.2,124.6 l 1,0.1 c 44.3,4.7 84.1,-27.5 88.8,-71.8 4.1,-39 -20.2,-74.3 -56.1,-85.6 -390.8,-122.8 -792.9,-208.4 -1199.4,-266.8 -406.8,-57.8 -818.5,-79.5 -1230.1,-81.3 -822.7,-1.4 -1650.9,91.6 -2448.7,314.5 -398.7,111.2 -789.6,253.1 -1166.3,428.6 -376.5,176.4 -739,385.3 -1072,649.6 -82.7,68 -164.1,136.8 -241.7,219.1 -19.6,20 -38.7,43.2 -57.9,64.7 -18.5,21.6 -34.1,41.8 -51,63.3 -33.2,42.6 -65.5,86.8 -96.1,132.4 -123.4,181.9 -216.8,386.7 -275.3,598.2 -116.9,425.7 -99.7,865.9 -23.1,1278.9 l 29.7,-126.4 c -132.5,178.8 -205.3,399.6 -194.7,626.2 5,112.9 32.8,228 87.2,333.5 53.5,105.5 136.1,200 235.9,266 49.6,33.1 102.6,60.8 157.1,80.6 53.4,19.6 111.4,35.7 172,42.8 121.5,15.4 242.9,-7.3 342.9,-40.3 100.8,-33 186.7,-72.9 266,-101.8 78.7,-29.2 152.6,-47.9 219.1,-49.4 66.5,-0.4 99.8,11 145.9,50.2 23.1,20.2 48.4,49.2 75.4,82.6 l 20.7,25.9 14.2,17.3 c 5.6,6.6 11.1,13.2 17.2,19.3 23.5,25.5 50.3,48.3 79,67.9 116.3,80.2 253.4,99.6 372.8,88 120.9,-12.6 232.8,-53.2 333.6,-119.8 192.4,-134.3 307.9,-318.2 393.9,-501.3 42.3,-92.5 77,-186.6 105.5,-281.9 14.2,-47.6 27,-95.6 38.4,-144 11.4,-49.5 21.1,-94.8 29.7,-150.8 l -79.4,117.2 c 33.1,-18.4 79,-40.5 120.1,-59.8 42.8,-19.5 85.8,-39 129.9,-57.1 87.4,-37.2 177.1,-71 267.3,-103.7 180.8,-64.8 365.5,-121.1 551.8,-172.8 373.5,-100.6 754.3,-178.5 1138.5,-237.4 l 72,-11.5 68.1,-8.5 c 44.8,-6.4 91.7,-7.8 137.6,-11.8 93.2,-3.8 187.1,-6 282.4,-2.5 190.1,5 382.6,21.7 575.6,43.3 386.2,43.4 774.1,105.6 1165.5,161.9 391.8,55.6 786.5,110.6 1194.7,121 202.9,4.8 415,-3.9 624.5,-48.6 196.1,-41.9 394.2,-87.5 593.4,-162.2 99.3,-37.5 198.9,-83.4 293.7,-142.5 94.7,-58.8 183.3,-131 259.7,-211 153,-161.4 261.1,-341.3 360.3,-516.6 195.2,-352.8 365.7,-704.2 550.4,-1050.7 41.8,-78.5 12.1,-175.9 -66.3,-217.7 -78.5,-41.8 -175.9,-12.1 -217.7,66.3 v 0 l -0.6,1.1" style="fill:#371a45;fill-opacity:1;fill-rule:nonzero;stroke:none" id="path192"/>
      <path d="m 25410.9,11379.2 c 0,0 -556.9,103.1 -586.4,520.1 -39.8,561 522.3,661.5 522.3,661.5 0,0 3470.9,251.3 4369.5,1158.8 0,0 869.2,-115.2 595.7,-936 -713.9,-1100.7 -3687.5,-1554.7 -4901.1,-1404.4" style="fill:#ffffff;fill-opacity:1;fill-rule:nonzero;stroke:none" id="path194"/>
      <path d="m 25750.3,11354.2 c -61.8,2 -120.9,5.1 -177.4,9.3 v 0 c 56.5,-4.2 115.6,-7.3 177.4,-9.3" style="fill:#a79bad;fill-opacity:1;fill-rule:nonzero;stroke:none" id="path196"/>
      <path d="m 25572.9,11363.5 c -56.9,4.1 -110.9,9.4 -161.9,15.7 0,0 -53.4,9.9 -128.2,36 74.7,-26.1 128.1,-36 128.1,-36 51,-6.3 105.1,-11.5 162,-15.7 v 0" style="fill:#371a45;fill-opacity:1;fill-rule:nonzero;stroke:none" id="path198"/>
      <path d="m 25507.2,12574.2 -0.1,0.1 c 38.3,3.4 82.8,7.5 132.8,12.4 -50,-4.9 -94.5,-9.1 -132.7,-12.5" style="fill:#a79bad;fill-opacity:1;fill-rule:nonzero;stroke:none" id="path200"/>
      <path d="m 24965.9,11601.4 c -75.4,74.5 -132.6,171.9 -141.6,298 -25.7,363.5 201.3,533.7 364.2,608.5 v -0.2 c -162.9,-74.8 -389.8,-244.9 -364,-608.4 8.9,-126 66,-223.4 141.4,-297.9" style="fill:#a79bad;fill-opacity:1;fill-rule:nonzero;stroke:none" id="path202"/>
      <path d="m 25188.5,12507.7 v 0.2 c 88.5,40.6 158.2,53.1 158.2,53.1 0,0 57.8,4.1 160.4,13.3 l 0.1,-0.1 c -102.6,-9.2 -160.4,-13.4 -160.4,-13.4 0,0 -69.7,-12.5 -158.3,-53.1" style="fill:#371a45;fill-opacity:1;fill-rule:nonzero;stroke:none" id="path204"/>
      <path d="m 30297.1,12761.2 c 5.1,7.4 10,14.8 14.9,22.4 12.8,38.4 23.1,75.3 31.1,110.7 -8,-35.4 -18.2,-72.2 -31,-110.6 -4.9,-7.5 -9.9,-15.1 -15,-22.5 m 46.1,133.6 c 0.1,0.4 0.2,0.7 0.3,1.1 -0.1,-0.4 -0.2,-0.7 -0.3,-1.1" style="fill:#371a45;fill-opacity:1;fill-rule:nonzero;stroke:none" id="path206"/>
      <path d="m 30365.2,13082.7 c 0,28.1 -1.8,55.1 -5.1,80.8 0.1,0.1 0,0 0.1,0.1 3.2,-25.8 5,-52.8 5,-80.9" style="fill:#cdc6d0;fill-opacity:1;fill-rule:nonzero;stroke:none" id="path208"/>
      <path d="m 25934.4,11351.3 c -63.4,0 -124.9,1 -184.1,2.9 -61.8,2 -120.9,5.1 -177.4,9.3 -56.9,4.2 -111,9.4 -162,15.7 0,0 -53.4,9.9 -128.1,36 -93.4,32.6 -220.2,90.6 -316.9,186.2 -75.4,74.5 -132.5,171.9 -141.4,297.9 -25.8,363.5 201.1,533.6 364,608.4 88.6,40.6 158.3,53.1 158.3,53.1 0,0 57.8,4.2 160.4,13.4 38.2,3.4 82.7,7.6 132.7,12.5 28.4,2.7 58.6,5.7 90.4,9 -112,-459.3 231.9,-723.4 231.9,-723.4 166.2,-24.9 347.5,-36.8 539.2,-36.8 1281.7,0 3031.7,534.6 3858.7,1328 3.3,-25.7 5.1,-52.7 5.1,-80.8 0.2,-57.2 -6.6,-119.3 -21.7,-186.8 -0.1,-0.4 -0.2,-0.7 -0.3,-1.1 0,-0.2 0,-0.3 -0.1,-0.5 -8,-35.4 -18.3,-72.3 -31.1,-110.7 -4.9,-7.6 -9.8,-15 -14.9,-22.4 -647.6,-949.4 -2982.4,-1409.9 -4362.7,-1409.9" style="fill:#cdc6d0;fill-opacity:1;fill-rule:nonzero;stroke:none" id="path210"/>
      <path d="m 25436.8,11538.2 c 1195.9,-145.5 4054.3,320.5 4728.9,1315.8 57.2,183 50.5,333.2 -19.9,446.8 -93.1,150.2 -278.8,217.5 -380.5,244.2 -996.5,-874.1 -4154.1,-1125.8 -4396.9,-1144 -64.8,-13.9 -410.6,-106.4 -383.4,-490.3 19.3,-271.9 408.3,-363.2 451.8,-372.5 z m 478.1,-346.1 c -200,0 -377.4,9.3 -523.8,27.4 -3.1,0.4 -6.3,0.9 -9.5,1.5 -27.7,5.1 -679.7,131.9 -717.6,667 -39.6,557.9 410.8,787.6 654.4,831.2 5.6,1 11.1,1.7 16.7,2.1 34.1,2.4 3420.9,257.2 4266.9,1111.6 35.4,35.7 85.7,53 135.5,46.2 19,-2.5 467.3,-65.5 680.4,-406.5 127,-203.1 142.7,-452 46.7,-739.9 -4.3,-12.9 -10.2,-25.3 -17.6,-36.7 -686.2,-1058 -3148.4,-1503.9 -4532.1,-1503.9" style="fill:#371a45;fill-opacity:1;fill-rule:nonzero;stroke:none" id="path212"/>
      <path d="m 22444.8,13059.7 c -23.1,0 -46.5,6.6 -67.1,20.4 -55.4,37.1 -70.2,112.1 -33.1,167.4 1023.3,1526.6 594.4,2935.5 589.9,2949.5 -20.1,63.5 15,131.4 78.6,151.5 63.4,20 131.3,-15 151.5,-78.6 19.6,-61.9 467.8,-1534.7 -619.5,-3156.7 -23.3,-34.8 -61.5,-53.5 -100.3,-53.5" style="fill:#371a45;fill-opacity:1;fill-rule:nonzero;stroke:none" id="path214"/>
      <path d="m 30432.5,6674.8 c -41.4,0 -83.4,1 -126.3,3.1 -66.5,3.2 -117.9,59.7 -114.8,126.3 3.3,66.5 60.4,117.8 126.4,114.8 613.8,-29.4 1053,179 1306,619 467.7,813.4 177.4,2174.9 76.1,2331.2 -38.8,54.1 -26.2,129.2 28,168 54.2,38.8 129.8,26.1 168.6,-28.1 148.2,-206.5 442.6,-1661.8 -43.9,-2556.4 -280.9,-516.6 -758.3,-777.9 -1420.1,-777.9" style="fill:#371a45;fill-opacity:1;fill-rule:nonzero;stroke:none" id="path216"/>
      <path d="m 33629.3,8367.2 c 11.4,-109.6 7.5,-222.1 -7.9,-333.9 -15.1,-111.9 -44.1,-223.4 -86,-331.9 -19.1,-55.2 -46.6,-106.9 -72.2,-160.4 -30.2,-50.6 -58.2,-103.9 -94.9,-151.4 -67.7,-100 -154.2,-186.1 -245.5,-268.7 -66.6,-60.2 -169.3,-55 -229.5,11.5 -60.2,66.6 -55,169.3 11.5,229.5 9.7,8.7 20.1,16 31,22 l 6.9,3.7 c 84.9,45.9 171.5,95.8 245.6,162.8 39.9,30.8 72.8,68.6 109.2,104.7 32.1,39.1 67.2,77.5 95.4,120.9 59.7,84.8 111.1,178.2 150.7,277.8 39.9,99.5 70.3,204.5 85.7,313.4" style="fill:#371a45;fill-opacity:1;fill-rule:nonzero;stroke:none" id="path218"/>
      <path d="m 23894.4,11892.8 c 12.3,-285.8 -43.5,-520.4 -124.5,-523.8 -81.1,-3.5 -411.7,-17.7 -411.7,-17.7 l -44.3,1035 c 0,0 391.3,16.8 411.6,17.7 81,3.4 156.7,-225.4 168.9,-511.2" style="fill:#22a7f0;fill-opacity:1;fill-rule:nonzero;stroke:none" id="path220"/>
      <path d="m 23770,11369.1 c -81.1,-3.7 -411.7,-17.9 -411.7,-17.9 l -19.2,449.2 -25.1,585.9 c 0,0 391.2,16.7 411.7,17.5 81,3.8 156.7,-225.2 168.8,-511 0.8,-18 1.2,-36 1.2,-53.5 3.8,-261.2 -49.7,-467.2 -125.7,-470.2" style="fill:#22a7f0;fill-opacity:1;fill-rule:nonzero;stroke:none" id="path222"/>
      <path d="m 23770,11369.1 c -81.1,-3.7 -411.7,-17.9 -411.7,-17.9 l -19.2,449.2 c 163.8,-6.7 397,-6.3 556.6,38.9 3.8,-261.2 -49.7,-467.2 -125.7,-470.2" style="fill:#1675db;fill-opacity:1;fill-rule:nonzero;stroke:none" id="path224"/>
      <path d="m 23397.7,12309.4 37.5,-874.3 318.4,13.7 c 27.9,36.3 71,192.9 60.5,440.5 -10.7,247.6 -67.1,400 -98,433.7 z m -39.5,-1038.5 c -42.9,0 -78.5,33.8 -80.3,77 l -44.4,1035 c -0.9,21.3 6.7,42.1 21.1,57.8 14.4,15.7 34.5,25.1 55.8,26 l 411.7,17.6 c 1.9,0.1 3.8,0.2 5.7,0.2 215.5,0 244.4,-527.6 247,-588.3 2.6,-61.2 19.3,-598.1 -201.5,-607.6 l -411.6,-17.6 c -1.2,-0.1 -2.3,-0.1 -3.5,-0.1" style="fill:#371a45;fill-opacity:1;fill-rule:nonzero;stroke:none" id="path226"/>
      <path d="m 23482.8,11875.1 c 12.2,-285.8 -43.5,-520.3 -124.6,-523.8 -81,-3.5 -156.7,225.4 -168.9,511.2 -12.3,285.8 43.5,520.3 124.6,523.8 81,3.5 156.6,-225.4 168.9,-511.2" style="fill:#22a7f0;fill-opacity:1;fill-rule:nonzero;stroke:none" id="path228"/>
      <path d="m 23318.2,12285.3 c -26.6,-59 -57.7,-205.1 -48.5,-419.3 9.1,-214.3 52.7,-357.2 84.2,-413.7 26.6,59 57.7,205.1 48.5,419.4 -9.2,214.3 -52.7,357.2 -84.2,413.6 z m 37.6,-1014.5 c -77.9,0 -139.8,68.1 -184.2,202.4 -34.2,103.4 -56.4,240.4 -62.7,385.9 -6.2,145.4 4.2,283.9 29.4,389.8 33.6,141.1 91.5,214.3 172.1,217.8 1.9,0.1 3.8,0.1 5.7,0.1 215.6,0 244.5,-527.6 247.1,-588.2 6.2,-145.5 -4.2,-283.9 -29.4,-389.9 -33.6,-141 -91.5,-214.3 -172.1,-217.7 -2,-0.1 -3.9,-0.2 -5.9,-0.2" style="fill:#371a45;fill-opacity:1;fill-rule:nonzero;stroke:none" id="path230"/>
      <path d="m 13814.1,27393 c -19.2,-176.7 -49.5,-353.1 -90.1,-528.7 -93.6,-402.9 -243.9,-799.9 -455.2,-1179.6 -1217.4,-2190.9 -3980.02,-2979.9 -6170.88,-1762.6 -1744.39,969.3 -2599.99,2918.5 -2261.77,4778.6 86.68,476 251.35,945.9 499.25,1392.3 115.69,208.1 245.36,403.4 387.17,585.6 332.59,428.2 732.1,783.6 1175.14,1059.5 101.55,63.6 205.64,122.9 311.56,177.7 570.51,295.9 1198.7,468.4 1840.85,504.3 5.81,0.2 11.43,0.7 17.05,0.9 39.35,2.2 78.52,3.8 118.24,4.7 78.34,2.2 156.69,2.2 235.21,0.4 532.8,-13.4 1069.08,-121.3 1583.48,-330.6 170,-68.7 337.9,-148.9 502.2,-240.1 35.4,-20 70.4,-39.7 105,-60.4 21,-12.1 41.7,-24.8 62.2,-37.7 250.4,-153.1 480.9,-327.2 690.8,-518.7 1077.3,-982.3 1605.6,-2422.4 1449.8,-3845.6" style="fill:#99a4c4;fill-opacity:1;fill-rule:nonzero;stroke:none" id="path232"/>
      <path d="m 13814.1,27393 c -19.2,-176.7 -49.5,-353.1 -90.1,-528.7 -93.6,-402.9 -243.9,-799.9 -455.2,-1179.6 -1217.4,-2190.9 -3980.02,-2979.9 -6170.88,-1762.6 -1744.39,969.3 -2599.99,2918.5 -2261.77,4778.6 86.68,476 251.35,945.9 499.25,1392.3 115.69,208.1 245.36,403.4 387.17,585.6 332.59,428.2 732.1,783.6 1175.14,1059.5 101.55,63.6 205.64,122.9 311.56,177.7 570.51,295.9 1198.7,468.4 1840.85,504.3 5.81,0.2 11.43,0.7 17.05,0.9 39.35,2.2 78.52,3.8 118.24,4.7 78.34,2.2 156.69,2.2 235.21,0.4 532.8,-13.4 1069.08,-121.3 1583.48,-330.6 170,-68.7 337.9,-148.9 502.2,-240.1 35.4,-20 70.4,-39.7 105,-60.4 21,-12.1 41.7,-24.8 62.2,-37.7 250.4,-153.1 480.9,-327.2 690.8,-518.7 1077.3,-982.3 1605.6,-2422.4 1449.8,-3845.6" style="fill:#ffd243;fill-opacity:1;fill-rule:nonzero;stroke:none" id="path234"/>
      <path d="m 5364.03,29424.5 c 77.09,218.2 173.34,432.9 289.58,642 106.41,191.3 225.7,371.1 356.01,538.7 306.03,393.8 673.38,720.7 1080.92,974.3 93.35,58.6 189.09,113.2 286.53,163.5 524.78,272.3 1102.59,430.9 1693.12,464 5.42,0.1 10.51,0.7 15.76,0.7 36.09,2 72.19,3.5 108.62,4.4 37.74,1 75.44,1.5 113.14,1.5 34.4,0 68.8,-0.4 103.24,-1.2 490.05,-12.4 983.35,-111.5 1456.45,-304 156.4,-63.2 310.7,-137.1 461.9,-221 32.5,-18.3 64.7,-36.4 96.6,-55.4 19.3,-11.1 38.2,-22.8 57.2,-34.7 230.3,-140.8 442.3,-300.9 635.3,-477 515.3,-469.9 893.8,-1053.4 1118.5,-1689.6 -233.5,429.4 -539.2,823.7 -910.9,1162.8 -207.3,189.1 -434.8,360.9 -682.2,512.1 -20.2,12.7 -40.7,25.2 -61.4,37.2 -34.2,20.5 -68.8,40 -103.7,59.7 -162.3,90.1 -328,169.3 -495.9,237 -508.1,206.8 -1037.58,313.4 -1563.71,326.6 -37.18,0.9 -74.32,1.3 -111.41,1.3 -40.35,0 -80.65,-0.5 -120.91,-1.7 -39.3,-0.8 -77.95,-2.5 -116.75,-4.5 -5.59,-0.4 -11.18,-0.9 -16.94,-1.1 -634.08,-35.4 -1254.42,-205.7 -1817.84,-498 -104.55,-54 -207.41,-112.7 -307.71,-175.5 -437.52,-272.3 -831.99,-623.4 -1160.39,-1046.2 -140.13,-179.9 -268.23,-372.8 -382.44,-578.3 -6.95,-12.5 -13.9,-25.1 -20.67,-37.6" style="fill:#ffe9a1;fill-opacity:1;fill-rule:nonzero;stroke:none" id="path236"/>
      <path d="m 13400.5,26694.6 c -85.7,-273.6 -200.2,-542.5 -345.1,-802.9 -1151.9,-2073 -3765.92,-2819.6 -5838.89,-1667.7 -1001.52,556.5 -1693.53,1454.5 -2011.13,2467.9 400.82,-454.8 884.69,-849.8 1444.77,-1161.2 2286.86,-1270.7 5091.35,-724.5 6750.35,1163.9" style="fill:#ff9d33;fill-opacity:1;fill-rule:nonzero;stroke:none" id="path238"/>
      <path d="m 12062.7,27391.3 c -123.9,-553 45.7,-1000.5 378.9,-999.7 333.2,0.8 733.8,435.6 857.7,988.5 123.9,552.9 -75.8,1014.7 -409,1013.9 -333.2,-0.9 -703.7,-449.8 -827.6,-1002.7" style="fill:#ff9d33;fill-opacity:1;fill-rule:nonzero;stroke:none" id="path240"/>
      <path d="m 11822.8,27752.9 c -195.7,-468.3 -122.4,-1320 393.7,-1548.7 39.1,-12.5 29.9,-74.2 -10.7,-75.1 -180.4,-10.6 -355.1,97.5 -469.3,231.3 -333.8,397.8 -367.5,1067.2 8.5,1445.7 35.8,36 98.4,-7.4 77.8,-53.2" style="fill:#371a45;fill-opacity:1;fill-rule:nonzero;stroke:none" id="path242"/>
      <path d="m 7229.42,30985.8 c -248.86,-10.2 -445.02,-190.7 -438.14,-403.1 6.88,-212.3 214.19,-376.2 463.05,-366 248.85,10.2 445.01,190.6 438.13,403 -6.88,212.4 -214.19,376.3 -463.04,366.1" style="fill:#ff9d33;fill-opacity:1;fill-rule:nonzero;stroke:none" id="path244"/>
      <path d="m 7224.43,30719.3 c -171.3,-75 -257.57,-246.5 -192.68,-383.1 64.89,-136.6 256.36,-186.5 427.66,-111.6 171.3,75 257.56,246.5 192.67,383.1 -64.88,136.6 -256.35,186.6 -427.65,111.6" style="fill:#ffd243;fill-opacity:1;fill-rule:nonzero;stroke:none" id="path246"/>
      <path d="m 7256.42,30161.6 c -210.8,-42.6 -459.4,67.5 -546.34,274.6 -153.34,364.6 217.87,699.1 571.44,662.9 348.32,-11.7 645.99,-397.4 399.33,-700.3 -22.09,-26.5 -65.72,1.9 -51.24,32.5 71.36,157.5 10.53,332.5 -133.81,414.9 -248.77,162.9 -708.01,-17.8 -618.26,-345.5 48.6,-153 214.59,-245.2 375.76,-263.8 42.96,-4.1 45.03,-67.9 3.12,-75.3" style="fill:#371a45;fill-opacity:1;fill-rule:nonzero;stroke:none" id="path248"/>
      <path d="m 7838.43,30883.7 c 328.66,-364.9 12.49,-883.8 -417.51,-965.3 -303.37,-71.9 -662.02,41.8 -819.63,321.9 -49.8,91.5 -74.07,196.6 -63.06,295.9 1.86,16.8 17.02,28.9 33.84,27.1 13.48,-1.5 23.95,-11.5 26.61,-24.1 18.14,-87 55.31,-164.7 108.13,-228.4 307.85,-381.8 1081.88,-234.8 1120.81,287.8 5.07,80.3 -14.13,163 -51.25,242.6 -18.56,38.1 33.63,73.3 62.06,42.5" style="fill:#371a45;fill-opacity:1;fill-rule:nonzero;stroke:none" id="path250"/>
      <path d="m 6022.34,29576.6 c 426.23,-25.2 768.78,-428.3 805.85,-847.8 48.03,-419.9 -137.52,-854.6 -463.13,-1118.1 -213.42,-175.9 -493.48,-277 -763.74,-249.5 -16.75,1.7 -28.96,16.7 -27.25,33.5 1.48,14.6 13.2,25.9 27.32,27.2 251.44,29.2 478.71,146.6 652.83,314.6 538.8,500.9 539.08,1514.4 -245.78,1766.1 -42.58,12.1 -30.15,78 13.9,74" style="fill:#371a45;fill-opacity:1;fill-rule:nonzero;stroke:none" id="path252"/>
      <path d="m 5082.73,28615.1 c -80.64,-399.5 138.23,-782.9 488.85,-856.2 350.63,-73.3 700.24,191.1 780.87,590.7 80.64,399.6 -138.22,783 -488.85,856.3 -350.62,73.3 -700.23,-191.2 -780.87,-590.8" style="fill:#ff9d33;fill-opacity:1;fill-rule:nonzero;stroke:none" id="path254"/>
      <path d="m 5704.89,27807.1 c 230.7,-2.7 465.29,154.3 585.81,418.2 160.32,351.4 57.59,759.4 -229.44,911.5 -40.5,21.5 -82.57,36.7 -125.41,45.8 -169.36,-69 -321.17,-213.9 -413.19,-415.2 -162.82,-357 -79.49,-767 182.23,-960.3" style="fill:#ffd243;fill-opacity:1;fill-rule:nonzero;stroke:none" id="path256"/>
      <path d="m 5082.15,28769.4 c 299.82,769.2 1377.47,646.2 1381.08,-219.5 -1.3,-510 -511.79,-987.6 -1020.49,-824.7 -158.76,52.4 -290.05,172.8 -351.04,317.3 -17.38,41 39.27,73 65.6,38.1 162.51,-219.7 458.71,-266.9 687.11,-137.4 322.8,172.8 486.25,637.5 262.86,940.6 -146.52,199.8 -429.44,227 -645.58,109.2 -115.82,-58.3 -215.84,-152.3 -295.48,-266 -30.03,-46.4 -103.44,-8.7 -84.06,42.4" style="fill:#371a45;fill-opacity:1;fill-rule:nonzero;stroke:none" id="path258"/>
      <path d="m 11117.1,28687.4 c 76.6,-360.3 -19.4,-754.9 -248.1,-1043.2 -472.6,-620.7 -1422.03,-682.9 -2022.86,-221.5 -292.55,216.8 -508.66,541.6 -573.58,898.4 -3.79,20.7 9.96,40.5 30.66,44.3 18.3,3.4 35.86,-7 42.36,-23.7 124.33,-308.3 341.32,-570.7 619.19,-746.3 727.2,-464.3 1726.43,-193.6 1995.13,656.2 39.8,138.6 64.8,279.9 63.6,425.7 -0.6,56 82.1,65.1 93.6,10.1" style="fill:#371a45;fill-opacity:1;fill-rule:nonzero;stroke:none" id="path260"/>
      <path d="m 9535.32,29552.9 c -487.19,-48.4 -838.33,-492.2 -784.29,-991.3 54.03,-499.1 492.78,-864.5 979.97,-816.2 487.2,48.3 838.3,492.1 784.3,991.3 -54,499.1 -492.8,864.5 -979.98,816.2" style="fill:#ff9d33;fill-opacity:1;fill-rule:nonzero;stroke:none" id="path262"/>
      <path d="m 8852.15,28367.8 c 84.62,-311 364.28,-559.7 730.02,-610.2 487.03,-66.9 942.43,243.3 1017.33,693 10.6,63.5 13,126.4 7.8,187.8 -148.2,198.3 -381.7,341 -660.75,379.6 -494.65,67.9 -959.89,-217.1 -1094.4,-650.2" style="fill:#ffd243;fill-opacity:1;fill-rule:nonzero;stroke:none" id="path264"/>
      <path d="m 9781.62,29600.6 c 552.48,-33.4 1011.28,-602.1 909.38,-1154.3 -85,-610.1 -750.81,-952.2 -1311.42,-749 -652.99,208.7 -982.52,1072.6 -475.35,1586.3 38.94,37.6 99.42,-13.3 70.26,-57.8 -339.63,-512.2 27.17,-1207.5 615.17,-1279.3 472.14,-75.9 896.14,315.9 829.44,795.3 -44,353.8 -315.7,642.4 -657.72,747.7 -64.37,19.1 -46.3,116 20.24,111.1" style="fill:#371a45;fill-opacity:1;fill-rule:nonzero;stroke:none" id="path266"/>
      <path d="m 7099.85,26070.7 c -213.52,-112.4 -380.23,-276.4 -473.41,-485.8 -168.85,-379.4 -49.19,-798.7 259.62,-1167.8 202.61,-242.2 490.28,-453.1 839.74,-594.7 882.11,-357.5 1823.89,-137.8 2103.52,490.5 104.05,233.8 101.75,491.3 12.41,740.8 -150.77,421.1 -557.89,797.3 -1111.77,1021.7" style="fill:#ffd243;fill-opacity:1;fill-rule:nonzero;stroke:none" id="path268"/>
      <path d="m 6669.46,25565.7 c -147.04,-413.9 62.56,-837.9 351,-1131.5 573.03,-579.5 1566.32,-866 2320.75,-496 378.3,186.4 593.63,622 485.56,1038.5 -12.66,45 53.65,67.9 71.69,24.9 142.34,-333 66.35,-741.1 -174.27,-1012 -239.83,-275.3 -606,-414.5 -959.15,-450.2 -922.13,-87.6 -1978.2,437.8 -2253.97,1364.1 -29.65,116.8 -42.25,239.2 -30.65,359.5 11.21,120.3 46.97,237.3 103,341 12.41,23 41.04,31.5 63.99,19.1 20.79,-11.2 29.77,-35.8 22.05,-57.4" style="fill:#371a45;fill-opacity:1;fill-rule:nonzero;stroke:none" id="path270"/>
      <path d="m 8380.11,25898.2 c -706.79,148 -1347.74,-153.6 -1431.61,-673.5 -83.86,-520 421.12,-1061.4 1127.92,-1209.4 706.79,-148 1347.74,153.6 1431.6,673.5 83.87,520 -421.12,1061.4 -1127.91,1209.4" style="fill:#ff9d33;fill-opacity:1;fill-rule:nonzero;stroke:none" id="path272"/>
      <path d="m 8335.39,25374 c -606.61,80.5 -1118.36,-168.1 -1143.01,-555.3 -24.66,-387.1 447.11,-766.2 1053.72,-846.7 606.61,-80.5 1118.35,168.1 1143.01,555.3 24.66,387.1 -447.11,766.2 -1053.72,846.7" style="fill:#ffd243;fill-opacity:1;fill-rule:nonzero;stroke:none" id="path274"/>
      <path d="m 9061.18,24147.7 c 561.57,366.5 347.6,1003.9 -131.19,1337.6 -144.2,107.6 -315.36,185.4 -485.65,243.4 -1215.9,362.3 -1915.15,-636.9 -809.06,-1454.6 73.49,-50.6 149.56,-95.4 228.54,-137.8 23.37,-11.9 32.31,-41.2 18.97,-63.9 -10.94,-18.8 -33.28,-26.8 -53.18,-20.5 -362.33,113.6 -708.94,357.7 -889.79,707.1 -215.8,392.8 -102.12,887 277.31,1134.8 400.89,268.9 926.16,261.5 1366.22,104.9 606.74,-201.7 1255.76,-869 961.45,-1544.9 -80.47,-186.2 -250.45,-331.5 -430.98,-406.1 -63.32,-26.3 -109.57,63.7 -52.64,100" style="fill:#371a45;fill-opacity:1;fill-rule:nonzero;stroke:none" id="path276"/>
      <path d="m 11031.2,30379.2 c 159.3,104.8 277.8,246.6 335,418.4 103.6,311.3 -22.7,631.9 -293.9,898.4 -178,174.9 -420.4,318.7 -706.1,403.2 -721.21,213.4 -1444.99,-31.7 -1616.63,-547.3 -63.86,-191.9 -42.28,-394.2 47.15,-583.6 150.92,-319.6 500,-584.2 952.83,-718.1" style="fill:#ffd243;fill-opacity:1;fill-rule:nonzero;stroke:none" id="path278"/>
      <path d="m 11321.5,30812.4 c 107.6,597.1 -507,1029.5 -1015.6,1171.8 -523.15,150.8 -1245.03,94.9 -1520.33,-444.3 -17.76,-40.6 -82.05,-19.3 -71.99,24 33.47,160.2 129.02,308.1 252.95,419.7 749.89,640.6 2191.57,247.5 2479.57,-705.4 44.1,-164.1 35,-345.6 -35.3,-495.5 -23.7,-50.2 -100.8,-24.1 -89.3,29.7" style="fill:#371a45;fill-opacity:1;fill-rule:nonzero;stroke:none" id="path280"/>
      <path d="m 10011.1,30416.5 c 567.2,-62.1 1048.1,224.3 1074.1,639.6 26,415.4 -412.7,802.4 -979.9,864.5 -567.25,62 -1048.16,-224.4 -1074.17,-639.7 -26.01,-415.3 412.72,-802.4 979.97,-864.4" style="fill:#ff9d33;fill-opacity:1;fill-rule:nonzero;stroke:none" id="path282"/>
      <path d="m 10007.4,30817.9 c 483.2,-16.7 866.6,218.1 856.2,524.5 -10.3,306.4 -410.5,568.3 -893.72,585 -483.25,16.6 -866.6,-218.2 -856.25,-524.6 10.35,-306.4 410.49,-568.3 893.77,-584.9" style="fill:#ffd243;fill-opacity:1;fill-rule:nonzero;stroke:none" id="path284"/>
      <path d="m 9342.31,31738.7 c -506.34,-420.4 -50.67,-993.8 447.59,-1142.5 419.1,-160.1 1187.5,-75 1179.4,498.9 -30.9,351.9 -369.2,615.7 -688.1,744.8 -43.1,16.1 -22.9,82.5 21.5,72.7 498.9,-85 1055.1,-588.2 831,-1134.8 -131.3,-319.3 -489,-478.6 -805.5,-503.6 -419.39,-29.8 -859.38,118.1 -1147.25,430.9 -184.34,197.1 -299.06,493.1 -200.77,759 49.43,153.4 173.44,280.8 310.37,353.3 50.41,27 96.02,-43.9 51.76,-78.7" style="fill:#371a45;fill-opacity:1;fill-rule:nonzero;stroke:none" id="path286"/>
      <path d="m 12069.1,27413.1 c -108.3,-467.7 18.8,-841.5 284,-835 265.2,6.6 568.1,391.1 676.4,858.8 108.4,467.7 -18.8,841.5 -284,835 -265.2,-6.6 -568,-391.1 -676.4,-858.8" style="fill:#ffd243;fill-opacity:1;fill-rule:nonzero;stroke:none" id="path288"/>
      <path d="m 13234.2,28092.9 c -353.9,494.8 -889.7,-102.1 -1012,-491.2 -107.6,-285.8 -160,-644.1 0.2,-917 73.8,-119.4 199.1,-175.3 341.3,-147.5 324.7,79.4 538.8,381.4 682.9,671.3 8.9,19.5 32.2,27.9 51.5,18.4 16.5,-8.1 24.4,-26.5 20,-43.6 -45.7,-177.1 -121.6,-350.2 -235.9,-501.8 -363.5,-508.4 -1019.8,-515.8 -1182.6,153.3 -143.5,609.6 254.5,1532.7 930,1614.1 209.8,19.8 417.4,-120.2 487.7,-311.6 21.8,-52.5 -52.5,-91 -83.1,-44.4" style="fill:#371a45;fill-opacity:1;fill-rule:nonzero;stroke:none" id="path290"/>
      <path d="m 13814.1,27393 h 0.5 z m -4507.47,4881.7 c -39.55,0 -78.71,-0.6 -117.14,-1.6 -38.53,-0.9 -76.32,-2.5 -114.11,-4.5 l -19.29,-1.1 c -613.23,-34.4 -1228.47,-203 -1776.51,-487.3 -102.49,-53 -203.62,-110.8 -300.69,-171.6 -626.75,-390.3 -1148.78,-940 -1510.01,-1589.8 -234.37,-422 -396.68,-874.7 -482.42,-1345.5 -336.28,-1848.7 542.04,-3704.5 2185.6,-4617.7 2113.57,-1174.4 4788.74,-410.4 5963.24,1703.2 199.7,359 347.7,742.6 439.9,1140.1 39.2,168.9 68.5,340.7 87.1,510.7 183.9,1681.1 -628,3336.5 -2068.5,4217.5 -20.1,12.5 -39.7,24.5 -59.5,36 -34.8,20.8 -68.6,39.9 -102.6,58.9 -156.5,87 -319.7,165.1 -484.8,231.9 -488.5,198.7 -1003.26,306.2 -1530.21,319.4 -36.82,0.9 -73.59,1.4 -110.06,1.4 z m -12.55,-9075.8 c -770.31,0 -1550.59,189.7 -2270.36,589.7 -1758.01,976.8 -2697.46,2961.8 -2337.75,4939.3 91.7,503.8 265.29,988 515.92,1439.3 386.38,695 944.88,1283 1615.14,1700.5 103.76,65 212.21,126.9 322.02,183.7 585.94,304 1243.9,484.3 1902.59,521.2 l 19.53,1.1 c 38.57,2.1 79.44,3.8 120.51,4.8 78.51,2.1 160.25,2.2 242.53,0.2 564.11,-14.2 1114.99,-129.2 1637.49,-341.8 176.4,-71.3 351,-154.8 518.9,-248.1 37,-20.8 73.3,-41.3 109.2,-62.7 20.7,-12.1 42.6,-25.5 64.2,-38.9 1540.1,-941.9 2408.6,-2712.7 2212,-4510.8 v -0.1 c -20,-181.9 -51.3,-365.8 -93.3,-546.5 -98.5,-425.2 -256.8,-835.5 -470.4,-1219.5 -856.4,-1540.9 -2458.9,-2411.4 -4108.22,-2411.4" style="fill:#371a45;fill-opacity:1;fill-rule:nonzero;stroke:none" id="path292"/>
    </g>
  </g>
</svg>
