<?xml version="1.0" encoding="UTF-8" standalone="no"?>
<!-- Created with Inkscape (http://www.inkscape.org/) -->

<svg
   version="1.1"
   id="svg2"
   width="5333.3335"
   height="5333.3335"
   viewBox="0 0 5333.3335 5333.3335"
   sodipodi:docname="rocket.eps"
   xmlns:inkscape="http://www.inkscape.org/namespaces/inkscape"
   xmlns:sodipodi="http://sodipodi.sourceforge.net/DTD/sodipodi-0.dtd"
   xmlns="http://www.w3.org/2000/svg"
   xmlns:svg="http://www.w3.org/2000/svg">
  <defs
     id="defs6">
    <clipPath
       clipPathUnits="userSpaceOnUse"
       id="clipPath56">
      <path
         d="m 11703.9,20794.3 c 1514.7,285 1786.1,1511.7 1786.1,1511.7 1267.9,1938.1 2270.9,2894.9 2734.2,3279.4 -1307.7,-1641.8 -2174.2,-3320 -2467.2,-4771.2 -350,-6.1 -1221.7,-19.7 -2053.1,-19.9"
         id="path54" />
    </clipPath>
    <clipPath
       clipPathUnits="userSpaceOnUse"
       id="clipPath138">
      <path
         d="M 17255.5,13125.7 C 16870.6,10511.8 14879.5,8840 12340,8800.2 11107.8,8677.3 9704.03,8526.3 8174.37,7596.3 c -202.77,-123.2 -435.31,103.5 -317.24,309.3 890.65,1552.9 1005.84,2960 1097.35,4194.9 -25.04,2542.8 1599.32,4577.5 4208.02,5025.8 373.1,64.1 757,13.7 1100,-146.6 1070.5,-500.2 2291.6,-1710.2 2817.2,-2755.5 170.5,-339.1 231.1,-722.9 175.8,-1098.5 z"
         id="path136" />
    </clipPath>
    <linearGradient
       x1="0"
       y1="0"
       x2="1"
       y2="0"
       gradientUnits="userSpaceOnUse"
       gradientTransform="matrix(7625.61,7585.27,7585.27,-7625.61,5867.33,5772.3)"
       spreadMethod="pad"
       id="linearGradient146">
      <stop
         style="stop-opacity:1;stop-color:#eb201a"
         offset="0"
         id="stop140" />
      <stop
         style="stop-opacity:1;stop-color:#ef7d30"
         offset="0.997207"
         id="stop142" />
      <stop
         style="stop-opacity:1;stop-color:#ef7d30"
         offset="1"
         id="stop144" />
    </linearGradient>
  </defs>
  <sodipodi:namedview
     id="namedview4"
     pagecolor="#ffffff"
     bordercolor="#000000"
     borderopacity="0.25"
     inkscape:showpageshadow="2"
     inkscape:pageopacity="0.0"
     inkscape:pagecheckerboard="0"
     inkscape:deskcolor="#d1d1d1" />
  <g
     id="g8"
     inkscape:groupmode="layer"
     inkscape:label="ink_ext_XXXXXX"
     transform="matrix(1.3333333,0,0,-1.3333333,0,5333.3333)">
    <g
       id="g10"
       transform="scale(0.1)">
      <path
         d="M 0,0 H 40000 V 40000 H 0 Z"
         style="fill:#c891ff;fill-opacity:1;fill-rule:nonzero;stroke:none"
         id="path12" />
      <path
         d="m 12205.9,5523.1 c 4.7,-49.4 -92.6,-102.2 -241.7,-140.4 -75.3,-19.2 -129.7,-85.2 -134.4,-162.7 -9.3,-153.7 -42.8,-259.1 -92.2,-263.8 -49.5,-4.7 -102.3,92.5 -140.4,241.6 -19.3,75.3 -85.2,129.8 -162.8,134.5 -153.8,9.3 -259.5,42.7 -264.2,92.1 -4.7,49.8 92.7,102.6 241.8,140.6 75.4,19.2 130,85.2 134.7,162.9 9.3,153.8 42.8,259.2 92.2,263.9 49.4,4.7 102.2,-92.5 140.4,-241.8 19.3,-75.4 85.3,-129.9 162.9,-134.5 153.6,-9.2 258.9,-42.7 263.7,-92.4"
         style="fill:#ffffff;fill-opacity:1;fill-rule:nonzero;stroke:none"
         id="path14" />
      <path
         d="m 15456,28723.9 c 2.9,-51.5 -100.1,-102.4 -256.4,-136 -78.9,-17 -138.1,-83.3 -146.1,-163.6 -15.8,-159.1 -54.8,-267.2 -106.3,-270.1 -51.5,-2.9 -102.4,100.1 -136,256.4 -17,78.9 -83.3,138.1 -163.6,146.1 -159.2,15.8 -267.6,54.8 -270.5,106.3 -2.9,51.8 100.3,102.7 256.6,136.2 79,16.9 138.3,83.2 146.3,163.6 15.8,159.3 54.8,267.4 106.3,270.3 51.5,2.9 102.4,-100.1 136,-256.6 17,-79 83.4,-138.2 163.8,-146.2 159,-15.6 267,-54.6 269.9,-106.4"
         style="fill:#ffffff;fill-opacity:1;fill-rule:nonzero;stroke:none"
         id="path16" />
      <path
         d="m 31210.4,33953.4 c 0,-44 -90.2,-82.3 -224.8,-103.4 -68,-10.7 -121.5,-64.2 -132.2,-132.2 -21.1,-134.7 -59.5,-224.8 -103.4,-224.8 -44,0 -82.4,90.1 -103.5,224.8 -10.6,68 -64.2,121.5 -132.2,132.2 -134.7,21.1 -225.1,59.4 -225.1,103.4 0,44.2 90.3,82.6 224.9,103.6 68.1,10.6 121.8,64.2 132.4,132.3 21.1,134.7 59.5,224.9 103.5,224.9 43.9,0 82.3,-90.2 103.4,-225 10.7,-68 64.3,-121.6 132.4,-132.2 134.5,-21 224.6,-59.4 224.6,-103.6"
         style="fill:#ffffff;fill-opacity:1;fill-rule:nonzero;stroke:none"
         id="path18" />
      <path
         d="m 18942.5,35178.9 c 0,-44.7 -91.7,-83.7 -228.6,-105.1 -69.1,-10.9 -123.6,-65.3 -134.4,-134.5 -21.5,-136.9 -60.5,-228.5 -105.2,-228.5 -44.7,0 -83.7,91.6 -105.2,228.5 -10.8,69.2 -65.3,123.6 -134.4,134.5 -137,21.4 -228.9,60.4 -228.9,105.1 0,45 91.8,84.1 228.7,105.4 69.2,10.8 123.8,65.3 134.6,134.5 21.5,137 60.5,228.7 105.2,228.7 44.7,0 83.7,-91.7 105.2,-228.7 10.8,-69.2 65.4,-123.7 134.6,-134.5 136.8,-21.3 228.4,-60.4 228.4,-105.4"
         style="fill:#ffffff;fill-opacity:1;fill-rule:nonzero;stroke:none"
         id="path20" />
      <path
         d="m 19952.8,5005.4 c 0,-44.7 -91.7,-83.7 -228.6,-105.2 -69.1,-10.8 -123.6,-65.2 -134.4,-134.4 -21.5,-136.9 -60.5,-228.6 -105.2,-228.6 -44.7,0 -83.7,91.7 -105.2,228.6 -10.9,69.2 -65.3,123.6 -134.5,134.4 -137,21.5 -228.9,60.5 -228.9,105.2 0,45 91.8,84.1 228.8,105.4 69.2,10.8 123.7,65.2 134.6,134.5 21.5,137 60.5,228.7 105.2,228.7 44.7,0 83.7,-91.7 105.2,-228.8 10.8,-69.2 65.3,-123.6 134.6,-134.4 136.8,-21.3 228.4,-60.4 228.4,-105.4"
         style="fill:#ffffff;fill-opacity:1;fill-rule:nonzero;stroke:none"
         id="path22" />
      <path
         d="m 36869,18591.6 c 0,-101.3 -82.1,-183.3 -183.3,-183.3 -101.2,0 -183.3,82 -183.3,183.3 0,101.2 82.1,183.3 183.3,183.3 101.2,0 183.3,-82.1 183.3,-183.3"
         style="fill:#ffffff;fill-opacity:1;fill-rule:nonzero;stroke:none"
         id="path24" />
      <path
         d="m 31718.6,14817.2 c 5.7,-100.8 -71.4,-187.1 -172.2,-192.8 -100.9,-5.7 -187.2,71.4 -192.9,172.2 -5.7,100.8 71.4,187.2 172.2,192.9 100.9,5.7 187.2,-71.5 192.9,-172.3"
         style="fill:#ffffff;fill-opacity:1;fill-rule:nonzero;stroke:none"
         id="path26" />
      <path
         d="m 29330.8,5786.9 c 6.7,-119.9 -84.9,-222.5 -204.8,-229.3 -119.8,-6.8 -222.5,84.9 -229.3,204.8 -6.7,119.8 85,222.5 204.8,229.2 119.9,6.8 222.5,-84.9 229.3,-204.7"
         style="fill:#ffffff;fill-opacity:1;fill-rule:nonzero;stroke:none"
         id="path28" />
      <path
         d="m 6390.12,26933 c 1.71,-120 -94.22,-218.7 -214.25,-220.4 -120.03,-1.7 -218.71,94.2 -220.41,214.3 -1.71,120 94.21,218.7 214.24,220.4 120.03,1.7 218.72,-94.2 220.42,-214.3"
         style="fill:#ffffff;fill-opacity:1;fill-rule:nonzero;stroke:none"
         id="path30" />
      <path
         d="m 7216.67,34275.7 c 1.71,-120 -94.21,-218.7 -214.24,-220.4 -120.03,-1.7 -218.72,94.2 -220.42,214.3 -1.71,120 94.22,218.7 214.25,220.4 120.03,1.7 218.71,-94.2 220.41,-214.3"
         style="fill:#ffffff;fill-opacity:1;fill-rule:nonzero;stroke:none"
         id="path32" />
      <path
         d="m 5427.93,10781.4 c 10.78,-113.2 -72.24,-213.7 -185.44,-224.5 -113.19,-10.8 -213.7,72.3 -224.49,185.5 -10.78,113.2 72.24,213.7 185.44,224.4 113.2,10.8 213.71,-72.2 224.49,-185.4"
         style="fill:#ffffff;fill-opacity:1;fill-rule:nonzero;stroke:none"
         id="path34" />
      <path
         d="m 35498.7,28215.3 c 0,-52 -42.2,-94.2 -94.2,-94.2 -52.1,0 -94.3,42.2 -94.3,94.2 0,52.1 42.2,94.3 94.3,94.3 52,0 94.2,-42.2 94.2,-94.3"
         style="fill:#ffffff;fill-opacity:1;fill-rule:nonzero;stroke:none"
         id="path36" />
      <path
         d="m 34701.6,8857 c 3.5,-61.7 -43.6,-114.5 -105.3,-117.9 -61.6,-3.5 -114.4,43.6 -117.9,105.3 -3.4,61.6 43.7,114.4 105.3,117.9 61.7,3.5 114.5,-43.7 117.9,-105.3"
         style="fill:#ffffff;fill-opacity:1;fill-rule:nonzero;stroke:none"
         id="path38" />
      <path
         d="m 11275.6,32720 c 0.9,-61.7 -48.4,-112.5 -110.2,-113.4 -61.7,-0.8 -112.4,48.5 -113.3,110.2 -0.9,61.8 48.4,112.5 110.2,113.4 61.7,0.9 112.5,-48.5 113.3,-110.2"
         style="fill:#ffffff;fill-opacity:1;fill-rule:nonzero;stroke:none"
         id="path40" />
      <path
         d="m 23486,29096.1 c 0.9,-61.7 -48.4,-112.4 -110.2,-113.3 -61.7,-0.9 -112.5,48.4 -113.3,110.2 -0.9,61.7 48.4,112.4 110.1,113.3 61.8,0.9 112.5,-48.4 113.4,-110.2"
         style="fill:#ffffff;fill-opacity:1;fill-rule:nonzero;stroke:none"
         id="path42" />
      <path
         d="m 9264.32,18354.3 c 5.55,-58.2 -37.15,-109.9 -95.37,-115.4 -58.21,-5.6 -109.9,37.1 -115.45,95.4 -5.54,58.2 37.15,109.9 95.37,115.4 58.21,5.5 109.9,-37.1 115.45,-95.4"
         style="fill:#ffffff;fill-opacity:1;fill-rule:nonzero;stroke:none"
         id="path44" />
      <path
         d="m 3909.38,18221.6 c 0,-113.8 -92.18,-205.9 -205.89,-205.9 -113.71,0 -205.89,92.1 -205.89,205.9 0,113.7 92.18,205.8 205.89,205.8 113.71,0 205.89,-92.1 205.89,-205.8"
         style="fill:#ffffff;fill-opacity:1;fill-rule:nonzero;stroke:none"
         id="path46" />
      <path
         d="m 17273.1,26576.8 -595,-1020.9 -2762.1,-4738.7 c 0,0 -1139.7,-22.6 -2212.1,-22.9 -866.8,-0.2 -1689.8,14.1 -1831.62,66.4 -437.5,161.6 -1251.63,1335.6 1347.72,3258.4 2599.4,1923 6053.1,2457.7 6053.1,2457.7"
         style="fill:#eb201a;fill-opacity:1;fill-rule:nonzero;stroke:none"
         id="path48" />
      <g
         id="g50">
        <g
           id="g52"
           clip-path="url(#clipPath56)">
          <path
             d="m 11703.9,20794.3 h 4520.3 v 4791.1 h -4520.3 z"
             style="fill:#bc1a15;fill-opacity:1;fill-rule:nonzero;stroke:none"
             id="path58" />
        </g>
      </g>
      <path
         d="m 9580.01,21096.6 c -336.75,455.5 -409.77,1505 1636.09,3019.7 C 9170.43,22601.6 9243.3,21552.1 9580.01,21096.6 v 0 m 1636.19,3019.7 c 1.2,1 2.5,1.9 3.8,2.8 -1.3,-0.9 -2.6,-1.8 -3.8,-2.8"
         style="fill:#e9d5fe;fill-opacity:1;fill-rule:nonzero;stroke:none"
         id="path60" />
      <path
         d="m 9580.01,21096.6 c -336.71,455.5 -409.58,1505 1636.09,3019.7 h 0.1 c 1.2,1 2.5,1.9 3.8,2.8 v 0 c 2189.2,1619.6 4984.6,2254.4 5812.2,2414.4 -173.2,-190.5 -341.8,-383.3 -505,-577.6 -1202.6,-291.8 -3367.3,-957.6 -5136,-2266.3 -1557.44,-1152 -1889.36,-2035.3 -1811.19,-2593"
         style="fill:#f7aaa7;fill-opacity:1;fill-rule:nonzero;stroke:none"
         id="path62" />
      <path
         d="M 24327.3,11341.8 C 22471.2,8694.5 21276.9,9478.3 21104.1,9911.5 c -68.7,172.3 -106.1,1372.1 -125.8,2419.9 -16.4,862 -20.7,1621.5 -20.7,1621.5 l 5672.2,3502.7 c 0,0 -62.2,-483.7 -237.3,-1228 -293.1,-1247.7 -902.7,-3227.3 -2065.2,-4885.8"
         style="fill:#eb201a;fill-opacity:1;fill-rule:nonzero;stroke:none"
         id="path64" />
      <path
         d="m 20964.3,12356.8 c -11.9,630.9 -17.5,1206.8 -19.6,1470.3 4.6,1 9.2,2.1 13.7,3.2 1.9,-243.8 7.2,-821.4 19.1,-1461.4 -4.4,-4 -8.8,-8 -13.2,-12.1"
         style="fill:#a074ff;fill-opacity:1;fill-rule:nonzero;stroke:none"
         id="path66" />
      <path
         d="m 20977.5,12368.9 c -11.9,640 -17.2,1217.6 -19.1,1461.4 1474.8,345.2 3164.4,1288.3 4798.2,2683.7 279.3,238.5 555.1,488.5 826,748.5 -34.7,-210.8 -99.1,-563.4 -204,-1009.5 -500.6,-279.5 -2875.9,-1667.3 -4050.9,-3452.5 0,0 -66,10.2 -174.5,10.2 -257,0 -752.7,-57.1 -1175.7,-441.8"
         style="fill:#bc1a15;fill-opacity:1;fill-rule:nonzero;stroke:none"
         id="path68" />
      <path
         d="m 20610.1,13916.8 c 0,0 -263.9,-53.3 -626.7,-55 -54.9,-0.3 -112.1,0.6 -170.9,3.1 -108.3,4.4 -222.4,14.1 -338.7,31.3 -84.1,12.4 -169.2,28.8 -254.2,49.7 l -5296.4,5163.4 c -17.6,63.9 -32.6,128.2 -44.8,191.9 -47.1,238.5 -60.6,471.1 -59.7,666.8 0.2,11.7 0.3,23.2 0.4,34.7 l 0.1,0.1 c 3.9,293.1 39.5,495.4 39.5,495.4 684.2,4505.9 7067,10735 13012,11786.7 1394.2,246.6 2764.4,208.6 4031.5,-203.2 l 2.6,-0.9 c 164.3,-53.6 314.4,-137.6 444.1,-245.6 42.2,-35.4 82.5,-73.2 119.9,-113.9 103.4,-110.1 188.4,-238.2 250.1,-379.1 12.9,-29.3 24.6,-59.2 35.4,-89.6 444.9,-1256.8 518.3,-2626.2 307.1,-4027.2 -899.8,-5969.9 -6964.3,-12509.7 -11451.3,-13308.6"
         style="fill:#ffffff;fill-opacity:1;fill-rule:nonzero;stroke:none"
         id="path70" />
      <path
         d="m 27146.7,23202 c -798,0 -1658.2,344.3 -2343.7,1012.5 -377.1,367.6 -657.7,790.7 -837.1,1229.8 -212.5,520.5 -283.1,1063.5 -204.4,1563.3 34,-266 105.2,-534.8 212.6,-797.8 v 0 c 179.3,-439.1 459.9,-862.2 837,-1229.8 685.5,-668.2 1545.7,-1012.5 2343.7,-1012.5 636.1,0 1232.7,218.8 1669.3,666.8 229.3,235.2 394.2,512.7 496.9,815.3 l 0.1,-0.1 0.4,1.5 c 15,44.4 28.8,89.3 41,134.9 v 0 0 l 183,600 c 39.6,108.9 69.8,221.6 90.6,337.2 56.6,-383.2 25.1,-761.2 -98.3,-1101.2 l -183.4,-601.5 c -12.3,-45.6 -26,-90.5 -41.1,-134.9 l -0.3,-1.5 -0.2,0.1 c -102.7,-302.6 -267.5,-580.1 -496.8,-815.3 -436.6,-448 -1033.2,-666.8 -1669.3,-666.8"
         style="fill:#ffffff;fill-opacity:1;fill-rule:nonzero;stroke:none"
         id="path72" />
      <path
         d="m 20463.4,14175 c -134.6,-138 -296.4,-241.8 -480,-313.2 -228.8,-1.2 -497,18.1 -763.8,84.1 l -5296.4,5163.4 c -87.4,317.6 -107.7,639.7 -104.1,893.4 l 0.1,0.1 c 64.8,147.1 151.9,278.8 263,392.8 914.1,937.5 3083.6,305.2 4845.6,-1412.6 1761.9,-1717.7 2449.5,-3870.2 1535.6,-4808"
         style="fill:#eb201a;fill-opacity:1;fill-rule:nonzero;stroke:none"
         id="path74" />
      <path
         d="m 20265,17543.5 c -128.2,210.1 -271.2,418.9 -427.6,624.1 274.7,236.6 579.1,524.6 916.9,871.2 563.6,578.1 1062.7,1157.4 1474.9,1699.8 0.3,0.4 0.5,0.7 0.8,1 0.9,1.3 1.7,2.3 2.6,3.5 0.6,0.8 1.2,1.5 1.7,2.3 0.6,0.8 1.3,1.6 1.9,2.4 0.8,1.1 1.5,2 2.3,3 0.6,0.8 1.1,1.5 1.7,2.3 0.8,1.1 1.7,2.3 2.5,3.3 0.4,0.5 0.9,1.2 1.3,1.7 0.9,1.3 2,2.7 3,4 0.3,0.4 0.6,0.7 0.9,1.2 2.6,3.4 5.2,6.8 7.8,10.3 v 0.1 c 416.6,551.5 742.4,1064 954.2,1497.7 -5.5,-20.2 -709.3,-2580.2 -2944.9,-4727.9"
         style="fill:#ffffff;fill-opacity:1;fill-rule:nonzero;stroke:none"
         id="path76" />
      <path
         d="m 19577.5,16938.5 c -125.5,231.5 -262.1,452.2 -409.5,661.8 l 106.5,123.2 c 110.4,77.9 226.6,166.2 349.3,265.5 159.9,-210.5 305,-424.5 433.6,-639.7 -153.2,-139.4 -313,-276.6 -479.9,-410.8"
         style="fill:#dd1a15;fill-opacity:1;fill-rule:nonzero;stroke:none"
         id="path78" />
      <path
         d="m 32061.4,27225.4 -0.3,-0.1 c -174.9,1168 -782.8,2374 -1789.9,3355.7 -1007.2,981.9 -2228.4,1558.9 -3400.5,1703.9 1395.2,246.9 2766.4,208.6 4034.1,-204.1 396.1,-129.1 710.5,-435.5 849.5,-828.2 444.9,-1256.8 518.3,-2626.2 307.1,-4027.2"
         style="fill:#eb201a;fill-opacity:1;fill-rule:nonzero;stroke:none"
         id="path80" />
      <path
         d="m 20899.4,14624.4 c 159.9,449.9 143.9,1017.6 -53.4,1658.9 4323.1,1630.8 9362.4,7382.7 10137.1,12714.5 32.2,221.8 57,442.8 74.1,662.9 366.5,-520.3 640.1,-1074.2 816.9,-1632.8 -14.7,-145.2 -32.8,-291 -54,-436.9 -822,-5657.7 -6446.1,-11788.7 -10920.7,-12966.6"
         style="fill:#cdc6d0;fill-opacity:1;fill-rule:nonzero;stroke:none"
         id="path82" />
      <path
         d="m 19680,14446.5 c -6,0 -11.9,0 -17.9,0 -25.7,0.1 -51.9,0.5 -78.6,1.1 l 159.1,308 c 198.9,385.1 266.2,825 200.2,1245.5 211.2,51.6 425,114.5 640.9,188 203.1,-667.1 193.4,-1236.2 -22.6,-1644.8 -87.9,-18.3 -175.4,-34.7 -262.2,-49 0,0 -259.3,-48.8 -618.9,-48.8"
         style="fill:#be1e25;fill-opacity:1;fill-rule:nonzero;stroke:none"
         id="path84" />
      <path
         d="m 31874.1,28027.9 c -176.8,558.6 -450.4,1112.5 -816.9,1632.8 47.6,612.7 35.2,1217.4 -45.2,1806.9 172.3,-22 343.3,-49.8 512.7,-83.7 18.9,-33.7 36.3,-68.3 51.9,-103.9 327.8,-1031 411.2,-2129.3 297.5,-3252.1 m -805.9,3812.3 c -40.7,10.7 -81.5,21.1 -122.4,31.1 -2,10.4 -4,20.8 -6,31.2 44.1,-18.2 87,-39 128.4,-62.3"
         style="fill:#be1e25;fill-opacity:1;fill-rule:nonzero;stroke:none"
         id="path86" />
      <path
         d="m 14642,20884.5 c 1226.6,4416 7208.6,10037.2 12793,11041 191.3,34.4 382,63.3 572.2,86.7 373.2,-133.2 742.7,-308.9 1100.3,-526.4 -266.2,-26.3 -533.7,-63.9 -802.3,-112.2 -5333.6,-958.7 -11029.8,-6129.1 -12599.2,-10439 -154.8,23.3 -303.7,34.8 -446,34.8 -223.2,0 -430.2,-28.4 -618,-84.9 m 2464.9,4074.7 v 0 c -0.6,2.8 -1.3,4.3 -2.2,4.3 -0.2,0 -0.4,0 -0.7,-0.2 l 2.9,-4.1"
         style="fill:#fefefe;fill-opacity:1;fill-rule:nonzero;stroke:none"
         id="path88" />
      <path
         d="m 14435.5,19555 c 0,24.1 0.1,47.7 0.5,70.7 l 0.1,0.2 c 4.5,292.9 40.2,495.2 40.2,495.2 22,143.8 49.8,289.7 83.2,436.8 201,88.7 436.5,133.4 700.6,133.4 112.7,0 230.7,-8.1 353.3,-24.5 -81.6,-249.7 -148.7,-495.9 -200.5,-738 -251,-31.2 -497.9,-110.5 -728.4,-237.1 l -249,-136.7"
         style="fill:#f7aaa7;fill-opacity:1;fill-rule:nonzero;stroke:none"
         id="path90" />
      <path
         d="m 31012,31467.6 c -333.3,42.4 -671.6,63 -1013.5,63 -294.6,0 -591.8,-15.3 -891,-44.8 -357.6,217.5 -727.1,393.2 -1100.3,526.4 376.9,46.2 751.3,70.2 1121.3,70.2 620.3,0 1228.5,-67.5 1817.3,-211.1 25.8,-133.7 47.8,-268.4 66.2,-403.7"
         style="fill:#f7aaa7;fill-opacity:1;fill-rule:nonzero;stroke:none"
         id="path92" />
      <path
         d="m 31524.7,31383.9 c -169.4,33.9 -340.4,61.7 -512.7,83.7 -18.4,135.3 -40.4,270 -66.2,403.7 40.9,-10 81.7,-20.4 122.4,-31.1 190.5,-107 349.3,-265.6 456.5,-456.3"
         style="fill:#e6a9ab;fill-opacity:1;fill-rule:nonzero;stroke:none"
         id="path94" />
      <path
         d="m 18407.9,12509.8 1196.7,2317.1 c 262.7,508.5 279.6,1110.5 40.1,1630.4 -686.7,1490.4 -1777.9,2547.9 -3263.6,3182.8 -523.9,223.9 -1122.5,189.8 -1621.9,-84.5 l -2289.3,-1257.2 c -381.9,-209.7 -611.8,-622.9 -575.9,-1057.1 158.4,-1914.5 3554,-5224.6 5471.9,-5334.2 435,-24.8 842.1,215.6 1042,602.7"
         style="fill:#c0c9cc;fill-opacity:1;fill-rule:nonzero;stroke:none"
         id="path96" />
      <path
         d="m 17309.1,12831.8 176.9,632.3 c 0,0 -517.9,969.9 -593.9,1030.2 -76,60.2 619.2,600.4 619.2,600.4 l 1460.1,2243.3 c 199.4,-293.3 377,-608.7 532.2,-945.7 101.9,-221.1 152.9,-461.5 153.4,-702.4 l -1274.9,-2097.6 39.8,-482.1 -1112.8,-278.4"
         style="fill:#9aa1b1;fill-opacity:1;fill-rule:nonzero;stroke:none"
         id="path98" />
      <path
         d="m 14433.3,16935.7 -170.8,44 c 0,0 -911.6,431.2 -1050.5,431.2 -8,0 -13.4,-1.5 -16,-4.5 -1.4,-1.7 -2.5,-2.5 -3.4,-2.5 -29.3,0 192,845 192,845 l 165.2,82.3 2244.3,1294.4 c 180.3,-14 358.3,-56.6 526,-128.3 82.8,-35.4 164.3,-72.1 244.7,-110.3 l -1919.7,-1642.3 -211.8,-809"
         style="fill:#e6eaeb;fill-opacity:1;fill-rule:nonzero;stroke:none"
         id="path100" />
      <path
         d="m 28824.1,24634.3 c -984.4,-1009.9 -2781.2,-855.1 -4013,345.7 -377.1,367.6 -657.7,790.7 -837,1229.8 -406.4,995.1 -293.9,2072.4 389.2,2773.1 229.2,235.2 502.5,407 802.4,517.4 l -0.1,0.1 1.5,0.6 c 43.9,16 88.4,30.8 133.3,44.2 l 597.1,198.8 c 866.9,339.8 2002,77.6 2838.5,-737.8 836.5,-815.5 1127.5,-1943.5 809.9,-2818.8 l -183.4,-601.5 c -12.2,-45.6 -26,-90.5 -41,-134.9 l -0.4,-1.5 -0.1,0.1 c -102.7,-302.6 -267.6,-580.1 -496.9,-815.3"
         style="fill:#35bbef;fill-opacity:1;fill-rule:nonzero;stroke:none"
         id="path102" />
      <path
         d="m 27154.8,23967.5 c -798,0 -1658.2,344.3 -2343.7,1012.5 -377.1,367.6 -657.7,790.7 -837,1229.8 h 0.2 l 965,581.9 v 0 c 156.9,-347.9 387.2,-681.4 687.9,-974.6 410.5,-400.1 892.8,-667.1 1380.1,-795 234.7,-71.9 459.3,-101.6 669.9,-101.6 997.8,0 1685.3,665.4 1685.3,665.4 -12.2,-45.6 -26,-90.5 -41,-134.9 l -0.4,-1.5 -0.1,0.1 c -102.7,-302.6 -267.6,-580.1 -496.9,-815.3 -436.6,-448 -1033.2,-666.8 -1669.3,-666.8"
         style="fill:#2a96eb;fill-opacity:1;fill-rule:nonzero;stroke:none"
         id="path104" />
      <path
         d="m 29126.5,25515.7 c -858.5,-880.6 -2425.2,-745.7 -3499.3,301.4 -1074.1,1047.1 -1248.9,2609.9 -390.5,3490.5 858.5,880.7 2425.2,745.7 3499.4,-301.4 1074.1,-1047.1 1248.9,-2609.8 390.4,-3490.5"
         style="fill:#35bbef;fill-opacity:1;fill-rule:nonzero;stroke:none"
         id="path106" />
      <path
         d="m 28452.8,25890.4 c -650,-424.8 -1637.5,-265.1 -2342.5,422.2 -705.1,687.4 -890,1670.4 -481.8,2331 650,425 1637.5,265.2 2342.6,-422.1 705.1,-687.3 889.9,-1670.4 481.7,-2331.1"
         style="fill:#aee6ff;fill-opacity:1;fill-rule:nonzero;stroke:none"
         id="path108" />
      <path
         d="m 27624.1,25795.2 c -401.4,0 -833.7,148.5 -1208.9,436.8 -71.6,55.1 -141.1,115.3 -207.8,180.3 -187.6,182.9 -337.2,388.9 -445.8,604.2 -103.3,205.6 -170.2,422.7 -196.1,642.1 -30.7,260 -1.1,504.7 84.3,719.1 11.2,28.2 23.5,56 36.8,83.3 -19.1,-542.1 219.8,-1138.7 694.5,-1601.5 444.2,-432.9 1000.4,-656.6 1513.6,-656.6 206.4,0 405.7,36.2 588.1,109.4 -29.6,-113.1 -73.6,-221.3 -132.4,-322.1 -11.7,-7.2 -23.4,-14.2 -35.3,-21 -204.3,-116.7 -441.7,-174 -691,-174"
         style="fill:#90b3d0;fill-opacity:1;fill-rule:nonzero;stroke:none"
         id="path110" />
      <path
         d="m 26860.9,29154.8 c -378.7,0 -712.8,-131.5 -953.1,-378 -272.8,-279.8 -394.3,-677 -342.3,-1118.2 53.3,-452.2 281.3,-894.9 641.8,-1246.4 736.5,-717.7 1800.2,-825.1 2371.5,-239.1 571.2,585.9 436.8,1646.6 -299.6,2364.5 -360.6,351.5 -808.8,568.1 -1262.3,609.9 -52.7,4.9 -104.8,7.3 -156,7.3 m 763.7,-3636.4 c -549.5,0 -1141.4,236.2 -1611.6,694.5 -406.1,395.9 -663.2,897.7 -724,1413.1 -62,526.3 86.9,1004 419.5,1345.1 332.5,341.2 806.2,502.1 1334,453.6 516.7,-47.6 1024.9,-291.9 1431,-687.8 846.3,-825 982.9,-2062.3 304.6,-2758.2 -301.5,-309.2 -713.9,-460.3 -1153.5,-460.3"
         style="fill:#000072;fill-opacity:1;fill-rule:nonzero;stroke:none"
         id="path112" />
      <path
         d="m 28678.5,26076 c -69.2,-71 -144.8,-132.9 -225.7,-185.6 408.2,660.7 223.4,1643.8 -481.7,2331.1 -705.1,687.3 -1692.6,847.1 -2342.6,422.1 50.6,82.3 110.5,159.4 179.7,230.4 625.8,641.9 1775.6,536 2568.2,-236.7 792.7,-772.7 927.9,-1919.4 302.1,-2561.3"
         style="fill:#ffcf02;fill-opacity:1;fill-rule:nonzero;stroke:none"
         id="path114" />
      <path
         d="m 28678.5,26076 c -69.2,-71 -144.8,-132.9 -225.7,-185.6 408.2,660.7 223.4,1643.8 -481.7,2331.1 -705.1,687.3 -1692.6,847.1 -2342.6,422.1 50.6,82.3 110.5,159.4 179.7,230.4 625.8,641.9 1775.6,536 2568.2,-236.7 792.7,-772.7 927.9,-1919.4 302.1,-2561.3"
         style="fill:#35bbef;fill-opacity:1;fill-rule:nonzero;stroke:none"
         id="path116" />
      <path
         d="m 26456.4,29017.7 c 553.4,0 1145.3,-241.7 1611.8,-696.5 537.4,-523.8 796.3,-1221.2 726.9,-1842.7 116.9,235.6 161.2,514.1 126,812.8 -53.3,452.2 -281.3,894.8 -641.8,1246.3 -621.5,605.8 -1476,776.8 -2071,463.3 81.4,11.2 164.4,16.8 248.1,16.8 z m 1996.4,-3266.5 c -35.4,0 -70.5,13.5 -97.3,39.6 -46.6,45.6 -55.4,117.3 -21.1,172.8 381.9,618.1 188.3,1525.8 -460.4,2158.3 -648.9,632.4 -1561.1,802.9 -2169.4,405.2 -54.6,-35.6 -126.5,-28.6 -173.2,16.8 -46.7,45.4 -55.6,117.2 -21.4,172.7 56.2,91.4 123.1,177.1 198.5,254.5 678.4,695.9 1918.8,590.8 2765.1,-234.2 406.1,-395.9 663.2,-897.7 724,-1413 62,-526.3 -86.9,-1004 -419.5,-1345.1 -75.4,-77.4 -159.3,-146.4 -249.4,-205 -23.2,-15.2 -49.6,-22.6 -75.9,-22.6"
         style="fill:#371a45;fill-opacity:1;fill-rule:nonzero;stroke:none"
         id="path118" />
      <path
         d="m 28452.8,25890.4 h 0.4 -0.4 m -2721.9,2653.4 c -360.3,-617.3 -163,-1508.1 476.5,-2131.5 639.5,-623.4 1535,-797.9 2143,-422.1 360.3,617.4 163,1508.3 -476.5,2131.7 -639.5,623.3 -1535,797.9 -2143,421.9 m 1894,-3027.3 c -553.3,0 -1145.2,241.7 -1611.8,696.5 -741.3,722.7 -952.9,1775.6 -503,2503.8 10.7,17.4 25.1,32.2 42.2,43.3 716.4,468.3 1774.6,283.8 2515.9,-438.9 741.4,-722.7 952.9,-1775.8 503,-2503.9 -10.8,-17.4 -25.2,-32.2 -42.3,-43.4 -265.5,-173.6 -578.1,-257.4 -904,-257.4"
         style="fill:#371a45;fill-opacity:1;fill-rule:nonzero;stroke:none"
         id="path120" />
      <path
         d="m 27919.6,27052.3 c -176.6,0 -424.6,177.2 -676.3,422.6 -333.4,325 -547.1,646.4 -383.9,813.8 48.7,49.9 118.7,73.6 201.8,73.6 195.4,0 463.3,-130.9 697.2,-358.9 333.4,-325 471.3,-724.1 308.1,-891.5 -39.9,-41 -89.7,-59.6 -146.9,-59.6"
         style="fill:#e0f5fe;fill-opacity:1;fill-rule:nonzero;stroke:none"
         id="path122" />
      <path
         d="m 25936,29610.2 -591.6,-197 c -46.7,-14.1 -88.8,-28.1 -129.2,-42.9 -1.7,-0.6 -3.4,-1.2 -5.1,-1.8 -285.1,-105.1 -537.7,-267.9 -747.1,-482.8 -446.5,-458 -648.4,-1103.4 -568.6,-1817.2 81,-724.2 441.1,-1430.5 1013.9,-1988.9 572.8,-558.3 1288,-900.3 2014,-962.8 715.7,-61.6 1355.7,156.7 1802.2,614.7 209.5,214.9 365.8,471.5 464.7,762.8 l 0.2,0.6 0.5,1.4 c 13.6,40.2 26.6,82.9 38.4,126.1 l 184.5,605.6 c 0.7,2.3 1.5,4.6 2.3,6.9 307,846.1 -4.9,1919.8 -776.2,2671.7 -771.3,751.9 -1852.5,1036.4 -2690.5,707.8 -4.1,-1.6 -8.2,-3 -12.4,-4.2 z m 1222.7,-5782 c -85.7,0 -172.5,3.7 -260.2,11.2 -790,68 -1565.8,437.7 -2184.5,1040.9 -618.8,603.2 -1008.1,1369.3 -1096.2,2157.2 -89.3,798.3 140.1,1523.7 645.9,2042.6 238.6,244.7 525.9,430.1 853.8,550.8 47.3,17.4 94.8,33.2 142.9,47.6 l 592,197.3 c 937.2,364.1 2134.2,55.3 2980.8,-769.9 847.2,-825.9 1186.5,-2015.9 844.8,-2962.5 l -182.3,-598.1 c -12.1,-44.7 -26.8,-92.8 -42.4,-139 l -0.5,-1.5 c -112.3,-330.8 -290.3,-622.7 -528.9,-867.6 -450.4,-462 -1069.9,-709 -1765.2,-709"
         style="fill:#371a45;fill-opacity:1;fill-rule:nonzero;stroke:none"
         id="path124" />
      <path
         d="m 26690,29750 c -535.8,0 -1010.8,-188 -1353.6,-539.6 -385.5,-395.5 -559.9,-953.1 -490.8,-1570.2 70.1,-627.3 382.2,-1239.4 878.7,-1723.4 496.6,-484.1 1116.4,-780.4 1745.4,-834.6 618.8,-53.8 1171.6,135.2 1557.2,530.7 385.5,395.5 559.8,953.1 490.8,1570.2 -70.2,627.4 -382.3,1239.4 -878.8,1723.5 -496.5,484 -1116.3,780.4 -1745.3,834.5 -68.7,6 -136.6,8.9 -203.6,8.9 z m 984.3,-4955.1 c -75.3,0 -151.4,3.3 -228.5,10 -692.9,59.6 -1373.3,383.7 -1915.7,912.6 -542.5,528.8 -883.9,1200.6 -961.2,1891.8 -78.4,701.5 123.3,1339.1 568.2,1795.5 444.9,456.3 1077.3,674.3 1780.4,613.7 692.9,-59.7 1373.2,-383.8 1915.7,-912.6 542.5,-528.8 883.8,-1200.7 961.1,-1891.9 78.5,-701.4 -123.3,-1339.1 -568.1,-1795.4 -396.1,-406.3 -940.9,-623.7 -1551.9,-623.7"
         style="fill:#371a45;fill-opacity:1;fill-rule:nonzero;stroke:none"
         id="path126" />
      <path
         d="m 19966.3,13706 c -235.3,0 -509.5,21.3 -784,89.2 -83.2,20.7 -133.9,104.9 -113.3,188.1 20.6,83.3 104.7,133.8 188.1,113.4 647.9,-160.6 1315.5,-29 1322.2,-27.6 3065.5,545.8 7012.1,3903.1 9387.5,7983.5 1956.7,3361.1 2539.5,6610.1 1641.1,9148.2 -122.2,345.2 -403,619 -751.2,732.3 -2560.2,833.5 -5793.2,168 -9103.4,-1873.7 -4018.6,-2478.7 -7274.2,-6509.5 -7741.1,-9584.4 -1.7,-10.2 -115.6,-683.5 60.7,-1324.7 22.8,-82.6 -25.8,-168.1 -108.5,-190.8 -82.6,-22.9 -168.1,25.7 -190.9,108.5 -195.4,710.3 -73.1,1427 -67.8,1457.2 235.5,1550.6 1165.4,3392.9 2618.1,5184.2 1429.1,1762.3 3299.4,3401 5266.4,4614.3 3389.2,2090.4 6714.3,2766.9 9362.6,1904.7 439.4,-143 793.7,-488.4 947.9,-924 929.4,-2625.6 337.8,-5966.7 -1665.5,-9408.1 C 29072.4,19899 27481.9,17987.5 25756.6,16514 24003,15016.2 22184.9,14039.5 20637.3,13764 c -16.3,-3.3 -293.5,-58 -671,-58"
         style="fill:#371a45;fill-opacity:1;fill-rule:nonzero;stroke:none"
         id="path128" />
      <path
         d="m 15661,19630.8 c -285.4,0 -571.6,-71 -827,-211.2 l -2289.4,-1257.3 c -331.8,-182.2 -526.4,-538.7 -495.8,-908.2 151.9,-1835.8 3486.8,-5086.8 5326,-5192 369.9,-21.3 721.5,182.6 895.2,518.9 l 137.9,-71.3 -137.9,71.3 1196.7,2317.1 c 240,464.9 253.9,1023.4 36.9,1494.2 -664,1441.3 -1735.1,2486 -3183.5,3105 -208.9,89.3 -433.8,133.5 -659.1,133.5 m 1766.3,-7880.7 c -23.3,0 -46.7,0.7 -70.3,2 -1988.3,113.7 -5453.5,3491.6 -5617.8,5476.4 -40.6,491.5 216.8,964.8 655.9,1206 l 2289.4,1257.2 c 548.1,301.1 1188.7,334.3 1757.6,91.2 1521.4,-650.2 2646.3,-1747.2 3343.6,-3260.7 256.7,-556.9 240.5,-1217.4 -43.1,-1766.6 l -1196.7,-2317.1 c -218.9,-423.8 -652.6,-688.4 -1118.6,-688.4"
         style="fill:#371a45;fill-opacity:1;fill-rule:nonzero;stroke:none"
         id="path130" />
      <g
         id="g132">
        <g
           id="g134"
           clip-path="url(#clipPath138)">
          <path
             d="M 17255.5,13125.7 C 16870.6,10511.8 14879.5,8840 12340,8800.2 11107.8,8677.3 9704.03,8526.3 8174.37,7596.3 c -202.77,-123.2 -435.31,103.5 -317.24,309.3 890.65,1552.9 1005.84,2960 1097.35,4194.9 -25.04,2542.8 1599.32,4577.5 4208.02,5025.8 373.1,64.1 757,13.7 1100,-146.6 1070.5,-500.2 2291.6,-1710.2 2817.2,-2755.5 170.5,-339.1 231.1,-722.9 175.8,-1098.5"
             style="fill:url(#linearGradient146);fill-opacity:1;fill-rule:nonzero;stroke:none"
             id="path148" />
        </g>
      </g>
      <path
         d="m 18140.2,12032.3 c -35,0 -70.1,13.1 -97.1,39.5 -55.1,53.7 -56.2,141.7 -2.5,196.8 261.8,268.6 319,673.1 169.9,1202.3 -487.7,1731.7 -3031.3,4211.2 -4774.8,4654.6 -532.8,135.6 -935.7,68 -1197.5,-200.6 -53.7,-55 -141.8,-56.1 -196.8,-2.5 -55.1,53.7 -56.2,141.8 -2.6,196.9 331.5,340.1 838.3,435.6 1465.5,276 862.8,-219.4 1978,-935.5 2983.3,-1915.4 1005.3,-980 1749.5,-2076.7 1990.9,-2933.5 175.4,-622.9 92.9,-1132 -238.6,-1472.1 -27.3,-28 -63.5,-42 -99.7,-42"
         style="fill:#371a45;fill-opacity:1;fill-rule:nonzero;stroke:none"
         id="path150" />
      <path
         d="m 19983.5,13722.5 c -44.9,0 -89.1,21.8 -115.9,62 -42.7,64 -25.4,150.3 38.5,193 8.4,5.5 17.5,10.3 26.9,14 167.7,65.2 312.6,159.6 430.7,280.7 404.4,414.9 476.4,1115.2 202.8,1972 -283.2,886.8 -899.7,1824 -1735.9,2639.2 -836.1,815.1 -1788.8,1407.4 -2682.5,1668 -863.4,251.7 -1561.7,161.9 -1966.1,-253 -97.4,-99.9 -176.6,-218.2 -235.4,-351.7 -5.3,-11.9 -12.2,-23 -20.5,-33 -49.2,-59.1 -137,-67.1 -196.1,-17.9 -50.1,41.8 -63.5,111.4 -36.2,167.6 72.1,162.2 169.3,306.6 288.8,429.3 479.7,492 1276.5,607.8 2243.4,325.9 936.7,-273 1930.7,-889.5 2798.9,-1735.9 868.3,-846.4 1509.9,-1824.4 1806.8,-2753.8 306.4,-959.5 211,-1758.9 -268.7,-2251 -145.5,-149.2 -322.6,-265.2 -526.5,-344.9 -17.1,-7 -35.1,-10.5 -53,-10.5"
         style="fill:#371a45;fill-opacity:1;fill-rule:nonzero;stroke:none"
         id="path152" />
      <path
         d="m 9818.85,9633.9 -18.84,-14.3 c 2908.89,3525.7 876.09,7396.4 4876.79,7086.9 866.7,-441.4 1513.9,-1188.2 2102.3,-2016.8 411.3,-3991.7 -3510,-2058.1 -6960.25,-5055.8"
         style="fill:#ffcf02;fill-opacity:1;fill-rule:nonzero;stroke:none"
         id="path154" />
      <path
         d="m 20754.3,19038.8 c -1939.5,-1989.6 -2770.7,-2045.5 -3262,-1566.6 -491.3,478.9 -456.6,1311.3 1482.9,3300.9 1939.5,1989.5 3910,3214.2 4401.3,2735.2 491.3,-478.9 -682.7,-2480 -2622.2,-4469.5"
         style="fill:#eb201a;fill-opacity:1;fill-rule:nonzero;stroke:none"
         id="path156" />
      <path
         d="m 22229.2,20738.6 c 0.3,0.4 0.5,0.7 0.8,1 -0.3,-0.3 -0.5,-0.6 -0.8,-1 m 3.4,4.5 c 0.5,0.7 1.2,1.6 1.7,2.3 -0.5,-0.8 -1.1,-1.5 -1.7,-2.3 m 3.6,4.7 c 0.8,1.1 1.5,2 2.3,3 -0.8,-1 -1.5,-1.9 -2.3,-3 m 4,5.3 c 0.9,1.2 1.6,2.2 2.5,3.3 -0.8,-1 -1.7,-2.2 -2.5,-3.3 m 3.8,5 c 1,1.3 1.9,2.6 3,4 -1,-1.3 -2.1,-2.7 -3,-4 m 3.9,5.2 c 2.6,3.4 5.2,6.9 7.8,10.3 -2.6,-3.5 -5.2,-6.9 -7.8,-10.3"
         style="fill:#ffffff;fill-opacity:1;fill-rule:nonzero;stroke:none"
         id="path158" />
      <path
         d="m 23209.9,22271.4 c 0,0 0,0 0,0.1 69.6,142.4 126.8,276.4 171,400.4 v 0 c -44.2,-124.1 -101.4,-258 -171,-400.5"
         style="fill:#ffffff;fill-opacity:1;fill-rule:nonzero;stroke:none"
         id="path160" />
      <path
         d="m 22255.7,20773.7 c 416.6,551.5 742.4,1064.1 954.2,1497.8 0,-0.1 0,-0.1 0,-0.1 -211.8,-433.7 -537.6,-946.2 -954.2,-1497.7"
         style="fill:#ffffff;fill-opacity:1;fill-rule:nonzero;stroke:none"
         id="path162" />
      <path
         d="m 18085.6,17222.6 c -248.1,0 -437.7,98 -593.3,249.6 -162.2,158.2 -267.3,355.1 -264.9,619.7 27.2,70.5 60,144.5 98.7,222.2 45.1,-88.3 106,-166.3 178.2,-236.7 155.6,-151.7 345.2,-249.7 593.4,-249.7 535.5,0 1343.3,456.5 2668.8,1816.1 1206.1,1237.4 2116.2,2479.2 2513.7,3356.6 71,-76.5 103.3,-187.7 100.7,-328.5 -44.2,-124 -101.4,-258 -171,-400.4 -211.8,-433.7 -537.6,-946.3 -954.2,-1497.8 v -0.1 c -2.6,-3.4 -5.2,-6.9 -7.8,-10.3 -0.3,-0.4 -0.6,-0.8 -0.9,-1.2 -1.1,-1.4 -2,-2.7 -3,-4 -0.5,-0.6 -0.9,-1.1 -1.3,-1.7 -0.9,-1.1 -1.6,-2.1 -2.5,-3.3 -0.6,-0.7 -1.2,-1.5 -1.7,-2.3 -0.8,-1 -1.5,-1.9 -2.3,-3 -0.6,-0.7 -1.3,-1.7 -1.9,-2.4 -0.5,-0.7 -1.2,-1.6 -1.7,-2.3 -0.9,-1.1 -1.7,-2.3 -2.6,-3.5 -0.3,-0.3 -0.5,-0.6 -0.8,-1 -412.3,-542.5 -911.3,-1121.6 -1475,-1699.9 -1325.3,-1359.5 -2133.1,-1816.1 -2668.6,-1816.1"
         style="fill:#bc1a15;fill-opacity:1;fill-rule:nonzero;stroke:none"
         id="path164" />
      <path
         d="m 23380.8,22671.9 c 0.1,0 0.1,0 0.1,0 7.4,20.9 14.5,41.6 21.2,62 0,0.1 0,0.1 0.1,0.2 0.3,1.1 0.6,2.1 1,3.2 0.1,0.2 0.1,0.4 0.2,0.6 0.3,0.8 0.6,1.7 0.8,2.5 0.2,0.5 0.3,0.8 0.4,1.3 0.2,0.6 0.4,1.3 0.7,1.9 0.2,0.6 0.3,1.2 0.5,1.8 0.2,0.4 0.3,0.8 0.4,1.3 0.3,0.7 0.6,1.6 0.8,2.3 0,0.2 0.1,0.4 0.2,0.5 18.4,57.3 33.8,112.4 46,164.8 -17.7,-75.7 -41.9,-156.7 -72.4,-242.4 m 72.4,242.4 c 0.5,2.1 1,4.2 1.5,6.4 -0.5,-2.1 -1,-4.3 -1.5,-6.4 m 1.6,6.8 c 0.2,1.1 0.4,2 0.6,3 -0.2,-1 -0.4,-2 -0.6,-3 m 0.7,3.4 c 0.2,0.8 0.4,1.5 0.6,2.3 -0.2,-0.8 -0.4,-1.5 -0.6,-2.3 m 0.8,3.3 c 0.2,0.8 0.4,1.6 0.5,2.5 -0.1,-0.9 -0.3,-1.7 -0.5,-2.5 m 0.8,3.6 c 0.1,0.6 0.2,1.1 0.4,1.7 -0.2,-0.6 -0.3,-1.2 -0.4,-1.7 m 0.8,3.8 c 0.1,0.3 0.2,0.8 0.3,1.1 -0.1,-0.4 -0.2,-0.7 -0.3,-1.1 m 0.7,2.8 c 0,0.1 0,0.1 0,0.2 0,-0.1 0,-0.1 0,-0.2 m 0.8,3.9 c 0,0.1 0,0.2 0.1,0.3 -0.1,-0.1 -0.1,-0.2 -0.1,-0.3"
         style="fill:#fefefe;fill-opacity:1;fill-rule:nonzero;stroke:none"
         id="path166" />
      <path
         d="m 17227.4,18091.8 c 4.7,535.7 449.2,1349 1747.8,2681.2 1655.4,1698.2 3333.4,2839 4094.9,2839 130.7,0 234.4,-33.6 306.4,-103.7 114.9,-112 138.7,-307.2 83,-566.1 -0.1,-0.1 -0.1,-0.2 -0.1,-0.3 -0.3,-1.3 -0.5,-2.5 -0.8,-3.7 0,-0.1 0,-0.1 0,-0.2 -0.2,-0.5 -0.3,-1.1 -0.4,-1.7 -0.1,-0.3 -0.2,-0.8 -0.3,-1.1 -0.1,-0.7 -0.3,-1.4 -0.4,-2.1 -0.2,-0.6 -0.3,-1.1 -0.4,-1.7 -0.1,-0.4 -0.2,-0.8 -0.3,-1.1 -0.1,-0.9 -0.3,-1.7 -0.5,-2.5 -0.1,-0.3 -0.2,-0.6 -0.2,-1 -0.2,-0.8 -0.4,-1.5 -0.6,-2.3 0,-0.1 0,-0.3 -0.1,-0.4 -0.2,-1 -0.4,-1.9 -0.6,-3 -0.1,-0.1 -0.1,-0.3 -0.1,-0.4 -0.5,-2.2 -1,-4.3 -1.5,-6.4 v 0 c -12.2,-52.4 -27.6,-107.5 -46,-164.8 93.6,291.5 108.4,522.3 32.3,672.2 -36.9,-128.3 -90.4,-269.3 -159.3,-421.3 -3.5,3.8 -7.2,7.5 -10.9,11.1 -71.9,70.2 -175.7,103.8 -306.3,103.8 -761.5,0 -2439.5,-1140.9 -4095,-2839.1 -819.1,-840.2 -1298.5,-1474.1 -1541.9,-1962.1 -18.1,35.5 -33.7,72.6 -46.4,111.6 -34.9,-122.2 -51.4,-232.9 -52.3,-333.8 0,-0.1 0,-0.1 0,-0.1 m 6174.7,4642.1 c 0,0 0,0.2 0.1,0.2 -0.1,-0.1 -0.1,-0.1 -0.1,-0.2 m 1.1,3.4 c 0.1,0.2 0.1,0.4 0.2,0.6 -0.1,-0.2 -0.1,-0.4 -0.2,-0.6 m 1,3.1 c 0.2,0.5 0.3,0.9 0.4,1.3 -0.1,-0.5 -0.2,-0.8 -0.4,-1.3 m 1.1,3.2 c 0.2,0.7 0.3,1.1 0.5,1.8 -0.2,-0.6 -0.3,-1.2 -0.5,-1.8 m 0.9,3.1 c 0.3,0.8 0.5,1.5 0.8,2.3 -0.2,-0.7 -0.5,-1.6 -0.8,-2.3"
         style="fill:#f7aaa7;fill-opacity:1;fill-rule:nonzero;stroke:none"
         id="path168" />
      <path
         d="m 23380.9,22671.9 v 0 c 7.4,20.9 14.5,41.6 21.2,62 -6.7,-20.4 -13.8,-41.1 -21.2,-62 m 21.3,62.2 c 0.3,1 0.7,2.2 1,3.2 -0.4,-1.1 -0.7,-2.1 -1,-3.2 m 1.2,3.8 c 0.3,0.8 0.5,1.7 0.8,2.5 -0.2,-0.8 -0.5,-1.7 -0.8,-2.5 m 1.2,3.8 c 0.2,0.6 0.5,1.3 0.7,1.9 -0.3,-0.6 -0.5,-1.3 -0.7,-1.9 m 1.2,3.7 c 0.2,0.4 0.3,0.8 0.4,1.3 -0.1,-0.5 -0.2,-0.9 -0.4,-1.3 m 1.2,3.6 c 0.1,0.2 0.1,0.3 0.2,0.5 -0.1,-0.1 -0.2,-0.3 -0.2,-0.5"
         style="fill:#fefefe;fill-opacity:1;fill-rule:nonzero;stroke:none"
         id="path170" />
      <path
         d="m 17227.4,18091.9 c 0.9,100.9 17.4,211.6 52.3,333.8 12.7,-39 28.3,-76.1 46.4,-111.6 -38.7,-77.7 -71.5,-151.7 -98.7,-222.2 m 6153.5,4580 c 2.6,140.8 -29.7,252 -100.7,328.5 68.9,152 122.4,293 159.3,421.3 76.1,-149.9 61.3,-380.7 -32.3,-672.2 -0.1,-0.2 -0.1,-0.3 -0.2,-0.5 -0.3,-0.8 -0.5,-1.5 -0.8,-2.3 -0.1,-0.5 -0.2,-0.9 -0.4,-1.3 -0.2,-0.7 -0.3,-1.1 -0.5,-1.8 -0.2,-0.6 -0.5,-1.3 -0.7,-1.9 -0.1,-0.4 -0.2,-0.8 -0.4,-1.3 -0.3,-0.8 -0.5,-1.7 -0.8,-2.5 -0.1,-0.2 -0.1,-0.4 -0.2,-0.6 -0.3,-1 -0.7,-2.2 -1,-3.2 -0.1,0 -0.1,-0.2 -0.1,-0.2 -6.7,-20.4 -13.8,-41.1 -21.2,-62"
         style="fill:#e5a7a5;fill-opacity:1;fill-rule:nonzero;stroke:none"
         id="path172" />
      <path
         d="m 23075,23472.8 c -598.8,0 -2165.4,-914.8 -4000.1,-2796.9 -2039.5,-2092 -1824.5,-2773.5 -1485.4,-3104 339,-330.5 1025.7,-528 3065.1,1564 930.4,954.4 1712.5,1939.8 2202.3,2774.6 525.6,895.9 562.9,1361.3 422.5,1498.2 -43.8,42.6 -112.8,64.1 -204.4,64.1 z m -4994.1,-6387.3 c -263.8,0 -490.3,96.6 -685.7,287 -684.2,667 -227.6,1745.7 1480.3,3497.7 1749.6,1794.7 3955.8,3364 4598.2,2737.8 369,-359.8 -1.2,-1198.3 -376.7,-1838.4 -500.8,-853.6 -1297.4,-1858 -2243,-2828 -1220.1,-1251.6 -2113.1,-1856.1 -2773.1,-1856.1"
         style="fill:#371a45;fill-opacity:1;fill-rule:nonzero;stroke:none"
         id="path174" />
      <path
         d="m 17255.5,13125.7 h 0.5 z m -3774.7,3872.6 c -97.1,0 -194.7,-8.3 -292,-25 C 10686,16543.2 9084.84,14631.1 9109.77,12102 c 0.04,-4.3 -0.1,-8.6 -0.42,-13 -87.69,-1183 -196.83,-2655.4 -1117.53,-4260.7 -24.93,-43.5 -3.17,-74.8 12.01,-89.6 15.16,-14.7 47.07,-35.6 89.87,-9.7 1581.28,961.4 3050.4,1107.9 4230.9,1225.7 4.3,0.5 8.6,0.7 12.9,0.8 2525,39.5 4395.1,1685.3 4764.4,4192.8 51.1,347.2 -4.6,695.1 -161,1006.2 -516.8,1027.8 -1722.2,2207 -2744.2,2684.6 -225.8,105.5 -469.1,159.2 -715.9,159.2 z m -5427.21,-9592 c -96.75,0 -192.02,37.4 -266.55,110.1 -127.42,124.2 -153.4,311.7 -64.6,466.4 883.93,1541.2 991.43,2972.2 1076.73,4122.7 -11.35,1293.2 386.91,2466.1 1151.95,3392.2 777.38,941.1 1878.78,1557.2 3185.08,1781.6 407.4,70.1 819.7,15.1 1192,-158.9 1094.7,-511.5 2337.2,-1726.6 2890.2,-2826.4 185.2,-368.4 251.2,-780.3 190.7,-1190.9 C 17216.3,11794 16627.9,10679.7 15707.5,9880.4 14801.6,9093.8 13640.3,8666.7 12349,8645 11200.9,8530.5 9773.14,8386.6 8255.03,7463.6 c -63.31,-38.4 -132.76,-57.3 -201.44,-57.3"
         style="fill:#371a45;fill-opacity:1;fill-rule:nonzero;stroke:none"
         id="path176" />
      <path
         d="m 15034.2,16379.3 c -27.7,0 -55.7,8.3 -80.1,25.5 -1080.1,762.4 -1677.1,933.1 -1875.9,839.2 -23.9,-11.4 -87.6,-41.6 -98.2,-191.9 -5.4,-76.7 -72,-134.2 -148.7,-129 -76.6,5.4 -134.4,71.9 -129,148.6 18.3,258.3 149.7,373 256.6,423.8 370.2,175.5 1095.4,-114.9 2155.7,-863.2 62.8,-44.4 77.8,-131.3 33.4,-194 -27.1,-38.4 -70.1,-59 -113.8,-59"
         style="fill:#371a45;fill-opacity:1;fill-rule:nonzero;stroke:none"
         id="path178" />
      <path
         d="m 17201.5,12671.9 c -70.9,0 -131.5,54 -138.4,125.9 -7.3,76.5 48.7,144.5 125.2,151.9 150,14.4 178.5,78.8 189.3,103.1 89.1,200.9 -97,793.5 -886.7,1853.8 -45.9,61.7 -33.1,148.9 28.5,194.8 61.6,45.9 148.9,33.2 194.8,-28.5 775.1,-1040.8 1083.9,-1758.5 917.9,-2133 -48,-108.2 -159.3,-242.5 -417.1,-267.3 -4.5,-0.4 -9,-0.7 -13.5,-0.7"
         style="fill:#371a45;fill-opacity:1;fill-rule:nonzero;stroke:none"
         id="path180" />
      <path
         d="m 32061,27086.2 c -67.8,0 -127.2,49.5 -137.5,118.6 -177.6,1186.2 -798.9,2349.9 -1749.5,3276.5 -950.8,926.8 -2129.9,1518.3 -3320.3,1665.4 -35.1,4.4 -67.2,21.9 -89.9,49 -49.2,59.1 -41.3,146.9 17.8,196.1 32.2,27 73.1,36.8 111.5,30.5 1248.6,-155.6 2482.6,-774 3475.2,-1741.7 993.9,-968.8 1644,-2188.6 1830.5,-3434.6 11.4,-76.1 -41,-146.9 -117,-158.3 -7,-1 -14,-1.5 -20.8,-1.5"
         style="fill:#371a45;fill-opacity:1;fill-rule:nonzero;stroke:none"
         id="path182" />
      <path
         d="m 11731,20638.3 c -896.5,0 -1750.02,16.7 -1912.64,76.8 -236.94,87.6 -502.93,364.8 -563.01,786.8 -79.76,560.1 180.32,1490.5 1872.25,2742.2 2600,1923.4 6086.8,2480.7 6121.7,2486.2 84.6,12.8 164,-45 177.2,-129.7 13.1,-84.8 -44.9,-164.1 -129.7,-177.3 -34.2,-5.3 -3447.4,-552 -5984.4,-2428.9 -1651.71,-1221.9 -1805.15,-2058.7 -1749.61,-2448.7 44.68,-313.7 241.7,-494.4 363.24,-539.3 204.67,-69.3 2206.97,-69.3 3986.87,-34.1 85.4,1.9 156.6,-66.4 158.3,-152.1 1.7,-85.8 -66.4,-156.6 -152.2,-158.3 -316.5,-6.3 -1274.6,-23.6 -2188,-23.6"
         style="fill:#371a45;fill-opacity:1;fill-rule:nonzero;stroke:none"
         id="path184" />
      <path
         d="m 9871.63,20721.8 c -38.74,0 -77.25,16.2 -104.66,47.8 -8.3,9.6 -202.74,238.2 -153.79,540 36.77,226.6 195.68,424.6 472.42,588.8 736.9,437.1 4127.3,464.6 4271.3,465.5 h 0.9 c 76.5,0 138.7,-61.7 139.2,-138.2 0.5,-76.9 -61.4,-139.6 -138.3,-140.1 -959.7,-6.4 -3572.9,-95.5 -4131.1,-426.7 -201.2,-119.3 -315.34,-251 -339.22,-391.3 -29.32,-172.4 88.5,-315.1 89.7,-316.5 49.12,-58.6 42.22,-146.2 -15.95,-195.8 -26.29,-22.5 -58.49,-33.5 -90.5,-33.5"
         style="fill:#371a45;fill-opacity:1;fill-rule:nonzero;stroke:none"
         id="path186" />
      <path
         d="m 21908.1,9302.7 c -51.6,0 -100.7,3 -147.3,8.5 -423.4,49.3 -707.3,308.1 -800.9,542.7 -129.7,325.2 -154.1,3470.7 -157.7,4098 -0.5,85.8 68.6,155.7 154.4,156.2 h 0.9 c 85.3,0 154.8,-69 155.2,-154.4 10.2,-1780.2 61.3,-3781.9 135.8,-3985.1 47.9,-120 233.5,-312.3 548.2,-349 391.6,-45.2 1224,129.1 2403.4,1811.4 1811.6,2584.1 2271.2,6010.1 2275.6,6044.5 11,85 88.7,145.4 173.9,134.1 85,-11 145.1,-88.8 134.1,-173.8 -4.5,-35.1 -472.8,-3534.9 -2329.3,-6183.1 -1107.9,-1580.3 -1976.4,-1950 -2546.3,-1950"
         style="fill:#371a45;fill-opacity:1;fill-rule:nonzero;stroke:none"
         id="path188" />
      <path
         d="m 21445.9,9653.4 c -243.9,0 -421.6,143.5 -430.2,150.5 -59.3,48.9 -67.9,136.6 -19,195.9 48.6,59.2 135.7,67.9 195.1,19.8 4.1,-3.3 148.8,-115.1 318.6,-81.6 139.7,27.5 268.5,144.9 382.6,349.1 316.8,566.4 339.3,3181 321.2,4140.6 -1.4,76.9 59.7,140.3 136.6,141.8 h 2.6 c 75.7,0 137.7,-60.6 139.1,-136.5 2.7,-144 61.7,-3534 -356.5,-4281.8 -157,-280.8 -351,-444.7 -576.5,-487.2 -39.1,-7.4 -77.1,-10.6 -113.6,-10.6"
         style="fill:#371a45;fill-opacity:1;fill-rule:nonzero;stroke:none"
         id="path190" />
      <path
         d="m 17106.9,24959.2 -2.9,4.1 c 0.3,0.2 0.5,0.2 0.7,0.2 0.9,0 1.6,-1.5 2.2,-4.3"
         style="fill:#cbcbfe;fill-opacity:1;fill-rule:nonzero;stroke:none"
         id="path192" />
    </g>
  </g>
</svg>
